<?xml version="1.0" encoding="UTF-8" standalone="no"?>
<svg
   xmlns:dc="http://purl.org/dc/elements/1.1/"
   xmlns:cc="http://creativecommons.org/ns#"
   xmlns:rdf="http://www.w3.org/1999/02/22-rdf-syntax-ns#"
   xmlns:svg="http://www.w3.org/2000/svg"
   xmlns="http://www.w3.org/2000/svg"
   xmlns:sodipodi="http://sodipodi.sourceforge.net/DTD/sodipodi-0.dtd"
   xmlns:inkscape="http://www.inkscape.org/namespaces/inkscape"
   height="159.97726"
   version="1.1"
   width="1080.7747"
   id="svg4136"
   inkscape:version="0.91 r13725"
   sodipodi:docname="numberline_mod.svg">
  <metadata
     id="metadata4176">
    <rdf:RDF>
      <cc:Work
         rdf:about="">
        <dc:format>image/svg+xml</dc:format>
        <dc:type
           rdf:resource="http://purl.org/dc/dcmitype/StillImage" />
        <dc:title></dc:title>
      </cc:Work>
    </rdf:RDF>
  </metadata>
  <defs
     id="defs4174" />
  <sodipodi:namedview
     pagecolor="#000000"
     bordercolor="#666666"
     borderopacity="1"
     objecttolerance="10"
     gridtolerance="10"
     guidetolerance="10"
     inkscape:pageopacity="0"
     inkscape:pageshadow="2"
     inkscape:window-width="1920"
     inkscape:window-height="1017"
     id="namedview4172"
     showgrid="false"
     fit-margin-top="0"
     fit-margin-left="0"
     fit-margin-right="0"
     fit-margin-bottom="0"
     inkscape:zoom="0.765625"
     inkscape:cx="375.59172"
     inkscape:cy="72.70852"
     inkscape:window-x="-8"
     inkscape:window-y="-8"
     inkscape:window-maximized="1"
     inkscape:current-layer="svg4136" />
  <g
     inkscape:groupmode="layer"
     id="layer1"
     inkscape:label="lines" />
  <g
     id="g4283"
     transform="translate(138.55538,-190.01134)"
     style="stroke:#ffffff;stroke-opacity:1">
    <path
       style="fill:none;stroke:#ffffff;stroke-width:3;stroke-linecap:butt;stroke-linejoin:round;stroke-opacity:1"
       inkscape:connector-curvature="0"
       id="path4140"
       d="m 892.843,206.997 -5.568,-0.393 -5.535,0.37 -5.18,1.07 -4.8,1.704 -4.396,2.276 -3.968,2.785 -3.517,3.229 -3.041,3.61 -2.542,3.928 -2.019,4.182 -1.471,4.372 -0.901,4.499 -0.305,4.563 0.314,4.933 0.917,4.719 1.48,4.463 2.005,4.166 2.491,3.83 2.936,3.452 3.345,3.033 3.713,2.573 4.042,2.072 4.334,1.531 4.584,0.948 4.797,0.326 1.644,-0.041 1.665,-0.122 1.678,-0.2 1.682,-0.275 1.676,-0.348 1.663,-0.418 1.64,-0.486 1.609,-0.552 1.568,-0.615 1.519,-0.675 1.462,-0.733 1.394,-0.788 -1.066,3.925 -1.473,3.975 -1.87,4.007 -2.259,4.019 -2.639,4.015 -3.009,3.991 -3.373,3.95 -3.725,3.89 -4.07,3.812 -4.407,3.716 -4.733,3.601 -5.051,3.469 6.402,7.682 4.466,5.359 7.065,-4.765 6.674,-5.374 6.242,-5.911 5.766,-6.377 5.249,-6.771 4.687,-7.096 4.083,-7.349 3.437,-7.53 2.748,-7.641 2.015,-7.681 1.241,-7.649 0.423,-7.546 -0.337,-6.329 -0.99,-6.006 -1.605,-5.64 -2.187,-5.23 -2.732,-4.778 -3.243,-4.281 -3.719,-3.742 -4.159,-3.159 -4.564,-2.533 -4.934,-1.862 -5.268,-1.149" />
    <path
       style="fill:none;stroke:#ffffff;stroke-width:3;stroke-linecap:butt;stroke-linejoin:round;stroke-opacity:1"
       inkscape:connector-curvature="0"
       id="path4142"
       d="m 884.765,223.616 2.873,-0.167 2.803,0.21 2.689,0.61 2.548,0.98 2.385,1.32 2.196,1.628 1.983,1.909 1.745,2.157 1.482,2.376 1.196,2.565 0.885,2.723 0.549,2.852 0.188,2.949 -0.001,0.76 -0.003,0.746 -0.01,0.739 -0.02,0.741 -0.032,0.751 -0.047,0.769 -0.067,0.796 -0.089,0.83 -0.113,0.873 -0.142,0.924 -0.174,0.983 -0.208,1.051 -1.682,1.121 -1.689,1.01 -1.689,0.903 -1.682,0.796 -1.667,0.694 -1.644,0.593 -1.614,0.494 -1.576,0.399 -1.531,0.307 -1.477,0.215 -1.418,0.128 -1.35,0.041 -2.848,-0.177 -2.733,-0.516 -2.592,-0.832 -2.426,-1.124 -2.235,-1.394 -2.019,-1.64 -1.776,-1.862 -1.511,-2.061 -1.218,-2.238 -0.902,-2.39 -0.559,-2.52 -0.192,-2.627 0.174,-2.782 0.511,-2.629 0.829,-2.459 1.129,-2.273 1.411,-2.069 1.674,-1.848 1.92,-1.61 2.146,-1.356 2.356,-1.084 2.546,-0.795 2.718,-0.49" />
  </g>
  <g
     id="g4198"
     transform="translate(120.79239,-190.01137)"
     style="stroke:#ffffff;stroke-opacity:1">
    <path
       id="path4144"
       d="m 804.156,206.919 -5.092,-0.315 -5.273,0.311 -5.015,0.91 -4.72,1.473 -4.386,2.002 -4.014,2.495 -3.603,2.952 -3.154,3.375 -2.667,3.763 -2.141,4.115 -1.576,4.432 -0.974,4.713 -0.333,4.961 0.112,2.602 0.333,2.552 0.548,2.496 0.757,2.433 0.962,2.365 1.159,2.291 1.352,2.213 1.539,2.127 1.72,2.037 1.895,1.94 2.065,1.839 2.229,1.731 -2.819,1.778 -2.57,1.893 -2.323,2.012 -2.076,2.133 -1.829,2.255 -1.583,2.382 -1.338,2.51 -1.093,2.64 -0.849,2.774 -0.606,2.91 -0.363,3.049 -0.121,3.189 0.356,4.838 1.036,4.62 1.676,4.361 2.272,4.066 2.826,3.73 3.336,3.358 3.804,2.947 4.23,2.496 4.612,2.009 4.951,1.482 5.248,0.918 5.502,0.314 5.412,-0.311 5.16,-0.907 4.864,-1.468 4.529,-1.99 4.152,-2.475 3.733,-2.924 3.272,-3.336 2.77,-3.709 2.227,-4.047 1.642,-4.346 1.016,-4.61 0.348,-4.835 -0.121,-3.096 -0.361,-3.029 -0.602,-2.949 -0.841,-2.854 -1.081,-2.746 -1.319,-2.624 -1.556,-2.489 -1.794,-2.338 -2.03,-2.175 -2.266,-1.998 -2.501,-1.806 -2.736,-1.602 2.51,-1.786 2.279,-1.908 2.049,-2.014 1.823,-2.107 1.599,-2.185 1.378,-2.249 1.159,-2.298 0.943,-2.332 0.728,-2.352 0.518,-2.358 0.308,-2.349 0.103,-2.326 -0.319,-5.005 -0.932,-4.759 -1.509,-4.475 -2.05,-4.156 -2.557,-3.802 -3.026,-3.411 -3.46,-2.984 -3.858,-2.523 -4.22,-2.024 -4.547,-1.49 -4.838,-0.92"
       inkscape:connector-curvature="0"
       style="fill:none;stroke:#ffffff;stroke-width:3;stroke-linecap:butt;stroke-linejoin:round;stroke-opacity:1" />
    <path
       id="path4146"
       d="m 795.84,223.598 2.862,-0.149 2.695,0.163 2.55,0.477 2.388,0.772 2.208,1.05 2.013,1.309 1.799,1.55 1.569,1.772 1.321,1.977 1.058,2.163 0.776,2.331 0.478,2.481 0.164,2.612 -0.178,2.456 -0.516,2.371 -0.832,2.262 -1.124,2.128 -1.394,1.97 -1.639,1.786 -1.862,1.579 -2.062,1.347 -2.238,1.09 -2.39,0.809 -2.52,0.504 -2.626,0.173 -2.589,-0.177 -2.495,-0.514 -2.377,-0.826 -2.233,-1.113 -2.065,-1.374 -1.872,-1.611 -1.652,-1.822 -1.408,-2.009 -1.14,-2.169 -0.844,-2.305 -0.526,-2.416 -0.181,-2.502 0.164,-2.681 0.481,-2.51 0.785,-2.328 1.073,-2.134 1.347,-1.928 1.607,-1.709 1.852,-1.479 2.084,-1.237 2.299,-0.983 2.501,-0.717 2.689,-0.439"
       inkscape:connector-curvature="0"
       style="fill:none;stroke:#ffffff;stroke-width:3;stroke-linecap:butt;stroke-linejoin:round;stroke-opacity:1" />
    <path
       id="path4148"
       d="m 794.908,277.59 3.25,-0.164 3.046,0.171 2.877,0.499 2.69,0.808 2.483,1.099 2.26,1.37 2.018,1.623 1.757,1.857 1.479,2.073 1.182,2.268 0.867,2.446 0.533,2.605 0.182,2.744 -0.154,2.553 -0.462,2.481 -0.768,2.378 -1.071,2.248 -1.374,2.09 -1.673,1.903 -1.971,1.687 -2.268,1.445 -2.562,1.172 -2.854,0.873 -3.145,0.544 -3.434,0.188 -3.091,-0.167 -2.921,-0.49 -2.733,-0.795 -2.525,-1.084 -2.299,-1.356 -2.053,-1.61 -1.79,-1.848 -1.506,-2.069 -1.204,-2.273 -0.884,-2.459 -0.544,-2.629 -0.186,-2.782 0.179,-2.82 0.527,-2.655 0.862,-2.472 1.183,-2.277 1.489,-2.066 1.783,-1.839 2.062,-1.597 2.327,-1.341 2.579,-1.069 2.816,-0.783 3.041,-0.48"
       inkscape:connector-curvature="0"
       style="fill:none;stroke:#ffffff;stroke-width:3;stroke-linecap:butt;stroke-linejoin:round;stroke-opacity:1" />
  </g>
  <path
     d="m 850.53577,17.407657 -10,0 -10,0 -10,0 -10,0 -10,0 -10,0 -10,0 -9.879,0 0,10 0,6.845 10,0 10,0 10,0 10,0 10,0 3.434,0 -4.077,9.132 -4.076,9.131 -4.077,9.131 -4.076,9.132 -4.077,9.131 -4.076,9.132 -4.077,9.131 -4.076,9.131003 -4.077,9.132 -4.076,9.131 -4.518,10.12 9.164,4.003 6.594,2.88 4.082,-9.129 4.082,-9.128 4.083,-9.129 4.082,-9.129 4.082,-9.129003 4.082,-9.129 4.083,-9.129 4.082,-9.128 4.082,-9.129 4.082,-9.129 4.082,-9.129 4.083,-9.129 4.082,-9.129 2.901,-6.487"
     id="path4150"
     inkscape:connector-curvature="0"
     style="fill:none;stroke:#ffffff;stroke-width:3;stroke-linecap:butt;stroke-linejoin:round;stroke-opacity:1" />
  <g
     id="g4194"
     transform="translate(84.993969,-190.01139)"
     style="stroke:#ffffff;stroke-opacity:1">
    <path
       id="path4152"
       d="m 639.487,220.189 -6.183,-7.86 -4.504,-5.725 -7.708,5.53 -7.087,5.885 -6.457,6.208 -5.817,6.501 -5.168,6.762 -4.51,6.993 -3.842,7.193 -3.164,7.362 -2.478,7.501 -1.782,7.608 -1.075,7.685 -0.361,7.73 0.331,6.342 0.973,5.962 1.586,5.549 2.168,5.104 2.722,4.626 3.246,4.115 3.741,3.572 4.205,2.996 4.64,2.387 5.046,1.746 5.422,1.071 5.769,0.364 4.864,-0.343 4.688,-0.998 4.466,-1.605 4.196,-2.166 3.879,-2.679 3.514,-3.145 3.104,-3.563 2.645,-3.936 2.139,-4.26 1.587,-4.537 0.986,-4.768 0.34,-4.951 -0.304,-5.009 -0.888,-4.768 -1.438,-4.49 -1.952,-4.175 -2.434,-3.822 -2.879,-3.434 -3.29,-3.007 -3.667,-2.543 -4.01,-2.043 -4.317,-1.505 -4.59,-0.931 -4.828,-0.318 -2,0.051 -1.926,0.149 -1.853,0.236 -1.781,0.315 -1.711,0.386 -1.642,0.448 -1.574,0.5 -1.507,0.545 -1.442,0.579 -1.377,0.607 -1.315,0.623 -1.253,0.633 1.478,-4.312 1.88,-4.313 2.252,-4.284 2.595,-4.225 2.909,-4.137 3.196,-4.02 3.451,-3.872 3.68,-3.696 3.878,-3.489 4.048,-3.254 4.189,-2.988 4.301,-2.693"
       inkscape:connector-curvature="0"
       style="fill:none;stroke:#ffffff;stroke-width:3;stroke-linecap:butt;stroke-linejoin:round;stroke-opacity:1" />
    <path
       id="path4154"
       d="m 612.218,277.551 1.621,-0.175 1.715,-0.099 1.835,-0.032 2.876,0.167 2.728,0.487 2.561,0.79 2.374,1.072 2.168,1.336 1.942,1.582 1.696,1.808 1.432,2.016 1.148,2.205 0.844,2.374 0.521,2.525 0.178,2.657 -0.164,2.949 -0.481,2.768 -0.785,2.573 -1.073,2.363 -1.347,2.14 -1.607,1.901 -1.852,1.649 -2.083,1.381 -2.3,1.1 -2.501,0.803 -2.689,0.493 -2.862,0.167 -3.19,-0.258 -3.105,-0.762 -2.962,-1.25 -2.765,-1.722 -2.51,-2.177 -2.2,-2.616 -1.834,-3.039 -1.412,-3.445 -0.934,-3.835 -0.4,-4.208 0.19,-4.566 0.835,-4.907 1.876,-1.194 1.75,-1.05 1.647,-0.914 1.57,-0.787 1.517,-0.665 1.489,-0.552 1.486,-0.447 1.506,-0.348 1.551,-0.258"
       inkscape:connector-curvature="0"
       style="fill:none;stroke:#ffffff;stroke-width:3;stroke-linecap:butt;stroke-linejoin:round;stroke-opacity:1" />
  </g>
  <path
     d="m 568.51351,17.407634 0,10 0,10 0,10 0,10 0,10 0,10 0,4.302 6.56,-1.243 6.081,-0.506 5.586,0.178 5.072,0.806 4.542,1.38 3.993,1.898 3.428,2.363 2.843,2.772 2.243,3.126 1.623,3.427 0.987,3.672 0.333,3.862996 -0.236,2.987 -0.687,2.877 -1.106,2.737 -1.493,2.569 -1.848,2.372 -2.17,2.148 -2.46,1.896 -2.72,1.614 -2.945,1.304 -3.14,0.967 -3.302,0.601 -3.433,0.207 -2.264,-0.064 -2.263,-0.192 -2.262,-0.319 -2.261,-0.445 -2.257,-0.571 -2.255,-0.696 -2.251,-0.821 -2.246,-0.944 -2.242,-1.068 -2.235,-1.19 -2.23,-1.313 -2.222,-1.434 0,10 0,8.295 2.629,1.291 2.553,1.159 2.493,1.031 2.448,0.906 2.418,0.786 2.402,0.668 2.403,0.556 2.417,0.445 2.448,0.341 2.493,0.238 2.554,0.14 2.628,0.046 5.704,-0.341 5.402,-0.999 5.063,-1.62 4.688,-2.205 4.276,-2.754 3.826,-3.266 3.339,-3.741 2.815,-4.18 2.254,-4.582 1.657,-4.949 1.02,-5.278 0.349,-5.572 -0.351,-5.587996 -1.039,-5.321 -1.706,-5.005 -2.351,-4.641 -2.975,-4.228 -3.578,-3.768 -4.159,-3.257 -4.718,-2.701 -5.257,-2.093 -5.774,-1.44 -6.269,-0.735 -6.744,0.015 0,-10 0,-10 0,-10 0,-0.973 10,0 10,0 10,0 8.762,0 0,-10 0,-5.94 -10,0 -10,0 -10,0 -10,0 -10,0 -4.883,0"
     id="path4156"
     inkscape:connector-curvature="0"
     style="fill:none;stroke:#ffffff;stroke-width:3;stroke-linecap:butt;stroke-linejoin:round;stroke-opacity:1" />
  <g
     id="g4190"
     transform="translate(52.457058,-189.19637)"
     style="stroke:#ffffff;stroke-opacity:1">
    <path
       id="path4158"
       d="m 462.34,206.604 -7.608,0 -6.329,7.742 -6.33,7.742 -6.329,7.742 -6.329,7.742 -6.33,7.742 -6.329,7.742 -6.33,7.742 -6.329,7.742 -6.329,7.742 -5.527,6.76 0,8.15 10,0 10,0 10,0 10,0 10,0 2.349,0 0,10 0,10 -10e-4,10 0,10 0,0.574 10,0 7.751,0 -10e-4,-10 0,-10 0,-10 0,-10 0,-0.572 10,-0.001 3.223,-10e-4 0,-10 0,-5.939 -10,0 -3.222,0 0,-10 0,-10 0,-10 0,-10 0,-10 0,-10 0,-8.649"
       inkscape:connector-curvature="0"
       style="fill:none;stroke:#ffffff;stroke-width:3;stroke-linecap:butt;stroke-linejoin:round;stroke-opacity:1" />
    <path
       id="path4160"
       d="m 444.226,240.113 0.363,0 0,10 0,10 0,10 0,5.14 -10,0 -10,0 -8.619,0 6.266,-7.793 6.267,-7.793 6.266,-7.793 6.267,-7.793 3.19,-3.968"
       inkscape:connector-curvature="0"
       style="fill:none;stroke:#ffffff;stroke-width:3;stroke-linecap:butt;stroke-linejoin:round;stroke-opacity:1" />
  </g>
  <path
     d="m 377.8631,16.853634 -5.358,-0.261 -2.266,0.034 -2.183,0.103 -2.111,0.174 -2.047,0.246 -1.992,0.318 -1.944,0.393 -1.908,0.468 -1.878,0.545 -1.858,0.623 -1.847,0.702 -1.844,0.782 -1.85,0.865 0,10 0,6.845 2.073,-0.903 1.974,-0.807 1.885,-0.716 1.809,-0.627 1.747,-0.541 1.697,-0.459 1.658,-0.38 1.634,-0.303 1.621,-0.231 1.621,-0.161 1.633,-0.094 1.659,-0.031 3.16,0.146 2.952,0.43 2.73,0.706 2.496,0.972 2.249,1.229 1.99,1.476 1.719,1.713 1.434,1.942 1.138,2.161 0.828,2.37 0.506,2.57 0.172,2.761 -0.17,2.711 -0.51,2.516 -0.849,2.312 -1.188,2.101 -1.529,1.882 -1.868,1.655 -2.207,1.421 -2.547,1.18 -2.887,0.931 -3.227,0.674 -3.566,0.41 -3.905,0.139 0,10 0,6.301 4.211,-0.015 3.848,0.388 3.485,0.765 3.121,1.117 2.756,1.44 2.39,1.739 2.025,2.011 1.657,2.256 1.291,2.475 0.922,2.666996 0.554,2.834 0.185,2.973 -0.16,2.899 -0.473,2.714 -0.774,2.515 -1.062,2.303 -1.339,2.08 -1.603,1.843 -1.857,1.594 -2.097,1.333 -2.326,1.058 -2.544,0.772 -2.748,0.472 -2.941,0.16 -2.265,-0.064 -2.265,-0.193 -2.269,-0.323 -2.271,-0.453 -2.277,-0.584 -2.284,-0.715 -2.29,-0.847 -2.3,-0.98 -2.31,-1.114 -2.321,-1.247 -2.333,-1.382 -2.348,-1.517 0,10 0,9.2 2.219,1.09 2.218,1.006 2.214,0.918 2.212,0.83 2.206,0.739 2.199,0.647 2.193,0.553 2.183,0.456 2.173,0.358 2.163,0.258 2.149,0.157 2.136,0.052 5.56,-0.315 5.249,-0.928 4.904,-1.508 4.526,-2.059 4.117,-2.58 3.674,-3.07 3.198,-3.531 2.69,-3.961 2.15,-4.361 1.575,-4.731 0.97,-5.07 0.33,-5.38 -0.114,-3.168 -0.346,-3.143996 -0.582,-3.087 -0.823,-2.999 -1.07,-2.877 -1.322,-2.725 -1.578,-2.54 -1.84,-2.323 -2.106,-2.074 -2.378,-1.793 -2.655,-1.479 -2.937,-1.134 2.669,-1.577 2.398,-1.659 2.133,-1.757 1.877,-1.87 1.627,-1.999 1.387,-2.142 1.152,-2.301 0.926,-2.474 0.707,-2.663 0.495,-2.867 0.292,-3.085 0.096,-3.32 -0.295,-4.744 -0.868,-4.436 -1.419,-4.11 -1.947,-3.763 -2.453,-3.395 -2.935,-3.008 -3.397,-2.601 -3.834,-2.172 -4.249,-1.725 -4.641,-1.257 -5.012,-0.769"
     id="path4162"
     inkscape:connector-curvature="0"
     style="fill:none;stroke:#ffffff;stroke-width:3;stroke-linecap:butt;stroke-linejoin:round;stroke-opacity:1" />
  <path
     d="m 268.04641,17.730606 -5.41711,-0.323 -2.47523,0.079 -2.44924,0.239 -2.42926,0.401 -2.41427,0.562001 -2.40427,0.726 -2.39928,0.891 -2.39828,1.057001 -2.40428,1.224 -2.41426,1.392001 -2.42926,1.563001 -2.44925,1.733 -2.47522,1.906001 0,10.000005 0,10.000004 0,2.280001 2.47023,-2.992001 2.43525,-2.645001 2.40328,-2.316001 2.3723,-2.003001 2.34431,-1.706001 2.31934,-1.425001 2.29735,-1.161 2.27637,-0.914001 2.25938,-0.682 2.24339,-0.467 2.2324,-0.268 2.22141,-0.086 2.96387,0.197 2.81498,0.577 2.6461,0.939001 2.45524,1.279 2.24339,1.602001 2.01256,1.905001 1.75874,2.187001 1.48693,2.451001 1.19115,2.695001 0.87737,2.919001 0.54161,3.124002 0.18487,3.310001 -0.06,2.499001 -0.18087,2.353001 -0.30178,2.235001 -0.4227,2.144001 -0.54261,2.082001 -0.66353,2.046001 -0.78443,2.038001 -0.90535,2.059001 -1.02527,2.107001 -1.14718,2.182001 -1.26709,2.285001 -1.387,2.416001 -2.79,4.571002 -3.08978,4.723002 -3.34261,4.840002 -3.54845,4.917998 -3.70634,4.961 -3.81826,4.968 -3.88122,4.93701 -3.8992,4.871 -3.86823,4.767 -3.79128,4.628 -3.66737,4.45201 -3.49549,4.239 0,1.268 9.99283,0 9.99283,0 9.99283,0 9.99284,0 9.99283,0 9.99283,0 9.99283,0 8.24409,0 0,-10.00001 0,-6.845 -9.99283,0 -9.99283,0 -9.99284,0 -9.99283,0 -7.27078,0 6.38342,-7.694 0.15089,-0.182 5.8608,-7.27701 5.20726,-6.747 4.57372,-6.282998 3.96016,-5.885003 3.36758,-5.555002 2.793,-5.290003 2.24139,-5.093002 1.70778,-4.962002 1.19514,-4.898002 0.7015,-4.900003 0.22983,-4.970002 -0.31577,-5.554002 -0.92734,-5.228003 -1.50891,-4.875002 -2.06152,-4.489002 -2.58415,-4.074002 -3.07779,-3.629001 -3.54146,-3.154002 -3.97615,-2.647001 -4.38086,-2.112001 -4.75559,-1.546 -5.10134,-0.950001"
     id="path4164"
     inkscape:connector-curvature="0"
     style="fill:none;stroke:#ffffff;stroke-width:2.99892545;stroke-linecap:butt;stroke-linejoin:round;stroke-opacity:1" />
  <path
     d="m 171.06169,18.222634 -10,0 -7.751,0 0,10 0,10 0,10 0,10 0,10 0,10 0,10 0,10 0,9.999996 0,10 0,10 0,10 0,3.532 10,0 7.751,0 0,-10 0,-10 0,-10 0,-10 0,-9.999996 0,-10 0,-10 0,-10 0,-10 0,-10 0,-10 0,-10 0,-3.532"
     id="path4166"
     inkscape:connector-curvature="0"
     style="fill:none;stroke:#ffffff;stroke-width:3;stroke-linecap:butt;stroke-linejoin:round;stroke-opacity:1" />
  <g
     id="g4186"
     transform="translate(-19.139272,-190.01137)"
     style="stroke:#ffffff;stroke-opacity:1">
    <path
       style="fill:none;fill-opacity:1;stroke:#ffffff;stroke-width:3;stroke-linecap:butt;stroke-linejoin:round;stroke-opacity:1"
       id="path4168"
       d="m 79.075,207.125 -5.807,-0.521 -5.807,0.521 -5.447,1.533 -5.059,2.502 -4.645,3.427 -4.201,4.307 -3.732,5.144 -3.233,5.936 -2.707,6.684 -2.154,7.389 -1.573,8.049 -0.964,8.666 -0.327,9.238 0.327,9.238 0.964,8.666 1.573,8.049 2.154,7.389 2.707,6.684 3.233,5.936 3.732,5.144 4.201,4.307 4.645,3.427 5.059,2.502 5.447,1.533 5.807,0.521 5.807,-0.521 5.447,-1.533 5.059,-2.502 4.645,-3.427 4.201,-4.307 3.731,-5.144 3.234,-5.936 2.707,-6.684 2.154,-7.389 1.573,-8.049 0.963,-8.666 0.328,-9.238 -0.327,-9.238 -0.964,-8.666 -1.573,-8.049 -2.154,-7.389 -2.707,-6.684 -3.233,-5.936 -3.732,-5.144 -4.201,-4.307 -4.645,-3.427 -5.059,-2.502 -5.447,-1.533"
       inkscape:connector-curvature="0" />
    <path
       id="path4170"
       d="m 69.941,223.812 3.327,-0.363 3.327,0.363 3.09,1.073 2.843,1.762 2.587,2.431 2.321,3.077 2.043,3.702 1.757,4.305 1.46,4.889 1.153,5.449 0.836,5.989 0.509,6.507 0.172,7.004 -0.172,7.004 -0.509,6.507 -0.836,5.989 -1.153,5.449 -1.46,4.889 -1.757,4.305 -2.043,3.702 -2.321,3.077 -2.587,2.431 -2.843,1.762 -3.091,1.073 -3.326,0.363 -3.327,-0.363 -3.09,-1.073 -2.843,-1.762 -2.587,-2.431 -2.321,-3.077 -2.043,-3.702 -1.757,-4.305 -1.46,-4.889 -1.153,-5.449 -0.836,-5.989 -0.509,-6.507 -0.172,-7.004 0.172,-7.004 0.509,-6.507 0.836,-5.989 1.153,-5.449 1.46,-4.889 1.757,-4.305 2.043,-3.702 2.321,-3.077 2.587,-2.431 2.843,-1.762 3.09,-1.073"
       inkscape:connector-curvature="0"
       style="fill:none;stroke:#ffffff;stroke-width:3;stroke-linecap:butt;stroke-linejoin:round;stroke-opacity:1" />
  </g>
</svg>
