<?xml version="1.0" encoding="UTF-8" standalone="no"?>
<!-- Created with Inkscape (http://www.inkscape.org/) -->

<svg
   xmlns:dc="http://purl.org/dc/elements/1.1/"
   xmlns:cc="http://creativecommons.org/ns#"
   xmlns:rdf="http://www.w3.org/1999/02/22-rdf-syntax-ns#"
   xmlns:svg="http://www.w3.org/2000/svg"
   xmlns="http://www.w3.org/2000/svg"
   xmlns:sodipodi="http://sodipodi.sourceforge.net/DTD/sodipodi-0.dtd"
   xmlns:inkscape="http://www.inkscape.org/namespaces/inkscape"
   width="1500"
   height="500"
   viewBox="0 0 1500 500.00001"
   id="svg6373"
   version="1.1"
   inkscape:version="0.91 r13725"
   sodipodi:docname="asteroid_sheet.svg">
  <defs
     id="defs6375" />
  <sodipodi:namedview
     id="base"
     pagecolor="#000000"
     bordercolor="#666666"
     borderopacity="1.0"
     inkscape:pageopacity="0"
     inkscape:pageshadow="2"
     inkscape:zoom="0.49497475"
     inkscape:cx="476.66903"
     inkscape:cy="184.78459"
     inkscape:document-units="px"
     inkscape:current-layer="layer1"
     showgrid="false"
     units="px"
     inkscape:window-width="1920"
     inkscape:window-height="1017"
     inkscape:window-x="-8"
     inkscape:window-y="-8"
     inkscape:window-maximized="1" />
  <metadata
     id="metadata6378">
    <rdf:RDF>
      <cc:Work
         rdf:about="">
        <dc:format>image/svg+xml</dc:format>
        <dc:type
           rdf:resource="http://purl.org/dc/dcmitype/StillImage" />
        <dc:title></dc:title>
      </cc:Work>
    </rdf:RDF>
  </metadata>
  <g
     inkscape:label="asteroids"
     inkscape:groupmode="layer"
     id="layer1"
     transform="translate(0,-552.36216)">
    <g
       id="g6981"
       transform="translate(-170.22346,382.35552)">
      <path
         d="m 591.85146,248.37865 -7.863,6.179 -7.863,6.178 -7.863,6.179 -3.057,2.403 8.079,5.89199 8.08,5.892 8.08,5.893 8.079,5.892 8.08,5.893 8.079,5.892 8.08,5.893 8.079,5.892 8.08,5.893 6.545,4.773 -5.556,-8.315 -5.556,-8.315 -5.556,-8.314 -5.555,-8.315 -5.556,-8.315 -5.556,-8.315 -5.555,-8.31399 -5.556,-8.315 -5.556,-8.315 -2.613,-3.911"
         id="path6"
         inkscape:connector-curvature="0"
         style="display:inline;fill:#eb9d30;fill-opacity:1;stroke:#d08b2b;stroke-width:3;stroke-linecap:butt;stroke-linejoin:round;stroke-opacity:1" />
      <path
         d="m 662.94146,420.00664 -1.95,-9.808 -1.951,-9.808 -1.951,-9.808 -1.951,-9.807 -1.951,-9.808 -1.951,-9.808 -1.951,-9.808 -1.951,-9.808 -1.951,-9.808 -0.917,-4.613 -8.08,-5.893 -8.08,-5.892 -8.079,-5.893 -8.08,-5.892 -8.079,-5.893 -8.08,-5.892 -8.079,-5.892 -8.08,-5.893 -8.079,-5.892 -6.545,-4.77299 2.983,9.54399 2.984,9.545 2.983,9.544 2.983,9.545 2.984,9.545 2.983,9.544 2.983,9.545 2.984,9.544 2.983,9.545 2.984,9.545 2.983,9.544 2.983,9.545 2.984,9.545 1.752,5.607 9.388,3.447 9.387,3.446 9.387,3.447 9.387,3.447 9.388,3.446 9.387,3.447 0.876,0.322"
         id="path8"
         inkscape:connector-curvature="0"
         style="display:inline;fill:#fab33c;fill-opacity:1;stroke:#d08b2b;stroke-width:3;stroke-linecap:butt;stroke-linejoin:round;stroke-opacity:1" />
      <path
         d="m 605.74146,399.00464 -7.19,6.949 -7.191,6.95 -7.191,6.949 -7.19,6.95 -7.191,6.949 -7.19,6.95 -7.191,6.949 -7.191,6.95 -7.19,6.949 -7.191,6.949 -7.191,6.95 -7.19,6.949 -7.191,6.95 -7.191,6.949 -7.19,6.95 -7.191,6.949 -7.19,6.95 -2.884,2.786 8.405,5.418 8.405,5.418 8.405,5.418 8.405,5.418 8.405,5.418 8.406,5.418 8.405,5.418 8.405,5.418 8.405,5.418 8.405,5.418 8.405,5.418 8.405,5.418 8.405,5.418 1.968,1.269 5.556,-8.315 5.555,-8.314 5.556,-8.315 5.556,-8.315 5.555,-8.315 5.556,-8.314 5.556,-8.315 5.555,-8.315 5.556,-8.314 2.614,-3.912 1.951,-9.807 1.95,-9.808 1.951,-9.808 1.951,-9.808 1.951,-9.808 1.951,-9.808 1.951,-9.808 1.951,-9.807 1.951,-9.808 0.917,-4.614 -9.387,-3.447 -9.387,-3.446 -9.387,-3.447 -9.388,-3.447 -9.387,-3.446 -9.387,-3.447 -0.877,-0.322"
         id="path10"
         inkscape:connector-curvature="0"
         style="display:inline;fill:#fab33c;fill-opacity:1;stroke:#d08b2b;stroke-width:3;stroke-linecap:butt;stroke-linejoin:round;stroke-opacity:1" />
      <path
         d="m 466.89446,574.02164 -9.755,2.2 -9.755,2.199 -9.755,2.2 -9.755,2.2 -9.755,2.2 -9.755,2.199 -9.755,2.2 -9.755,2.2 -9.755,2.199 -9.755,2.2 -9.755,2.2 -9.755,2.199 -1.952,0.44 -4.279,9.038 -4.279,9.039 -4.279,9.03805 -4.279,9.038 -3.427,7.239 9.808,1.951 9.807,1.95 9.808,1.951 9.808,1.951 9.808,1.951 9.808,1.951 9.808,1.951 9.807,1.951 9.808,1.951 4.614,0.917 9.808,-1.95 9.808,-1.951 9.808,-1.951 9.807,-1.951 9.808,-1.951 9.808,-1.951 9.808,-1.951 9.808,-1.951 9.808,-1.951 4.613,-0.917 -5.497,-8.354 -5.497,-8.354 -5.497,-8.35305 -5.497,-8.354 -5.497,-8.353 -5.497,-8.354 -5.497,-8.354 -5.497,-8.353 -2.237,-3.399"
         id="path12"
         inkscape:connector-curvature="0"
         style="display:inline;fill:#fab33c;fill-opacity:1;stroke:#d08b2b;stroke-width:3;stroke-linecap:butt;stroke-linejoin:round;stroke-opacity:1" />
      <path
         d="m 317.68646,574.97964 -9.722,2.343 -9.721,2.344 -9.722,2.343 -9.722,2.344 -9.721,2.343 -9.722,2.344 -9.721,2.343 -1.04,0.251 8.315,5.556 8.315,5.555 8.314,5.556 8.315,5.556 8.315,5.555 8.314,5.55605 8.315,5.556 8.315,5.555 8.314,5.556 3.912,2.614 4.279,-9.039 4.279,-9.038 4.279,-9.03805 4.279,-9.038 3.427,-7.239 -7.593,-6.507 -7.593,-6.507 -7.593,-6.507 -7.417,-6.357"
         id="path14"
         inkscape:connector-curvature="0"
         style="display:inline;fill:#eb9d30;fill-opacity:1;stroke:#d08b2b;stroke-width:3;stroke-linecap:butt;stroke-linejoin:round;stroke-opacity:1" />
      <path
         d="m 317.68646,574.97964 4.92,-8.706 4.921,-8.705 4.921,-8.706 4.92,-8.705 4.921,-8.706 4.921,-8.705 4.92,-8.706 4.575,-8.093 -6.397,-7.687 -6.396,-7.687 -6.396,-7.687 -6.396,-7.687 -6.396,-7.687 -6.396,-7.687 -6.396,-7.687 -6.396,-7.687 -6.396,-7.687 -6.396,-7.687 -6.396,-7.687 -6.396,-7.687 -6.396,-7.687 -6.396,-7.687 -1.698,-2.041 -5.119,8.59 -5.119,8.591 -5.119,8.59 -5.119,8.591 -5.119,8.59 -5.119,8.591 -5.119,8.59 -5.119,8.591 -5.119,8.59 -5.119,8.591 -5.118,8.59 -5.119,8.591 -5.119,8.59 -2.936,4.926 5.556,8.315 5.556,8.315 5.556,8.314 5.555,8.315 5.556,8.315 5.556,8.315 5.555,8.314 5.556,8.315 5.556,8.315 2.613,3.911 9.722,-2.344 9.721,-2.343 9.722,-2.344 9.721,-2.343 9.722,-2.343 9.721,-2.344 9.722,-2.343 1.04,-0.251"
         id="path16"
         inkscape:connector-curvature="0"
         style="display:inline;fill:#fec951;fill-opacity:1;stroke:#d08b2b;stroke-width:3;stroke-linecap:butt;stroke-linejoin:round;stroke-opacity:1" />
      <path
         d="m 297.60646,286.68664 -7.879,-6.158 -7.879,-6.158 -7.878,-6.15899 -7.879,-6.158 -7.879,-6.158 -7.879,-6.158 -1.738,-1.359 -5.556,8.315 -5.555,8.315 -5.556,8.31399 -5.556,8.315 -5.555,8.315 -5.556,8.314 -5.556,8.315 -5.555,8.315 -5.556,8.314 -2.614,3.912 -1.951,9.808 -1.95,9.807 -1.951,9.808 -1.951,9.808 -1.951,9.808 -1.951,9.808 -1.951,9.808 -1.951,9.807 -1.951,9.808 -0.917,4.614 1.95,9.808 1.951,9.808 1.951,9.808 1.951,9.807 1.951,9.808 1.951,9.808 1.951,9.808 1.951,9.808 1.951,9.808 0.917,4.613 5.119,-8.59 5.119,-8.591 5.119,-8.59 5.119,-8.591 5.119,-8.59 5.119,-8.591 5.119,-8.59 5.119,-8.591 5.119,-8.59 5.119,-8.591 5.119,-8.59 5.118,-8.591 5.119,-8.59 2.936,-4.926 2.814,-9.596 2.814,-9.596 2.815,-9.595 2.814,-9.596 2.814,-9.596 2.814,-9.596 2.815,-9.596 2.814,-9.596 2.814,-9.595 2.815,-9.596 2.814,-9.596 1.187,-4.048"
         id="path18"
         inkscape:connector-curvature="0"
         style="display:inline;fill:#feb840;fill-opacity:1;stroke:#d08b2b;stroke-width:3;stroke-linecap:butt;stroke-linejoin:round;stroke-opacity:1" />
      <path
         d="m 447.05946,206.50465 -9.96,-0.893 -9.96,-0.894 -9.96,-0.893 -9.96,-0.894 -9.96,-0.894 -9.96,-0.893 -9.96,-0.894 -9.96,-0.893 -9.96,-0.894 -9.96,-0.893 -9.96,-0.894 -10.16,-0.912 -8.315,5.556 -8.315,5.556 -8.314,5.555 -8.315,5.556 -8.315,5.556 -8.315,5.556 -8.314,5.555 -8.315,5.556 -8.315,5.556 -3.911,2.613 7.879,6.158 7.879,6.159 7.879,6.158 7.878,6.15799 7.879,6.159 7.879,6.158 1.738,1.358 8.812,-4.727 8.812,-4.728 8.812,-4.728 8.812,-4.72699 8.812,-4.728 8.811,-4.727 8.812,-4.728 8.812,-4.728 8.812,-4.727 8.812,-4.728 8.812,-4.727 8.812,-4.728 8.812,-4.728 8.812,-4.727 8.812,-4.728 8.812,-4.728 8.462,-4.54"
         id="path20"
         inkscape:connector-curvature="0"
         style="display:inline;fill:#fec850;fill-opacity:1;stroke:#d08b2b;stroke-width:3;stroke-linecap:butt;stroke-linejoin:round;stroke-opacity:1" />
      <path
         d="m 513.10746,195.76365 -9.808,-1.951 -9.807,-1.95 -9.808,-1.951 -9.808,-1.951 -9.808,-1.951 -9.808,-1.951 -9.808,-1.95101 -9.808,-1.951 -9.807,-1.951 -4.614,-0.917 -9.808,1.95 -9.808,1.951 -9.808,1.95101 -9.807,1.951 -9.808,1.951 -9.808,1.951 -9.808,1.951 -9.808,1.951 -9.808,1.951 -4.613,0.917 9.96,0.894 9.96,0.894 9.96,0.893 9.96,0.894 9.96,0.893 9.96,0.894 9.96,0.893 9.96,0.894 9.96,0.894 9.96,0.893 9.96,0.894 10.16,0.911 9.87,-1.605 9.871,-1.605 9.87,-1.605 9.87,-1.605 9.871,-1.605 9.87,-1.606 6.826,-1.11"
         id="path22"
         inkscape:connector-curvature="0"
         style="display:inline;fill:#fab33c;fill-opacity:1;stroke:#d08b2b;stroke-width:3;stroke-linecap:butt;stroke-linejoin:round;stroke-opacity:1" />
      <path
         d="m 466.89446,574.02164 5.497,8.354 5.497,8.353 5.498,8.354 5.497,8.354 5.497,8.353 5.497,8.35405 5.497,8.3529 5.497,8.3541 2.236,3.399 8.315,-5.556 8.315,-5.556 8.314,-5.555 8.315,-5.556 8.315,-5.55605 8.314,-5.556 8.315,-5.555 8.315,-5.556 8.315,-5.556 3.911,-2.613 -8.405,-5.418 -8.405,-5.418 -8.405,-5.418 -8.405,-5.418 -8.405,-5.418 -8.406,-5.418 -8.405,-5.418 -8.405,-5.418 -8.405,-5.418 -8.405,-5.418 -8.405,-5.418 -8.405,-5.418 -8.405,-5.418 -1.968,-1.269 -2.459,9.693 -2.459,9.693 -2.459,9.693 -2.459,9.693 -2.459,9.693 -1.428,5.625"
         id="path24"
         inkscape:connector-curvature="0"
         style="display:inline;fill:#eb9d30;fill-opacity:1;stroke:#d08b2b;stroke-width:3;stroke-linecap:butt;stroke-linejoin:round;stroke-opacity:1" />
      <path
         d="m 466.89446,574.02164 2.46,-9.693 2.459,-9.693 2.459,-9.693 2.459,-9.693 2.459,-9.692 1.427,-5.626 -9.937,-1.121 -9.937,-1.122 -9.937,-1.121 -9.937,-1.121 -9.936,-1.122 -9.937,-1.121 -9.937,-1.122 -9.937,-1.121 -9.937,-1.121 -9.937,-1.122 -9.937,-1.121 -9.937,-1.122 -4.669,-0.527 -4.921,8.706 -4.921,8.706 -4.921,8.705 -4.92,8.706 -4.921,8.705 -4.921,8.706 -4.92,8.705 -4.574,8.093 7.593,6.507 7.593,6.507 7.593,6.508 7.417,6.356 9.756,-2.199 9.755,-2.2 9.755,-2.2 9.755,-2.199 9.755,-2.2 9.755,-2.2 9.755,-2.2 9.755,-2.199 9.755,-2.2 9.755,-2.2 9.755,-2.199 9.755,-2.2 1.951,-0.44"
         id="path26"
         inkscape:connector-curvature="0"
         style="display:inline;fill:#fec951;fill-opacity:1;stroke:#d08b2b;stroke-width:3;stroke-linecap:butt;stroke-linejoin:round;stroke-opacity:1" />
      <path
         d="m 565.20546,269.31765 -8.83,-4.695 -8.829,-4.694 -8.83,-4.694 -8.83,-4.695 -8.83,-4.694 -8.829,-4.694 -8.83,-4.694 -8.83,-4.695 -8.829,-4.694 -8.83,-4.694 -8.83,-4.695 -8.829,-4.694 -8.83,-4.694 -3.36,-1.787 -8.812,4.728 -8.812,4.728 -8.812,4.727 -8.812,4.728 -8.812,4.727 -8.812,4.728 -8.811,4.728 -8.812,4.727 -8.812,4.728 -8.812,4.728 -8.812,4.727 -8.812,4.728 -8.812,4.727 -8.812,4.72799 -8.812,4.728 -8.812,4.727 -8.462,4.54 -2.814,9.596 -2.815,9.596 -2.814,9.596 -2.814,9.596 -2.814,9.595 -2.815,9.596 -2.814,9.596 -2.814,9.596 -2.815,9.596 -2.814,9.595 -2.814,9.596 -1.187,4.048 6.396,7.687 6.396,7.687 6.396,7.687 6.396,7.687 6.396,7.687 6.396,7.687 6.396,7.687 6.396,7.687 6.396,7.687 6.396,7.687 6.396,7.687 6.396,7.687 6.396,7.687 6.396,7.688 1.699,2.04 9.936,1.122 9.937,1.121 9.937,1.122 9.937,1.121 9.937,1.121 9.937,1.122 9.937,1.121 9.937,1.122 9.937,1.121 9.937,1.121 9.937,1.122 9.937,1.121 4.669,0.527 7.191,-6.949 7.19,-6.95 7.191,-6.949 7.191,-6.95 7.19,-6.949 7.191,-6.949 7.191,-6.95 7.19,-6.949 7.191,-6.95 7.191,-6.949 7.19,-6.95 7.191,-6.949 7.19,-6.95 7.191,-6.949 7.191,-6.949 7.19,-6.95 7.191,-6.949 2.883,-2.787 -2.983,-9.545 -2.983,-9.544 -2.984,-9.545 -2.983,-9.544 -2.983,-9.545 -2.984,-9.545 -2.983,-9.544 -2.984,-9.545 -2.983,-9.545 -2.983,-9.544 -2.984,-9.545 -2.983,-9.544 -2.983,-9.545 -1.753,-5.60699"
         id="path28"
         inkscape:connector-curvature="0"
         style="display:inline;fill:#fee389;fill-opacity:1;stroke:#d08b2b;stroke-width:3;stroke-linecap:butt;stroke-linejoin:round;stroke-opacity:1" />
      <path
         d="m 565.20546,269.31765 7.863,-6.179 7.863,-6.179 7.862,-6.178 3.058,-2.403 -8.315,-5.556 -8.315,-5.555 -8.314,-5.556 -8.315,-5.556 -8.315,-5.555 -8.314,-5.556 -8.315,-5.556 -8.315,-5.556 -8.314,-5.555 -3.912,-2.614 -9.87,1.605 -9.87,1.606 -9.871,1.605 -9.87,1.605 -9.87,1.605 -9.871,1.605 -6.826,1.11 8.83,4.695 8.829,4.694 8.83,4.694 8.83,4.695 8.829,4.694 8.83,4.694 8.83,4.694 8.829,4.695 8.83,4.694 8.83,4.694 8.83,4.695 8.829,4.694 8.83,4.694 3.36,1.787"
         id="path30"
         inkscape:connector-curvature="0"
         style="display:inline;fill:#eb9d30;fill-opacity:1;stroke:#d08b2b;stroke-width:3;stroke-linecap:butt;stroke-linejoin:round;stroke-opacity:1" />
      <path
         sodipodi:nodetypes="cccccccccccccccccccccccccccccccccccccccccccccccccccccccccccccccccccccccccccccccccccccccccccccccccccccccccccccccccccccccccccccccccccccccccccccccccccccccccccccccccc"
         d="m 420.22346,177.28864 -9.808,1.95 -9.808,1.951 -9.808,1.951 -9.807,1.951 -9.808,1.951 -9.808,1.951 -9.808,1.951 -9.808,1.951 -9.808,1.951 -4.613,0.917 -8.315,5.556 -8.315,5.556 -8.314,5.555 -8.315,5.556 -8.315,5.556 -8.315,5.556 -8.314,5.555 -8.315,5.556 -8.315,5.556 -3.911,2.613 -5.556,8.315 -5.555,8.315 -5.556,8.314 -5.556,8.315 -5.555,8.315 -5.556,8.314 -5.556,8.315 -5.555,8.315 -5.556,8.314 -2.614,3.912 -1.951,9.808 -1.95,9.807 -1.951,9.808 -1.951,9.808 -1.951,9.808 -1.951,9.808 -1.951,9.808 -1.951,9.807 -1.951,9.808 -0.917,4.614 1.95,9.808 1.951,9.808 1.951,9.808 1.951,9.807 1.951,9.808 1.951,9.808 1.951,9.808 1.951,9.808 1.951,9.808 0.917,4.613 5.556,8.315 5.556,8.315 5.556,8.314 5.555,8.315 5.556,8.315 5.556,8.315 5.555,8.314 5.556,8.315 5.556,8.315 2.613,3.911 8.315,5.556 8.315,5.555 8.314,5.556 8.315,5.556 8.315,5.555 8.314,5.55595 8.315,5.5561 8.315,5.5549 8.314,5.556 3.912,2.6141 9.808,1.951 9.807,1.95 9.808,1.951 9.808,1.951 9.808,1.951 9.808,1.951 9.808,1.951 9.807,1.951 9.808,1.951 4.614,0.917 9.808,-1.95 9.808,-1.951 9.808,-1.951 9.807,-1.951 9.808,-1.951 9.808,-1.951 9.808,-1.951 9.808,-1.9511 9.808,-1.951 4.613,-0.9169 8.315,-5.5561 8.315,-5.556 8.314,-5.5549 8.315,-5.5561 8.315,-5.55595 8.314,-5.556 8.315,-5.555 8.315,-5.556 8.315,-5.556 3.911,-2.613 5.556,-8.315 5.555,-8.314 5.556,-8.315 5.556,-8.315 5.555,-8.315 5.556,-8.314 5.556,-8.315 5.555,-8.315 5.556,-8.314 2.614,-3.912 1.951,-9.807 1.95,-9.808 1.951,-9.808 1.951,-9.808 1.951,-9.808 1.951,-9.808 1.951,-9.808 1.951,-9.807 1.951,-9.808 0.917,-4.614 -1.95,-9.808 -1.951,-9.808 -1.951,-9.808 -1.951,-9.807 -1.951,-9.808 -1.951,-9.808 -1.951,-9.808 -1.951,-9.808 -1.951,-9.808 -0.917,-4.613 -5.556,-8.315 -5.556,-8.315 -5.556,-8.314 -5.555,-8.315 -5.556,-8.315 -5.556,-8.315 -5.555,-8.314 -5.556,-8.315 -5.556,-8.315 -2.613,-3.911 -8.315,-5.556 -8.315,-5.555 -8.314,-5.556 -8.315,-5.556 -8.315,-5.555 -8.314,-5.556 -8.315,-5.556 -8.315,-5.556 -8.314,-5.555 -3.912,-2.614 -9.808,-1.951 -9.807,-1.95 -9.808,-1.951 -9.808,-1.951 -9.808,-1.951 -9.808,-1.951 -9.808,-1.951 -9.808,-1.951 -9.807,-1.951 -4.614,-0.917 z"
         id="path6-0"
         inkscape:connector-curvature="0"
         style="fill:none;stroke:#d08b2b;stroke-width:10;stroke-linecap:butt;stroke-linejoin:round;stroke-miterlimit:4;stroke-dasharray:none;stroke-opacity:1" />
    </g>
    <g
       id="g7042"
       transform="translate(89.36024,558.12206)">
      <path
         d="m 521.79276,279.2431 -1.567,-9.876 -1.567,-9.877 -1.567,-9.876 -1.567,-9.877 -1.566,-9.876 -1.567,-9.877 -1.567,-9.876 -1.567,-9.877 -1.567,-9.876 -1.567,-9.876 -1.566,-9.877 -1.567,-9.876 -1.567,-9.877 -1.567,-9.876 -1.567,-9.877 -1.567,-9.876 -1.566,-9.877 -1.567,-9.876 -1.567,-9.876991 -1.567,-9.876 -1.444,-9.10201 -5.556,8.315 -5.555,8.31501 -5.556,8.31399 -5.556,8.315001 -5.555,8.315 -5.556,8.314 -5.556,8.315 -5.555,8.315 -5.556,8.314 -2.614,3.912 -1.951,9.808 -1.95,9.807 -1.951,9.808 -1.951,9.808 -1.951,9.808 -1.951,9.808 -1.951,9.808 -1.951,9.807 -1.951,9.808 -0.917,4.614 1.95,9.808 1.951,9.808 1.951,9.808 1.951,9.807 1.951,9.808 1.951,9.808 1.951,9.808 1.951,9.808 1.951,9.808 0.917,4.613 5.556,8.315 5.556,8.315 5.556,8.314 5.555,8.315 5.556,8.315 5.556,8.315 5.555,8.314 5.556,8.315 5.556,8.315 2.613,3.911 3.972,-9.178 3.971,-9.177 3.972,-9.178 3.972,-9.177 3.971,-9.177 0.616,-1.423 1.365,-9.907 1.365,-9.906 1.365,-9.907 1.365,-9.906 1.365,-9.906 1.365,-9.907 1.365,-9.906 1.365,-9.907 1.387,-10.063"
         id="path18-5"
         inkscape:connector-curvature="0"
         style="fill:#fab33c;fill-opacity:1;stroke:#d08b2b;stroke-width:3;stroke-linecap:butt;stroke-linejoin:round;stroke-opacity:1" />
      <path
         d="m 661.80676,380.7541 3.162,-9.487 3.162,-9.487 3.163,-9.487 3.162,-9.487 3.162,-9.487 3.162,-9.486 3.163,-9.487 3.162,-9.487 3.162,-9.487 3.162,-9.487 3.163,-9.487 1.385,-4.155 -9.992,0.397 -9.992,0.397 -9.992,0.397 -9.993,0.397 -9.992,0.397 -9.992,0.397 -9.992,0.397 -9.992,0.397 -9.992,0.397 -9.992,0.397 -9.992,0.397 -9.992,0.397 -9.993,0.397 -9.992,0.397 -9.992,0.397 -9.992,0.397 -9.992,0.397 -6.318,0.251 -1.365,9.907 -1.365,9.906 -1.365,9.907 -1.365,9.906 -1.365,9.906 -1.365,9.907 -1.365,9.906 -1.365,9.907 -1.387,10.063 8.046,5.938 8.046,5.939 8.045,5.938 8.046,5.939 8.046,5.939 8.045,5.938 8.046,5.939 8.046,5.938 8.046,5.939 8.045,5.938 8.046,5.939 5.479,4.044 7.142,-6.999 7.142,-7 7.142,-6.999 7.142,-6.999 7.142,-7 7.142,-6.999 7.143,-6.999 7.142,-6.999 1.202,-1.178"
         id="path6-5"
         inkscape:connector-curvature="0"
         style="fill:#fec951;fill-opacity:1;stroke:#d08b2b;stroke-width:3;stroke-linecap:butt;stroke-linejoin:round;stroke-opacity:1" />
      <path
         d="m 878.25876,249.4901 9.788,-2.047 9.788,-2.048 5.523,-1.155 -1.95,-9.808 -1.951,-9.808 -1.951,-9.808 -1.951,-9.807 -1.951,-9.808 -1.951,-9.808 -1.951,-9.808 -1.951,-9.808 -1.951,-9.808 -0.917,-4.613 -5.556,-8.315 -5.556,-8.315 -5.556,-8.314 -5.555,-8.315 -5.556,-8.315 -5.556,-8.315 -5.555,-8.313991 -5.556,-8.315 -5.556,-8.315 -2.613,-3.911 -9.924,1.232 -9.924,1.232 -9.924,1.232 -9.923,1.232 -9.924,1.232 -7.664,0.951 0.509,9.987 0.51,9.98699 0.509,9.987001 0.51,9.987 0.509,9.987 0.51,9.987 0.509,9.987 0.51,9.987 0.509,9.988 0.51,9.987 0.51,9.987 0.229,4.487 8.692,4.944 8.692,4.944 8.693,4.944 8.692,4.944 8.692,4.944 8.692,4.944 8.693,4.945 8.692,4.944 8.692,4.944 8.693,4.944 8.692,4.944 1.825,1.037"
         id="path8-8"
         inkscape:connector-curvature="0"
         style="fill:#fab33c;fill-opacity:1;stroke:#d08b2b;stroke-width:3;stroke-linecap:butt;stroke-linejoin:round;stroke-opacity:1" />
      <path
         d="m 884.88276,337.1241 1.951,-9.807 1.95,-9.808 1.951,-9.808 1.951,-9.808 1.951,-9.808 1.951,-9.808 1.951,-9.808 1.951,-9.807 1.951,-9.808 0.917,-4.614 -9.788,2.047 -9.788,2.048 -5.523,1.155 -4.734,8.809 -4.733,8.809 -4.733,8.809 -4.733,8.809 -4.734,8.809 -4.733,8.809 -1.257,2.339 7.454,6.666 7.455,6.666 7.454,6.665 7.455,6.666 6.463,5.778"
         id="path10-5"
         inkscape:connector-curvature="0"
         style="fill:#eb9d30;fill-opacity:1;stroke:#d08b2b;stroke-width:3;stroke-linecap:butt;stroke-linejoin:round;stroke-opacity:1" />
      <path
         d="m 661.80676,380.7541 9.794,2.017 9.795,2.018 9.794,2.017 9.794,2.018 9.795,2.018 9.794,2.017 9.794,2.018 9.795,2.017 9.794,2.018 9.794,2.018 9.795,2.017 9.794,2.018 9.794,2.017 9.795,2.018 9.794,2.018 9.794,2.017 9.795,2.018 3.957,0.815 5.556,-8.315 5.555,-8.314 5.556,-8.315 5.556,-8.315 5.555,-8.315 5.556,-8.314 5.556,-8.315 5.555,-8.315 5.556,-8.314 2.614,-3.912 -7.455,-6.665 -7.454,-6.666 -7.455,-6.665 -7.455,-6.666 -6.462,-5.779 -9.776,-2.105 -9.776,-2.105 -9.776,-2.106 -9.776,-2.105 -9.775,-2.106 -9.776,-2.105 -9.776,-2.106 -9.776,-2.105 -9.776,-2.106 -9.776,-2.105 -9.775,-2.106 -9.776,-2.105 -9.776,-2.106 -9.776,-2.105 -9.776,-2.106 -3.987,-0.858 -3.162,9.486 -3.163,9.487 -3.162,9.487 -3.162,9.487 -3.162,9.487 -3.163,9.487 -3.162,9.487 -3.162,9.486 -3.162,9.487 -3.163,9.487 -3.162,9.487 -1.385,4.156"
         id="path12-3"
         inkscape:connector-curvature="0"
         style="fill:#fec951;fill-opacity:1;stroke:#d08b2b;stroke-width:3;stroke-linecap:butt;stroke-linejoin:round;stroke-opacity:1" />
      <path
         d="m 567.75576,468.48315 9.808,1.951 9.807,1.95 9.808,1.951 9.808,1.951 9.808,1.951 9.808,1.951 9.808,1.951 9.807,1.951 9.808,1.951 4.614,0.917 9.808,-1.95 9.808,-1.951 9.808,-1.951 9.807,-1.951 9.808,-1.951 9.808,-1.951 9.808,-1.951 9.808,-1.951 9.808,-1.951 4.613,-0.917 8.315,-5.556 8.315,-5.556 8.314,-5.555 8.315,-5.556 8.315,-5.55605 8.314,-5.556 8.315,-5.555 8.315,-5.556 8.315,-5.556 3.911,-2.613 -9.795,-2.018 -9.794,-2.017 -9.794,-2.018 -9.795,-2.017 -9.794,-2.018 -9.794,-2.018 -9.795,-2.017 -9.794,-2.018 -9.794,-2.017 -9.795,-2.018 -9.794,-2.018 -9.794,-2.017 -9.795,-2.018 -9.794,-2.017 -9.794,-2.018 -9.795,-2.018 -9.794,-2.017 -3.957,-0.815 -7.142,6.999 -7.142,6.999 -7.143,6.999 -7.142,7 -7.142,6.999 -7.142,6.999 -7.142,6.999 -7.142,7 -1.202,1.178 -7.599,6.50105 -7.598,6.502 -7.598,6.501 -7.598,6.501 -5.319,4.552"
         id="path14-2"
         inkscape:connector-curvature="0"
         style="fill:#fab33c;fill-opacity:1;stroke:#d08b2b;stroke-width:3;stroke-linecap:butt;stroke-linejoin:round;stroke-opacity:1" />
      <path
         d="m 509.48576,368.5581 -3.971,9.177 -3.972,9.178 -3.972,9.177 -3.971,9.178 -3.972,9.177 -0.616,1.423 8.315,5.556 8.315,5.555 8.314,5.556 8.315,5.556 8.315,5.555 8.314,5.55605 8.315,5.556 8.315,5.555 8.314,5.556 3.912,2.614 7.598,-6.502 7.598,-6.501 7.598,-6.501 7.598,-6.50205 5.32,-4.551 -8.046,-5.939 -8.046,-5.938 -8.046,-5.939 -8.045,-5.939 -8.046,-5.938 -8.046,-5.939 -8.045,-5.938 -8.046,-5.939 -8.046,-5.938 -8.045,-5.939 -8.046,-5.939 -5.479,-4.043"
         id="path16-3"
         inkscape:connector-curvature="0"
         style="fill:#eb9d30;fill-opacity:1;stroke:#d08b2b;stroke-width:3;stroke-linecap:butt;stroke-linejoin:round;stroke-opacity:1" />
      <path
         d="m 660.63976,1.5220991 -9.808,1.95 -9.808,1.951 -9.808,1.95101 -9.807,1.951 -9.808,1.9509999 -9.808,1.951 -9.808,1.951 -9.808,1.951 -9.808,1.951 -4.613,0.917 -8.315,5.556 -8.315,5.556 -8.314,5.555 -8.315,5.556 -8.315,5.556 -8.315,5.556 -8.314,5.555 -8.315,5.556 -8.315,5.556 -3.911,2.613 1.567,9.877 1.567,9.876 1.567,9.876991 1.566,9.876 1.567,9.877 1.567,9.876 1.567,9.877 1.567,9.876 1.567,9.877 1.567,9.876 1.566,9.877 1.567,9.876 1.567,9.876 1.567,9.877 1.567,9.876 1.567,9.877 1.566,9.876 1.567,9.877 1.567,9.876 1.567,9.877 1.444,9.101 9.992,-0.397 9.992,-0.397 9.992,-0.397 9.992,-0.397 9.992,-0.397 9.992,-0.397 9.993,-0.397 9.992,-0.397 9.992,-0.397 9.992,-0.397 9.992,-0.397 9.992,-0.397 9.992,-0.397 9.992,-0.397 9.993,-0.397 9.992,-0.397 9.992,-0.397 6.318,-0.251 7.273,-6.864 7.273,-6.863 7.273,-6.863 7.273,-6.863 7.273,-6.863 7.273,-6.864 7.273,-6.863 7.273,-6.863 7.273,-6.863 7.273,-6.864 7.273,-6.863 2.839,-2.679 -0.51,-9.987 -0.51,-9.987 -0.509,-9.987 -0.51,-9.987 -0.509,-9.987 -0.51,-9.987 -0.509,-9.987 -0.51,-9.987 -0.509,-9.987 -0.51,-9.986991 -0.509,-9.987 -0.229,-4.488 -8.255,-5.645 -8.254,-5.645 -8.254,-5.645 -8.254,-5.645 -8.254,-5.645 -8.255,-5.646 -8.254,-5.645 -8.254,-5.645 -8.254,-5.645 -8.255,-5.645 -8.254,-5.645 -8.254,-5.646 -8.254,-5.6450099 -7.04,-4.814"
         id="path20-8"
         inkscape:connector-curvature="0"
         style="fill:#fee389;fill-opacity:1;stroke:#d08b2b;stroke-width:3;stroke-linecap:butt;stroke-linejoin:round;stroke-opacity:1" />
      <path
         d="m 753.52376,19.997109 -9.808,-1.951 -9.807,-1.95 -9.808,-1.951 -9.808,-1.951 -9.808,-1.951 -9.808,-1.9509999 -9.808,-1.95101 -9.808,-1.951 -9.807,-1.951 -4.614,-0.917 8.254,5.64501 8.254,5.6449999 8.255,5.645 8.254,5.645 8.254,5.645 8.254,5.646 8.254,5.645 8.255,5.645 8.254,5.645 8.254,5.645 8.254,5.645 8.255,5.646 8.254,5.645 7.04,4.814 9.923,-1.232 9.924,-1.232 9.924,-1.232 9.924,-1.231 9.924,-1.232 7.664,-0.952 -8.315,-5.556 -8.315,-5.555 -8.314,-5.556 -8.315,-5.556 -8.315,-5.555 -8.314,-5.556 -8.315,-5.556 -8.315,-5.556 -8.314,-5.555 -3.912,-2.614"
         id="path22-4"
         inkscape:connector-curvature="0"
         style="fill:#eb9d30;fill-opacity:1;stroke:#d08b2b;stroke-width:3;stroke-linecap:butt;stroke-linejoin:round;stroke-opacity:1" />
      <path
         d="m 848.60176,304.6831 4.733,-8.808 4.733,-8.809 4.734,-8.809 4.733,-8.809 4.733,-8.809 4.733,-8.809 1.258,-2.34 -8.693,-4.944 -8.692,-4.944 -8.692,-4.944 -8.693,-4.944 -8.692,-4.944 -8.692,-4.944 -8.693,-4.944 -8.692,-4.944 -8.692,-4.944 -8.693,-4.944 -8.692,-4.944 -1.824,-1.038 -7.273,6.864 -7.273,6.863 -7.273,6.863 -7.273,6.863 -7.273,6.863 -7.273,6.864 -7.273,6.863 -7.273,6.863 -7.273,6.863 -7.273,6.863 -7.273,6.864 -2.839,2.679 9.776,2.105 9.776,2.106 9.775,2.105 9.776,2.106 9.776,2.105 9.776,2.105 9.776,2.106 9.776,2.105 9.775,2.106 9.776,2.105 9.776,2.106 9.776,2.105 9.776,2.106 9.776,2.105 9.775,2.106 3.988,0.858"
         id="path24-5"
         inkscape:connector-curvature="0"
         style="fill:#fec951;fill-opacity:1;stroke:#d08b2b;stroke-width:3;stroke-linecap:butt;stroke-linejoin:round;stroke-opacity:1" />
      <path
         sodipodi:nodetypes="cccccccccccccccccccccccccccccccccccccccccccccccccccccccccccccccccccccccccccccccccccccccccccccccccccccccccccccccccccccccccccccccccccccccccccccccccccccccccccccccccc"
         d="m 660.63976,1.5220991 -9.808,1.95 -9.808,1.951 -9.808,1.951 -9.807,1.951 -9.808,1.9509999 -9.808,1.951 -9.808,1.951 -9.808,1.951 -9.808,1.951 -4.613,0.917 -8.315,5.556 -8.315,5.556 -8.314,5.555 -8.315,5.556 -8.315,5.556 -8.315,5.556 -8.314,5.555 -8.315,5.556 -8.315,5.556 -3.911,2.613 -5.556,8.315 -5.555,8.315 -5.556,8.314 -5.556,8.315001 -5.555,8.315 -5.556,8.314 -5.556,8.315 -5.555,8.315 -5.556,8.314 -2.614,3.912 -1.951,9.808 -1.95,9.807 -1.951,9.808 -1.951,9.808 -1.951,9.808 -1.951,9.808 -1.951,9.808 -1.951,9.807 -1.951,9.808 -0.917,4.614 1.95,9.808 1.951,9.808 1.951,9.808 1.951,9.807 1.951,9.808 1.951,9.808 1.951,9.808 1.951,9.808 1.951,9.808 0.917,4.613 5.556,8.315 5.556,8.315 5.556,8.314 5.555,8.315 5.556,8.315 5.556,8.315 5.555,8.314 5.556,8.315 5.556,8.315 2.613,3.911 8.315,5.556 8.315,5.555 8.314,5.556 8.315,5.556 8.315,5.555 8.314,5.55595 8.315,5.5561 8.315,5.5549 8.314,5.556 3.912,2.6141 9.808,1.951 9.807,1.95 9.808,1.951 9.808,1.951 9.808,1.951 9.808,1.951 9.808,1.951 9.807,1.951 9.808,1.951 4.614,0.917 9.808,-1.95 9.808,-1.951 9.808,-1.951 9.807,-1.951 9.808,-1.951 9.808,-1.951 9.808,-1.951 9.808,-1.9511 9.808,-1.951 4.613,-0.9169 8.315,-5.5561 8.315,-5.556 8.314,-5.5549 8.315,-5.5561 8.315,-5.55595 8.314,-5.556 8.315,-5.555 8.315,-5.556 8.315,-5.556 3.911,-2.613 5.556,-8.315 5.555,-8.314 5.556,-8.315 5.556,-8.315 5.555,-8.315 5.556,-8.314 5.556,-8.315 5.555,-8.315 5.556,-8.314 2.614,-3.912 1.951,-9.807 1.95,-9.808 1.951,-9.808 1.951,-9.808 1.951,-9.808 1.951,-9.808 1.951,-9.808 1.951,-9.807 1.951,-9.808 0.917,-4.614 -1.95,-9.808 -1.951,-9.808 -1.951,-9.808 -1.951,-9.807 -1.951,-9.808 -1.951,-9.808 -1.951,-9.808 -1.951,-9.808 -1.951,-9.808 -0.917,-4.613 -5.556,-8.315 -5.556,-8.315 -5.556,-8.314 -5.555,-8.315 -5.556,-8.315 -5.556,-8.315 -5.555,-8.314001 -5.556,-8.315 -5.556,-8.315 -2.613,-3.911 -8.315,-5.556 -8.315,-5.555 -8.314,-5.556 -8.315,-5.556 -8.315,-5.555 -8.314,-5.556 -8.315,-5.556 -8.315,-5.556 -8.314,-5.555 -3.912,-2.614 -9.808,-1.951 -9.807,-1.95 -9.808,-1.951 -9.808,-1.951 -9.808,-1.951 -9.808,-1.9509999 -9.808,-1.951 -9.808,-1.951 -9.807,-1.951 -4.614,-0.917 z"
         id="path6-3"
         inkscape:connector-curvature="0"
         style="fill:none;stroke:#d08b2b;stroke-width:10;stroke-linecap:butt;stroke-linejoin:round;stroke-miterlimit:4;stroke-dasharray:none;stroke-opacity:1" />
    </g>
    <g
       id="g7106"
       transform="translate(-24.2857,527.14288)">
      <path
         d="m 1264.5627,110.89828 1.231,-9.924 1.231,-9.924002 1.23,-9.924 1.231,-9.924 1.231,-9.924 1.231,-9.924 1.231,-9.924 1.107,-8.929 -9.848,1.736 -9.848,1.737 -9.848,1.736 -9.848,1.736 -9.848,1.737 -9.848,1.736 -9.849,1.737 -9.848,1.736 -4.23,0.746 -8.66,5 -8.66,5 -8.66,5 -8.661,5 -8.66,5 -8.66,5 -8.66,5 -8.661,5 -3.719,2.148 -1.153,9.933 -1.153,9.934002 -1.152,9.933 -1.153,9.933 -1.152,9.934 -1.153,9.933 -1.153,9.933 -1.208,10.418 9.363,-3.511 9.363,-3.512 9.364,-3.511 9.363,-3.511 9.363,-3.511 9.363,-3.512 9.364,-3.511 9.363,-3.511 9.363,-3.511 9.364,-3.512 9.363,-3.511 9.363,-3.511 9.363,-3.511 9.364,-3.511 9.363,-3.512 9.363,-3.511 5.758,-2.159"
         id="path24-7"
         inkscape:connector-curvature="0"
         style="fill:#fab33c;fill-opacity:1;stroke:#d08b2b;stroke-width:3;stroke-linecap:butt;stroke-linejoin:round;stroke-opacity:1" />
      <path
         d="m 1264.5627,110.89828 -9.363,3.511 -9.364,3.511 -9.363,3.512 -9.363,3.511 -9.364,3.511 -9.363,3.511 -9.363,3.512 -9.363,3.511 -9.364,3.511 -9.363,3.511 -9.363,3.512 -9.364,3.511 -9.363,3.511 -9.363,3.511 -9.363,3.512 -9.364,3.511 -5.757,2.159 -2.577,9.662 -2.577,9.662 -2.576,9.663 -2.577,9.662 -2.576,9.663 -2.577,9.662 -2.577,9.662 -2.576,9.663 -2.723,10.209 4.033,9.151 4.032,9.151 4.033,9.151 4.032,9.15 4.033,9.151 4.033,9.151 4.032,9.151 4.033,9.151 4.032,9.151 4.033,9.151 4.032,9.151 4.033,9.15 2.169,4.923 9.085,4.179 9.085,4.179 9.085,4.179 9.085,4.179 9.085,4.179 9.085,4.179 9.085,4.179 9.085,4.179 9.085,4.18 9.084,4.179 6.383,2.935 9.793,-2.02 9.794,-2.021 9.794,-2.021 9.793,-2.021 9.794,-2.021 9.794,-2.021 9.794,-2.021 9.793,-2.021 9.794,-2.021 9.793,-2.021 9.794,-2.021 9.794,-2.021 4.987,-1.029 1.903,-9.817 1.902,-9.818 1.902,-9.817 1.902,-9.817 1.902,-9.818 1.902,-9.817 1.902,-9.818 1.902,-9.817 1.903,-9.818 1.902,-9.817 1.902,-9.817 1.902,-9.818 1.902,-9.817 1.902,-9.818 1.902,-9.817 1.61,-8.309 -6.987,-7.154 -6.986,-7.155 -6.987,-7.154 -6.987,-7.155 -6.986,-7.154 -6.987,-7.154 -6.987,-7.155 -6.987,-7.154 -6.986,-7.155 -6.987,-7.154 -6.987,-7.154 -6.987,-7.155 -6.986,-7.154 -6.987,-7.155 -6.987,-7.154 -6.987,-7.154 -6.986,-7.155 -2.765,-2.831"
         id="path6-8"
         inkscape:connector-curvature="0"
         style="fill:#fee389;fill-opacity:1;stroke:#d08b2b;stroke-width:3;stroke-linecap:butt;stroke-linejoin:round;stroke-opacity:1" />
      <path
         d="m 1458.0527,157.56928 3.269,9.451 3.268,9.451 3.269,9.45 3.268,9.451 3.268,9.451 3.269,9.451 3.268,9.451 3.269,9.45 3.268,9.451 3.269,9.451 3.268,9.451 3.268,9.45 3.269,9.451 3.268,9.451 3.269,9.451 3.268,9.451 2.969,8.585 0,-10 0,-10 0,-10 0,-10 0,-10 0,-10 0,-10 0,-10 0,-4.295 -3.42,-9.397 -3.42,-9.397 -3.421,-9.397 -3.42,-9.397 -3.42,-9.397 -3.42,-9.397 -3.42,-9.397 -3.421,-9.397 -1.469,-4.036 -6.427,-7.661 -6.428,-7.66 -6.428,-7.66 -6.428,-7.661 -6.428,-7.66 -6.428,-7.661 -6.428,-7.66 -6.428,-7.661002 -2.76,-3.29 -8.661,-5 -8.66,-5 -8.66,-5 -8.66,-5 -8.661,-5 -8.66,-5 -8.66,-5 -8.66,-5 -3.72,-2.148 2.882,9.576 2.882,9.576 2.883,9.575 2.882,9.576 2.687,8.928 8.076,5.897002 8.076,5.898 8.075,5.898 8.076,5.898 8.075,5.898 8.076,5.898 8.075,5.898 8.076,5.898 8.076,5.898 8.075,5.897 5.78,4.222"
         id="path8-0"
         inkscape:connector-curvature="0"
         style="fill:#eb9d30;fill-opacity:1;stroke:#d08b2b;stroke-width:3;stroke-linecap:butt;stroke-linejoin:round;stroke-opacity:1" />
      <path
         d="m 1513.3167,317.36728 -3.268,-9.451 -3.269,-9.451 -3.268,-9.451 -3.269,-9.45 -3.268,-9.451 -3.268,-9.451 -3.269,-9.451 -3.268,-9.451 -3.269,-9.45 -3.268,-9.451 -3.269,-9.451 -3.268,-9.451 -3.268,-9.451 -3.269,-9.45 -3.268,-9.451 -3.269,-9.451 -2.969,-8.585 -6.79,7.341 -6.79,7.341 -6.791,7.341 -6.79,7.341 -6.791,7.341 -6.79,7.341 -6.791,7.341 -6.79,7.341 -6.79,7.341 -6.791,7.341 -4.047,4.375 -1.902,9.818 -1.902,9.817 -1.902,9.817 -1.902,9.818 -1.902,9.817 -1.903,9.818 -1.902,9.817 -1.902,9.818 -1.902,9.817 -1.902,9.817 -1.902,9.818 -1.902,9.817 -1.902,9.818 -1.903,9.817 -1.902,9.818 -1.61,8.308 9.673,2.537 9.673,2.538 9.673,2.537 9.673,2.537 9.672,2.537 9.673,2.537 1.275,0.334 7.4,-6.726 7.4,-6.726 7.4,-6.726 7.4,-6.726 7.4,-6.726 7.4,-6.726 7.4,-6.726 7.4,-6.726 7.4,-6.726 7.4,-6.726 7.4,-6.726 7.4,-6.726 7.4,-6.726 1.845,-1.676"
         id="path10-7"
         inkscape:connector-curvature="0"
         style="fill:#fec951;fill-opacity:1;stroke:#d08b2b;stroke-width:3;stroke-linecap:butt;stroke-linejoin:round;stroke-opacity:1" />
      <path
         d="m 1430.3017,461.15228 6.428,-7.66 6.428,-7.661 6.428,-7.66 6.428,-7.661 6.428,-7.66 6.428,-7.66 6.428,-7.661 6.427,-7.66 2.761,-3.291 3.421,-9.397 3.42,-9.397 3.42,-9.396 3.42,-9.397 3.42,-9.397 3.421,-9.397 3.42,-9.397 3.42,-9.397 1.469,-4.036 -7.4,6.726 -7.4,6.726 -7.4,6.726 -7.4,6.726 -7.4,6.726 -7.4,6.726 -7.4,6.726 -7.4,6.726 -7.401,6.726 -7.4,6.726 -7.4,6.726 -7.4,6.726 -7.4,6.726 -1.844,1.676 2.651,9.643 2.65,9.642 2.651,9.642 2.651,9.642 2.651,9.642 1.776,6.46"
         id="path12-5"
         inkscape:connector-curvature="0"
         style="fill:#eb9d30;fill-opacity:1;stroke:#d08b2b;stroke-width:3;stroke-linecap:butt;stroke-linejoin:round;stroke-opacity:1" />
      <path
         d="m 1274.2857,517.93733 9.848,-1.736 9.848,-1.737 9.848,-1.736 9.848,-1.736 9.848,-1.737 9.848,-1.736 9.849,-1.737 9.848,-1.736 4.23,-0.746 8.66,-5 8.66,-5 8.66,-5 8.661,-5 8.66,-5 8.66,-5.00005 8.66,-5 8.661,-5 3.719,-2.148 -2.651,-9.642 -2.651,-9.642 -2.651,-9.642 -2.65,-9.643 -2.651,-9.642 -1.776,-6.46 -9.673,-2.537 -9.673,-2.537 -9.673,-2.537 -9.673,-2.537 -9.672,-2.537 -9.673,-2.537 -1.275,-0.335 -5.408,8.411 -5.409,8.411 -5.409,8.412 -5.408,8.411 -5.409,8.411 -5.409,8.411 -5.408,8.411 -5.409,8.411 -5.409,8.411 -5.408,8.411 -5.409,8.41105 -5.409,8.411 -5.408,8.411 -5.409,8.412 -5.953,9.257"
         id="path14-3"
         inkscape:connector-curvature="0"
         style="fill:#fab33c;fill-opacity:1;stroke:#d08b2b;stroke-width:3;stroke-linecap:butt;stroke-linejoin:round;stroke-opacity:1" />
      <path
         d="m 1233.4487,416.20428 -4.359,9.001 -4.358,9 -4.359,9 -4.358,9 -4.359,9 -4.358,9.001 -4.359,9.00005 -4.358,9 -4.359,9 -2.951,6.094 9.848,1.736 9.849,1.737 9.848,1.736 9.848,1.737 9.848,1.736 9.848,1.737 9.848,1.736 9.848,1.737 4.23,0.745 5.409,-8.411 5.408,-8.411 5.409,-8.411 5.409,-8.411 5.408,-8.411 5.409,-8.41105 5.409,-8.411 5.408,-8.411 5.409,-8.411 5.409,-8.411 5.408,-8.412 5.409,-8.411 5.409,-8.411 5.408,-8.411 5.953,-9.258 -9.793,2.021 -9.794,2.021 -9.794,2.021 -9.793,2.021 -9.794,2.021 -9.794,2.021 -9.793,2.021 -9.794,2.021 -9.794,2.021 -9.793,2.02 -9.794,2.021 -9.794,2.021 -4.987,1.029"
         id="path16-7"
         inkscape:connector-curvature="0"
         style="fill:#fec951;fill-opacity:1;stroke:#d08b2b;stroke-width:3;stroke-linecap:butt;stroke-linejoin:round;stroke-opacity:1" />
      <path
         d="m 1136.2167,371.47828 -9.444,3.287 -9.445,3.286 -9.444,3.286 -9.445,3.287 -9.444,3.286 -9.445,3.287 -9.444,3.286 -6.02,2.095 6.428,7.661 6.427,7.66 6.428,7.661 6.428,7.66 6.428,7.66 6.428,7.661 6.428,7.66 6.428,7.661 2.761,3.29 8.66,5 8.66,5 8.66,5.00005 8.661,5 8.66,5 8.66,5 8.66,5 8.661,5 3.719,2.148 4.359,-9 4.358,-9.001 4.359,-9 4.358,-9.00005 4.359,-9 4.358,-9 4.359,-9.001 4.358,-9 4.359,-9 2.951,-6.094 -9.085,-4.179 -9.085,-4.179 -9.085,-4.179 -9.085,-4.179 -9.085,-4.179 -9.085,-4.179 -9.085,-4.179 -9.084,-4.179 -9.085,-4.179 -9.085,-4.179 -6.383,-2.936"
         id="path18-8"
         inkscape:connector-curvature="0"
         style="fill:#fee389;fill-opacity:1;stroke:#d08b2b;stroke-width:3;stroke-linecap:butt;stroke-linejoin:round;stroke-opacity:1" />
      <path
         d="m 1035.2547,233.07128 0,10 0,10 0,10 0,10 0,10 0,10 0,10 0,10 0,4.296 3.42,9.397 3.42,9.396 3.421,9.397 3.42,9.397 3.42,9.397 3.42,9.397 3.42,9.397 3.421,9.397 1.469,4.036 9.444,-3.286 9.445,-3.287 9.444,-3.286 9.445,-3.287 9.444,-3.286 9.445,-3.287 9.444,-3.286 6.02,-2.095 -4.032,-9.151 -4.033,-9.151 -4.032,-9.151 -4.033,-9.15 -4.033,-9.151 -4.032,-9.151 -4.033,-9.151 -4.032,-9.151 -4.033,-9.151 -4.032,-9.151 -4.033,-9.15 -4.033,-9.151 -2.169,-4.923 -9.051,-4.251 -9.052,-4.252 -9.051,-4.251 -9.051,-4.251 -9.051,-4.252 -5.146,-2.417"
         id="path20-5"
         inkscape:connector-curvature="0"
         style="fill:#fab33c;fill-opacity:1;stroke:#d08b2b;stroke-width:3;stroke-linecap:butt;stroke-linejoin:round;stroke-opacity:1" />
      <path
         d="m 1108.9927,169.23728 1.152,-9.934 1.153,-9.933 1.152,-9.933 1.153,-9.934 1.153,-9.933 1.152,-9.933 1.153,-9.934002 1.209,-10.417 -6.428,7.66 -6.428,7.661002 -6.428,7.66 -6.428,7.661 -6.428,7.66 -6.428,7.661 -6.428,7.66 -6.427,7.66 -2.761,3.291 -3.421,9.397 -3.42,9.397 -3.42,9.397 -3.42,9.396 -3.42,9.397 -3.421,9.397 -3.42,9.397 -3.42,9.397 -1.469,4.036 9.051,4.252 9.052,4.251 9.051,4.251 9.051,4.252 9.051,4.251 5.146,2.417 2.577,-9.662 2.576,-9.663 2.577,-9.662 2.577,-9.662 2.576,-9.663 2.577,-9.662 2.577,-9.662 2.576,-9.663 2.723,-10.209"
         id="path22-9"
         inkscape:connector-curvature="0"
         style="fill:#eb9d30;fill-opacity:1;stroke:#d08b2b;stroke-width:3;stroke-linecap:butt;stroke-linejoin:round;stroke-opacity:1" />
      <path
         d="m 1357.3007,47.138278 -9.848,-1.736 -9.848,-1.737 -9.848,-1.736 -9.849,-1.737 -9.848,-1.736 -9.848,-1.737 -9.848,-1.736 -9.848,-1.737 -4.23,-0.745 -1.231,9.924 -1.231,9.923 -1.23,9.924 -1.231,9.924 -1.231,9.924 -1.231,9.924 -1.231,9.924002 -1.107,8.93 9.883,-1.527 9.882,-1.528 9.883,-1.527 9.883,-1.527 9.882,-1.528 9.883,-1.527 9.883,-1.527 9.882,-1.528002 9.883,-1.527 9.883,-1.527 8.127,-1.256 -2.882,-9.576 -2.882,-9.576 -2.883,-9.575 -2.882,-9.576 -2.687,-8.928"
         id="path26-3"
         inkscape:connector-curvature="0"
         style="fill:#eb9d30;fill-opacity:1;stroke:#d08b2b;stroke-width:3;stroke-linecap:butt;stroke-linejoin:round;stroke-opacity:1" />
      <path
         d="m 1371.5167,94.369278 -9.882,1.527 -9.883,1.527 -9.883,1.528 -9.882,1.527002 -9.883,1.527 -9.883,1.528 -9.882,1.527 -9.883,1.527 -9.883,1.528 -9.882,1.527 -8.128,1.256 6.987,7.154 6.986,7.155 6.987,7.154 6.987,7.155 6.987,7.154 6.986,7.154 6.987,7.155 6.987,7.154 6.987,7.155 6.986,7.154 6.987,7.154 6.987,7.155 6.986,7.154 6.987,7.155 6.987,7.154 6.987,7.155 6.986,7.154 2.765,2.831 6.791,-7.341 6.79,-7.341 6.79,-7.341 6.791,-7.341 6.79,-7.341 6.791,-7.341 6.79,-7.341 6.791,-7.341 6.79,-7.341 6.79,-7.341 4.047,-4.375 -8.075,-5.898 -8.076,-5.898 -8.075,-5.898 -8.076,-5.898 -8.076,-5.897 -8.075,-5.898 -8.076,-5.898 -8.075,-5.898 -8.076,-5.898 -8.075,-5.898002 -5.781,-4.221"
         id="path28-0"
         inkscape:connector-curvature="0"
         style="fill:#fab33c;fill-opacity:1;stroke:#d08b2b;stroke-width:3;stroke-linecap:butt;stroke-linejoin:round;stroke-opacity:1" />
      <path
         sodipodi:nodetypes="cccccccccccccccccccccccccccccccccccccccccccccccccccccccccccccccccccccccccccccccccccccccccccccccccccccccccccccccccccccccccccccccccccccccccccccccccccccccccccccccccccc"
         d="m 1274.2857,32.501278 -9.848,1.736 -9.848,1.737 -9.848,1.736 -9.848,1.736 -9.848,1.737 -9.848,1.736 -9.849,1.737 -9.848,1.736 -4.23,0.746 -8.66,5 -8.66,5 -8.66,5 -8.661,5 -8.66,5 -8.66,5 -8.66,5 -8.661,5 -3.719,2.148 -6.428,7.66 -6.428,7.661002 -6.428,7.66 -6.428,7.661 -6.428,7.66 -6.428,7.661 -6.428,7.66 -6.427,7.66 -2.761,3.291 -3.421,9.397 -3.42,9.397 -3.42,9.397 -3.42,9.396 -3.42,9.397 -3.421,9.397 -3.42,9.397 -3.42,9.397 -1.469,4.036 0,10 0,10 0,10 0,10 0,10 0,10 0,10 0,10 0,4.296 3.42,9.397 3.42,9.396 3.421,9.397 3.42,9.397 3.42,9.397 3.42,9.397 3.42,9.397 3.421,9.397 1.469,4.036 6.428,7.661 6.427,7.66 6.428,7.661 6.428,7.66 6.428,7.66 6.428,7.661 6.428,7.66 6.428,7.661 2.761,3.29 8.66,5 8.66,5 8.66,5.00005 8.661,5 8.66,5 8.66,5 8.66,5 8.661,5 3.719,2.148 9.848,1.736 9.849,1.737 9.848,1.736 9.848,1.737 9.848,1.736 9.848,1.737 9.848,1.736 9.848,1.737 4.23,0.745 9.848,-1.736 9.848,-1.737 9.848,-1.736 9.848,-1.736 9.848,-1.737 9.848,-1.736 9.849,-1.737 9.848,-1.736 4.23,-0.746 8.66,-5 8.66,-5 8.66,-5 8.661,-5 8.66,-5 8.66,-5.00005 8.66,-5 8.661,-5 3.719,-2.148 6.428,-7.66 6.428,-7.661 6.428,-7.66 6.428,-7.661 6.428,-7.66 6.428,-7.66 6.428,-7.661 6.427,-7.66 2.761,-3.291 3.421,-9.397 3.42,-9.397 3.42,-9.396 3.42,-9.397 3.42,-9.397 3.421,-9.397 3.42,-9.397 3.42,-9.397 1.469,-4.036 0,-10 0,-10 0,-10 0,-10 0,-10 0,-10 0,-10 0,-10 0,-4.295 -3.42,-9.397 -3.42,-9.397 -3.421,-9.397 -3.42,-9.397 -3.42,-9.397 -3.42,-9.397 -3.42,-9.397 -3.421,-9.397 -1.469,-4.036 -6.427,-7.661 -6.428,-7.66 -6.428,-7.66 -6.428,-7.661 -6.428,-7.66 -6.428,-7.661 -6.428,-7.66 -6.428,-7.661002 -2.76,-3.29 -8.661,-5 -8.66,-5 -8.66,-5 -8.66,-5 -8.661,-5 -8.66,-5 -8.66,-5 -8.66,-5 -3.72,-2.148 -9.848,-1.736 -9.848,-1.737 -9.848,-1.736 -9.849,-1.737 -9.848,-1.736 -9.848,-1.737 -9.848,-1.736 -9.848,-1.737 -4.23,-0.745 z"
         id="path6-5-2"
         inkscape:connector-curvature="0"
         style="fill:none;stroke:#d08b2b;stroke-width:10;stroke-linecap:butt;stroke-linejoin:round;stroke-miterlimit:4;stroke-dasharray:none;stroke-opacity:1" />
    </g>
  </g>
</svg>
