<?xml version="1.0" encoding="UTF-8" standalone="no"?>
<svg
   xmlns:dc="http://purl.org/dc/elements/1.1/"
   xmlns:cc="http://creativecommons.org/ns#"
   xmlns:rdf="http://www.w3.org/1999/02/22-rdf-syntax-ns#"
   xmlns:svg="http://www.w3.org/2000/svg"
   xmlns="http://www.w3.org/2000/svg"
   xmlns:sodipodi="http://sodipodi.sourceforge.net/DTD/sodipodi-0.dtd"
   xmlns:inkscape="http://www.inkscape.org/namespaces/inkscape"
   height="62"
   version="1.1"
   width="130"
   id="svg2"
   inkscape:version="0.91 r13725"
   sodipodi:docname="beam_sheet.svg">
  <metadata
     id="metadata34">
    <rdf:RDF>
      <cc:Work
         rdf:about="">
        <dc:format>image/svg+xml</dc:format>
        <dc:type
           rdf:resource="http://purl.org/dc/dcmitype/StillImage" />
        <dc:title />
      </cc:Work>
    </rdf:RDF>
  </metadata>
  <defs
     id="defs32" />
  <sodipodi:namedview
     pagecolor="#000000"
     bordercolor="#666666"
     borderopacity="1"
     objecttolerance="10"
     gridtolerance="10"
     guidetolerance="10"
     inkscape:pageopacity="0"
     inkscape:pageshadow="2"
     inkscape:window-width="1920"
     inkscape:window-height="1017"
     id="namedview30"
     showgrid="false"
     inkscape:zoom="4"
     inkscape:cx="51.895778"
     inkscape:cy="42.277669"
     inkscape:window-x="1912"
     inkscape:window-y="-8"
     inkscape:window-maximized="1"
     inkscape:current-layer="layer1"
     fit-margin-top="0"
     fit-margin-left="0"
     fit-margin-right="0"
     fit-margin-bottom="0" />
  <g
     inkscape:groupmode="layer"
     id="layer1"
     inkscape:label="blue"
     transform="translate(-203.83334,-93.908081)"
     style="display:inline">
    <path
       sodipodi:nodetypes="zszzz"
       inkscape:connector-curvature="0"
       id="path5257"
       d="m 255.83334,124.90808 c 0,30.74582 -5.82029,30.99999 -13,31 -7.17971,-1e-5 -13,-0.25418 -13,-31 0,-30.745819 5.82029,-30.999998 13,-30.999998 7.17971,0 13,0.254179 13,30.999998 z"
       style="fill:#991313;fill-opacity:0.72549021;stroke:none;stroke-width:10;stroke-miterlimit:4;stroke-dasharray:none;stroke-opacity:0.39215686" />
    <rect
       style="fill:#ea4f4d;fill-opacity:1;stroke:none;stroke-width:10;stroke-miterlimit:4;stroke-dasharray:none;stroke-opacity:0.39215686"
       id="rect4213"
       width="15"
       height="62"
       x="235.33334"
       y="93.908081" />
    <path
       style="fill:#134f99;fill-opacity:0.72549021;stroke:none;stroke-width:10;stroke-miterlimit:4;stroke-dasharray:none;stroke-opacity:0.39215686"
       d="m 229.83334,124.90808 c 0,30.74582 -5.82029,30.99999 -13,31 -7.17971,-1e-5 -13,-0.25418 -13,-31 0,-30.74582 5.82029,-30.999999 13,-30.999999 7.17971,0 13,0.254179 13,30.999999 z"
       id="path5194"
       inkscape:connector-curvature="0"
       sodipodi:nodetypes="zszzz" />
    <rect
       y="93.908081"
       x="209.33334"
       height="62"
       width="15"
       id="rect4179"
       style="fill:#4e93ea;fill-opacity:1;stroke:none;stroke-width:10;stroke-miterlimit:4;stroke-dasharray:none;stroke-opacity:0.39215686" />
    <path
       style="fill:#13994c;fill-opacity:0.72549021;stroke:none;stroke-width:10;stroke-miterlimit:4;stroke-dasharray:none;stroke-opacity:0.39215686"
       d="m 281.83334,124.90808 c 0,30.74582 -5.82029,30.99999 -13,31 -7.17971,-1e-5 -13,-0.25418 -13,-31 0,-30.745819 5.82029,-30.999998 13,-30.999998 7.17971,0 13,0.254179 13,30.999998 z"
       id="path5261"
       inkscape:connector-curvature="0"
       sodipodi:nodetypes="zszzz" />
    <rect
       y="93.908081"
       x="261.33334"
       height="62"
       width="15"
       id="rect4249"
       style="fill:#4eea91;fill-opacity:1;stroke:none;stroke-width:10;stroke-miterlimit:4;stroke-dasharray:none;stroke-opacity:0.39215686" />
    <path
       sodipodi:nodetypes="zszzz"
       inkscape:connector-curvature="0"
       id="path5267"
       d="m 307.83334,124.90808 c 0,30.74582 -5.82029,30.99999 -13,31 -7.17971,-1e-5 -13,-0.25418 -13,-31 0,-30.745819 5.82029,-30.999998 13,-30.999998 7.17971,0 13,0.254179 13,30.999998 z"
       style="fill:#701399;fill-opacity:0.72549021;stroke:none;stroke-width:10;stroke-miterlimit:4;stroke-dasharray:none;stroke-opacity:0.39215686" />
    <path
       style="fill:#565656;fill-opacity:0.72549021;stroke:none;stroke-width:10;stroke-miterlimit:4;stroke-dasharray:none;stroke-opacity:0.39215686"
       d="m 333.83334,124.90808 c 0,30.74582 -5.82029,30.99999 -13,31 -7.17971,-1e-5 -13,-0.25418 -13,-31 0,-30.745819 5.82029,-30.999998 13,-30.999998 7.17971,0 13,0.254179 13,30.999998 z"
       id="path5271"
       inkscape:connector-curvature="0"
       sodipodi:nodetypes="zszzz" />
    <rect
       style="fill:#bc4dea;fill-opacity:1;stroke:none;stroke-width:10;stroke-miterlimit:4;stroke-dasharray:none;stroke-opacity:0.39215686"
       id="rect4277"
       width="15"
       height="62"
       x="287.33334"
       y="93.908081" />
    <rect
       y="93.908081"
       x="313.33334"
       height="62"
       width="15"
       id="rect4305"
       style="fill:#9c9c9c;fill-opacity:1;stroke:none;stroke-width:10;stroke-miterlimit:4;stroke-dasharray:none;stroke-opacity:0.39215686" />
  </g>
  <g
     inkscape:groupmode="layer"
     id="layer2"
     inkscape:label="red"
     style="display:inline" />
  <g
     inkscape:groupmode="layer"
     id="layer4"
     inkscape:label="green"
     style="display:inline" />
  <g
     inkscape:groupmode="layer"
     id="layer3"
     inkscape:label="magenta"
     style="display:inline" />
  <g
     inkscape:groupmode="layer"
     id="layer5"
     inkscape:label="grey" />
</svg>
