<?xml version="1.0" encoding="UTF-8" standalone="no"?>
<!-- Created with Inkscape (http://www.inkscape.org/) -->

<svg
   xmlns:dc="http://purl.org/dc/elements/1.1/"
   xmlns:cc="http://creativecommons.org/ns#"
   xmlns:rdf="http://www.w3.org/1999/02/22-rdf-syntax-ns#"
   xmlns:svg="http://www.w3.org/2000/svg"
   xmlns="http://www.w3.org/2000/svg"
   xmlns:sodipodi="http://sodipodi.sourceforge.net/DTD/sodipodi-0.dtd"
   xmlns:inkscape="http://www.inkscape.org/namespaces/inkscape"
   width="1800"
   height="200"
   viewBox="0 0 508 56.444446"
   version="1.1"
   id="svg8"
   inkscape:version="0.91 r13725"
   sodipodi:docname="bloodseeker.svg">
  <defs
     id="defs2">
    <clipPath
       id="clipPath5015"
       clipPathUnits="userSpaceOnUse">
      <path
         mask="none"
         inkscape:connector-curvature="0"
         id="path5017"
         d="m 591.7709,817.9475 -43.75,18.12305 -18.1211,43.74805 61.8711,0 z m 18.61718,0 0,61.8711 61.8711,0 -18.1211,-43.74805 z m -80.48828,80.49024 18.1211,43.75 43.75,18.12109 0,-61.87109 z m 80.48828,0 0,61.87109 43.75,-18.12109 18.1211,-43.75 z"
         style="display:inline;fill:#2a7de6;fill-opacity:0.41176471;fill-rule:nonzero;stroke:none;stroke-width:4;stroke-miterlimit:4;stroke-dasharray:none;stroke-opacity:1" />
    </clipPath>
    <clipPath
       id="clipPath5907"
       clipPathUnits="userSpaceOnUse">
      <path
         style="display:inline;fill:#104588;fill-opacity:0.45955882;fill-rule:nonzero;stroke:none;stroke-width:5.27074242;stroke-miterlimit:4;stroke-dasharray:none;stroke-opacity:1"
         d="m 488.08117,314.0617 c 61.06164,16.08879 63.24536,115.45428 21.53938,144.47908 -41.70599,29.02466 -60.36849,28.58745 -128.37499,14.87028 -17.8104,-31.63017 -31.73609,-48.79044 -6.04724,-40.13952 126.13828,42.47807 145.03665,-54.86726 112.88285,-119.20984 z"
         id="path5909"
         inkscape:connector-curvature="0"
         sodipodi:nodetypes="cscsc"
         clip-path="none" />
    </clipPath>
    <clipPath
       id="clipPath5911"
       clipPathUnits="userSpaceOnUse">
      <path
         clip-path="none"
         sodipodi:nodetypes="cscsc"
         inkscape:connector-curvature="0"
         id="path5913"
         d="m 638.08119,314.0617 c 61.06164,16.08879 63.24536,115.45428 21.53938,144.47908 -41.70599,29.02466 -60.36849,28.58745 -128.37499,14.87028 -17.8104,-31.63017 -31.73609,-48.79044 -6.04724,-40.13952 126.13828,42.47807 145.03665,-54.86726 112.88285,-119.20984 z"
         style="display:inline;fill:#104588;fill-opacity:0.45955882;fill-rule:nonzero;stroke:none;stroke-width:5.27074242;stroke-miterlimit:4;stroke-dasharray:none;stroke-opacity:1" />
    </clipPath>
    <clipPath
       id="clipPath5915"
       clipPathUnits="userSpaceOnUse">
      <path
         style="display:inline;fill:#104588;fill-opacity:0.45955882;fill-rule:nonzero;stroke:none;stroke-width:5.27074242;stroke-miterlimit:4;stroke-dasharray:none;stroke-opacity:1"
         d="m 788.08121,314.0617 c 61.06164,16.08879 63.24536,115.45428 21.53938,144.47908 -41.70599,29.02466 -60.36849,28.58745 -128.37499,14.87028 -17.8104,-31.63017 -31.73609,-48.79044 -6.04724,-40.13952 126.13828,42.47807 145.03665,-54.86726 112.88285,-119.20984 z"
         id="path5917"
         inkscape:connector-curvature="0"
         sodipodi:nodetypes="cscsc"
         clip-path="none" />
    </clipPath>
    <clipPath
       id="clipPath5919"
       clipPathUnits="userSpaceOnUse">
      <path
         clip-path="none"
         sodipodi:nodetypes="cscsc"
         inkscape:connector-curvature="0"
         id="path5921"
         d="m 938.08123,314.0617 c 61.06164,16.08879 63.24537,115.45428 21.53938,144.47908 -41.70599,29.02466 -60.36849,28.58745 -128.37499,14.87028 -17.8104,-31.63017 -31.73609,-48.79044 -6.04724,-40.13952 126.13828,42.47807 145.03665,-54.86726 112.88285,-119.20984 z"
         style="display:inline;fill:#104588;fill-opacity:0.45955882;fill-rule:nonzero;stroke:none;stroke-width:5.27074242;stroke-miterlimit:4;stroke-dasharray:none;stroke-opacity:1" />
    </clipPath>
    <clipPath
       id="clipPath5923"
       clipPathUnits="userSpaceOnUse">
      <path
         style="display:inline;fill:#104588;fill-opacity:0.45955882;fill-rule:nonzero;stroke:none;stroke-width:5.27074242;stroke-miterlimit:4;stroke-dasharray:none;stroke-opacity:1"
         d="m 1088.0813,314.0617 c 61.0616,16.08879 63.2453,115.45428 21.5393,144.47908 -41.706,29.02466 -60.3685,28.58745 -128.37496,14.87028 -17.8104,-31.63017 -31.73609,-48.79044 -6.04724,-40.13952 126.1383,42.47807 145.0367,-54.86726 112.8829,-119.20984 z"
         id="path5925"
         inkscape:connector-curvature="0"
         sodipodi:nodetypes="cscsc"
         clip-path="none" />
    </clipPath>
    <clipPath
       id="clipPath5927"
       clipPathUnits="userSpaceOnUse">
      <path
         clip-path="none"
         sodipodi:nodetypes="cscsc"
         inkscape:connector-curvature="0"
         id="path5929"
         d="m 1238.0812,314.0617 c 61.0617,16.08879 63.2454,115.45428 21.5394,144.47908 -41.7059,29.02466 -60.3684,28.58745 -128.3749,14.87028 -17.8104,-31.63017 -31.7361,-48.79044 -6.0473,-40.13952 126.1383,42.47807 145.0366,-54.86726 112.8828,-119.20984 z"
         style="display:inline;fill:#104588;fill-opacity:0.45955882;fill-rule:nonzero;stroke:none;stroke-width:5.27074242;stroke-miterlimit:4;stroke-dasharray:none;stroke-opacity:1" />
    </clipPath>
    <clipPath
       id="clipPath5931"
       clipPathUnits="userSpaceOnUse">
      <path
         style="display:inline;fill:#104588;fill-opacity:0.45955882;fill-rule:nonzero;stroke:none;stroke-width:5.27074242;stroke-miterlimit:4;stroke-dasharray:none;stroke-opacity:1"
         d="m 1388.0812,314.0617 c 61.0617,16.08879 63.2454,115.45428 21.5394,144.47908 -41.706,29.02466 -60.3685,28.58745 -128.375,14.87028 -17.8104,-31.63017 -31.7361,-48.79044 -6.0472,-40.13952 126.1383,42.47807 145.0366,-54.86726 112.8828,-119.20984 z"
         id="path5933"
         inkscape:connector-curvature="0"
         sodipodi:nodetypes="cscsc"
         clip-path="none" />
    </clipPath>
    <clipPath
       id="clipPath4773"
       clipPathUnits="userSpaceOnUse">
      <path
         clip-path="none"
         sodipodi:nodetypes="cscsc"
         inkscape:connector-curvature="0"
         id="path4775"
         d="m 116.83099,0.8770208 c 57.16152,35.8424132 38.34252,112.9267192 13.42226,128.0229492 -43.459364,26.32687 -42.154199,14.4803 -110.160699,0.76313 0,0 -11.4139097,-12.45429 14.635508,-4.95876 C 124.23035,150.45796 148.98479,65.2196 116.83099,0.8770208 Z"
         style="display:inline;fill:#104588;fill-opacity:0.45955882;fill-rule:nonzero;stroke:none;stroke-width:5.27074242;stroke-miterlimit:4;stroke-dasharray:none;stroke-opacity:1" />
    </clipPath>
    <clipPath
       id="clipPath4927"
       clipPathUnits="userSpaceOnUse">
      <path
         style="display:inline;fill:#104588;fill-opacity:0.45955882;fill-rule:nonzero;stroke:none;stroke-width:5.27074242;stroke-miterlimit:4;stroke-dasharray:none;stroke-opacity:1"
         d="m 276.83101,2.5292399 c 57.16152,35.8424131 38.34252,112.9267201 13.42226,128.0229501 -43.45936,26.32687 -42.1542,14.4803 -110.1607,0.76313 0,0 -11.41391,-12.45429 14.63551,-4.95876 89.50229,25.75362 114.25673,-59.484741 82.10293,-123.8273201 z"
         id="path4929"
         inkscape:connector-curvature="0"
         sodipodi:nodetypes="cscsc"
         clip-path="none" />
    </clipPath>
    <clipPath
       id="clipPath4931"
       clipPathUnits="userSpaceOnUse">
      <path
         clip-path="none"
         sodipodi:nodetypes="cscsc"
         inkscape:connector-curvature="0"
         id="path4933"
         d="m 436.83103,2.5292399 c 57.16152,35.8424131 38.34252,112.9267201 13.42226,128.0229501 -43.45936,26.32687 -42.1542,14.4803 -110.1607,0.76313 0,0 -11.41391,-12.45429 14.63551,-4.95876 89.50229,25.75362 114.25673,-59.484741 82.10293,-123.8273201 z"
         style="display:inline;fill:#104588;fill-opacity:0.45955882;fill-rule:nonzero;stroke:none;stroke-width:5.27074242;stroke-miterlimit:4;stroke-dasharray:none;stroke-opacity:1" />
    </clipPath>
    <clipPath
       id="clipPath4935"
       clipPathUnits="userSpaceOnUse">
      <path
         style="display:inline;fill:#104588;fill-opacity:0.45955882;fill-rule:nonzero;stroke:none;stroke-width:5.27074242;stroke-miterlimit:4;stroke-dasharray:none;stroke-opacity:1"
         d="m 596.83105,2.5292399 c 57.16152,35.8424131 38.34252,112.9267201 13.42226,128.0229501 -43.45936,26.32687 -42.1542,14.4803 -110.1607,0.76313 0,0 -11.41391,-12.45429 14.63551,-4.95876 89.50229,25.75362 114.25673,-59.484741 82.10293,-123.8273201 z"
         id="path4937"
         inkscape:connector-curvature="0"
         sodipodi:nodetypes="cscsc"
         clip-path="none" />
    </clipPath>
    <clipPath
       id="clipPath4939"
       clipPathUnits="userSpaceOnUse">
      <path
         clip-path="none"
         sodipodi:nodetypes="cscsc"
         inkscape:connector-curvature="0"
         id="path4941"
         d="m 756.83107,2.5292399 c 57.16152,35.8424131 38.34252,112.9267201 13.42226,128.0229501 -43.45936,26.32687 -42.1542,14.4803 -110.1607,0.76313 0,0 -11.41391,-12.45429 14.63551,-4.95876 89.50229,25.75362 114.25673,-59.484741 82.10293,-123.8273201 z"
         style="display:inline;fill:#104588;fill-opacity:0.45955882;fill-rule:nonzero;stroke:none;stroke-width:5.27074242;stroke-miterlimit:4;stroke-dasharray:none;stroke-opacity:1" />
    </clipPath>
    <clipPath
       id="clipPath4943"
       clipPathUnits="userSpaceOnUse">
      <path
         style="display:inline;fill:#104588;fill-opacity:0.45955882;fill-rule:nonzero;stroke:none;stroke-width:5.27074242;stroke-miterlimit:4;stroke-dasharray:none;stroke-opacity:1"
         d="m 916.83109,2.5292399 c 57.16152,35.8424131 38.34252,112.9267201 13.42226,128.0229501 -43.45936,26.32687 -42.1542,14.4803 -110.1607,0.76313 0,0 -11.41391,-12.45429 14.63551,-4.95876 89.50229,25.75362 114.25673,-59.484741 82.10293,-123.8273201 z"
         id="path4945"
         inkscape:connector-curvature="0"
         sodipodi:nodetypes="cscsc"
         clip-path="none" />
    </clipPath>
    <clipPath
       id="clipPath4947"
       clipPathUnits="userSpaceOnUse">
      <path
         clip-path="none"
         sodipodi:nodetypes="cscsc"
         inkscape:connector-curvature="0"
         id="path4949"
         d="m 1076.8311,2.5292399 c 57.1615,35.8424131 38.3425,112.9267201 13.4223,128.0229501 -43.4594,26.32687 -42.1542,14.4803 -110.16073,0.76313 0,0 -11.41391,-12.45429 14.63551,-4.95876 89.50232,25.75362 114.25672,-59.484741 82.10292,-123.8273201 z"
         style="display:inline;fill:#104588;fill-opacity:0.45955882;fill-rule:nonzero;stroke:none;stroke-width:5.27074242;stroke-miterlimit:4;stroke-dasharray:none;stroke-opacity:1" />
    </clipPath>
    <clipPath
       id="clipPath4955"
       clipPathUnits="userSpaceOnUse">
      <path
         style="display:inline;fill:#104588;fill-opacity:0.45955882;fill-rule:nonzero;stroke:none;stroke-width:5.27074242;stroke-miterlimit:4;stroke-dasharray:none;stroke-opacity:1"
         d="m 1236.8311,2.5292399 c 57.1615,35.8424131 38.3425,112.9267201 13.4223,128.0229501 -43.4594,26.32687 -42.1542,14.4803 -110.1607,0.76313 0,0 -11.4139,-12.45429 14.6355,-4.95876 89.5023,25.75362 114.2567,-59.484741 82.1029,-123.8273201 z"
         id="path4957"
         inkscape:connector-curvature="0"
         sodipodi:nodetypes="cscsc"
         clip-path="none" />
    </clipPath>
    <clipPath
       id="clipPath4959"
       clipPathUnits="userSpaceOnUse">
      <path
         clip-path="none"
         sodipodi:nodetypes="cscsc"
         inkscape:connector-curvature="0"
         id="path4961"
         d="m 1396.8311,2.5292399 c 57.1615,35.8424131 38.3425,112.9267201 13.4223,128.0229501 -43.4594,26.32687 -42.1542,14.4803 -110.1607,0.76313 0,0 -11.4139,-12.45429 14.6355,-4.95876 89.5023,25.75362 114.2567,-59.484741 82.1029,-123.8273201 z"
         style="display:inline;fill:#104588;fill-opacity:0.45955882;fill-rule:nonzero;stroke:none;stroke-width:5.27074242;stroke-miterlimit:4;stroke-dasharray:none;stroke-opacity:1" />
    </clipPath>
    <clipPath
       id="clipPath4963"
       clipPathUnits="userSpaceOnUse">
      <path
         style="display:inline;fill:#104588;fill-opacity:0.45955882;fill-rule:nonzero;stroke:none;stroke-width:5.27074242;stroke-miterlimit:4;stroke-dasharray:none;stroke-opacity:1"
         d="m 1556.8311,2.5292399 c 57.1615,35.8424131 38.3425,112.9267201 13.4223,128.0229501 -43.4594,26.32687 -42.1542,14.4803 -110.1607,0.76313 0,0 -11.4139,-12.45429 14.6355,-4.95876 89.5023,25.75362 114.2567,-59.484741 82.1029,-123.8273201 z"
         id="path4965"
         inkscape:connector-curvature="0"
         sodipodi:nodetypes="cscsc"
         clip-path="none" />
    </clipPath>
    <clipPath
       id="clipPath4983"
       clipPathUnits="userSpaceOnUse">
      <path
         clip-path="none"
         sodipodi:nodetypes="cscsc"
         inkscape:connector-curvature="0"
         id="path4985"
         d="m 1716.8311,2.5292399 c 57.1615,35.8424131 38.3425,112.9267201 13.4223,128.0229501 -43.4594,26.32687 -42.1542,14.4803 -110.1607,0.76313 0,0 -11.4139,-12.45429 14.6355,-4.95876 89.5023,25.75362 114.2567,-59.484741 82.1029,-123.8273201 z"
         style="display:inline;fill:#104588;fill-opacity:0.45955882;fill-rule:nonzero;stroke:none;stroke-width:5.27074242;stroke-miterlimit:4;stroke-dasharray:none;stroke-opacity:1" />
    </clipPath>
    <clipPath
       id="clipPath4987"
       clipPathUnits="userSpaceOnUse">
      <path
         style="display:inline;fill:#104588;fill-opacity:0.45955882;fill-rule:nonzero;stroke:none;stroke-width:5.27074242;stroke-miterlimit:4;stroke-dasharray:none;stroke-opacity:1"
         d="m 1876.8311,2.5292399 c 57.1615,35.8424131 38.3425,112.9267201 13.4223,128.0229501 -43.4594,26.32687 -42.1542,14.4803 -110.1607,0.76313 0,0 -11.4139,-12.45429 14.6355,-4.95876 89.5023,25.75362 114.2567,-59.484741 82.1029,-123.8273201 z"
         id="path4989"
         inkscape:connector-curvature="0"
         sodipodi:nodetypes="cscsc"
         clip-path="none" />
    </clipPath>
    <clipPath
       id="clipPath4991"
       clipPathUnits="userSpaceOnUse">
      <path
         clip-path="none"
         sodipodi:nodetypes="cscsc"
         inkscape:connector-curvature="0"
         id="path4993"
         d="m 2036.8311,2.5292399 c 57.1615,35.8424131 38.3425,112.9267201 13.4223,128.0229501 -43.4594,26.32687 -42.1542,14.4803 -110.1607,0.76313 0,0 -11.4139,-12.45429 14.6355,-4.95876 89.5023,25.75362 114.2567,-59.484741 82.1029,-123.8273201 z"
         style="display:inline;fill:#104588;fill-opacity:0.45955882;fill-rule:nonzero;stroke:none;stroke-width:5.27074242;stroke-miterlimit:4;stroke-dasharray:none;stroke-opacity:1" />
    </clipPath>
    <clipPath
       id="clipPath4995"
       clipPathUnits="userSpaceOnUse">
      <path
         style="display:inline;fill:#104588;fill-opacity:0.45955882;fill-rule:nonzero;stroke:none;stroke-width:5.27074242;stroke-miterlimit:4;stroke-dasharray:none;stroke-opacity:1"
         d="m 2196.8311,2.5292399 c 57.1615,35.8424131 38.3425,112.9267201 13.4223,128.0229501 -43.4594,26.32687 -42.1542,14.4803 -110.1607,0.76313 0,0 -11.4139,-12.45429 14.6355,-4.95876 89.5023,25.75362 114.2567,-59.484741 82.1029,-123.8273201 z"
         id="path4997"
         inkscape:connector-curvature="0"
         sodipodi:nodetypes="cscsc"
         clip-path="none" />
    </clipPath>
    <clipPath
       id="clipPath4999"
       clipPathUnits="userSpaceOnUse">
      <path
         clip-path="none"
         sodipodi:nodetypes="cscsc"
         inkscape:connector-curvature="0"
         id="path5001"
         d="m 2356.8311,2.5292399 c 57.1615,35.8424131 38.3425,112.9267201 13.4223,128.0229501 -43.4594,26.32687 -42.1542,14.4803 -110.1607,0.76313 0,0 -11.4139,-12.45429 14.6355,-4.95876 89.5023,25.75362 114.2567,-59.484741 82.1029,-123.8273201 z"
         style="display:inline;fill:#104588;fill-opacity:0.45955882;fill-rule:nonzero;stroke:none;stroke-width:5.27074242;stroke-miterlimit:4;stroke-dasharray:none;stroke-opacity:1" />
    </clipPath>
    <clipPath
       id="clipPath5003"
       clipPathUnits="userSpaceOnUse">
      <path
         style="display:inline;fill:#104588;fill-opacity:0.45955882;fill-rule:nonzero;stroke:none;stroke-width:5.27074242;stroke-miterlimit:4;stroke-dasharray:none;stroke-opacity:1"
         d="m 2516.8311,2.5292399 c 57.1615,35.8424131 38.3425,112.9267201 13.4223,128.0229501 -43.4594,26.32687 -42.1542,14.4803 -110.1607,0.76313 0,0 -11.4139,-12.45429 14.6355,-4.95876 89.5023,25.75362 114.2567,-59.484741 82.1029,-123.8273201 z"
         id="path5005"
         inkscape:connector-curvature="0"
         sodipodi:nodetypes="cscsc"
         clip-path="none" />
    </clipPath>
  </defs>
  <sodipodi:namedview
     id="base"
     pagecolor="#000000"
     bordercolor="#666666"
     borderopacity="1.0"
     inkscape:pageopacity="0"
     inkscape:pageshadow="2"
     inkscape:zoom="0.25000001"
     inkscape:cx="1275.0535"
     inkscape:cy="196.05124"
     inkscape:document-units="px"
     inkscape:current-layer="layer5"
     showgrid="false"
     inkscape:window-width="1920"
     inkscape:window-height="1017"
     inkscape:window-x="1912"
     inkscape:window-y="-8"
     inkscape:window-maximized="1"
     fit-margin-top="0"
     fit-margin-left="0"
     fit-margin-right="0"
     fit-margin-bottom="0"
     inkscape:object-nodes="true"
     inkscape:snap-object-midpoints="true"
     inkscape:snap-center="true"
     units="px" />
  <metadata
     id="metadata5">
    <rdf:RDF>
      <cc:Work
         rdf:about="">
        <dc:format>image/svg+xml</dc:format>
        <dc:type
           rdf:resource="http://purl.org/dc/dcmitype/StillImage" />
        <dc:title></dc:title>
      </cc:Work>
    </rdf:RDF>
  </metadata>
  <g
     inkscape:groupmode="layer"
     id="layer4"
     inkscape:label="bg"
     style="display:none"
     sodipodi:insensitive="true">
    <rect
       style="fill:#424242;fill-opacity:0.52941165;fill-rule:nonzero;stroke:none;stroke-width:0.454;stroke-miterlimit:4;stroke-dasharray:1.81599999, 1.81599999;stroke-dashoffset:0;stroke-opacity:1"
       id="rect4204"
       width="56.444447"
       height="56.444447"
       x="-1.4210855e-014"
       y="-8.9515873e-007" />
  </g>
  <g
     inkscape:groupmode="layer"
     id="layer6"
     inkscape:label="base"
     style="display:inline" />
  <g
     inkscape:groupmode="layer"
     id="layer5"
     inkscape:label="upper"
     transform="translate(0,-3.5555582)"
     style="display:inline">
    <g
       id="g4366"
       transform="translate(451.5556,0)">
      <path
         inkscape:connector-curvature="0"
         id="path4183"
         d="M 27.516702,4.9664502 A 27.516513,27.516765 0 0 0 -2.1677768e-4,32.483117 27.516513,27.516765 0 0 0 27.516702,59.999784 27.516513,27.516765 0 0 0 55.033117,32.483117 27.516513,27.516765 0 0 0 27.516702,4.9664502 Z m 7.071606,3.5745124 0.703265,4.8384844 a 20.637386,20.637574 0 0 1 7.04582,4.743938 l 4.972926,-0.852928 -2.275128,4.328346 a 20.637386,20.637574 0 0 1 2.890423,7.968078 l 4.546212,2.243801 -4.392514,2.167966 a 20.637386,20.637574 0 0 1 -2.332259,8.151608 l 2.354,4.477492 -4.805071,-0.824109 a 20.637386,20.637574 0 0 1 -6.7,5.218181 L 35.867941,56.009676 32.44817,52.500892 A 20.637386,20.637574 0 0 1 27.516702,53.120743 20.637386,20.637574 0 0 1 23.98368,52.795142 L 20.44459,56.42527 19.74183,51.587292 A 20.637386,20.637574 0 0 1 12.695504,46.842846 L 7.7225791,47.695777 9.9982138,43.36743 A 20.637386,20.637574 0 0 1 7.1077888,35.399858 L 2.5610719,33.156055 6.9540913,30.987584 a 20.637386,20.637574 0 0 1 2.331753,-8.150595 l -2.3539994,-4.478 4.8050711,0.82411 a 20.637386,20.637574 0 0 1 6.700507,-5.218686 l 0.727537,-5.0078567 3.420276,3.5087857 a 20.637386,20.637574 0 0 1 4.931466,-0.619852 20.637386,20.637574 0 0 1 3.533023,0.326105 l 3.538583,-3.6306324 z"
         style="display:inline;fill:#760e0e;fill-opacity:0.64705882;fill-rule:nonzero;stroke:none;stroke-width:12.93099976;stroke-miterlimit:4;stroke-dasharray:none;stroke-opacity:1" />
      <ellipse
         ry="25.932896"
         rx="25.932659"
         style="opacity:1;fill:none;fill-opacity:0;stroke:#000000;stroke-width:0.41641849;stroke-miterlimit:4;stroke-dasharray:1.66567394, 1.66567394;stroke-dashoffset:0;stroke-opacity:1"
         id="circle4220"
         cx="27.516447"
         cy="32.483105" />
    </g>
    <g
       id="g4361"
       transform="translate(338.6667,0)">
      <path
         style="display:inline;fill:#760e0e;fill-opacity:0.64705882;fill-rule:nonzero;stroke:none;stroke-width:12.93099976;stroke-miterlimit:4;stroke-dasharray:none;stroke-opacity:1"
         d="M 82.041681,5.033462 A 27.516765,27.516513 86 0 0 56.511257,34.402583 27.516765,27.516513 86 0 0 85.880612,59.932737 27.516765,27.516513 86 0 0 111.41053,30.563652 27.516765,27.516513 86 0 0 82.041681,5.033462 Z m 7.303725,3.0725148 1.039067,4.7776412 a 20.637574,20.637386 86 0 1 7.359578,4.24089 l 4.901319,-1.197744 -1.96766,4.476507 a 20.637574,20.637386 86 0 1 3.43921,7.747043 l 4.69165,1.921207 -4.23058,2.469091 a 20.637574,20.637386 86 0 1 -1.75795,8.294442 l 2.6606,4.302378 -4.85085,-0.486917 a 20.637574,20.637386 86 0 1 -6.319681,5.672838 l -0.376937,5.046443 -3.656201,-3.261686 a 20.637574,20.637386 86 0 1 -4.876217,0.962343 20.637574,20.637386 86 0 1 -3.547128,-0.07836 l -3.277244,3.868159 -1.038529,-4.777171 a 20.637574,20.637386 86 0 1 -7.360117,-4.241362 l -4.901314,1.197747 1.968161,-4.476543 A 20.637574,20.637386 86 0 1 63.80541,36.816389 l -4.692161,-1.921174 4.231053,-2.46963 a 20.637574,20.637386 86 0 1 1.757516,-8.293396 l -2.660634,-4.302885 4.850853,0.486918 a 20.637574,20.637386 86 0 1 6.320148,-5.673377 l 0.376434,-5.0464086 3.656705,3.2616526 a 20.637574,20.637386 86 0 1 4.876214,-0.962344 20.637574,20.637386 86 0 1 3.547165,0.07886 l 3.276703,-3.8686272 z"
         id="path4221"
         inkscape:connector-curvature="0" />
      <ellipse
         transform="matrix(0.99756405,-0.06975647,0.06975647,0.99756405,0,0)"
         cy="38.260792"
         cx="81.490463"
         id="ellipse4223"
         style="opacity:1;fill:none;fill-opacity:0;stroke:#000000;stroke-width:0.41641849;stroke-miterlimit:4;stroke-dasharray:1.66567394, 1.66567394;stroke-dashoffset:0;stroke-opacity:1"
         rx="25.932659"
         ry="25.932896" />
    </g>
    <g
       id="g4356"
       transform="translate(225.7778,0)">
      <path
         inkscape:connector-curvature="0"
         id="path4239"
         d="M 136.57601,5.2342055 A 27.516765,27.516513 82 0 0 113.15646,36.312697 27.516765,27.516513 82 0 0 144.23517,59.731959 27.516765,27.516513 82 0 0 167.65421,28.653537 27.516765,27.516513 82 0 0 136.57601,5.2342055 Z m 7.50026,2.5555482 1.36981,4.6935213 a 20.637574,20.637386 82 0 1 7.63748,3.717181 l 4.80582,-1.536724 -1.6506,4.602859 a 20.637574,20.637386 82 0 1 3.97124,7.488264 l 4.81425,1.589254 -4.04805,2.758187 a 20.637574,20.637386 82 0 1 -1.17508,8.396865 l 2.95424,4.106304 -4.873,-0.147352 a 20.637574,20.637386 82 0 1 -5.90857,6.099858 l -0.024,5.060443 -3.87482,-2.998696 a 20.637574,20.637386 82 0 1 -4.79721,1.300146 20.637574,20.637386 82 0 1 -3.54395,0.169269 l -2.99944,4.087346 -1.36923,-4.693089 a 20.637574,20.637386 82 0 1 -7.63805,-3.717615 l -4.80583,1.536728 1.6511,-4.602931 a 20.637574,20.637386 82 0 1 -3.97117,-7.487763 l -4.81474,-1.589186 4.04847,-2.758757 a 20.637574,20.637386 82 0 1 1.17472,-8.395792 l -2.95431,-4.106807 4.873,0.147354 a 20.637574,20.637386 82 0 1 5.909,-6.100429 l 0.0235,-5.060374 3.87532,2.998628 a 20.637574,20.637386 82 0 1 4.7972,-1.300147 20.637574,20.637386 82 0 1 3.54403,-0.16877 l 2.99886,-4.0877753 z"
         style="display:inline;fill:#760e0e;fill-opacity:0.64705882;fill-rule:nonzero;stroke:none;stroke-width:12.93099976;stroke-miterlimit:4;stroke-dasharray:none;stroke-opacity:1" />
      <ellipse
         transform="matrix(0.99026807,-0.1391731,0.1391731,0.99026807,0,0)"
         ry="25.932896"
         rx="25.932659"
         style="opacity:1;fill:none;fill-opacity:0;stroke:#000000;stroke-width:0.41641849;stroke-miterlimit:4;stroke-dasharray:1.66567394, 1.66567394;stroke-dashoffset:0;stroke-opacity:1"
         id="ellipse4241"
         cx="134.51814"
         cy="51.707626" />
    </g>
    <g
       id="g4351"
       transform="translate(112.8889,0)">
      <path
         style="display:inline;fill:#760e0e;fill-opacity:0.64705882;fill-rule:nonzero;stroke:none;stroke-width:12.93099976;stroke-miterlimit:4;stroke-dasharray:none;stroke-opacity:1"
         d="M 191.12899,5.5677031 A 27.516765,27.516513 78 0 0 169.93442,38.204154 27.516765,27.516513 78 0 0 202.57106,59.398427 27.516765,27.516513 78 0 0 223.76514,26.76208 27.516765,27.516513 78 0 0 191.12899,5.5677031 Z m 7.66026,2.0261312 1.69387,4.5865347 a 20.637574,20.637386 78 0 1 7.87817,3.175363 l 4.68692,-1.868219 -1.32549,4.706787 a 20.637574,20.637386 78 0 1 4.48391,7.193004 l 4.91338,1.249558 -3.84578,3.033846 a 20.637574,20.637386 78 0 1 -0.58648,8.458379 l 3.23349,3.890224 -4.87142,0.192931 a 20.637574,20.637386 78 0 1 -5.46866,6.497159 l 0.32906,5.049791 -4.07456,-2.721099 a 20.637574,20.637386 78 0 1 -4.69483,1.631616 20.637574,20.637386 78 0 1 -3.52351,0.416071 l -2.70701,4.286619 -1.69328,-4.586145 A 20.637574,20.637386 78 0 1 185.33826,49.6105 l -4.68692,1.868221 1.32599,-4.706893 a 20.637574,20.637386 78 0 1 -4.48381,-7.192508 l -4.91387,-1.249455 3.84617,-3.034445 a 20.637574,20.637386 78 0 1 0.58619,-8.457284 l -3.23358,-3.890721 4.87141,-0.192929 a 20.637574,20.637386 78 0 1 5.46906,-6.497759 l -0.32956,-5.049686 4.07505,2.720995 a 20.637574,20.637386 78 0 1 4.69483,-1.631617 20.637574,20.637386 78 0 1 3.52362,-0.415578 l 2.70641,-4.2870067 z"
         id="path4245"
         inkscape:connector-curvature="0" />
      <ellipse
         transform="matrix(0.9781476,-0.20791169,0.20791169,0.9781476,0,0)"
         cy="72.700638"
         cx="185.79451"
         id="ellipse4247"
         style="opacity:1;fill:none;fill-opacity:0;stroke:#000000;stroke-width:0.41641849;stroke-miterlimit:4;stroke-dasharray:1.66567394, 1.66567394;stroke-dashoffset:0;stroke-opacity:1"
         rx="25.932659"
         ry="25.932896" />
    </g>
    <g
       id="g4346"
       transform="translate(2.4286179e-6,0)">
      <path
         inkscape:connector-curvature="0"
         id="path4251"
         d="M 245.70984,6.03233 A 27.516765,27.516513 74 0 0 226.8435,40.067739 27.516765,27.516513 74 0 0 260.87908,58.933766 27.516765,27.516513 74 0 0 279.74494,24.898496 27.516765,27.516513 74 0 0 245.70984,6.03233 Z m 7.78293,1.4868432 2.00969,4.4572038 a 20.637574,20.637386 74 0 1 8.08049,2.618075 l 4.54518,-2.190612 -0.99394,4.787784 a 20.637574,20.637386 74 0 1 4.97475,6.8627 l 4.98858,0.903774 -3.62478,3.294723 a 20.637574,20.637386 74 0 1 0.005,8.478687 l 3.49698,3.655191 -4.84609,0.532272 a 20.637574,20.637386 74 0 1 -5.00213,6.862808 l 0.68052,5.014536 -4.25445,-2.430243 a 20.637574,20.637386 74 0 1 -4.56958,1.955135 20.637574,20.637386 74 0 1 -3.4859,0.660845 l -2.4014,4.465009 -2.00906,-4.456856 a 20.637574,20.637386 74 0 1 -8.08111,-2.618424 l -4.54518,2.190614 0.99442,-4.787924 a 20.637574,20.637386 74 0 1 -4.97461,-6.862213 l -4.98906,-0.903637 3.62513,-3.295348 A 20.637574,20.637386 74 0 1 233.111,28.2357 l -3.49711,-3.65568 4.84609,-0.532272 a 20.637574,20.637386 74 0 1 5.00247,-6.863433 l -0.681,-5.014397 4.25494,2.430106 a 20.637574,20.637386 74 0 1 4.56957,-1.955136 20.637574,20.637386 74 0 1 3.48605,-0.660361 l 2.40076,-4.4653538 z"
         style="display:inline;fill:#760e0e;fill-opacity:0.64705882;fill-rule:nonzero;stroke:none;stroke-width:12.93099976;stroke-miterlimit:4;stroke-dasharray:none;stroke-opacity:1" />
      <ellipse
         transform="matrix(0.9612617,-0.27563735,0.27563735,0.9612617,0,0)"
         ry="25.932896"
         rx="25.932659"
         style="opacity:1;fill:none;fill-opacity:0;stroke:#000000;stroke-width:0.41641849;stroke-miterlimit:4;stroke-dasharray:1.66567394, 1.66567394;stroke-dashoffset:0;stroke-opacity:1"
         id="ellipse4253"
         cx="234.52847"
         cy="101.04211" />
    </g>
    <g
       id="g4341"
       transform="translate(-112.88889,0)">
      <path
         style="display:inline;fill:#760e0e;fill-opacity:0.64705882;fill-rule:nonzero;stroke:none;stroke-width:12.93099976;stroke-miterlimit:4;stroke-dasharray:none;stroke-opacity:1"
         d="M 300.32764,6.6258224 A 27.516765,27.516513 70 0 0 283.88145,41.894372 27.516765,27.516513 70 0 0 319.15015,58.340241 27.516765,27.516513 70 0 0 335.59586,23.071863 27.516765,27.516513 70 0 0 300.32764,6.6258224 Z m 7.86769,0.9403113 2.31571,4.3061573 a 20.637574,20.637386 70 0 1 8.24343,2.048031 l 4.3813,-2.502331 -0.65754,4.845455 a 20.637574,20.637386 70 0 1 5.44136,6.498961 l 5.03946,0.553587 -3.38612,3.53955 a 20.637574,20.637386 70 0 1 0.5964,8.457686 l 3.74343,3.40235 -4.79715,0.869022 a 20.637574,20.637386 70 0 1 -4.51122,7.195021 l 1.02866,4.954851 -4.41361,-2.127548 a 20.637574,20.637386 70 0 1 -4.42206,2.26913 20.637574,20.637386 70 0 1 -3.43132,0.9024 l -2.08408,4.621645 -2.31507,-4.305854 a 20.637574,20.637386 70 0 1 -8.24407,-2.048336 l -4.3813,2.502334 0.65801,-4.845629 a 20.637574,20.637386 70 0 1 -5.44118,-6.498485 l -5.03994,-0.553417 3.38643,-3.540197 a 20.637574,20.637386 70 0 1 -0.59654,-8.456561 l -3.7436,-3.402828 4.79715,-0.869021 a 20.637574,20.637386 70 0 1 4.51152,-7.195669 l -1.02913,-4.954678 4.41409,2.127376 a 20.637574,20.637386 70 0 1 4.42206,-2.269131 20.637574,20.637386 70 0 1 3.43149,-0.901926 l 2.08343,-4.6219453 z"
         id="path4257"
         inkscape:connector-curvature="0" />
      <ellipse
         transform="matrix(0.93969262,-0.34202014,0.34202014,0.93969262,0,0)"
         cy="136.461"
         cx="279.94925"
         id="ellipse4259"
         style="opacity:1;fill:none;fill-opacity:0;stroke:#000000;stroke-width:0.41641849;stroke-miterlimit:4;stroke-dasharray:1.66567394, 1.66567394;stroke-dashoffset:0;stroke-opacity:1"
         rx="25.932659"
         ry="25.932896" />
    </g>
    <g
       id="g4336"
       transform="translate(-225.77779,0)">
      <path
         inkscape:connector-curvature="0"
         id="path4263"
         d="M 354.99129,7.3452892 A 27.516765,27.516513 66 0 0 341.04537,43.675155 27.516765,27.516513 66 0 0 377.37536,57.620742 27.516765,27.516513 66 0 0 391.32082,21.291081 27.516765,27.516513 66 0 0 354.99129,7.3452892 Z m 7.91411,0.3891983 2.61046,4.1341315 a 20.637574,20.637386 66 0 1 8.36621,1.46801 l 4.19608,-2.801859 -0.31794,4.879518 a 20.637574,20.637386 66 0 1 5.88144,6.103561 l 5.06581,0.200703 -3.13097,3.767132 a 20.637574,20.637386 66 0 1 1.18493,8.39548 l 3.97165,3.132934 -4.72485,1.201538 a 20.637574,20.637386 66 0 1 -3.99833,7.492181 l 1.37178,4.871025 -4.55126,-1.814488 a 20.637574,20.637386 66 0 1 -4.25301,2.572071 20.637574,20.637386 66 0 1 -3.36001,1.139558 l -1.75661,4.755765 -2.60979,-4.133875 a 20.637574,20.637386 66 0 1 -8.36688,-1.468268 l -4.19607,2.801862 0.3184,-4.879726 a 20.637574,20.637386 66 0 1 -5.88124,-6.103097 l -5.06627,-0.2005 3.13122,-3.767799 a 20.637574,20.637386 66 0 1 -1.18498,-8.394348 l -3.97185,-3.133399 4.72485,-1.201537 a 20.637574,20.637386 66 0 1 3.99858,-7.492848 l -1.37224,-4.870821 4.55173,1.814284 a 20.637574,20.637386 66 0 1 4.253,-2.572071 20.637574,20.637386 66 0 1 3.36022,-1.139098 l 1.75594,-4.7560195 z"
         style="display:inline;fill:#760e0e;fill-opacity:0.64705882;fill-rule:nonzero;stroke:none;stroke-width:12.93099976;stroke-miterlimit:4;stroke-dasharray:none;stroke-opacity:1" />
      <ellipse
         transform="matrix(0.91354546,-0.40673664,0.40673664,0.91354546,0,0)"
         ry="25.932896"
         rx="25.932659"
         style="opacity:1;fill:none;fill-opacity:0;stroke:#000000;stroke-width:0.41641849;stroke-miterlimit:4;stroke-dasharray:1.66567394, 1.66567394;stroke-dashoffset:0;stroke-opacity:1"
         id="ellipse4265"
         cx="321.31284"
         cy="178.61487" />
    </g>
    <g
       id="g4331"
       transform="translate(-338.66669,0)">
      <path
         style="display:inline;fill:#760e0e;fill-opacity:0.64705882;fill-rule:nonzero;stroke:none;stroke-width:12.93099976;stroke-miterlimit:4;stroke-dasharray:none;stroke-opacity:1"
         d="M 409.70946,8.1872243 A 27.516765,27.516513 62.000001 0 0 398.33176,45.40141 27.516765,27.516513 62.000001 0 0 435.54605,56.778775 27.516765,27.516513 62.000001 0 0 446.92331,19.564825 27.516765,27.516513 62.000001 0 0 409.70946,8.1872243 Z m 7.92199,-0.1638107 2.89248,3.9419654 a 20.637574,20.637386 62.000001 0 1 8.44823,0.880837 l 3.99041,-3.0877385 0.0232,4.8898105 a 20.637574,20.637386 62.000001 0 1 6.29288,5.678424 l 5.06746,-0.153158 -2.86056,3.97636 a 20.637574,20.637386 62.000001 0 1 1.76769,8.292373 l 4.18051,2.848254 -4.62952,1.528199 a 20.637574,20.637386 62.000001 0 1 -3.46596,7.75284 l 1.70822,4.763469 -4.66675,-1.492587 a 20.637574,20.637386 62.000001 0 1 -4.06323,2.86248 20.637574,20.637386 62.000001 0 1 -3.27233,1.371165 l -1.42059,4.866715 -2.89179,-3.941756 a 20.637574,20.637386 62.000001 0 1 -8.44892,-0.881047 l -3.99041,3.08774 -0.0228,-4.890049 a 20.637574,20.637386 62.000001 0 1 -6.29264,-5.677977 l -5.06791,0.153394 2.86077,-3.977044 a 20.637574,20.637386 62.000001 0 1 -1.76766,-8.29124 l -4.18075,-2.848704 4.62952,-1.528198 a 20.637574,20.637386 62.000001 0 1 3.46617,-7.753524 l -1.70867,-4.763233 4.6672,1.492352 a 20.637574,20.637386 62.000001 0 1 4.06323,-2.86248 20.637574,20.637386 62.000001 0 1 3.27257,-1.37072 l 1.4199,-4.8669224 z"
         id="path4269"
         inkscape:connector-curvature="0" />
      <ellipse
         transform="matrix(0.8829476,-0.46947155,0.46947155,0.8829476,0,0)"
         cy="227.09248"
         cx="357.90805"
         id="ellipse4271"
         style="opacity:1;fill:none;fill-opacity:0;stroke:#000000;stroke-width:0.41641849;stroke-miterlimit:4;stroke-dasharray:1.66567394, 1.66567394;stroke-dashoffset:0;stroke-opacity:1"
         rx="25.932659"
         ry="25.932896" />
    </g>
    <g
       id="g4326"
       transform="translate(-451.5556,0)">
      <path
         inkscape:connector-curvature="0"
         id="path4281"
         d="m 464.49057,9.1475273 a 27.516765,27.516513 58.000001 0 0 -8.75405,37.9172027 27.516765,27.516513 58.000001 0 0 37.91728,8.753712 27.516765,27.516513 58.000001 0 0 8.75363,-37.916936 27.516765,27.516513 58.000001 0 0 -37.91686,-8.7539787 z m 7.89127,-0.7160217 3.16041,3.7305934 a 20.637574,20.637386 58.000001 0 1 8.4891,0.289372 l 3.76529,-3.3585728 0.36426,4.8762798 a 20.637574,20.637386 58.000001 0 1 6.67366,5.225623 l 5.04444,-0.506274 -2.57622,4.166217 a 20.637574,20.637386 58.000001 0 1 2.34183,8.148865 l 4.36901,2.549698 -4.51164,1.847416 a 20.637574,20.637386 58.000001 0 1 -2.91671,7.975727 l 2.03635,4.632706 -4.75951,-1.163415 a 20.637574,20.637386 58.000001 0 1 -3.85365,3.138943 20.637574,20.637386 58.000001 0 1 -3.16871,1.596091 l -1.07765,4.953956 -3.15971,-3.730432 a 20.637574,20.637386 58.000001 0 1 -8.4898,-0.289535 l -3.76529,3.358575 -0.36383,-4.876549 a 20.637574,20.637386 58.000001 0 1 -6.67339,-5.225193 l -5.04487,0.50654 2.57638,-4.166913 a 20.637574,20.637386 58.000001 0 1 -2.34172,-8.147737 l -4.36928,-2.55013 4.51164,-1.847415 a 20.637574,20.637386 58.000001 0 1 2.91687,-7.976425 l -2.03677,-4.632439 4.75993,1.163149 a 20.637574,20.637386 58.000001 0 1 3.85365,-3.138943 20.637574,20.637386 58.000001 0 1 3.16898,-1.595664 l 1.07695,-4.9541144 z"
         style="display:inline;fill:#760e0e;fill-opacity:0.64705882;fill-rule:nonzero;stroke:none;stroke-width:12.93099976;stroke-miterlimit:4;stroke-dasharray:none;stroke-opacity:1" />
      <ellipse
         transform="matrix(0.8480481,-0.52991925,0.52991925,0.8480481,0,0)"
         ry="25.932896"
         rx="25.932659"
         style="opacity:1;fill:none;fill-opacity:0;stroke:#000000;stroke-width:0.41641849;stroke-miterlimit:4;stroke-dasharray:1.66567394, 1.66567394;stroke-dashoffset:0;stroke-opacity:1"
         id="ellipse4283"
         cx="389.06265"
         cy="281.41669" />
    </g>
  </g>
</svg>
