<?xml version="1.0" encoding="UTF-8" standalone="no"?>
<svg
   xmlns:dc="http://purl.org/dc/elements/1.1/"
   xmlns:cc="http://creativecommons.org/ns#"
   xmlns:rdf="http://www.w3.org/1999/02/22-rdf-syntax-ns#"
   xmlns:svg="http://www.w3.org/2000/svg"
   xmlns="http://www.w3.org/2000/svg"
   xmlns:xlink="http://www.w3.org/1999/xlink"
   xmlns:sodipodi="http://sodipodi.sourceforge.net/DTD/sodipodi-0.dtd"
   xmlns:inkscape="http://www.inkscape.org/namespaces/inkscape"
   height="260"
   version="1.1"
   width="350"
   id="svg2"
   inkscape:version="0.91 r13725"
   sodipodi:docname="crit_anim_wip2.svg">
  <metadata
     id="metadata34">
    <rdf:RDF>
      <cc:Work
         rdf:about="">
        <dc:format>image/svg+xml</dc:format>
        <dc:type
           rdf:resource="http://purl.org/dc/dcmitype/StillImage" />
        <dc:title />
      </cc:Work>
    </rdf:RDF>
  </metadata>
  <defs
     id="defs32">
    <linearGradient
       inkscape:collect="always"
       id="linearGradient4254">
      <stop
         style="stop-color:#deeafb;stop-opacity:1;"
         offset="0"
         id="stop4256" />
      <stop
         style="stop-color:#deeafb;stop-opacity:0;"
         offset="1"
         id="stop4258" />
    </linearGradient>
    <radialGradient
       inkscape:collect="always"
       xlink:href="#linearGradient4254"
       id="radialGradient4260"
       cx="25.042881"
       cy="-127.82287"
       fx="25.042881"
       fy="-127.82287"
       r="17.071068"
       gradientTransform="matrix(1.4629942,0,0,3.5805086,-11.59471,340.8082)"
       gradientUnits="userSpaceOnUse" />
    <radialGradient
       inkscape:collect="always"
       xlink:href="#linearGradient4254"
       id="radialGradient4264"
       gradientUnits="userSpaceOnUse"
       gradientTransform="matrix(1.4629942,0,0,3.5805086,38.40529,340.8082)"
       cx="25.042881"
       cy="-127.82287"
       fx="25.042881"
       fy="-127.82287"
       r="17.071068" />
    <radialGradient
       inkscape:collect="always"
       xlink:href="#linearGradient4254"
       id="radialGradient4268"
       gradientUnits="userSpaceOnUse"
       gradientTransform="matrix(1.4629942,0,0,3.5805086,88.40529,340.8082)"
       cx="25.042881"
       cy="-127.82287"
       fx="25.042881"
       fy="-127.82287"
       r="17.071068" />
    <radialGradient
       inkscape:collect="always"
       xlink:href="#linearGradient4254"
       id="radialGradient4272"
       gradientUnits="userSpaceOnUse"
       gradientTransform="matrix(1.4629942,0,0,3.5805086,138.40529,340.8082)"
       cx="25.042881"
       cy="-127.82287"
       fx="25.042881"
       fy="-127.82287"
       r="17.071068" />
    <radialGradient
       inkscape:collect="always"
       xlink:href="#linearGradient4254"
       id="radialGradient4276"
       gradientUnits="userSpaceOnUse"
       gradientTransform="matrix(1.4629942,0,0,3.5805086,188.40529,340.8082)"
       cx="25.042881"
       cy="-127.82287"
       fx="25.042881"
       fy="-127.82287"
       r="17.071068" />
    <radialGradient
       inkscape:collect="always"
       xlink:href="#linearGradient4254"
       id="radialGradient4280"
       gradientUnits="userSpaceOnUse"
       gradientTransform="matrix(1.4629942,0,0,3.5805086,238.40529,340.8082)"
       cx="25.042881"
       cy="-127.82287"
       fx="25.042881"
       fy="-127.82287"
       r="17.071068" />
    <radialGradient
       inkscape:collect="always"
       xlink:href="#linearGradient4254"
       id="radialGradient4284"
       gradientUnits="userSpaceOnUse"
       gradientTransform="matrix(1.4629942,0,0,3.5805086,288.40529,340.8082)"
       cx="25.042881"
       cy="-127.82287"
       fx="25.042881"
       fy="-127.82287"
       r="17.071068" />
  </defs>
  <sodipodi:namedview
     pagecolor="#000000"
     bordercolor="#666666"
     borderopacity="1"
     objecttolerance="10"
     gridtolerance="10"
     guidetolerance="10"
     inkscape:pageopacity="0"
     inkscape:pageshadow="2"
     inkscape:window-width="1920"
     inkscape:window-height="1017"
     id="namedview30"
     showgrid="false"
     inkscape:zoom="2.8284272"
     inkscape:cx="182.63484"
     inkscape:cy="149.8799"
     inkscape:window-x="1912"
     inkscape:window-y="-8"
     inkscape:window-maximized="1"
     inkscape:current-layer="layer4"
     fit-margin-top="0"
     fit-margin-left="0"
     fit-margin-right="0"
     fit-margin-bottom="0"
     inkscape:object-nodes="true"
     inkscape:snap-smooth-nodes="false"
     inkscape:snap-global="true"
     inkscape:snap-object-midpoints="true" />
  <g
     inkscape:groupmode="layer"
     id="layer2"
     inkscape:label="bg"
     style="display:none"
     transform="translate(0,130)"
     sodipodi:insensitive="true">
    <rect
       style="fill:#4c4c4c;fill-opacity:0.5;fill-rule:nonzero;stroke:none;stroke-width:5.32499981;stroke-miterlimit:4;stroke-dasharray:none;stroke-opacity:1"
       id="rect5918"
       width="50"
       height="130"
       x="0"
       y="0" />
    <rect
       y="0"
       x="50"
       height="130"
       width="50"
       id="rect5920"
       style="fill:#4c4c4c;fill-opacity:0.5;fill-rule:nonzero;stroke:none;stroke-width:5.32499981;stroke-miterlimit:4;stroke-dasharray:none;stroke-opacity:1" />
    <rect
       style="fill:#4c4c4c;fill-opacity:0.5;fill-rule:nonzero;stroke:none;stroke-width:5.32499981;stroke-miterlimit:4;stroke-dasharray:none;stroke-opacity:1"
       id="rect5922"
       width="50"
       height="130"
       x="100"
       y="0" />
    <rect
       y="0"
       x="150"
       height="130"
       width="50"
       id="rect5924"
       style="fill:#4c4c4c;fill-opacity:0.5;fill-rule:nonzero;stroke:none;stroke-width:5.32499981;stroke-miterlimit:4;stroke-dasharray:none;stroke-opacity:1" />
    <rect
       style="fill:#4c4c4c;fill-opacity:0.5;fill-rule:nonzero;stroke:none;stroke-width:5.32499981;stroke-miterlimit:4;stroke-dasharray:none;stroke-opacity:1"
       id="rect5926"
       width="50"
       height="130"
       x="200"
       y="0" />
    <rect
       y="0"
       x="250"
       height="130"
       width="50"
       id="rect5928"
       style="fill:#4c4c4c;fill-opacity:0.5;fill-rule:nonzero;stroke:none;stroke-width:5.32499981;stroke-miterlimit:4;stroke-dasharray:none;stroke-opacity:1" />
    <rect
       style="fill:#4c4c4c;fill-opacity:0.5;fill-rule:nonzero;stroke:none;stroke-width:5.32499981;stroke-miterlimit:4;stroke-dasharray:none;stroke-opacity:1"
       id="rect5930"
       width="50"
       height="130"
       x="300"
       y="0" />
  </g>
  <g
     inkscape:groupmode="layer"
     id="layer3"
     inkscape:label="trail"
     transform="translate(0,130)"
     style="display:inline"
     sodipodi:insensitive="true">
    <path
       style="fill:#134f99;fill-opacity:1;stroke:none;stroke-width:10;stroke-miterlimit:4;stroke-dasharray:none;stroke-opacity:0.39215686"
       d="m 34.318057,-25.730509 c -0.03654,-5.328363 1.926471,-6.783717 -0.654849,-11.043637 -2.140153,6.482362 -4.720526,1.218639 -5.744292,-0.754734 -1.023766,-1.973373 -1.315339,-3.191603 -3.569856,-4.494663 -0.679612,5.514026 -4.107154,12.10442 -5.417646,13.330947 -1.402351,1.3125 -1.403271,1.624147 -3.370545,1.343475 -1.301411,2.611983 -1.055347,2.585985 -0.98929,5.608809 C 14.672402,-17.126587 12,-6.568466 12,-1 c 0,3.58985 26.087377,2.0697 26,0 -0.772463,-18.297397 -3.645399,-19.402145 -3.681943,-24.730509 z"
       id="ellipse5483-9"
       inkscape:connector-curvature="0"
       sodipodi:nodetypes="zczcscsssz" />
    <path
       sodipodi:nodetypes="zccczsssz"
       inkscape:connector-curvature="0"
       id="path5996"
       d="m 82.417708,-30.459285 c -0.915436,-3.312227 -1.476638,-9.6663 -4.120458,-10.48872 0.436592,4.611804 -1.937487,4.492134 -2.543849,0.811668 -0.257471,-1.196448 -0.592337,-2.121598 -3.128104,-2.971533 -0.424319,2.796707 -1.25128,3.534355 -2.117663,4.394184 -0.866383,0.859829 -2.358047,3.462759 -1.478567,7.427814 C 69.824064,-27.701701 62,-20.79899 62,-1 c 0,3.58985 26,2.07154 26,0 0,-22.500419 -4.666856,-26.147058 -5.582292,-29.459285 z"
       style="fill:#134f99;fill-opacity:1;stroke:none;stroke-width:10;stroke-miterlimit:4;stroke-dasharray:none;stroke-opacity:0.39215686" />
    <path
       style="fill:#134f99;fill-opacity:1;stroke:none;stroke-width:10;stroke-miterlimit:4;stroke-dasharray:none;stroke-opacity:0.39215686"
       d="m 129.05895,-34.525149 c -0.569,-3.563599 2.32422,-3.557542 0.0964,-10.999443 -4.11955,2.955327 -4.77604,5.054851 -6.85963,-3.268283 -3.94214,4.759405 -5.29211,8.719101 -3.05439,13.117916 2.38991,4.69799 0.6594,5.141473 -2.01397,8.140251 C 114.554,-24.535929 112,-14.567611 112,-1 c 0,3.58985 26,2.07154 26,0 0,-22.500419 -8.37205,-29.96155 -8.94105,-33.525149 z"
       id="path5998"
       inkscape:connector-curvature="0"
       sodipodi:nodetypes="zccszssz" />
    <path
       sodipodi:nodetypes="sssscccszcczz"
       inkscape:connector-curvature="0"
       id="path6000"
       d="m 165.50672,-29.541846 c 0.0202,2.826228 -4.65518,12.950347 -3.50674,28.541846 0.26371,3.58016 26,2.07154 26,0 0,-12.979167 -2.47919,-18.499093 -3.30904,-21.596133 -0.75485,-2.817152 -0.22684,-3.21132 -1.51111,-7.279267 -3.74412,0.982682 -5.65357,-3.513402 -7.6368,-7.729622 -1.36291,4.872862 -5.34363,1.980048 -5.24983,-1.878306 -3.56046,1.870199 -4.82295,4.82731 -4.78648,9.941482 z m 11.43091,-12.849865 c 4.84202,-2.31213 2.32422,-6.739524 -0.69909,-10.911056 -0.40724,4.899871 -2.30117,7.352948 -4.38476,-0.970186 -6.15185,6.703949 -0.315,12.220781 0.92308,14.355353 1.23808,2.134572 -0.68125,-0.161982 4.16077,-2.474111 z"
       style="fill:#134f99;fill-opacity:1;stroke:none;stroke-width:10;stroke-miterlimit:4;stroke-dasharray:none;stroke-opacity:0.39215686" />
    <path
       style="fill:#134f99;fill-opacity:1;stroke:none;stroke-width:10;stroke-miterlimit:4;stroke-dasharray:none;stroke-opacity:0.39215686"
       d="m 211.99998,-1 c 0.26371,3.58016 26,2.07154 26,0 0,-12.979167 -3.5884,-23.753228 -5.53759,-28.245182 -1.94919,-4.491954 -1.18403,-8.719496 -6.75499,-10.221245 3.58277,3.868039 -4.97437,6.396165 -2.85192,-3.36211 -4.87959,3.934523 -1.59951,9.660498 -5.37696,14.315427 -3.77745,4.654929 -5.78206,21.693659 -5.47854,27.51311 z m 14.7104,-54.680925 c 2.90654,1.196001 2.1026,-2.908717 1.3111,-4.605376 -2.21698,0.09254 -1.27928,-1.998894 -2.33299,-3.630497 -6.63798,3.521968 -5.20149,8.521034 -3.69196,8.183334 1.50953,-0.3377 1.80731,-1.143462 4.71385,0.05254 z"
       id="path6002"
       inkscape:connector-curvature="0"
       sodipodi:nodetypes="cszcczczcczz" />
    <path
       sodipodi:nodetypes="zzzczsssz"
       inkscape:connector-curvature="0"
       id="path6004"
       d="m 335.83452,-21.365693 c -0.0476,-3.28915 0.35289,-4.304689 -1.96421,-7.17622 -2.3171,-2.871531 -3.53,-1.757083 -4.58896,-3.724562 -1.05896,-1.967479 -2.56304,-4.320965 -4.52428,-4.861541 -1.57158,5.373521 -6.56207,9.327191 -8.57159,10.382291 -2.00952,1.0551 -3.17901,3.276567 -3.11207,8.175369 C 313.17754,-10.95024 312,-6.568466 312,-1 c 0,3.58985 26.08738,2.0697 26,0 -0.77246,-18.297397 -2.11784,-17.076543 -2.16548,-20.365693 z"
       style="fill:#134f99;fill-opacity:1;stroke:none;stroke-width:10;stroke-miterlimit:4;stroke-dasharray:none;stroke-opacity:0.39215686" />
    <path
       sodipodi:nodetypes="cszzccszc"
       inkscape:connector-curvature="0"
       id="path6006"
       d="m 261.99998,-1 c 0.26371,3.58016 26,2.07154 26,0 0,-6.489584 -0.0421,-12.925939 -1.07885,-16.532218 -1.03675,-3.606279 -2.27834,-5.41746 -3.79583,-10.740692 -1.51749,-5.323231 -2.77591,-6.998297 -5.40256,-8.80996 -1.56415,1.188337 -5.51423,4.298949 -6.99172,0.627178 -3.11626,4.108697 0.21241,3.475153 -3.2525,8.630082 -1.6721,2.487665 -4.18558,7.129012 -5.24006,11.917131 -1.05448,4.788119 -0.52305,7.419998 -0.23848,14.908479 z"
       style="fill:#134f99;fill-opacity:1;stroke:none;stroke-width:10;stroke-miterlimit:4;stroke-dasharray:none;stroke-opacity:0.39215686" />
    <ellipse
       transform="scale(1,-1)"
       ry="31"
       rx="13"
       cy="1"
       cx="25.000004"
       id="ellipse5483"
       style="display:inline;fill:#134f99;fill-opacity:1;stroke:none;stroke-width:10;stroke-miterlimit:4;stroke-dasharray:none;stroke-opacity:0.39215686" />
    <ellipse
       style="fill:#134f99;fill-opacity:1;stroke:none;stroke-width:10;stroke-miterlimit:4;stroke-dasharray:none;stroke-opacity:0.39215686"
       id="ellipse5934"
       cx="75"
       cy="0.99999893"
       rx="13"
       ry="31"
       transform="scale(1,-1)" />
    <ellipse
       transform="scale(1,-1)"
       ry="31"
       rx="13"
       cy="0.99999893"
       cx="125"
       id="ellipse5940"
       style="fill:#134f99;fill-opacity:1;stroke:none;stroke-width:10;stroke-miterlimit:4;stroke-dasharray:none;stroke-opacity:0.39215686" />
    <ellipse
       style="fill:#134f99;fill-opacity:1;stroke:none;stroke-width:10;stroke-miterlimit:4;stroke-dasharray:none;stroke-opacity:0.39215686"
       id="ellipse5946"
       cx="175"
       cy="0.99999893"
       rx="13"
       ry="31"
       transform="scale(1,-1)" />
    <ellipse
       transform="scale(1,-1)"
       ry="31"
       rx="13"
       cy="0.99999893"
       cx="225"
       id="ellipse5952"
       style="fill:#134f99;fill-opacity:1;stroke:none;stroke-width:10;stroke-miterlimit:4;stroke-dasharray:none;stroke-opacity:0.39215686" />
    <ellipse
       style="fill:#134f99;fill-opacity:1;stroke:none;stroke-width:10;stroke-miterlimit:4;stroke-dasharray:none;stroke-opacity:0.39215686"
       id="ellipse5958"
       cx="275"
       cy="0.99999893"
       rx="13"
       ry="31"
       transform="scale(1,-1)" />
    <ellipse
       transform="scale(1,-1)"
       ry="31"
       rx="13"
       cy="0.99999893"
       cx="325"
       id="ellipse5964"
       style="fill:#134f99;fill-opacity:1;stroke:none;stroke-width:10;stroke-miterlimit:4;stroke-dasharray:none;stroke-opacity:0.39215686" />
  </g>
  <g
     inkscape:groupmode="layer"
     id="layer4"
     inkscape:label="glow">
    <ellipse
       id="ellipse4251"
       style="display:inline;fill:url(#radialGradient4260);fill-opacity:1;stroke:none;stroke-width:10;stroke-miterlimit:4;stroke-dasharray:none;stroke-opacity:1"
       cx="25.042881"
       cy="-116.8627"
       rx="24.974874"
       ry="61.123104"
       transform="scale(1,-1)" />
    <ellipse
       transform="scale(1,-1)"
       ry="61.123104"
       rx="24.974874"
       cy="-116.8627"
       cx="75.042877"
       style="display:inline;fill:url(#radialGradient4264);fill-opacity:1;stroke:none;stroke-width:10;stroke-miterlimit:4;stroke-dasharray:none;stroke-opacity:1"
       id="ellipse4262" />
    <ellipse
       id="ellipse4266"
       style="display:inline;fill:url(#radialGradient4268);fill-opacity:1;stroke:none;stroke-width:10;stroke-miterlimit:4;stroke-dasharray:none;stroke-opacity:1"
       cx="125.04288"
       cy="-116.8627"
       rx="24.974874"
       ry="61.123104"
       transform="scale(1,-1)" />
    <ellipse
       transform="scale(1,-1)"
       ry="61.123104"
       rx="24.974874"
       cy="-116.8627"
       cx="175.04288"
       style="display:inline;fill:url(#radialGradient4272);fill-opacity:1;stroke:none;stroke-width:10;stroke-miterlimit:4;stroke-dasharray:none;stroke-opacity:1"
       id="ellipse4270" />
    <ellipse
       id="ellipse4274"
       style="display:inline;fill:url(#radialGradient4276);fill-opacity:1;stroke:none;stroke-width:10;stroke-miterlimit:4;stroke-dasharray:none;stroke-opacity:1"
       cx="225.04288"
       cy="-116.8627"
       rx="24.974874"
       ry="61.123104"
       transform="scale(1,-1)" />
    <ellipse
       transform="scale(1,-1)"
       ry="61.123104"
       rx="24.974874"
       cy="-116.8627"
       cx="275.04288"
       style="display:inline;fill:url(#radialGradient4280);fill-opacity:1;stroke:none;stroke-width:10;stroke-miterlimit:4;stroke-dasharray:none;stroke-opacity:1"
       id="ellipse4278" />
    <ellipse
       id="ellipse4282"
       style="display:inline;fill:url(#radialGradient4284);fill-opacity:1;stroke:none;stroke-width:10;stroke-miterlimit:4;stroke-dasharray:none;stroke-opacity:1"
       cx="325.04288"
       cy="-116.8627"
       rx="24.974874"
       ry="61.123104"
       transform="scale(1,-1)" />
  </g>
  <g
     inkscape:groupmode="layer"
     id="layer1"
     inkscape:label="base"
     transform="translate(-203.83334,104.09192)"
     style="display:inline"
     sodipodi:insensitive="true">
    <ellipse
       transform="scale(1,-1)"
       ry="24"
       rx="10"
       cy="-29.211029"
       cx="228.87622"
       style="fill:#deeafb;fill-opacity:1;stroke:none;stroke-width:10;stroke-miterlimit:4;stroke-dasharray:none;stroke-opacity:1"
       id="ellipse5485" />
    <path
       transform="translate(203.83334,25.90808)"
       style="display:inline;fill:#deeafb;fill-opacity:1;fill-rule:nonzero;stroke:none;stroke-width:5.32499981;stroke-miterlimit:4;stroke-dasharray:none;stroke-opacity:1"
       d="m 41.828465,-23.962742 c 0,0 -3.065864,1.116116 -3.449747,1.5 -0.383884,0.383884 -1.500001,3.449747 -1.500001,3.449747 0,0 -1.116116,-3.065863 -1.5,-3.449747 -0.383883,-0.383884 -3.449747,-1.5 -3.449747,-1.5 0,0 3.065863,-1.116117 3.449747,-1.500001 0.383884,-0.383883 1.5,-3.449747 1.5,-3.449747 0,0 1.116117,3.065863 1.500001,3.449747 0.383884,0.383884 3.449747,1.500001 3.449747,1.500001 z"
       id="path6008"
       inkscape:connector-curvature="0"
       sodipodi:nodetypes="ccccccccc" />
    <path
       transform="translate(203.83334,25.90808)"
       sodipodi:nodetypes="ccccccccc"
       inkscape:connector-curvature="0"
       id="path6032"
       d="m 37.409048,-46.766936 c 0,0 -3.065864,1.116116 -3.449747,1.5 -0.383884,0.383884 -1.500001,3.449747 -1.500001,3.449747 0,0 -1.116116,-3.065863 -1.5,-3.449747 -0.383883,-0.383884 -3.449747,-1.5 -3.449747,-1.5 0,0 3.065863,-1.116117 3.449747,-1.500001 0.383884,-0.383883 1.5,-3.449747 1.5,-3.449747 0,0 1.116117,3.065863 1.500001,3.449747 0.383884,0.383884 3.449747,1.500001 3.449747,1.500001 z"
       style="display:inline;fill:#deeafb;fill-opacity:1;fill-rule:nonzero;stroke:none;stroke-width:5.32499981;stroke-miterlimit:4;stroke-dasharray:none;stroke-opacity:1" />
    <path
       transform="translate(203.83334,25.90808)"
       style="display:inline;fill:#deeafb;fill-opacity:1;fill-rule:nonzero;stroke:none;stroke-width:5.32499981;stroke-miterlimit:4;stroke-dasharray:none;stroke-opacity:1"
       d="m 23.443689,-33.331906 c 0,0 -3.065864,1.116116 -3.449747,1.5 -0.383884,0.383884 -1.500001,3.449747 -1.500001,3.449747 0,0 -1.116116,-3.065863 -1.5,-3.449747 -0.383883,-0.383884 -3.449747,-1.5 -3.449747,-1.5 0,0 3.065863,-1.116117 3.449747,-1.500001 0.383884,-0.383883 1.5,-3.449747 1.5,-3.449747 0,0 1.116117,3.065863 1.500001,3.449747 0.383884,0.383884 3.449747,1.500001 3.449747,1.500001 z"
       id="path6034"
       inkscape:connector-curvature="0"
       sodipodi:nodetypes="ccccccccc" />
    <path
       transform="translate(203.83334,25.90808)"
       sodipodi:nodetypes="ccccccccc"
       inkscape:connector-curvature="0"
       id="path6036"
       d="m 89.703465,-37.712742 c 0,0 -3.065864,1.116116 -3.449747,1.5 -0.383884,0.383884 -1.500001,3.449747 -1.500001,3.449747 0,0 -1.116116,-3.065863 -1.5,-3.449747 -0.383883,-0.383884 -3.449747,-1.5 -3.449747,-1.5 0,0 3.065863,-1.116117 3.449747,-1.500001 0.383884,-0.383883 1.5,-3.449747 1.5,-3.449747 0,0 1.116117,3.065863 1.500001,3.449747 0.383884,0.383884 3.449747,1.500001 3.449747,1.500001 z"
       style="display:inline;fill:#deeafb;fill-opacity:1;fill-rule:nonzero;stroke:none;stroke-width:5.32499981;stroke-miterlimit:4;stroke-dasharray:none;stroke-opacity:1" />
    <path
       transform="translate(203.83334,25.90808)"
       style="display:inline;fill:#deeafb;fill-opacity:1;fill-rule:nonzero;stroke:none;stroke-width:5.32499981;stroke-miterlimit:4;stroke-dasharray:none;stroke-opacity:1"
       d="m 85.666407,-61.974043 c 0,0 -3.065864,1.116116 -3.449747,1.5 -0.383884,0.383884 -1.500001,3.449747 -1.500001,3.449747 0,0 -1.116116,-3.065863 -1.5,-3.449747 -0.383883,-0.383884 -3.449747,-1.5 -3.449747,-1.5 0,0 3.065863,-1.116117 3.449747,-1.500001 0.383884,-0.383883 1.5,-3.449747 1.5,-3.449747 0,0 1.116117,3.065863 1.500001,3.449747 0.383884,0.383884 3.449747,1.500001 3.449747,1.500001 z"
       id="path6038"
       inkscape:connector-curvature="0"
       sodipodi:nodetypes="ccccccccc" />
    <path
       transform="translate(203.83334,25.90808)"
       sodipodi:nodetypes="ccccccccc"
       inkscape:connector-curvature="0"
       id="path6040"
       d="m 72.274272,-51.737236 c 0,0 -3.065864,1.116116 -3.449747,1.5 -0.383884,0.383884 -1.500001,3.449747 -1.500001,3.449747 0,0 -1.116116,-3.065863 -1.5,-3.449747 -0.383883,-0.383884 -3.449747,-1.5 -3.449747,-1.5 0,0 3.065863,-1.116117 3.449747,-1.500001 0.383884,-0.383883 1.5,-3.449747 1.5,-3.449747 0,0 1.116117,3.065863 1.500001,3.449747 0.383884,0.383884 3.449747,1.500001 3.449747,1.500001 z"
       style="display:inline;fill:#deeafb;fill-opacity:1;fill-rule:nonzero;stroke:none;stroke-width:5.32499981;stroke-miterlimit:4;stroke-dasharray:none;stroke-opacity:1" />
    <path
       transform="translate(203.83334,25.90808)"
       sodipodi:nodetypes="ccccccccc"
       inkscape:connector-curvature="0"
       id="path6042"
       d="m 70.286835,-23.259947 c 0,0 -3.065864,1.116116 -3.449747,1.5 -0.383884,0.383884 -1.500001,3.449747 -1.500001,3.449747 0,0 -1.116116,-3.065863 -1.5,-3.449747 -0.383883,-0.383884 -3.449747,-1.5 -3.449747,-1.5 0,0 3.065863,-1.116117 3.449747,-1.500001 0.383884,-0.383883 1.5,-3.449747 1.5,-3.449747 0,0 1.116117,3.065863 1.500001,3.449747 0.383884,0.383884 3.449747,1.500001 3.449747,1.500001 z"
       style="display:inline;fill:#deeafb;fill-opacity:1;fill-rule:nonzero;stroke:none;stroke-width:5.32499981;stroke-miterlimit:4;stroke-dasharray:none;stroke-opacity:1" />
    <path
       transform="translate(203.83334,25.90808)"
       style="display:inline;fill:#deeafb;fill-opacity:1;fill-rule:nonzero;stroke:none;stroke-width:5.32499981;stroke-miterlimit:4;stroke-dasharray:none;stroke-opacity:1"
       d="m 138.81958,-41.425053 c 0,0 -3.06586,1.116116 -3.44974,1.5 -0.38389,0.383884 -1.5,3.449747 -1.5,3.449747 0,0 -1.11612,-3.065863 -1.5,-3.449747 -0.38389,-0.383884 -3.44975,-1.5 -3.44975,-1.5 0,0 3.06586,-1.116117 3.44975,-1.500001 0.38388,-0.383883 1.5,-3.449747 1.5,-3.449747 0,0 1.11611,3.065863 1.5,3.449747 0.38388,0.383884 3.44974,1.500001 3.44974,1.500001 z"
       id="path6044"
       inkscape:connector-curvature="0"
       sodipodi:nodetypes="ccccccccc" />
    <path
       transform="translate(203.83334,25.90808)"
       sodipodi:nodetypes="ccccccccc"
       inkscape:connector-curvature="0"
       id="path6046"
       d="m 123.99915,-33.866549 c 0,0 -3.06587,1.116116 -3.44975,1.5 -0.38388,0.383884 -1.5,3.449747 -1.5,3.449747 0,0 -1.11612,-3.065863 -1.5,-3.449747 -0.38388,-0.383884 -3.44975,-1.5 -3.44975,-1.5 0,0 3.06586,-1.116117 3.44975,-1.500001 0.38388,-0.383883 1.5,-3.449747 1.5,-3.449747 0,0 1.11612,3.065863 1.5,3.449747 0.38388,0.383884 3.44975,1.500001 3.44975,1.500001 z"
       style="display:inline;fill:#deeafb;fill-opacity:1;fill-rule:nonzero;stroke:none;stroke-width:5.32499981;stroke-miterlimit:4;stroke-dasharray:none;stroke-opacity:1" />
    <path
       transform="translate(203.83334,25.90808)"
       style="display:inline;fill:#deeafb;fill-opacity:1;fill-rule:nonzero;stroke:none;stroke-width:5.32499981;stroke-miterlimit:4;stroke-dasharray:none;stroke-opacity:1"
       d="m 128.99178,-55.626323 c 0,0 -3.06586,1.116116 -3.44975,1.5 -0.38388,0.383884 -1.5,3.449747 -1.5,3.449747 0,0 -1.11611,-3.065863 -1.5,-3.449747 -0.38388,-0.383884 -3.44974,-1.5 -3.44974,-1.5 0,0 3.06586,-1.116117 3.44974,-1.500001 0.38389,-0.383883 1.5,-3.449747 1.5,-3.449747 0,0 1.11612,3.065863 1.5,3.449747 0.38389,0.383884 3.44975,1.500001 3.44975,1.500001 z"
       id="path6048"
       inkscape:connector-curvature="0"
       sodipodi:nodetypes="ccccccccc" />
    <path
       transform="translate(203.83334,25.90808)"
       style="display:inline;fill:#deeafb;fill-opacity:1;fill-rule:nonzero;stroke:none;stroke-width:5.32499981;stroke-miterlimit:4;stroke-dasharray:none;stroke-opacity:1"
       d="m 136.37351,-18.663753 c 0,0 -3.06586,1.116116 -3.44974,1.5 -0.38389,0.383884 -1.5,3.449747 -1.5,3.449747 0,0 -1.11612,-3.065863 -1.5,-3.449747 -0.38389,-0.383884 -3.44975,-1.5 -3.44975,-1.5 0,0 3.06586,-1.116117 3.44975,-1.500001 0.38388,-0.383883 1.5,-3.449747 1.5,-3.449747 0,0 1.11611,3.065863 1.5,3.449747 0.38388,0.383884 3.44974,1.500001 3.44974,1.500001 z"
       id="path6050"
       inkscape:connector-curvature="0"
       sodipodi:nodetypes="ccccccccc" />
    <path
       transform="translate(203.83334,25.90808)"
       sodipodi:nodetypes="ccccccccc"
       inkscape:connector-curvature="0"
       id="path6052"
       d="m 188.06958,-32.175053 c 0,0 -3.06586,1.116116 -3.44974,1.5 -0.38389,0.383884 -1.5,3.449747 -1.5,3.449747 0,0 -1.11612,-3.065863 -1.5,-3.449747 -0.38389,-0.383884 -3.44975,-1.5 -3.44975,-1.5 0,0 3.06586,-1.116117 3.44975,-1.500001 0.38388,-0.383883 1.5,-3.449747 1.5,-3.449747 0,0 1.11611,3.065863 1.5,3.449747 0.38388,0.383884 3.44974,1.500001 3.44974,1.500001 z"
       style="display:inline;fill:#deeafb;fill-opacity:1;fill-rule:nonzero;stroke:none;stroke-width:5.32499981;stroke-miterlimit:4;stroke-dasharray:none;stroke-opacity:1" />
    <path
       transform="translate(203.83334,25.90808)"
       style="display:inline;fill:#deeafb;fill-opacity:1;fill-rule:nonzero;stroke:none;stroke-width:5.32499981;stroke-miterlimit:4;stroke-dasharray:none;stroke-opacity:1"
       d="m 170.67072,-19.886471 c 0,0 -3.06587,1.116116 -3.44975,1.5 -0.38388,0.383884 -1.5,3.449747 -1.5,3.449747 0,0 -1.11612,-3.065863 -1.5,-3.449747 -0.38388,-0.383884 -3.44975,-1.5 -3.44975,-1.5 0,0 3.06586,-1.116117 3.44975,-1.500001 0.38388,-0.383883 1.5,-3.449747 1.5,-3.449747 0,0 1.11612,3.065863 1.5,3.449747 0.38388,0.383884 3.44975,1.500001 3.44975,1.500001 z"
       id="path6054"
       inkscape:connector-curvature="0"
       sodipodi:nodetypes="ccccccccc" />
    <path
       transform="translate(203.83334,25.90808)"
       sodipodi:nodetypes="ccccccccc"
       inkscape:connector-curvature="0"
       id="path6056"
       d="m 177.66595,-43.782284 c 0,0 -3.06586,1.116116 -3.44975,1.5 -0.38388,0.383884 -1.5,3.449747 -1.5,3.449747 0,0 -1.11611,-3.065863 -1.5,-3.449747 -0.38388,-0.383884 -3.44974,-1.5 -3.44974,-1.5 0,0 3.06586,-1.116117 3.44974,-1.500001 0.38389,-0.383883 1.5,-3.449748 1.5,-3.449748 0,0 1.11612,3.065864 1.5,3.449748 0.38389,0.383884 3.44975,1.500001 3.44975,1.500001 z"
       style="display:inline;fill:#deeafb;fill-opacity:1;fill-rule:nonzero;stroke:none;stroke-width:5.32499981;stroke-miterlimit:4;stroke-dasharray:none;stroke-opacity:1" />
    <path
       transform="translate(203.83334,25.90808)"
       sodipodi:nodetypes="ccccccccc"
       inkscape:connector-curvature="0"
       id="path6058"
       d="m 186.95194,-59.943713 c 0,0 -3.06586,1.116116 -3.44974,1.5 -0.38389,0.383884 -1.5,3.449747 -1.5,3.449747 0,0 -1.11612,-3.065863 -1.5,-3.449747 -0.38389,-0.383884 -3.44975,-1.5 -3.44975,-1.5 0,0 3.06586,-1.116117 3.44975,-1.500001 0.38388,-0.383883 1.5,-3.449747 1.5,-3.449747 0,0 1.11611,3.065863 1.5,3.449747 0.38388,0.383884 3.44974,1.500001 3.44974,1.500001 z"
       style="display:inline;fill:#deeafb;fill-opacity:1;fill-rule:nonzero;stroke:none;stroke-width:5.32499981;stroke-miterlimit:4;stroke-dasharray:none;stroke-opacity:1" />
    <path
       transform="translate(203.83334,25.90808)"
       style="display:inline;fill:#deeafb;fill-opacity:1;fill-rule:nonzero;stroke:none;stroke-width:5.32499981;stroke-miterlimit:4;stroke-dasharray:none;stroke-opacity:1"
       d="m 241.31958,-20.675053 c 0,0 -3.06586,1.116116 -3.44974,1.5 -0.38389,0.383884 -1.5,3.449747 -1.5,3.449747 0,0 -1.11612,-3.065863 -1.5,-3.449747 -0.38389,-0.383884 -3.44975,-1.5 -3.44975,-1.5 0,0 3.06586,-1.116117 3.44975,-1.500001 0.38388,-0.383883 1.5,-3.449747 1.5,-3.449747 0,0 1.11611,3.065863 1.5,3.449747 0.38388,0.383884 3.44974,1.500001 3.44974,1.500001 z"
       id="path6060"
       inkscape:connector-curvature="0"
       sodipodi:nodetypes="ccccccccc" />
    <path
       transform="translate(203.83334,25.90808)"
       sodipodi:nodetypes="ccccccccc"
       inkscape:connector-curvature="0"
       id="path6062"
       d="m 219.42072,-31.136471 c 0,0 -3.06587,1.116116 -3.44975,1.5 -0.38388,0.383884 -1.5,3.449747 -1.5,3.449747 0,0 -1.11612,-3.065863 -1.5,-3.449747 -0.38388,-0.383884 -3.44975,-1.5 -3.44975,-1.5 0,0 3.06586,-1.116117 3.44975,-1.500001 0.38388,-0.383883 1.5,-3.449747 1.5,-3.449747 0,0 1.11612,3.065863 1.5,3.449747 0.38388,0.383884 3.44975,1.500001 3.44975,1.500001 z"
       style="display:inline;fill:#deeafb;fill-opacity:1;fill-rule:nonzero;stroke:none;stroke-width:5.32499981;stroke-miterlimit:4;stroke-dasharray:none;stroke-opacity:1" />
    <path
       transform="translate(203.83334,25.90808)"
       style="display:inline;fill:#deeafb;fill-opacity:1;fill-rule:nonzero;stroke:none;stroke-width:5.32499981;stroke-miterlimit:4;stroke-dasharray:none;stroke-opacity:1"
       d="m 220.91595,-63.282284 c 0,0 -3.06586,1.116116 -3.44975,1.5 -0.38388,0.383884 -1.5,3.449747 -1.5,3.449747 0,0 -1.11611,-3.065863 -1.5,-3.449747 -0.38388,-0.383884 -3.44974,-1.5 -3.44974,-1.5 0,0 3.06586,-1.116117 3.44974,-1.500001 0.38389,-0.383883 1.5,-3.449748 1.5,-3.449748 0,0 1.11612,3.065864 1.5,3.449748 0.38389,0.383884 3.44975,1.500001 3.44975,1.500001 z"
       id="path6064"
       inkscape:connector-curvature="0"
       sodipodi:nodetypes="ccccccccc" />
    <path
       transform="translate(203.83334,25.90808)"
       style="display:inline;fill:#deeafb;fill-opacity:1;fill-rule:nonzero;stroke:none;stroke-width:5.32499981;stroke-miterlimit:4;stroke-dasharray:none;stroke-opacity:1"
       d="m 236.45194,-51.443713 c 0,0 -3.06586,1.116116 -3.44974,1.5 -0.38389,0.383884 -1.5,3.449747 -1.5,3.449747 0,0 -1.11612,-3.065863 -1.5,-3.449747 -0.38389,-0.383884 -3.44975,-1.5 -3.44975,-1.5 0,0 3.06586,-1.116117 3.44975,-1.500001 0.38388,-0.383883 1.5,-3.449747 1.5,-3.449747 0,0 1.11611,3.065863 1.5,3.449747 0.38388,0.383884 3.44974,1.500001 3.44974,1.500001 z"
       id="path6066"
       inkscape:connector-curvature="0"
       sodipodi:nodetypes="ccccccccc" />
    <path
       transform="translate(203.83334,25.90808)"
       sodipodi:nodetypes="ccccccccc"
       inkscape:connector-curvature="0"
       id="path6068"
       d="m 267.33752,-11.986342 c 0,0 -3.06586,1.116116 -3.44975,1.5 -0.38388,0.383884 -1.5,3.449747 -1.5,3.449747 0,0 -1.11611,-3.065863 -1.5,-3.449747 -0.38388,-0.383884 -3.44974,-1.5 -3.44974,-1.5 0,0 3.06586,-1.116117 3.44974,-1.500001 0.38389,-0.383883 1.5,-3.449748 1.5,-3.449748 0,0 1.11612,3.065864 1.5,3.449748 0.38389,0.383884 3.44975,1.500001 3.44975,1.500001 z"
       style="display:inline;fill:#deeafb;fill-opacity:1;fill-rule:nonzero;stroke:none;stroke-width:5.32499981;stroke-miterlimit:4;stroke-dasharray:none;stroke-opacity:1" />
    <path
       transform="translate(203.83334,25.90808)"
       sodipodi:nodetypes="ccccccccc"
       inkscape:connector-curvature="0"
       id="path6070"
       d="m 284.70194,-39.943713 c 0,0 -3.06586,1.116116 -3.44974,1.5 -0.38389,0.383884 -1.5,3.449747 -1.5,3.449747 0,0 -1.11612,-3.065863 -1.5,-3.449747 -0.38389,-0.383884 -3.44975,-1.5 -3.44975,-1.5 0,0 3.06586,-1.116117 3.44975,-1.500001 0.38388,-0.383883 1.5,-3.449747 1.5,-3.449747 0,0 1.11611,3.065863 1.5,3.449747 0.38388,0.383884 3.44974,1.500001 3.44974,1.500001 z"
       style="display:inline;fill:#deeafb;fill-opacity:1;fill-rule:nonzero;stroke:none;stroke-width:5.32499981;stroke-miterlimit:4;stroke-dasharray:none;stroke-opacity:1" />
    <path
       transform="translate(203.83334,25.90808)"
       style="display:inline;fill:#deeafb;fill-opacity:1;fill-rule:nonzero;stroke:none;stroke-width:5.32499981;stroke-miterlimit:4;stroke-dasharray:none;stroke-opacity:1"
       d="m 267.20194,-46.193713 c 0,0 -3.06586,1.116116 -3.44974,1.5 -0.38389,0.383884 -1.5,3.449747 -1.5,3.449747 0,0 -1.11612,-3.065863 -1.5,-3.449747 -0.38389,-0.383884 -3.44975,-1.5 -3.44975,-1.5 0,0 3.06586,-1.116117 3.44975,-1.500001 0.38388,-0.383883 1.5,-3.449747 1.5,-3.449747 0,0 1.11611,3.065863 1.5,3.449747 0.38388,0.383884 3.44974,1.500001 3.44974,1.500001 z"
       id="path6072"
       inkscape:connector-curvature="0"
       sodipodi:nodetypes="ccccccccc" />
    <path
       transform="translate(203.83334,25.90808)"
       style="display:inline;fill:#deeafb;fill-opacity:1;fill-rule:nonzero;stroke:none;stroke-width:5.32499981;stroke-miterlimit:4;stroke-dasharray:none;stroke-opacity:1"
       d="m 290.67204,-22.592944 c 0,0 -3.06586,1.116116 -3.44975,1.5 -0.38388,0.383884 -1.5,3.449747 -1.5,3.449747 0,0 -1.11611,-3.065863 -1.5,-3.449747 -0.38388,-0.383884 -3.44974,-1.5 -3.44974,-1.5 0,0 3.06586,-1.116117 3.44974,-1.500001 0.38389,-0.383883 1.5,-3.449748 1.5,-3.449748 0,0 1.11612,3.065864 1.5,3.449748 0.38389,0.383884 3.44975,1.500001 3.44975,1.500001 z"
       id="path6074"
       inkscape:connector-curvature="0"
       sodipodi:nodetypes="ccccccccc" />
    <path
       transform="translate(203.83334,25.90808)"
       style="display:inline;fill:#deeafb;fill-opacity:1;fill-rule:nonzero;stroke:none;stroke-width:5.32499981;stroke-miterlimit:4;stroke-dasharray:none;stroke-opacity:1"
       d="m 326.77479,-32.165538 c 0,0 -3.06586,1.116116 -3.44974,1.5 -0.38389,0.383884 -1.5,3.449747 -1.5,3.449747 0,0 -1.11612,-3.065863 -1.5,-3.449747 -0.38389,-0.383884 -3.44975,-1.5 -3.44975,-1.5 0,0 3.06586,-1.116117 3.44975,-1.500001 0.38388,-0.383883 1.5,-3.449747 1.5,-3.449747 0,0 1.11611,3.065863 1.5,3.449747 0.38388,0.383884 3.44974,1.500001 3.44974,1.500001 z"
       id="path6076"
       inkscape:connector-curvature="0"
       sodipodi:nodetypes="ccccccccc" />
    <path
       transform="translate(203.83334,25.90808)"
       sodipodi:nodetypes="ccccccccc"
       inkscape:connector-curvature="0"
       id="path6078"
       d="m 338.61973,-44.425946 c 0,0 -3.06586,1.116116 -3.44974,1.5 -0.38389,0.383884 -1.5,3.449747 -1.5,3.449747 0,0 -1.11612,-3.065863 -1.5,-3.449747 -0.38389,-0.383884 -3.44975,-1.5 -3.44975,-1.5 0,0 3.06586,-1.116117 3.44975,-1.500001 0.38388,-0.383883 1.5,-3.449747 1.5,-3.449747 0,0 1.11611,3.065863 1.5,3.449747 0.38388,0.383884 3.44974,1.500001 3.44974,1.500001 z"
       style="display:inline;fill:#deeafb;fill-opacity:1;fill-rule:nonzero;stroke:none;stroke-width:5.32499981;stroke-miterlimit:4;stroke-dasharray:none;stroke-opacity:1" />
    <path
       transform="translate(203.83334,25.90808)"
       style="display:inline;fill:#deeafb;fill-opacity:1;fill-rule:nonzero;stroke:none;stroke-width:5.32499981;stroke-miterlimit:4;stroke-dasharray:none;stroke-opacity:1"
       d="m 319.52785,-52.911227 c 0,0 -3.06586,1.116116 -3.44974,1.5 -0.38389,0.383884 -1.5,3.449747 -1.5,3.449747 0,0 -1.11612,-3.065863 -1.5,-3.449747 -0.38389,-0.383884 -3.44975,-1.5 -3.44975,-1.5 0,0 3.06586,-1.116117 3.44975,-1.500001 0.38388,-0.383883 1.5,-3.449747 1.5,-3.449747 0,0 1.11611,3.065863 1.5,3.449747 0.38388,0.383884 3.44974,1.500001 3.44974,1.500001 z"
       id="path6080"
       inkscape:connector-curvature="0"
       sodipodi:nodetypes="ccccccccc" />
    <path
       transform="translate(203.83334,25.90808)"
       sodipodi:nodetypes="ccccccccc"
       inkscape:connector-curvature="0"
       id="path6082"
       d="m 330.48801,-64.932042 c 0,0 -3.06586,1.116116 -3.44974,1.5 -0.38389,0.383884 -1.5,3.449747 -1.5,3.449747 0,0 -1.11612,-3.065863 -1.5,-3.449747 -0.38389,-0.383884 -3.44975,-1.5 -3.44975,-1.5 0,0 3.06586,-1.116117 3.44975,-1.500001 0.38388,-0.383883 1.5,-3.449747 1.5,-3.449747 0,0 1.11611,3.065863 1.5,3.449747 0.38388,0.383884 3.44974,1.500001 3.44974,1.500001 z"
       style="display:inline;fill:#deeafb;fill-opacity:1;fill-rule:nonzero;stroke:none;stroke-width:5.32499981;stroke-miterlimit:4;stroke-dasharray:none;stroke-opacity:1" />
    <path
       transform="translate(203.83334,25.90808)"
       style="display:inline;fill:#deeafb;fill-opacity:1;fill-rule:nonzero;stroke:none;stroke-width:5.32499981;stroke-miterlimit:4;stroke-dasharray:none;stroke-opacity:1"
       d="m 228.96666,-85.937247 c 0,0 -3.06587,1.116116 -3.44975,1.5 -0.38388,0.383884 -1.5,3.449747 -1.5,3.449747 0,0 -1.11612,-3.065863 -1.5,-3.449747 -0.38388,-0.383884 -3.44975,-1.5 -3.44975,-1.5 0,0 3.06586,-1.116117 3.44975,-1.500001 0.38388,-0.383883 1.5,-3.449746 1.5,-3.449746 0,0 1.11612,3.065862 1.5,3.449746 0.38388,0.383884 3.44975,1.500001 3.44975,1.500001 z"
       id="path6084"
       inkscape:connector-curvature="0"
       sodipodi:nodetypes="ccccccccc" />
    <path
       transform="translate(203.83334,25.90808)"
       sodipodi:nodetypes="ccccccccc"
       inkscape:connector-curvature="0"
       id="path6086"
       d="m 22.49148,-77.805519 c 0,0 -3.06587,1.116116 -3.44975,1.5 -0.38388,0.383884 -1.5,3.449747 -1.5,3.449747 0,0 -1.11612,-3.065863 -1.5,-3.449747 -0.38388,-0.383884 -3.44975,-1.5 -3.44975,-1.5 0,0 3.06586,-1.116117 3.44975,-1.500001 0.38388,-0.383883 1.5,-3.449747 1.5,-3.449747 0,0 1.11612,3.065863 1.5,3.449747 0.38388,0.383884 3.44975,1.500001 3.44975,1.500001 z"
       style="display:inline;fill:#deeafb;fill-opacity:1;fill-rule:nonzero;stroke:none;stroke-width:5.32499981;stroke-miterlimit:4;stroke-dasharray:none;stroke-opacity:1" />
    <path
       transform="translate(203.83334,25.90808)"
       style="display:inline;fill:#deeafb;fill-opacity:1;fill-rule:nonzero;stroke:none;stroke-width:5.32499981;stroke-miterlimit:4;stroke-dasharray:none;stroke-opacity:1"
       d="m 135.27501,-78.512626 c 0,0 -3.06587,1.116116 -3.44975,1.5 -0.38388,0.383884 -1.5,3.449747 -1.5,3.449747 0,0 -1.11612,-3.065863 -1.5,-3.449747 -0.38388,-0.383884 -3.44975,-1.5 -3.44975,-1.5 0,0 3.06586,-1.116117 3.44975,-1.500001 0.38388,-0.383883 1.5,-3.449747 1.5,-3.449747 0,0 1.11612,3.065863 1.5,3.449747 0.38388,0.383884 3.44975,1.500001 3.44975,1.500001 z"
       id="path6088"
       inkscape:connector-curvature="0"
       sodipodi:nodetypes="ccccccccc" />
    <ellipse
       id="ellipse5936"
       style="display:inline;fill:#deeafb;fill-opacity:1;stroke:none;stroke-width:10;stroke-miterlimit:4;stroke-dasharray:none;stroke-opacity:1"
       cx="75.042877"
       cy="-3.302949"
       rx="10"
       ry="24"
       transform="matrix(1,0,0,-1,203.83334,25.90808)" />
    <ellipse
       transform="matrix(1,0,0,-1,203.83334,25.90808)"
       ry="24"
       rx="10"
       cy="-3.302949"
       cx="125.04288"
       style="display:inline;fill:#deeafb;fill-opacity:1;stroke:none;stroke-width:10;stroke-miterlimit:4;stroke-dasharray:none;stroke-opacity:1"
       id="ellipse5942" />
    <ellipse
       id="ellipse5948"
       style="display:inline;fill:#deeafb;fill-opacity:1;stroke:none;stroke-width:10;stroke-miterlimit:4;stroke-dasharray:none;stroke-opacity:1"
       cx="175.04288"
       cy="-3.302949"
       rx="10"
       ry="24"
       transform="matrix(1,0,0,-1,203.83334,25.90808)" />
    <ellipse
       transform="matrix(1,0,0,-1,203.83334,25.90808)"
       ry="24"
       rx="10"
       cy="-3.302949"
       cx="225.04288"
       style="display:inline;fill:#deeafb;fill-opacity:1;stroke:none;stroke-width:10;stroke-miterlimit:4;stroke-dasharray:none;stroke-opacity:1"
       id="ellipse5954" />
    <ellipse
       id="ellipse5960"
       style="display:inline;fill:#deeafb;fill-opacity:1;stroke:none;stroke-width:10;stroke-miterlimit:4;stroke-dasharray:none;stroke-opacity:1"
       cx="275.04288"
       cy="-3.302949"
       rx="10"
       ry="24"
       transform="matrix(1,0,0,-1,203.83334,25.90808)" />
    <ellipse
       transform="matrix(1,0,0,-1,203.83334,25.90808)"
       ry="24"
       rx="10"
       cy="-3.302949"
       cx="325.04288"
       style="display:inline;fill:#deeafb;fill-opacity:1;stroke:none;stroke-width:10;stroke-miterlimit:4;stroke-dasharray:none;stroke-opacity:1"
       id="ellipse5966" />
  </g>
</svg>
