<?xml version="1.0" encoding="UTF-8" standalone="no"?>
<!-- Created with Inkscape (http://www.inkscape.org/) -->

<svg
   xmlns:dc="http://purl.org/dc/elements/1.1/"
   xmlns:cc="http://creativecommons.org/ns#"
   xmlns:rdf="http://www.w3.org/1999/02/22-rdf-syntax-ns#"
   xmlns:svg="http://www.w3.org/2000/svg"
   xmlns="http://www.w3.org/2000/svg"
   xmlns:xlink="http://www.w3.org/1999/xlink"
   xmlns:sodipodi="http://sodipodi.sourceforge.net/DTD/sodipodi-0.dtd"
   xmlns:inkscape="http://www.inkscape.org/namespaces/inkscape"
   width="210mm"
   height="297mm"
   viewBox="0 0 744.09448819 1052.3622047"
   id="svg6061"
   version="1.1"
   inkscape:version="0.91 r13725"
   sodipodi:docname="ships_wip.svg">
  <defs
     id="defs6063">
    <linearGradient
       inkscape:collect="always"
       id="linearGradient4800">
      <stop
         style="stop-color:#104588;stop-opacity:1"
         offset="0"
         id="stop4802" />
      <stop
         style="stop-color:#104588;stop-opacity:0"
         offset="1"
         id="stop4804" />
    </linearGradient>
    <inkscape:perspective
       sodipodi:type="inkscape:persp3d"
       inkscape:vp_x="0 : 526.1811 : 1"
       inkscape:vp_y="0 : 1000 : 0"
       inkscape:vp_z="744.09449 : 526.1811 : 1"
       inkscape:persp3d-origin="372.04724 : 350.7874 : 1"
       id="perspective6692" />
    <linearGradient
       inkscape:collect="always"
       xlink:href="#linearGradient4800"
       id="linearGradient4901"
       gradientUnits="userSpaceOnUse"
       gradientTransform="matrix(2.2052981,0,0,2.2052981,-2247.2867,-1700.1607)"
       x1="637.70129"
       y1="606.21686"
       x2="706.94293"
       y2="635.57867" />
    <clipPath
       clipPathUnits="userSpaceOnUse"
       id="clipPath4952">
      <path
         style="display:inline;fill:#ffffff;fill-opacity:1;fill-rule:nonzero;stroke:none;stroke-width:4;stroke-miterlimit:4;stroke-dasharray:none;stroke-opacity:1"
         d="m -732.53057,-276.282 32.23107,-34.69389 -1.74019,-47.32057 -56.25268,25.76178 25.7618,56.25268 z m -16.92658,7.75179 -25.7618,-56.25268 -56.25267,25.76179 34.69129,32.23011 47.32318,-1.73922 z m 39.66485,-106.69462 -34.6921,-32.23189 -47.32235,1.74102 25.76178,56.25266 56.25267,-25.76179 z m -73.17925,33.51358 -25.76178,-56.25266 -32.2319,34.69209 1.74101,47.32236 56.25267,-25.76179 z"
         id="path4954"
         inkscape:connector-curvature="0"
         mask="none" />
    </clipPath>
    <clipPath
       clipPathUnits="userSpaceOnUse"
       id="clipPath5943">
      <path
         mask="none"
         inkscape:connector-curvature="0"
         id="path5945"
         d="m 591.7709,817.9475 -43.75,18.12305 -18.1211,43.74805 61.8711,0 0,-61.8711 z m 18.61718,0 0,61.8711 61.8711,0 -18.1211,-43.74805 -43.75,-18.12305 z m -80.48828,80.49024 18.1211,43.75 43.75,18.12109 0,-61.87109 -61.8711,0 z m 80.48828,0 0,61.87109 43.75,-18.12109 18.1211,-43.75 -61.8711,0 z"
         style="display:inline;fill:#2a7de6;fill-opacity:0.41176471;fill-rule:nonzero;stroke:none;stroke-width:4;stroke-miterlimit:4;stroke-dasharray:none;stroke-opacity:1" />
    </clipPath>
    <clipPath
       clipPathUnits="userSpaceOnUse"
       id="clipPath4532">
      <path
         style="display:inline;fill:#104588;fill-opacity:0.45955882;fill-rule:nonzero;stroke:none;stroke-width:5.27074242;stroke-miterlimit:4;stroke-dasharray:none;stroke-opacity:1"
         d="M 112.2853,-7.3197486 C 177.27551,49.483332 153.3878,107.0631 128.46754,122.15933 85.008174,148.4862 88.099053,145.03249 20.092553,131.31532 c 0,0 -30.0467971,-17.98574 -3.547239,-12.28237 C 140.89787,145.79673 144.4391,57.022831 112.2853,-7.3197486 Z"
         id="path4534"
         inkscape:connector-curvature="0"
         sodipodi:nodetypes="cscsc"
         clip-path="none" />
    </clipPath>
    <clipPath
       clipPathUnits="userSpaceOnUse"
       id="clipPath4773">
      <path
         style="display:inline;fill:#104588;fill-opacity:0.45955882;fill-rule:nonzero;stroke:none;stroke-width:5.27074242;stroke-miterlimit:4;stroke-dasharray:none;stroke-opacity:1"
         d="m 116.83099,0.8770208 c 57.16152,35.8424132 38.34252,112.9267192 13.42226,128.0229492 -43.459364,26.32687 -42.154199,14.4803 -110.160699,0.76313 0,0 -11.4139097,-12.45429 14.635508,-4.95876 C 124.23035,150.45796 148.98479,65.2196 116.83099,0.8770208 Z"
         id="path4775"
         inkscape:connector-curvature="0"
         sodipodi:nodetypes="cscsc"
         clip-path="none" />
    </clipPath>
  </defs>
  <sodipodi:namedview
     id="base"
     pagecolor="#000000"
     bordercolor="#666666"
     borderopacity="1.0"
     inkscape:pageopacity="0"
     inkscape:pageshadow="2"
     inkscape:zoom="1.4840001"
     inkscape:cx="383.51854"
     inkscape:cy="252.13951"
     inkscape:document-units="px"
     inkscape:current-layer="layer5"
     showgrid="false"
     showguides="false"
     inkscape:snap-center="true"
     inkscape:object-nodes="true"
     inkscape:window-width="1920"
     inkscape:window-height="1017"
     inkscape:window-x="-8"
     inkscape:window-y="-8"
     inkscape:window-maximized="1"
     inkscape:snap-smooth-nodes="true">
    <inkscape:grid
       type="xygrid"
       id="grid6753" />
  </sodipodi:namedview>
  <metadata
     id="metadata6066">
    <rdf:RDF>
      <cc:Work
         rdf:about="">
        <dc:format>image/svg+xml</dc:format>
        <dc:type
           rdf:resource="http://purl.org/dc/dcmitype/StillImage" />
        <dc:title />
      </cc:Work>
    </rdf:RDF>
  </metadata>
  <g
     inkscape:label="bg"
     inkscape:groupmode="layer"
     id="layer1"
     style="display:inline">
    <path
       style="fill:#fab33c;fill-opacity:1;stroke:#d08b2b;stroke-width:1.04869378;stroke-linecap:butt;stroke-linejoin:round;stroke-opacity:1"
       inkscape:connector-curvature="0"
       id="path18-5"
       d="m 166.464,599.598 -0.54777,-3.4523 -0.54776,-3.45265 -0.54777,-3.4523 -0.54777,-3.45265 -0.54742,-3.4523 -0.54776,-3.45265 -0.54777,-3.4523 -0.54777,-3.45265 -0.54777,-3.4523 -0.54777,-3.4523 -0.54741,-3.45265 -0.54777,-3.4523 -0.54777,-3.45265 -0.54777,-3.4523 -0.54776,-3.45265 -0.54777,-3.4523 -0.54742,-3.45265 -0.54777,-3.4523 -0.54777,-3.45264 -0.54776,-3.4523 -0.50477,-3.18174 -1.94219,2.90663 -1.94183,2.90663 -1.94218,2.90628 -1.94218,2.90663 -1.94183,2.90663 -1.94218,2.90628 -1.94218,2.90663 -1.94183,2.90662 -1.94218,2.90628 -0.91376,1.3675 -0.68201,3.42853 -0.68165,3.42818 -0.682,3.42853 -0.682,3.42853 -0.682,3.42853 -0.682,3.42853 -0.682,3.42853 -0.682,3.42818 -0.682,3.42853 -0.32055,1.61289 0.68165,3.42853 0.682,3.42853 0.682,3.42853 0.682,3.42818 0.682,3.42853 0.682,3.42852 0.682,3.42853 0.682,3.42853 0.682,3.42853 0.32056,1.61254 1.94218,2.90663 1.94218,2.90663 1.94218,2.90628 1.94183,2.90663 1.94218,2.90663 1.94218,2.90663 1.94183,2.90628 1.94218,2.90663 1.94218,2.90663 0.91342,1.36715 1.38847,-3.20831 1.38812,-3.20795 1.38847,-3.2083 1.38847,-3.20796 1.38812,-3.20795 0.21533,-0.49743 0.47716,-3.46314 0.47715,-3.46279 0.47716,-3.46313 0.47715,-3.46279 0.47716,-3.46279 0.47715,-3.46313 0.47716,-3.46279 0.47716,-3.46313 0.48484,-3.51767" />
    <path
       style="fill:#fec951;fill-opacity:1;stroke:#d08b2b;stroke-width:1.04869378;stroke-linecap:butt;stroke-linejoin:round;stroke-opacity:1"
       inkscape:connector-curvature="0"
       id="path6-5"
       d="m 215.40794,635.08265 1.10532,-3.31632 1.10532,-3.31632 1.10568,-3.31632 1.10532,-3.31632 1.10532,-3.31632 1.10533,-3.31597 1.10567,-3.31632 1.10532,-3.31632 1.10533,-3.31632 1.10532,-3.31632 1.10567,-3.31631 0.48415,-1.45245 -3.49285,0.13878 -3.49285,0.13878 -3.49285,0.13878 -3.4932,0.13877 -3.49285,0.13878 -3.49285,0.13878 -3.49285,0.13877 -3.49285,0.13878 -3.49285,0.13878 -3.49284,0.13878 -3.49285,0.13877 -3.49285,0.13878 -3.4932,0.13878 -3.49285,0.13877 -3.49285,0.13878 -3.49285,0.13878 -3.49285,0.13878 -2.20855,0.0877 -0.47715,3.46313 -0.47716,3.46279 -0.47715,3.46314 -0.47716,3.46278 -0.47716,3.46279 -0.47715,3.46314 -0.47716,3.46278 -0.47715,3.46314 -0.48485,3.51767 2.8126,2.07571 2.81259,2.07607 2.81225,2.07571 2.8126,2.07606 2.81259,2.07607 2.81225,2.07571 2.8126,2.07607 2.81259,2.07571 2.8126,2.07607 2.81225,2.07571 2.81259,2.07606 1.91527,1.41364 2.49659,-2.4466 2.49659,-2.44695 2.49659,-2.4466 2.49659,-2.44661 2.49659,-2.44695 2.49659,-2.4466 2.49694,-2.4466 2.49659,-2.44661 0.42018,-0.41178" />
    <path
       style="fill:#fab33c;fill-opacity:1;stroke:#d08b2b;stroke-width:1.04869378;stroke-linecap:butt;stroke-linejoin:round;stroke-opacity:1"
       inkscape:connector-curvature="0"
       id="path8-8"
       d="m 291.07189,589.1974 3.42154,-0.71556 3.42154,-0.7159 1.93064,-0.40375 -0.68165,-3.42853 -0.682,-3.42853 -0.682,-3.42853 -0.682,-3.42818 -0.682,-3.42853 -0.682,-3.42853 -0.682,-3.42853 -0.682,-3.42853 -0.682,-3.42853 -0.32055,-1.61254 -1.94219,-2.90663 -1.94218,-2.90663 -1.94218,-2.90628 -1.94183,-2.90663 -1.94218,-2.90663 -1.94218,-2.90663 -1.94183,-2.90627 -1.94218,-2.90663 -1.94218,-2.90663 -0.91342,-1.36715 -3.46907,0.43066 -3.46908,0.43067 -3.46908,0.43066 -3.46873,0.43067 -3.46908,0.43066 -2.67906,0.33244 0.17793,3.4911 0.17827,3.49109 0.17793,3.49111 0.17828,3.4911 0.17793,3.4911 0.17828,3.4911 0.17792,3.4911 0.17828,3.4911 0.17793,3.49145 0.17828,3.49111 0.17828,3.4911 0.08,1.56849 3.03841,1.72825 3.03842,1.72825 3.03876,1.72825 3.03842,1.72824 3.03841,1.72825 3.03842,1.72825 3.03876,1.72859 3.03842,1.72825 3.03841,1.72825 3.03877,1.72825 3.03841,1.72824 0.63796,0.3625" />
    <path
       style="fill:#eb9d30;fill-opacity:1;stroke:#d08b2b;stroke-width:1.04869378;stroke-linecap:butt;stroke-linejoin:round;stroke-opacity:1"
       inkscape:connector-curvature="0"
       id="path10-5"
       d="m 293.38741,619.83114 0.682,-3.42818 0.68165,-3.42852 0.682,-3.42853 0.682,-3.42853 0.682,-3.42853 0.682,-3.42853 0.682,-3.42853 0.682,-3.42818 0.682,-3.42853 0.32055,-1.61289 -3.42154,0.71556 -3.42154,0.7159 -1.93064,0.40375 -1.65484,3.07932 -1.65449,3.07931 -1.65449,3.07932 -1.65449,3.07931 -1.65484,3.07931 -1.65448,3.07932 -0.43941,0.81763 2.60566,2.3302 2.606,2.33019 2.60566,2.32985 2.606,2.3302 2.25924,2.01978" />
    <path
       style="fill:#fec951;fill-opacity:1;stroke:#d08b2b;stroke-width:1.04869378;stroke-linecap:butt;stroke-linejoin:round;stroke-opacity:1"
       inkscape:connector-curvature="0"
       id="path12-3"
       d="m 215.40794,635.08265 3.42363,0.70507 3.42399,0.70542 3.42363,0.70507 3.42364,0.70542 3.42398,0.70542 3.42364,0.70508 3.42363,0.70542 3.42399,0.70507 3.42364,0.70542 3.42363,0.70542 3.42399,0.70507 3.42363,0.70543 3.42364,0.70507 3.42398,0.70542 3.42364,0.70542 3.42363,0.70507 3.42399,0.70542 1.38322,0.2849 1.94219,-2.90663 1.94183,-2.90628 1.94218,-2.90663 1.94218,-2.90663 1.94183,-2.90663 1.94218,-2.90628 1.94218,-2.90663 1.94183,-2.90663 1.94218,-2.90628 0.91377,-1.3675 -2.60601,-2.32984 -2.60565,-2.3302 -2.60601,-2.32985 -2.606,-2.3302 -2.25889,-2.02013 -3.41734,-0.73583 -3.41734,-0.73584 -3.41735,-0.73618 -3.41734,-0.73583 -3.41699,-0.73619 -3.41735,-0.73583 -3.41734,-0.73618 -3.41734,-0.73584 -3.41735,-0.73618 -3.41734,-0.73583 -3.41699,-0.73619 -3.41735,-0.73583 -3.41734,-0.73618 -3.41734,-0.73584 -3.41735,-0.73618 -1.39371,-0.29993 -1.10533,3.31597 -1.10567,3.31632 -1.10532,3.31632 -1.10532,3.31632 -1.10533,3.31632 -1.10567,3.31632 -1.10532,3.31632 -1.10533,3.31597 -1.10532,3.31632 -1.10567,3.31632 -1.10533,3.31632 -0.48414,1.45279" />
    <path
       style="fill:#fab33c;fill-opacity:1;stroke:#d08b2b;stroke-width:1.04869378;stroke-linecap:butt;stroke-linejoin:round;stroke-opacity:1"
       inkscape:connector-curvature="0"
       id="path14-2"
       d="m 182.53104,665.74962 3.42853,0.682 3.42818,0.68165 3.42853,0.682 3.42853,0.682 3.42853,0.682 3.42853,0.682 3.42853,0.682 3.42817,0.682 3.42853,0.682 1.6129,0.32055 3.42852,-0.68165 3.42853,-0.682 3.42853,-0.682 3.42818,-0.682 3.42853,-0.682 3.42853,-0.682 3.42853,-0.682 3.42853,-0.682 3.42853,-0.682 1.61254,-0.32055 2.90663,-1.94219 2.90663,-1.94218 2.90628,-1.94183 2.90663,-1.94218 2.90663,-1.9422 2.90628,-1.94218 2.90663,-1.94183 2.90663,-1.94218 2.90663,-1.94218 1.36714,-0.91341 -3.42398,-0.70542 -3.42364,-0.70508 -3.42363,-0.70542 -3.42399,-0.70507 -3.42363,-0.70542 -3.42364,-0.70542 -3.42398,-0.70507 -3.42364,-0.70542 -3.42363,-0.70508 -3.42399,-0.70542 -3.42363,-0.70542 -3.42364,-0.70507 -3.42398,-0.70542 -3.42364,-0.70507 -3.42364,-0.70542 -3.42398,-0.70543 -3.42364,-0.70507 -1.38322,-0.28489 -2.49659,2.4466 -2.49659,2.4466 -2.49694,2.4466 -2.49659,2.44696 -2.49659,2.4466 -2.49659,2.4466 -2.49659,2.4466 -2.49659,2.44696 -0.42018,0.41178 -2.65634,2.27254 -2.65599,2.27287 -2.656,2.27252 -2.65599,2.27252 -1.85933,1.59122" />
    <path
       style="fill:#eb9d30;fill-opacity:1;stroke:#d08b2b;stroke-width:1.04869378;stroke-linecap:butt;stroke-linejoin:round;stroke-opacity:1"
       inkscape:connector-curvature="0"
       id="path16-3"
       d="m 162.16191,630.81936 -1.38812,3.20795 -1.38847,3.20831 -1.38847,3.20795 -1.38812,3.2083 -1.38847,3.20796 -0.21533,0.49743 2.90662,1.94218 2.90663,1.94183 2.90628,1.94218 2.90663,1.94218 2.90663,1.94183 2.90628,1.9422 2.90663,1.94218 2.90663,1.94183 2.90628,1.94218 1.3675,0.91377 2.65599,-2.27287 2.65599,-2.27252 2.65599,-2.27252 2.656,-2.27289 1.85968,-1.59087 -2.8126,-2.07606 -2.81259,-2.07572 -2.8126,-2.07606 -2.81225,-2.07606 -2.81259,-2.07572 -2.8126,-2.07606 -2.81225,-2.07572 -2.81259,-2.07606 -2.8126,-2.07571 -2.81225,-2.07607 -2.81259,-2.07606 -1.91527,-1.41329" />
    <path
       style="fill:#fee389;fill-opacity:1;stroke:#d08b2b;stroke-width:1.04869378;stroke-linecap:butt;stroke-linejoin:round;stroke-opacity:1"
       inkscape:connector-curvature="0"
       id="path20-8"
       d="m 215,502.51657 -3.42853,0.68165 -3.42853,0.682 -3.42853,0.68201 -3.42818,0.682 -3.42853,0.682 -3.42853,0.682 -3.42853,0.682 -3.42853,0.682 -3.42853,0.682 -1.61254,0.32055 -2.90663,1.94218 -2.90663,1.94218 -2.90628,1.94183 -2.90663,1.94218 -2.90663,1.94219 -2.90663,1.94218 -2.90628,1.94183 -2.90663,1.94218 -2.90663,1.94218 -1.36714,0.91341 0.54776,3.45265 0.54777,3.4523 0.54777,3.45265 0.54742,3.4523 0.54776,3.45265 0.54777,3.4523 0.54777,3.45265 0.54777,3.45229 0.54777,3.45265 0.54776,3.4523 0.54742,3.45265 0.54777,3.4523 0.54777,3.4523 0.54776,3.45265 0.54777,3.4523 0.54777,3.45265 0.54742,3.4523 0.54777,3.45265 0.54776,3.4523 0.54777,3.45265 0.50477,3.18139 3.49285,-0.13878 3.49285,-0.13878 3.49285,-0.13877 3.49285,-0.13878 3.49285,-0.13878 3.49285,-0.13878 3.4932,-0.13877 3.49285,-0.13878 3.49285,-0.13878 3.49284,-0.13877 3.49285,-0.13878 3.49285,-0.13878 3.49285,-0.13878 3.49285,-0.13877 3.4932,-0.13878 3.49285,-0.13878 3.49285,-0.13877 2.20855,-0.0878 2.54238,-2.39941 2.54238,-2.39906 2.54239,-2.39906 2.54238,-2.39906 2.54238,-2.39906 2.54239,-2.39941 2.54238,-2.39907 2.54238,-2.39906 2.54239,-2.39906 2.54238,-2.39941 2.54238,-2.39906 0.99242,-0.93649 -0.17828,-3.4911 -0.17828,-3.4911 -0.17793,-3.4911 -0.17828,-3.4911 -0.17792,-3.4911 -0.17828,-3.4911 -0.17793,-3.49111 -0.17828,-3.4911 -0.17793,-3.4911 -0.17827,-3.4911 -0.17793,-3.4911 -0.08,-1.56884 -2.88566,-1.9733 -2.8853,-1.97329 -2.88531,-1.97329 -2.88531,-1.97329 -2.8853,-1.9733 -2.88566,-1.97364 -2.8853,-1.97329 -2.88531,-1.97329 -2.88531,-1.97329 -2.88565,-1.97329 -2.88531,-1.9733 -2.8853,-1.97364 -2.88531,-1.97329 L 215,502.51657" />
    <path
       style="fill:#eb9d30;fill-opacity:1;stroke:#d08b2b;stroke-width:1.04869378;stroke-linecap:butt;stroke-linejoin:round;stroke-opacity:1"
       inkscape:connector-curvature="0"
       id="path22-4"
       d="m 247.46895,508.97478 -3.42853,-0.682 -3.42818,-0.68165 -3.42853,-0.682 -3.42853,-0.682 -3.42853,-0.682 -3.42853,-0.682 -3.42852,-0.68201 -3.42853,-0.682 -3.42818,-0.682 -1.61289,-0.32055 2.8853,1.9733 2.88531,1.97329 2.88565,1.97329 2.88531,1.97329 2.88531,1.9733 2.8853,1.97364 2.88531,1.97329 2.88565,1.97329 2.88531,1.97329 2.8853,1.9733 2.88531,1.97329 2.88566,1.97364 2.8853,1.97329 2.46094,1.68281 3.46873,-0.43067 3.46908,-0.43066 3.46907,-0.43067 3.46908,-0.43031 3.46908,-0.43066 2.67906,-0.33279 -2.90662,-1.94218 -2.90663,-1.94183 -2.90628,-1.94218 -2.90663,-1.94218 -2.90663,-1.94183 -2.90628,-1.94218 -2.90663,-1.94219 -2.90663,-1.94218 -2.90628,-1.94183 -1.3675,-0.91376" />
    <path
       style="fill:#fec951;fill-opacity:1;stroke:#d08b2b;stroke-width:1.04869378;stroke-linecap:butt;stroke-linejoin:round;stroke-opacity:1"
       inkscape:connector-curvature="0"
       id="path24-5"
       d="m 280.70485,608.49092 1.65449,-3.07896 1.65449,-3.07932 1.65484,-3.07931 1.65449,-3.07932 1.65449,-3.07931 1.65449,-3.07932 0.43975,-0.81798 -3.03877,-1.72825 -3.03841,-1.72824 -3.03842,-1.72825 -3.03876,-1.72825 -3.03842,-1.72824 -3.03841,-1.72825 -3.03877,-1.72825 -3.03841,-1.72825 -3.03842,-1.72824 -3.03876,-1.72825 -3.03842,-1.72825 -0.6376,-0.36285 -2.54239,2.39942 -2.54238,2.39906 -2.54238,2.39906 -2.54239,2.39906 -2.54238,2.39906 -2.54238,2.39941 -2.54239,2.39906 -2.54238,2.39907 -2.54238,2.39906 -2.54239,2.39906 -2.54238,2.39941 -0.99241,0.93648 3.41734,0.73584 3.41734,0.73618 3.417,0.73583 3.41734,0.73619 3.41735,0.73583 3.41734,0.73583 3.41734,0.73619 3.41735,0.73583 3.41699,0.73618 3.41734,0.73584 3.41735,0.73618 3.41734,0.73583 3.41734,0.73619 3.41735,0.73583 3.41699,0.73618 1.39406,0.29993" />
    <path
       style="fill:none;stroke:#d08b2b;stroke-width:3.49564576;stroke-linecap:butt;stroke-linejoin:round;stroke-miterlimit:4;stroke-dasharray:none;stroke-opacity:1"
       inkscape:connector-curvature="0"
       id="path6-3"
       d="m 215,502.51657 -3.42853,0.68165 -3.42853,0.682 -3.42853,0.682 -3.42818,0.682 -3.42853,0.682 -3.42853,0.68201 -3.42853,0.682 -3.42853,0.682 -3.42853,0.682 -1.61254,0.32055 -2.90663,1.94218 -2.90663,1.94218 -2.90628,1.94183 -2.90663,1.94218 -2.90663,1.94218 -2.90663,1.94218 -2.90628,1.94183 -2.90663,1.94218 -2.90663,1.94219 -1.36714,0.91341 -1.94219,2.90663 -1.94183,2.90663 -1.94218,2.90628 -1.94218,2.90663 -1.94183,2.90663 -1.94218,2.90628 -1.94218,2.90663 -1.94183,2.90662 -1.94218,2.90628 -0.91376,1.3675 -0.68201,3.42853 -0.68165,3.42818 -0.682,3.42853 -0.682,3.42853 -0.682,3.42853 -0.682,3.42853 -0.682,3.42853 -0.682,3.42818 -0.682,3.42853 -0.32055,1.61289 0.68165,3.42853 0.682,3.42853 0.682,3.42853 0.682,3.42818 0.682,3.42853 0.682,3.42852 0.682,3.42853 0.682,3.42853 0.682,3.42853 0.32056,1.61254 1.94218,2.90663 1.94218,2.90663 1.94218,2.90628 1.94183,2.90663 1.94218,2.90663 1.94218,2.90663 1.94183,2.90628 1.94218,2.90663 1.94218,2.90663 0.91342,1.36715 2.90662,1.94218 2.90663,1.94183 2.90628,1.94218 2.90663,1.94218 2.90663,1.94183 2.90628,1.94217 2.90663,1.94221 2.90663,1.9418 2.90628,1.94218 1.3675,0.9138 3.42853,0.682 3.42818,0.68165 3.42853,0.682 3.42853,0.682 3.42853,0.682 3.42853,0.682 3.42853,0.682 3.42817,0.682 3.42853,0.682 1.6129,0.32055 3.42852,-0.68165 3.42853,-0.682 3.42853,-0.682 3.42818,-0.682 3.42853,-0.682 3.42853,-0.682 3.42853,-0.682 3.42853,-0.68204 3.42853,-0.682 1.61254,-0.32051 2.90663,-1.94222 2.90663,-1.94218 2.90628,-1.9418 2.90663,-1.94221 2.90663,-1.94217 2.90628,-1.94218 2.90663,-1.94183 2.90663,-1.94218 2.90663,-1.94218 1.36714,-0.91341 1.94219,-2.90663 1.94183,-2.90628 1.94218,-2.90663 1.94218,-2.90663 1.94183,-2.90663 1.94218,-2.90628 1.94218,-2.90663 1.94183,-2.90663 1.94218,-2.90628 0.91377,-1.3675 0.682,-3.42818 0.68165,-3.42852 0.682,-3.42853 0.682,-3.42853 0.682,-3.42853 0.682,-3.42853 0.682,-3.42853 0.682,-3.42818 0.682,-3.42853 0.32055,-1.61289 -0.68165,-3.42853 -0.682,-3.42853 -0.682,-3.42853 -0.682,-3.42818 -0.682,-3.42853 -0.682,-3.42853 -0.682,-3.42853 -0.682,-3.42853 -0.682,-3.42853 -0.32055,-1.61254 -1.94219,-2.90663 -1.94218,-2.90663 -1.94218,-2.90628 -1.94183,-2.90663 -1.94218,-2.90663 -1.94218,-2.90663 -1.94183,-2.90628 -1.94218,-2.90663 -1.94218,-2.90663 -0.91342,-1.36714 -2.90662,-1.94218 -2.90663,-1.94183 -2.90628,-1.94218 -2.90663,-1.94219 -2.90663,-1.94183 -2.90628,-1.94218 -2.90663,-1.94218 -2.90663,-1.94218 -2.90628,-1.94183 -1.3675,-0.91376 -3.42853,-0.682 -3.42818,-0.68165 -3.42853,-0.682 -3.42853,-0.682 -3.42853,-0.68201 -3.42853,-0.682 -3.42852,-0.682 -3.42853,-0.682 -3.42818,-0.682 L 215,502.51657 Z"
       sodipodi:nodetypes="cccccccccccccccccccccccccccccccccccccccccccccccccccccccccccccccccccccccccccccccccccccccccccccccccccccccccccccccccccccccccccccccccccccccccccccccccccccccccccccccccc" />
  </g>
  <g
     inkscape:groupmode="layer"
     id="layer3"
     inkscape:label="base"
     style="display:inline">
    <path
       style="display:inline;fill:#104588;fill-opacity:1;fill-rule:nonzero;stroke:#134f99;stroke-width:4;stroke-miterlimit:4;stroke-dasharray:none;stroke-opacity:1"
       d="m 279.44256,794.39871 -43.75,18.12305 -18.12111,43.74805 11.93597,9.27637 -11.93597,9.34277 18.12111,43.75 43.75,18.12109 9.27539,-13.93554 9.34179,13.93554 43.75,-18.12109 18.1211,-43.75 -13.93596,-9.34277 13.93596,-9.27637 -18.1211,-43.74805 -43.75,-18.12305 -9.34179,11.93555 z"
       id="path4978-5"
       inkscape:connector-curvature="0"
       mask="none"
       sodipodi:nodetypes="ccccccccccccccccc" />
    <circle
       style="fill:#4e93ea;fill-opacity:1;fill-rule:nonzero;stroke:#1761bd;stroke-width:3.5;stroke-miterlimit:4;stroke-dasharray:none;stroke-opacity:1"
       id="path6638"
       cx="202.57211"
       cy="225.20554"
       r="62.708569" />
    <circle
       style="display:inline;fill:#0d396d;fill-opacity:1;fill-rule:nonzero;stroke:none;stroke-width:3.5;stroke-miterlimit:4;stroke-dasharray:none;stroke-opacity:1"
       id="circle4964-9"
       cx="287.70203"
       cy="864.93207"
       r="62.708569"
       inkscape:transform-center-x="1.0491072"
       inkscape:transform-center-y="-0.64732146" />
    <path
       mask="none"
       inkscape:connector-curvature="0"
       id="path4966-3"
       d="m 279.44256,794.39871 -43.75,18.12305 -18.12111,43.74805 61.87111,0 0,-61.8711 z m 18.61718,0 0,61.8711 61.8711,0 -18.1211,-43.74805 -43.75,-18.12305 z m -80.48829,80.49024 18.12111,43.75 43.75,18.12109 0,-61.87109 -61.87111,0 z m 80.48829,0 0,61.87109 43.75,-18.12109 18.1211,-43.75 -61.8711,0 z"
       style="display:inline;fill:#2a7de6;fill-opacity:1;fill-rule:nonzero;stroke:#134f99;stroke-width:4;stroke-miterlimit:4;stroke-dasharray:none;stroke-opacity:1" />
  </g>
  <g
     inkscape:groupmode="layer"
     id="layer4"
     inkscape:label="bot"
     style="display:inline">
    <circle
       inkscape:transform-center-y="-0.64732146"
       inkscape:transform-center-x="1.0491072"
       r="62.708569"
       cy="512.58624"
       cx="777.37122"
       id="circle6877"
       style="display:inline;fill:#104588;fill-opacity:1;fill-rule:nonzero;stroke:#134f99;stroke-width:3.5;stroke-miterlimit:4;stroke-dasharray:none;stroke-opacity:1" />
    <path
       style="display:inline;fill:#4e93ea;fill-opacity:1;fill-rule:nonzero;stroke:#134f99;stroke-width:4;stroke-miterlimit:4;stroke-dasharray:none;stroke-opacity:1"
       d="m 769.11178,442.05221 -43.75,18.12305 -18.1211,43.74805 61.8711,0 0,-61.8711 z m 18.61718,0 0,61.8711 61.8711,0 -18.1211,-43.74805 -43.75,-18.12305 z m -80.48828,80.49024 18.1211,43.75 43.75,18.12109 0,-61.87109 -61.8711,0 z m 80.48828,0 0,61.87109 43.75,-18.12109 18.1211,-43.75 -61.8711,0 z"
       id="path6875"
       inkscape:connector-curvature="0"
       mask="none" />
    <circle
       style="display:inline;fill:#104588;fill-opacity:1;fill-rule:nonzero;stroke:#134f99;stroke-width:3.5;stroke-miterlimit:4;stroke-dasharray:none;stroke-opacity:1"
       id="path6638-9"
       cx="565.37946"
       cy="409.57202"
       r="62.708569"
       inkscape:transform-center-x="1.0491072"
       inkscape:transform-center-y="-0.64732146" />
    <path
       style="display:inline;fill:#4e93ea;fill-opacity:1;fill-rule:nonzero;stroke:#134f99;stroke-width:3.5;stroke-miterlimit:4;stroke-dasharray:none;stroke-opacity:1"
       d="m 557.11914,341.53906 a 68.54631,68.54631 0 0 0 -59.76562,59.3711 l 59.76562,0 0,-59.3711 z m 18.61914,0.31446 0,59.05664 57.4707,0 a 68.54631,68.54631 0 0 0 -57.4707,-59.05664 z m -78.17187,77.67578 a 68.54631,68.54631 0 0 0 59.55273,57.98632 l 0,-57.98632 -59.55273,0 z m 78.17187,0 0,57.67578 a 68.54631,68.54631 0 0 0 57.27344,-57.67578 l -57.27344,0 z"
       id="circle6859"
       inkscape:connector-curvature="0" />
    <circle
       inkscape:transform-center-y="-0.64732146"
       inkscape:transform-center-x="1.0491072"
       r="62.708569"
       cy="838.16571"
       cx="1030.6606"
       id="circle4972"
       style="display:inline;fill:#104588;fill-opacity:1;fill-rule:nonzero;stroke:#134f99;stroke-width:3.5;stroke-miterlimit:4;stroke-dasharray:none;stroke-opacity:1" />
    <path
       sodipodi:nodetypes="cccccccccccccccccccc"
       mask="none"
       inkscape:connector-curvature="0"
       id="path4974"
       d="m 1022.4012,767.63169 -43.74997,18.12305 -18.1211,43.74805 70.87017,9 z m 18.6172,0 -8.999,70.8711 70.8701,-9 -18.1211,-43.74805 z m -80.48827,80.49024 18.1211,43.75 43.74997,18.12109 8.9991,-70.87109 z m 71.48927,-9 8.999,70.87109 43.75,-18.12109 18.1211,-43.75 z"
       style="display:inline;fill:#4e93ea;fill-opacity:1;fill-rule:nonzero;stroke:#134f99;stroke-width:4;stroke-miterlimit:4;stroke-dasharray:none;stroke-opacity:1" />
  </g>
  <g
     inkscape:groupmode="layer"
     id="layer6"
     inkscape:label="shading"
     style="display:inline">
    <circle
       style="display:inline;fill:url(#linearGradient4901);fill-opacity:1;fill-rule:nonzero;stroke:none;stroke-width:4;stroke-miterlimit:4;stroke-dasharray:none;stroke-opacity:1"
       id="circle4899"
       cx="-770.63196"
       cy="-337.12296"
       r="84.0952"
       transform="matrix(-0.90919142,-0.41637838,0.41637838,-0.90919142,332.85715,-167.85715)"
       mask="none"
       clip-path="url(#clipPath4952)" />
    <path
       transform="translate(208.75114,797.2316)"
       style="display:inline;fill:#0d376d;fill-opacity:0.41176471;fill-rule:nonzero;stroke:none;stroke-width:4;stroke-miterlimit:4;stroke-dasharray:none;stroke-opacity:1"
       d="m 70.691424,-2.8328945 -43.75,18.1230505 -18.1211101,43.74805 61.8711101,0 0,-61.8711005 z m 18.61718,0 0,61.8711005 61.871096,0 L 133.0586,15.290156 89.308604,-2.8328945 Z M 8.8203139,77.657346 26.941424,121.40735 l 43.75,18.12109 0,-61.871094 -61.8711101,0 z m 80.4882901,0 0,61.871094 43.749996,-18.12109 18.1211,-43.750004 -61.871096,0 z"
       id="path5856"
       inkscape:connector-curvature="0"
       mask="none"
       clip-path="url(#clipPath4773)" />
  </g>
  <g
     inkscape:groupmode="layer"
     id="layer2"
     inkscape:label="ref"
     style="display:inline">
    <circle
       style="display:inline;fill:#4e93ea;fill-opacity:1;fill-rule:nonzero;stroke:#6a6a6a;stroke-width:3.59220004;stroke-miterlimit:4;stroke-dasharray:none;stroke-opacity:1"
       id="path6638-9-8"
       cx="711.42859"
       cy="348.07648"
       r="26.033104" />
    <path
       style="display:inline;fill:none;fill-opacity:1;fill-rule:nonzero;stroke:#134f99;stroke-width:4;stroke-miterlimit:4;stroke-dasharray:none;stroke-opacity:1"
       d="m 279.44253,794.39868 -43.75,18.12305 -18.12111,43.74805 61.87111,0 0,-61.8711 z m 18.61718,0 0,61.8711 61.8711,0 -18.1211,-43.74805 -43.75,-18.12305 z m -80.48829,80.49024 18.12111,43.75 43.75,18.12109 0,-61.87109 -61.87111,0 z m 80.48829,0 0,61.87109 43.75,-18.12109 18.1211,-43.75 -61.8711,0 z"
       id="path4519"
       inkscape:connector-curvature="0"
       mask="none" />
    <circle
       r="34.656338"
       cy="865.27051"
       cx="289.06067"
       id="circle4968-2"
       style="display:inline;fill:#4e93ea;fill-opacity:1;fill-rule:nonzero;stroke:#1761bd;stroke-width:5.32496405;stroke-miterlimit:4;stroke-dasharray:none;stroke-opacity:1" />
  </g>
  <g
     inkscape:groupmode="layer"
     id="layer5"
     inkscape:label="cannon"
     style="display:inline">
    <circle
       style="display:inline;fill:#9c9c9c;fill-opacity:1;fill-rule:nonzero;stroke:#6a6a6a;stroke-width:4;stroke-miterlimit:4;stroke-dasharray:none;stroke-opacity:1"
       id="circle4960"
       cx="778.42035"
       cy="513.23358"
       r="26.033104" />
    <circle
       r="26.033104"
       cy="410.21933"
       cx="566.42859"
       id="circle4962"
       style="display:inline;fill:#9c9c9c;fill-opacity:1;fill-rule:nonzero;stroke:#6a6a6a;stroke-width:4;stroke-miterlimit:4;stroke-dasharray:none;stroke-opacity:1" />
    <circle
       style="display:inline;fill:#9c9c9c;fill-opacity:1;fill-rule:nonzero;stroke:#6a6a6a;stroke-width:4;stroke-miterlimit:4;stroke-dasharray:none;stroke-opacity:1"
       id="circle4976"
       cx="1031.7098"
       cy="838.81305"
       r="26.033104" />
    <circle
       r="26.033104"
       cy="821.97906"
       cx="741.00476"
       id="circle4980"
       style="display:inline;fill:#9c9c9c;fill-opacity:1;fill-rule:nonzero;stroke:#6a6a6a;stroke-width:4;stroke-miterlimit:4;stroke-dasharray:none;stroke-opacity:1" />
    <path
       style="display:inline;fill:#747474;fill-opacity:1;fill-rule:nonzero;stroke:#6a6a6a;stroke-width:4;stroke-miterlimit:4;stroke-dasharray:none;stroke-opacity:1"
       d="m 503.18893,738.5255 c 0,0 2.88163,0.71428 7.69343,0.71428 4.8118,0 8.40771,-0.71428 8.40771,-0.71428 0,0 3,9.78454 3,27.23752 0,17.45298 -3,19.23751 -3,19.23751 l -16.10114,0 c 0,0 -3,-2.85596 -3,-19.23751 0,-16.38155 3,-27.23752 3,-27.23752 z"
       id="rect4179"
       inkscape:connector-curvature="0"
       sodipodi:nodetypes="czczcczc" />
    <circle
       style="display:inline;fill:#1355a8;fill-opacity:0.55147059;fill-rule:nonzero;stroke:none;stroke-width:5.32496405;stroke-miterlimit:4;stroke-dasharray:none;stroke-opacity:1"
       id="circle5019"
       cx="-46.256622"
       cy="1033.1917"
       r="34.656338"
       clip-path="none" />
    <path
       sodipodi:nodetypes="cscc"
       inkscape:connector-curvature="0"
       id="path5026"
       d="m 687.3124,929.92732 c 23.5717,4.36867 11.4947,37.04487 0.7244,52.86723 -10.7703,15.8223 -42.43574,21.93945 -62.97507,-3.9926 39.86033,10.9365 58.76324,-15.58683 62.25067,-48.87463 z"
       style="display:inline;fill:#4e93ea;fill-opacity:0.43382353;fill-rule:nonzero;stroke:none;stroke-width:5.32496405;stroke-miterlimit:4;stroke-dasharray:none;stroke-opacity:1" />
    <circle
       style="display:inline;fill:#888888;fill-opacity:1;fill-rule:nonzero;stroke:#6a6a6a;stroke-width:4;stroke-miterlimit:4;stroke-dasharray:none;stroke-opacity:1"
       id="circle4181"
       cx="511.2395"
       cy="778.01935"
       r="16.256302" />
    <circle
       r="26.033104"
       cy="804.05249"
       cx="511.2395"
       id="circle4174"
       style="display:inline;fill:#9c9c9c;fill-opacity:1;fill-rule:nonzero;stroke:#6a6a6a;stroke-width:4;stroke-miterlimit:4;stroke-dasharray:none;stroke-opacity:1" />
  </g>
  <g
     inkscape:groupmode="layer"
     id="layer7"
     inkscape:label="cannon_shading" />
</svg>
