<?xml version="1.0" encoding="UTF-8" standalone="no"?>
<svg
   xmlns:dc="http://purl.org/dc/elements/1.1/"
   xmlns:cc="http://creativecommons.org/ns#"
   xmlns:rdf="http://www.w3.org/1999/02/22-rdf-syntax-ns#"
   xmlns:svg="http://www.w3.org/2000/svg"
   xmlns="http://www.w3.org/2000/svg"
   xmlns:sodipodi="http://sodipodi.sourceforge.net/DTD/sodipodi-0.dtd"
   xmlns:inkscape="http://www.inkscape.org/namespaces/inkscape"
   height="400"
   version="1.1"
   width="400"
   id="svg2"
   inkscape:version="0.91 r13725"
   sodipodi:docname="blaster_item.svg">
  <metadata
     id="metadata34">
    <rdf:RDF>
      <cc:Work
         rdf:about="">
        <dc:format>image/svg+xml</dc:format>
        <dc:type
           rdf:resource="http://purl.org/dc/dcmitype/StillImage" />
        <dc:title />
      </cc:Work>
    </rdf:RDF>
  </metadata>
  <defs
     id="defs32" />
  <sodipodi:namedview
     pagecolor="#000000"
     bordercolor="#666666"
     borderopacity="1"
     objecttolerance="10"
     gridtolerance="10"
     guidetolerance="10"
     inkscape:pageopacity="0"
     inkscape:pageshadow="2"
     inkscape:window-width="1920"
     inkscape:window-height="1017"
     id="namedview30"
     showgrid="false"
     inkscape:zoom="0.5"
     inkscape:cx="-267.9534"
     inkscape:cy="134.76197"
     inkscape:window-x="1912"
     inkscape:window-y="-8"
     inkscape:window-maximized="1"
     inkscape:current-layer="strokes" />
  <g
     inkscape:groupmode="layer"
     id="layer4"
     inkscape:label="bg"
     sodipodi:insensitive="true">
    <circle
       style="fill:none;fill-opacity:1;stroke:#cacaca;stroke-width:10.29221535;stroke-miterlimit:4;stroke-dasharray:none;stroke-opacity:1"
       id="path4140"
       cx="200"
       cy="200"
       r="194.8539" />
  </g>
  <g
     inkscape:label="cannon"
     inkscape:groupmode="layer"
     id="strokes"
     transform="translate(0,-100)"
     sodipodi:insensitive="true">
    <g
       id="g13081"
       transform="matrix(0.64420688,0.63329552,-0.63329552,0.64420688,176.12205,106.05562)">
      <path
         d="m 206.59163,187.06027 -1.141,-9.935 -1.14,-9.935 -1.141,-9.934 -1.14,-9.935 -1.141,-9.935 -1.14,-9.935 -1.018,-8.868 -6.078,0 -10,0 -10,0 -10,0 -10,0 -5.894,0 -6.078,0 -1.14,9.935 -1.141,9.935 -1.14,9.934 -1.141,9.935 -1.14,9.935 -1.141,9.935 -1.018,8.868 10,0 10,0 10,0 10,0 10,0 10,0 10,0 3.772,0"
         id="path28"
         inkscape:connector-curvature="0"
         style="fill:#c8c8c8;fill-opacity:1;stroke:none;stroke-width:1;stroke-linecap:butt;stroke-linejoin:round;stroke-miterlimit:4;stroke-dasharray:none;stroke-opacity:1" />
      <path
         d="m 132.81963,284.62127 10,0 10,0 10,0 10,0 10,0 10,0 10,0 3.772,0 0,-10 0,-10 0,-10 0,-10 0,-10 0,-10 0,-10 0,-10 0,-10 0,-7.561 -10,0 -10,0 -10,0 -10,0 -10,0 -10,0 -10,0 -3.772,0 0,10 0,10 0,10 0,10 0,10 0,10 0,10 0,10 0,10 0,7.561"
         id="path6-6"
         inkscape:connector-curvature="0"
         style="fill:#c1c1c1;fill-opacity:1;stroke:none;stroke-width:1;stroke-linecap:butt;stroke-linejoin:round;stroke-miterlimit:4;stroke-dasharray:none;stroke-opacity:1" />
      <path
         d="m 198.73063,118.58327 1.14,9.935 1.141,9.935 1.14,9.934 1.141,9.935 1.14,9.935 1.141,9.935 1.018,8.868 8.657,5.004 8.658,5.005 3.426,1.981 -3.349,-9.423 -3.349,-9.422 -3.35,-9.423 -3.349,-9.422 -3.349,-9.423 -3.349,-9.422 -3.35,-9.422 -3.349,-9.423 -1.808,-5.087"
         id="path8-9"
         inkscape:connector-curvature="0"
         style="fill:#dedede;fill-opacity:1;stroke:none;stroke-width:1;stroke-linecap:butt;stroke-linejoin:round;stroke-miterlimit:4;stroke-dasharray:none;stroke-opacity:1" />
      <path
         d="m 206.59163,284.62127 9.187,3.948 9.188,3.947 2.366,1.017 0,-10 0,-10 0,-10 0,-10 0,-10 0,-10 0,-10 0,-10 0,-10 0,-4.483 -8.657,-5.005 -8.658,-5.004 -3.426,-1.981 0,10 0,10 0,10 0,10 0,10 0,10 0,10 0,10 0,10 0,7.561"
         id="path10-2"
         inkscape:connector-curvature="0"
         style="fill:#c8c8c8;fill-opacity:1;stroke:none;stroke-width:1;stroke-linecap:butt;stroke-linejoin:round;stroke-miterlimit:4;stroke-dasharray:none;stroke-opacity:1" />
      <path
         d="m 227.33263,293.53327 -9.187,-3.948 -9.188,-3.947 -2.366,-1.017 -4.444,8.958 -4.443,8.959 -4.443,8.959 -0.609,1.228 8.749,-4.842 8.75,-4.842 8.75,-4.842 8.431,-4.666"
         id="path12-9"
         inkscape:connector-curvature="0"
         style="fill:#898989;fill-opacity:1;stroke:none;stroke-width:1;stroke-linecap:butt;stroke-linejoin:round;stroke-miterlimit:4;stroke-dasharray:none;stroke-opacity:1" />
      <path
         d="m 146.75863,312.72527 10,0 10,0 10,0 10,0 5.894,0 4.443,-8.959 4.443,-8.958 4.443,-8.959 0.61,-1.228 -10,0 -10,0 -10,0 -10,0 -10,0 -10,0 -10,0 -3.772,0 4.444,8.958 4.443,8.959 4.443,8.959 0.609,1.228"
         id="path14-3"
         inkscape:connector-curvature="0"
         style="fill:#787878;fill-opacity:1;stroke:none;stroke-width:1;stroke-linecap:butt;stroke-linejoin:round;stroke-miterlimit:4;stroke-dasharray:none;stroke-opacity:1" />
      <path
         d="m 112.07863,293.53327 8.749,4.842 8.75,4.842 8.75,4.842 8.431,4.666 -4.443,-8.959 -4.443,-8.958 -4.443,-8.959 -0.61,-1.228 -9.187,3.948 -9.188,3.947 -2.366,1.017"
         id="path16-8"
         inkscape:connector-curvature="0"
         style="fill:#555555;fill-opacity:1;stroke:none;stroke-width:1;stroke-linecap:butt;stroke-linejoin:round;stroke-miterlimit:4;stroke-dasharray:none;stroke-opacity:1" />
      <path
         d="m 132.81963,187.06027 -8.657,5.004 -8.658,5.005 -3.426,1.981 0,10 0,10 0,10 0,10 0,10 0,10 0,10 0,10 0,10 0,4.483 9.188,-3.948 9.187,-3.947 2.366,-1.017 0,-10 0,-10 0,-10 0,-10 0,-10 0,-10 0,-10 0,-10 0,-10 0,-7.561"
         id="path18-5"
         inkscape:connector-curvature="0"
         style="fill:#737373;fill-opacity:1;stroke:none;stroke-width:1;stroke-linecap:butt;stroke-linejoin:round;stroke-miterlimit:4;stroke-dasharray:none;stroke-opacity:1" />
      <path
         d="m 112.07863,199.05027 8.657,-5.005 8.658,-5.004 3.426,-1.981 1.141,-9.935 1.14,-9.935 1.141,-9.934 1.14,-9.935 1.141,-9.935 1.14,-9.935 1.018,-8.868 -3.349,9.423 -3.349,9.422 -3.35,9.422 -3.349,9.423 -3.349,9.422 -3.35,9.423 -3.349,9.422 -3.349,9.423 -1.808,5.087"
         id="path20-9"
         inkscape:connector-curvature="0"
         style="fill:#909090;fill-opacity:1;stroke:none;stroke-width:1;stroke-linecap:butt;stroke-linejoin:round;stroke-miterlimit:4;stroke-dasharray:none;stroke-opacity:1" />
      <path
         d="m 186.80027,118.87745 0,-10.03149 0,-10.031502 0,-10.0315 0,-10.0315 0,-10.0315 0,-10.0315 0,-10.0315 0,-10.03149 0,-10.0315 0,-10.0315 0,-10.0315005 0,-10.0315 0,-10.0314995 0,-10.0315 0,-10.0315 0,-10.0315 0,-10.0315 0,-10.0315 0,-3.80394 -7.44962,0 -7.44962,0 -7.44961,0 -7.44962,0 -4.39081,0 0,10.0315 0,10.0315 0,10.0315 0,10.0315 0,10.03149 0,10.0314995 0,10.03151 0,10.0314905 0,10.0315 0,10.0315 0,10.0315 0,10.0315 0,10.0315 0,10.0315 0,10.03149 0,10.0315 0,10.031502 0,10.0315 0,3.80394"
         id="path26"
         inkscape:connector-curvature="0"
         style="fill:#9f9f9f;fill-opacity:1;stroke:none;stroke-width:1;stroke-linecap:butt;stroke-linejoin:round;stroke-miterlimit:4;stroke-dasharray:none;stroke-opacity:1" />
      <rect
         y="201.84076"
         x="150.95563"
         height="68"
         width="37.5"
         id="rect12305"
         style="fill:#fb02ff;fill-opacity:1;stroke:none;stroke-width:20;stroke-miterlimit:4;stroke-dasharray:none;stroke-opacity:0.50735294" />
      <path
         d="m 186.80027,118.87745 0,-10.03149 0,-10.031502 0,-10.0315 0,-10.0315 0,-10.0315 0,-10.0315 0,-10.0315 0,-10.03149 0,-10.0315 0,-10.0315 0,-10.0315005 0,-10.0315 0,-10.0314995 0,-10.0315 0,-10.0315 0,-10.0315 0,-10.0315 0,-10.0315 0,-3.80394 -7.44962,0 -7.44962,0 -7.44961,0 -7.44962,0 -4.39081,0 0,10.0315 0,10.0315 0,10.0315 0,10.0315 0,10.03149 0,10.0314995 0,10.03151 0,10.0314905 0,10.0315 0,10.0315 0,10.0315 0,10.0315 0,10.0315 0,10.0315 0,10.03149 0,10.0315 0,10.031502 0,10.0315 0,3.80394"
         id="path28-6"
         inkscape:connector-curvature="0"
         style="fill:none;stroke:#cacaca;stroke-width:5.18682003;stroke-linecap:butt;stroke-linejoin:round;stroke-miterlimit:4;stroke-dasharray:none;stroke-opacity:1" />
      <path
         sodipodi:nodetypes="ccccccccccccccccccccccccccccccccccccccccccccccccccccccccccccc"
         d="m 112.07863,199.05027 0,4.483 0,10 0,10 0,10 0,10 0,10 0,10 0,10 0,10 0,10 8.431,4.666 8.75,4.842 8.75,4.842 8.749,4.842 5.894,0 10,0 10,0 10,0 10,0 8.431,-4.666 8.75,-4.842 8.75,-4.842 8.749,-4.842 0,-4.483 0,-10 0,-10 0,-10 0,-10 0,-10 0,-10 0,-10 0,-10 0,-10 -1.808,-5.087 -3.349,-9.423 -3.349,-9.422 -3.35,-9.423 -3.349,-9.422 -3.349,-9.423 -3.349,-9.422 -3.35,-9.422 -3.349,-9.423 -6.078,0 -10,0 -10,0 -10,0 -10,0 -5.894,0 -6.078,0 0,0 -3.349,9.423 -3.349,9.422 -3.35,9.422 -3.349,9.423 -3.349,9.422 -3.35,9.423 -3.349,9.422 -3.349,9.423 -1.808,5.087 z"
         id="path30"
         inkscape:connector-curvature="0"
         style="fill:none;stroke:#cacaca;stroke-width:6;stroke-linecap:butt;stroke-linejoin:round;stroke-miterlimit:4;stroke-dasharray:none;stroke-opacity:1" />
    </g>
  </g>
</svg>
