<?xml version="1.0" encoding="UTF-8" standalone="no"?>
<!-- Created with Inkscape (http://www.inkscape.org/) -->

<svg
   xmlns:dc="http://purl.org/dc/elements/1.1/"
   xmlns:cc="http://creativecommons.org/ns#"
   xmlns:rdf="http://www.w3.org/1999/02/22-rdf-syntax-ns#"
   xmlns:svg="http://www.w3.org/2000/svg"
   xmlns="http://www.w3.org/2000/svg"
   xmlns:sodipodi="http://sodipodi.sourceforge.net/DTD/sodipodi-0.dtd"
   xmlns:inkscape="http://www.inkscape.org/namespaces/inkscape"
   width="200"
   height="200"
   viewBox="0 0 200 200"
   id="svg5510"
   version="1.1"
   inkscape:version="0.91 r13725"
   sodipodi:docname="gadget_pulse.svg">
  <defs
     id="defs5512" />
  <sodipodi:namedview
     id="base"
     pagecolor="#000000"
     bordercolor="#666666"
     borderopacity="1.0"
     inkscape:pageopacity="0"
     inkscape:pageshadow="2"
     inkscape:zoom="1.979899"
     inkscape:cx="54.20867"
     inkscape:cy="102.53181"
     inkscape:document-units="px"
     inkscape:current-layer="g6130"
     showgrid="false"
     units="px"
     inkscape:window-width="1920"
     inkscape:window-height="1017"
     inkscape:window-x="1912"
     inkscape:window-y="-8"
     inkscape:window-maximized="1" />
  <metadata
     id="metadata5515">
    <rdf:RDF>
      <cc:Work
         rdf:about="">
        <dc:format>image/svg+xml</dc:format>
        <dc:type
           rdf:resource="http://purl.org/dc/dcmitype/StillImage" />
        <dc:title></dc:title>
      </cc:Work>
    </rdf:RDF>
  </metadata>
  <g
     inkscape:label="Layer 1"
     inkscape:groupmode="layer"
     id="layer1"
     transform="translate(0,-852.36216)">
    <g
       id="g6130"
       transform="matrix(3.8697285,0,0,3.8697285,-261.97337,-2736.5268)">
      <g
         id="g6152"
         transform="matrix(1.1711348,0,0,1.1711348,-16.46329,-162.86003)">
        <circle
           r="8.5374479"
           cy="954.55139"
           cx="93.335838"
           id="circle4882"
           style="display:inline;fill:#fbfccd;fill-opacity:0.12132353;fill-rule:nonzero;stroke:none;stroke-width:12.93099976;stroke-miterlimit:4;stroke-dasharray:none;stroke-opacity:1" />
        <path
           style="display:inline;fill:#fbfccd;fill-opacity:0.33823529;fill-rule:evenodd;stroke:none;stroke-width:1px;stroke-linecap:butt;stroke-linejoin:miter;stroke-opacity:1"
           d="m 101.08951,945.05666 c 0.14204,-0.11166 0.32882,-0.21254 0.38851,-0.39039 0.058,-0.23837 -0.14536,-0.41337 -0.21011,-0.62087 -0.0553,-0.25168 0.21963,-0.38128 0.33179,-0.56504 0.0156,-0.11512 0.23039,-0.47924 -0.007,-0.43451 -0.21853,0.0645 -0.41571,0.18485 -0.63361,0.25157 -0.17336,0.1204 -0.40877,0.16768 -0.57089,0.26521 0.20795,0.0754 0.35897,0.27661 0.36686,0.50094 0.0178,0.34995 0.21648,0.65307 0.31673,0.98054 0.005,0.0253 0.007,0.0512 0.007,0.0771"
           id="path5533"
           inkscape:connector-curvature="0" />
        <path
           style="display:inline;fill:#fbfccd;fill-opacity:0.33823529;fill-rule:evenodd;stroke:none;stroke-width:1px;stroke-linecap:butt;stroke-linejoin:miter;stroke-opacity:1"
           d="m 85.310683,948.53184 c 0.2896,-0.28712 0.59095,-0.56904 0.94927,-0.76828 0.24962,-0.23687 0.6617,-0.25633 0.88646,-0.48283 -0.10694,-0.04 -0.38183,0.10963 -0.3955,-0.16351 0.0159,-0.20576 -0.0479,-0.40136 -0.27425,-0.2287 -0.35584,0.0164 0.0544,-0.42605 0.10235,-0.59118 0.0908,-0.26024 0.3647,-0.37101 0.579,-0.49691 0.15287,-0.18307 0.0524,-0.36839 -0.0918,-0.12655 -0.233,0.1767 -0.4948,0.33201 -0.795,0.34394 -0.28769,0.0263 -0.47962,0.25476 -0.61865,0.48457 -0.21001,0.21146 -0.5359,-0.0979 -0.77671,-0.16051 -0.20943,-0.10884 -0.52293,-0.38907 -0.6806,-0.0548 -0.19195,0.29937 0.25532,0.41073 0.29118,0.65201 0.0263,0.15316 -0.21019,0.53986 0.0827,0.36651 0.31738,-0.0172 0.62828,0.094 0.94828,0.0529 0.37627,0.008 0.21733,0.43354 0.0711,0.61666 -0.0987,0.1793 -0.27561,0.3396 -0.27765,0.55653 z"
           id="path5539"
           inkscape:connector-curvature="0"
           inkscape:transform-center-x="4.3749998"
           inkscape:transform-center-y="-1.6071428" />
        <path
           style="display:inline;fill:#fbfccd;fill-opacity:0.33823529;fill-rule:evenodd;stroke:none;stroke-width:1px;stroke-linecap:butt;stroke-linejoin:miter;stroke-opacity:1"
           d="m 103.72757,960.53329 c 0.26376,0.51582 0.84785,0.73836 1.3839,0.84208 0.14761,0.23 -0.3493,0.59613 0.0252,0.82662 0.28449,0.22407 0.67124,0.15217 1.00089,0.25668 0.19315,-0.0187 0.60536,0.16963 0.18548,0.18156 -0.41671,-0.0873 -0.53864,0.38307 -0.53401,0.70255 0.0526,0.46589 -0.58423,0.277 -0.70513,0.60972 -0.41378,-0.0251 0.13452,-0.99352 -0.26122,-0.65302 -0.33836,0.23145 -0.83084,-0.0901 -0.59902,-0.50305 0.12561,-0.435 -0.0847,-0.91613 -0.46966,-1.14286 -0.29226,-0.22114 -0.13844,-0.62979 -0.0929,-0.93029 0.0175,-0.0648 0.0396,-0.12827 0.0665,-0.18977 z"
           id="path5541"
           inkscape:connector-curvature="0" />
        <path
           sodipodi:nodetypes="cccccccccccccccccccccc"
           inkscape:connector-curvature="0"
           id="path4523"
           d="m 92.501093,940.67406 c 0.35029,0.37023 1.15742,-0.84693 1.67438,-1.08696 0.43808,-0.18592 0.9999,0.74692 1.05237,1.32772 0.88938,1.48888 0.98893,1.39841 0.95379,0.31178 0.22293,-0.48391 0.38959,-0.72671 0.82498,-1.06766 0.31266,-0.34065 0.57753,-0.46798 0.53035,-0.97219 -0.21749,-0.47209 0.0808,-1.27905 -0.0383,-1.78315 -0.2826,0.63811 -0.47945,1.50616 -0.76876,1.76415 -0.46394,0.21676 -0.96531,0.82387 -1.49481,0.93935 -0.30729,-0.0607 -0.46113,-1.41809 -0.80801,-1.43383 -0.36919,-0.0827 -0.65702,0.21879 -1.01724,0.2196 -0.43345,0.0619 -1.44049,0.10408 -1.67829,-0.28814 -0.37675,-0.41575 -0.57846,-1.20438 -0.49309,-1.7848 -0.0302,-0.54929 0.33183,-1.34232 0.66087,-1.71335 0.37688,-0.43887 0.41639,-0.60131 0.6143,-1.37353 0.0576,-0.59319 -0.44772,-0.42547 -0.80562,-0.0475 -0.46158,0.35574 -0.62804,0.94616 -0.87922,1.44682 -0.21244,0.47433 -0.59364,0.97383 -0.40092,1.52022 0.11222,0.5589 -0.15201,0.82682 -0.14079,1.37954 -0.0225,0.43512 -0.25537,0.83346 0.2327,1.05703 0.45531,0.28723 1.03922,0.23019 1.48404,0.53138 0.19414,0.19232 0.0687,1.36436 0.49723,1.05355 z"
           style="display:inline;fill:#fbfccd;fill-opacity:0.33823529;fill-rule:evenodd;stroke:none;stroke-width:1px;stroke-linecap:butt;stroke-linejoin:miter;stroke-opacity:1" />
        <path
           sodipodi:nodetypes="ccccccccccccccccc"
           inkscape:connector-curvature="0"
           id="path4537"
           d="m 92.684883,941.97089 c -0.18762,0.32933 -1.27319,0.37155 -1.13954,0.8841 0.23983,0.39232 0.75698,0.4045 1.13273,0.60315 0.35961,0.15364 0.89849,0.75006 0.79236,1.16245 -0.0814,0.41939 -0.24672,0.56413 -0.38198,0.96592 -0.15004,0.4337 -0.64493,1.06567 -1.07921,0.85575 -0.54603,0.89556 -0.14665,1.65818 0.24795,1.32983 0.51849,0.16691 1.05977,0.26199 1.60563,0.2427 0.4059,-0.006 0.76991,0.17045 1.13283,0.32507 0.3248,0.12537 0.65577,0.24514 0.95001,0.43476 0.33196,-0.354 -0.14393,-0.74178 -0.28516,-1.06865 -0.25496,-0.38579 -1.44339,-0.19753 -1.81469,-0.42179 -0.3792,-0.29345 -0.53831,-0.99387 -0.14053,-1.29388 0.34306,-0.34781 0.71484,-0.58484 0.437,-1.04235 -0.20858,-0.32861 -0.19276,-0.62039 -0.321,-1.00062 -0.30853,-0.48635 -0.62518,-0.93689 -1.06416,-1.23583 -0.16351,-0.0957 -0.0291,-0.54783 -0.0722,-0.74061 z"
           style="display:inline;fill:#fbfccd;fill-opacity:0.33823529;fill-rule:evenodd;stroke:none;stroke-width:1px;stroke-linecap:butt;stroke-linejoin:miter;stroke-opacity:1" />
        <path
           inkscape:connector-curvature="0"
           id="path4548"
           d="m 100.11621,953.70368 c 0.1416,-0.26975 0.24939,-0.59297 0.53888,-0.74173 0.25072,-0.15079 0.51199,-0.29916 0.79825,-0.36621 0.19943,-0.0661 0.33875,-0.23348 0.50035,-0.35414 0.15283,0.0494 0.0625,0.30722 0.13813,0.43928 0.081,0.26498 0.1919,0.53434 0.14439,0.81753 -0.054,0.25252 0.18794,0.44262 0.4078,0.49678 0.19244,0.0753 0.37412,-0.0234 0.5374,-0.11678 0.17356,-0.10303 0.35691,-0.18989 0.52966,-0.29264 0.18742,-0.14436 0.2615,-0.40478 0.48213,-0.51005 0.229,-0.0285 0.18411,0.33988 0.16027,0.49395 -0.0578,0.18659 -0.15392,0.36168 -0.16865,0.56033 -0.0254,0.21725 -0.099,0.42706 -0.2085,0.61515 -0.13149,0.20639 -0.37602,0.29966 -0.6123,0.30671 -0.26153,0.0286 -0.52209,-0.0242 -0.76934,-0.10494 -0.24872,-0.0482 -0.54486,-0.0479 -0.71588,-0.26695 -0.19983,-0.20548 -0.36267,-0.4547 -0.6006,-0.61839 -0.24959,-0.12084 -0.53041,0.009 -0.74449,0.14424 -0.29214,0.13742 -0.36284,-0.21557 -0.40971,-0.41952 l -0.007,-0.041 -0.001,-0.0416 0,0 z"
           style="display:inline;fill:#fbfccd;fill-opacity:0.33823529;fill-rule:evenodd;stroke:none;stroke-width:1px;stroke-linecap:butt;stroke-linejoin:miter;stroke-opacity:1" />
        <path
           sodipodi:nodetypes="cccccccccccccccccccc"
           inkscape:connector-curvature="0"
           id="path4555"
           d="m 103.75092,954.16423 c 0.26172,-0.14505 0.51819,-0.31049 0.81027,-0.38826 0.32051,0.13229 0.25912,0.52601 0.28522,0.80077 0.1585,0.23871 0.49728,0.17206 0.74024,0.14514 0.29738,-0.0448 0.55289,-0.26649 0.86567,-0.22121 0.24091,0.0454 0.58085,0.0165 0.69483,0.28627 0.0259,0.26875 0.0973,0.5325 0.14891,0.79609 0.004,0.28086 -0.1333,0.29388 0.0692,0.54184 0.23633,0.25007 0.86688,0.65816 1.18001,0.76433 0.23168,0.0709 0.0412,-0.22899 -0.19348,-0.33271 -0.1779,-0.15115 -0.40481,-0.316 -0.40032,-0.57477 -0.0932,-0.30792 -0.23092,-0.62009 -0.18229,-0.9489 -0.0447,-0.29511 0.0716,-0.59995 0.0173,-0.8859 -0.13479,-0.24339 -0.45006,-0.12168 -0.66894,-0.18969 -0.28677,-0.11836 -0.56866,-0.3482 -0.89838,-0.26276 -0.2939,0.0578 -0.5815,0.20052 -0.88809,0.13848 -0.42385,-0.049 -0.79206,-0.39565 -1.23531,-0.29846 -0.23697,0.034 0.55734,-0.84013 0.54387,-0.45576 0.0288,0.21154 -1.04538,0.97543 -0.88875,1.0855 z"
           style="display:inline;fill:#fbfccd;fill-opacity:0.33823529;fill-rule:evenodd;stroke:none;stroke-width:1.06495059px;stroke-linecap:butt;stroke-linejoin:miter;stroke-opacity:1" />
        <path
           sodipodi:nodetypes="cccccccccccccccccccc"
           inkscape:connector-curvature="0"
           id="path4564"
           d="m 99.203233,962.00065 c -0.37817,0.004 -0.74384,0.57939 -0.19049,0.63672 0.3865,0.15444 0.79177,0.25377 1.195957,0.34938 0.10454,0.2661 -0.492427,0.24959 -0.694427,0.2873 -0.40104,0.01 -0.78509,-0.16965 -1.07435,-0.4369 -0.41717,-0.16723 -0.80172,0.46723 -1.27632,0.23224 -0.13512,-0.47036 -1.07759,-0.34577 -1.52989,-0.54387 -0.30183,-0.12588 -0.59239,-0.34987 -0.93099,-0.33382 -0.82574,-0.20805 0.13434,1.23464 -0.42191,1.20482 -0.3592,0.26383 -0.90159,-0.14375 -1.2385,0.16239 -0.14799,0.14218 -0.68742,0.50564 -0.49401,0.0713 0.11836,-0.74614 -0.29807,-1.46766 -0.83509,-1.95416 -0.22154,-0.28222 -0.46037,-0.63373 -0.38537,-1.012 0.21653,-0.37721 0.80934,-0.16373 1.09835,0.032 0.28592,0.292 0.43908,0.73144 0.84427,0.90095 0.35565,0.13243 0.74352,0.13386 1.11096,0.22085 0.62036,-0.0233 1.21785,0.22525 1.84086,0.15658 0.37999,0.0459 0.70061,-0.11749 1.05029,-0.22523 0.3701,-0.10164 0.74913,-0.0114 1.10173,0.10794 0.22589,0.0793 0.78359,0.0834 0.82893,0.14353 z"
           style="display:inline;fill:#fbfccd;fill-opacity:0.33823529;fill-rule:evenodd;stroke:none;stroke-width:1px;stroke-linecap:butt;stroke-linejoin:miter;stroke-opacity:1" />
        <path
           inkscape:connector-curvature="0"
           id="path4571"
           d="m 91.675953,966.92702 c -0.047,0.15592 -0.0983,0.31719 -0.0769,0.48187 -0.006,0.1508 0.13493,0.24293 0.24451,0.31882 0.23014,0.1678 0.48455,0.29775 0.73759,0.42647 0.0955,0.0673 0.25026,0.16556 0.20324,0.30148 -0.0639,0.0944 -0.14961,0.17263 -0.19512,0.27965 -0.0531,0.0923 -0.0802,0.20075 -0.14554,0.28464 -0.10992,0.0972 -0.26635,0.0978 -0.40442,0.11077 -0.15526,-0.003 -0.31859,-0.0133 -0.46127,0.0601 -0.057,0.0336 -0.21342,0.0761 -0.15442,-0.0452 0.0204,-0.16043 0.082,-0.31134 0.12268,-0.46661 -0.009,-0.13289 -0.17305,-0.16902 -0.23434,-0.27547 -0.0951,-0.0877 -0.21064,-0.15068 -0.30033,-0.2445 -0.0548,-0.1382 -0.0264,-0.28964 -0.031,-0.43399 0.0174,-0.17212 0.0997,-0.33135 0.19575,-0.47217 0.0823,-0.10727 0.20314,-0.17402 0.32685,-0.22225 0.0605,-0.0292 0.11918,-0.0628 0.17264,-0.10365 z"
           style="display:inline;fill:#fbfccd;fill-opacity:0.33823529;fill-rule:evenodd;stroke:none;stroke-width:1px;stroke-linecap:butt;stroke-linejoin:miter;stroke-opacity:1" />
        <path
           inkscape:connector-curvature="0"
           id="path4584"
           d="m 92.975753,964.21647 c 0.004,0.12944 0.003,0.2602 -0.0283,0.38661 -0.0149,0.11692 -0.028,0.23533 -0.0163,0.35317 0.0812,0.0857 0.1926,0.15598 0.22262,0.27792 0.0479,0.12171 0.10014,0.24498 0.18635,0.34515 0.10401,0.0304 0.0966,0.17649 -0.0137,0.1874 -0.0731,0.0578 -0.21702,0.0507 -0.24253,-0.0536 -0.0481,-0.11734 -0.0604,-0.24579 -0.10892,-0.36298 -0.0931,-0.0808 -0.16967,0.0918 -0.18996,0.16567 -0.0348,0.11774 -0.0533,0.24213 -0.1135,0.3508 -0.009,0.10785 -0.0791,0.24384 0.0409,0.31713 0.0883,0.0539 0.15264,0.13009 0.18838,0.22705 0.0468,0.053 0.12015,0.20411 -0.0103,0.18517 -0.10169,-0.0431 -0.15329,-0.14918 -0.22968,-0.22555 -0.0772,-0.0958 -0.16674,-0.18028 -0.23719,-0.28212 -0.0983,-0.0674 -0.16132,-0.16629 -0.19728,-0.27988 -0.0579,-0.21099 -0.0195,-0.43213 0.008,-0.64448 0.018,-0.13471 0.0891,-0.2539 0.1823,-0.35034 0.11055,-0.11252 0.19293,-0.24937 0.30564,-0.35954 0.0802,-0.0606 0.16679,-0.11587 0.22695,-0.19897 0.009,-0.0124 0.0181,-0.0253 0.026,-0.0386 z"
           style="display:inline;fill:#fbfccd;fill-opacity:0.33823529;fill-rule:evenodd;stroke:none;stroke-width:1px;stroke-linecap:butt;stroke-linejoin:miter;stroke-opacity:1" />
        <path
           sodipodi:nodetypes="ccccccccccc"
           inkscape:connector-curvature="0"
           id="path4590"
           d="m 84.456053,951.73683 c 0.0629,-0.1841 0.18958,-0.36331 0.15867,-0.56611 -0.0619,-0.20424 -0.30003,-0.27902 -0.37803,-0.47438 -0.10688,-0.17543 -0.005,-0.43081 -0.18196,-0.57091 -0.11772,-0.12381 -0.0889,-0.35034 -0.26438,-0.42655 -0.2153,-0.14223 -1.13379,0.056 -1.29794,-0.16045 -0.46878,0.41209 -0.16221,0.85938 0.11216,1.46951 0.19416,-0.004 0.40213,0.0176 0.55849,0.14411 0.15365,0.087 0.32703,0.14807 0.447,0.28412 0.1357,0.11601 0.272,0.23175 0.4086,0.34429 0.15172,0.10237 0.29324,0.0134 0.43739,-0.0436 z"
           style="display:inline;fill:#fbfccd;fill-opacity:0.33823529;fill-rule:evenodd;stroke:none;stroke-width:1px;stroke-linecap:butt;stroke-linejoin:miter;stroke-opacity:1" />
        <path
           inkscape:connector-curvature="0"
           id="path4598"
           d="m 85.153503,953.8926 c -0.0821,-0.1026 -0.16778,-0.19523 -0.22192,-0.31703 -0.0177,-0.0398 -0.0197,-0.0849 -0.0317,-0.12681 -0.009,-0.0321 -0.0193,-0.0641 -0.0317,-0.0951 -0.009,-0.0219 -0.0242,-0.041 -0.0317,-0.0634 -0.006,-0.0189 0,-0.1595 0,-0.19022 0,-0.0528 0,-0.10567 0,-0.15851 0,-0.0106 -0.007,-0.0242 0,-0.0317 0.008,-0.008 0.0242,0.007 0.0317,0 0.0158,-0.0159 -0.0158,-0.0793 0,-0.0951 0.008,-0.008 0.0242,0.007 0.0317,0 0.0158,-0.0159 -0.0158,-0.0793 0,-0.0951 0.008,-0.007 0.0242,0.008 0.0317,0 0.0149,-0.0149 -0.01,-0.0445 0,-0.0634 0.007,-0.0134 0.025,-0.0183 0.0317,-0.0317 0.005,-0.01 -0.007,-0.0242 0,-0.0317 0.008,-0.007 0.0242,0.008 0.0317,0 0,-0.0845 -0.0106,0.0106 0.0317,-0.0317 0.008,-0.007 -0.007,-0.0242 0,-0.0317 0.008,-0.007 0.0242,0.008 0.0317,0 0.0149,-0.0149 -0.009,-0.0445 0,-0.0634 0.0134,-0.0267 0.05,-0.0367 0.0634,-0.0634 0.005,-0.01 -0.005,-0.0222 0,-0.0317 0.007,-0.0134 0.0211,-0.0211 0.0317,-0.0317 0.0106,-0.0106 0.0183,-0.025 0.0317,-0.0317 0.01,-0.005 0.0242,0.008 0.0317,0 0.0149,-0.0149 -0.0149,-0.0485 0,-0.0634 0.008,-0.007 0.0211,0 0.0317,0 0,-0.0106 -0.007,-0.0242 0,-0.0317 0.008,-0.007 0.0242,0.008 0.0317,0 0.008,-0.007 -0.005,-0.0222 0,-0.0317 0.0156,-0.0312 0.11121,-0.0956 0.12681,-0.12681 0.005,-0.01 -0.008,-0.0242 0,-0.0317 0.0149,-0.0149 0.0485,0.0149 0.0634,0 0.007,-0.007 -0.008,-0.0242 0,-0.0317 0.007,-0.007 0.0242,0.008 0.0317,0 0.0211,-0.0211 -0.0211,-0.0423 0,-0.0634 0.007,-0.008 0.0242,0.007 0.0317,0 0.007,-0.008 -0.008,-0.0242 0,-0.0317 10e-4,-10e-4 0.0874,0 0.0951,0 0.0845,0 -0.0106,-0.0106 0.0317,0.0317 0.0149,0.0149 0.0445,-0.01 0.0634,0 0.0134,0.007 0.0183,0.025 0.0317,0.0317 0.009,0.005 0.0242,-0.008 0.0317,0 0.007,0.007 -0.008,0.0242 0,0.0317 0.008,0.008 0.11918,-0.008 0.12681,0 0.008,0.007 -0.007,0.0242 0,0.0317 0.008,0.007 0.0222,-0.005 0.0317,0 0.0134,0.007 0.0211,0.0211 0.0317,0.0317 0.0211,0 0.0434,-0.007 0.0634,0 0.0142,0.005 0.0183,0.025 0.0317,0.0317 0.01,0.005 0.0211,0 0.0317,0 0.0106,0 0.0242,0.007 0.0317,0 0.008,-0.008 0,-0.0211 0,-0.0317 0,-0.0166 0.004,-0.11847 0,-0.12681 -0.007,-0.0134 -0.025,-0.0183 -0.0317,-0.0317 -0.0149,-0.0299 -0.0211,-0.0634 -0.0317,-0.0951 -0.0365,-0.10953 -0.0317,-0.0932 -0.0317,-0.19022 0,-0.0106 0,-0.0211 0,-0.0317 0,-0.0106 0.008,-0.0242 0,-0.0317 -0.007,-0.007 -0.0242,0.008 -0.0317,0 -0.009,-0.009 0.009,-0.10961 0,-0.12681 -0.007,-0.0134 -0.025,-0.0183 -0.0317,-0.0317 -0.006,-0.0126 0.007,-0.0886 0,-0.0951 -0.007,-0.008 -0.0242,0.007 -0.0317,0 -0.009,-0.009 0.009,-0.10961 0,-0.1268 -0.007,-0.0134 -0.025,-0.0183 -0.0317,-0.0317 -0.0109,-0.0219 0.0111,-0.14739 0,-0.15852 -0.0423,-0.0423 -0.0317,0.0528 -0.0317,-0.0317 0,-0.0225 0.004,-0.18201 0,-0.19021 -0.007,-0.0134 -0.027,-0.0175 -0.0317,-0.0317 -0.007,-0.0216 0.008,-0.1417 0,-0.15851 -0.007,-0.0134 -0.025,-0.0183 -0.0317,-0.0317 -0.004,-0.009 0.0201,-0.14691 -0.0317,-0.0951 -0.007,0.007 0.005,0.0222 0,0.0317 -0.0725,0.14509 0.0131,-0.13453 -0.0634,0.0951 -0.004,0.0123 0.005,0.0902 0,0.0951 -0.007,0.008 -0.0242,-0.007 -0.0317,0 -0.0149,0.0149 0.0149,0.0485 0,0.0634 -0.007,0.008 -0.0242,-0.007 -0.0317,0 -0.009,0.009 0.009,0.10961 0,0.12681 -0.007,0.0134 -0.027,0.0175 -0.0317,0.0317 -5e-5,1.4e-4 3e-5,0.0951 0,0.0951 -0.007,0.007 -0.0242,-0.008 -0.0317,0 -0.007,0.007 0,0.0211 0,0.0317 0,0.0634 0,0.12681 0,0.19021 0,0.0845 0,0.16908 0,0.25362 0,0.0106 0,0.0211 0,0.0317 0,0.0106 0.008,0.0242 0,0.0317 -0.007,0.008 -0.0242,-0.007 -0.0317,0 -0.0149,0.0149 0.0149,0.0485 0,0.0634 -0.007,0.007 -0.0242,-0.008 -0.0317,0 -0.007,0.007 0.008,0.0242 0,0.0317 -0.007,0.007 -0.0242,-0.008 -0.0317,0 -0.007,0.007 0.008,0.0242 0,0.0317 -0.007,0.008 -0.0242,-0.007 -0.0317,0 -0.007,0.008 0.008,0.0242 0,0.0317 -0.007,0.008 -0.0242,-0.007 -0.0317,0 -0.007,0.008 0.008,0.0242 0,0.0317 -0.007,0.008 -0.0242,-0.007 -0.0317,0 -0.007,0.008 0,0.0211 0,0.0317 -0.0106,0.0106 -0.0193,0.0234 -0.0317,0.0317 -0.0197,0.0131 -0.0503,0.012 -0.0634,0.0317 -0.0117,0.0176 0.009,0.0445 0,0.0634 -0.005,0.01 -0.0242,-0.007 -0.0317,0 -0.007,0.008 0,0.0211 0,0.0317 -0.0106,0 -0.0242,-0.007 -0.0317,0 -0.007,0.008 0.005,0.0223 0,0.0317 -0.007,0.0134 -0.025,0.0183 -0.0317,0.0317 -0.005,0.01 0.008,0.0242 0,0.0317 -0.007,0.008 -0.0242,-0.007 -0.0317,0 -0.007,0.008 0,0.0211 0,0.0317 -0.0106,0 -0.0242,-0.007 -0.0317,0 -0.007,0.008 0.008,0.0242 0,0.0317 -0.0167,0.0167 -0.0467,0.015 -0.0634,0.0317 -0.0167,0.0167 -0.0186,0.0437 -0.0317,0.0634 -0.008,0.0124 -0.025,0.0183 -0.0317,0.0317 -0.005,0.01 0.008,0.0242 0,0.0317 -0.007,0.007 -0.0242,-0.008 -0.0317,0 -0.007,0.007 0.005,0.0222 0,0.0317 -0.0161,0.0323 -0.0694,0.0505 -0.0951,0.0634 -0.0211,0.0106 -0.0437,0.0186 -0.0634,0.0317 -0.0124,0.008 -0.0183,0.025 -0.0317,0.0317 -0.0189,0.01 -0.0445,-0.01 -0.0634,0 -0.0134,0.007 -0.0183,0.025 -0.0317,0.0317 -0.0189,0.01 -0.0485,-0.0149 -0.0634,0 -0.008,0.007 0.007,0.0242 0,0.0317 -0.008,0.007 -0.0211,0 -0.0317,0 -0.0106,0 -0.0317,0.0106 -0.0317,0 0,-0.0106 0.0423,0 0.0317,0 -0.0211,0 -0.0423,0 -0.0634,0 -0.0106,0 -0.0242,0.007 -0.0317,0 -0.008,-0.008 0.007,-0.0242 0,-0.0317 -0.0149,-0.0149 -0.0485,0.0149 -0.0634,0 -0.007,-0.008 0.008,-0.0242 0,-0.0317 -0.007,-0.008 -0.0242,0.007 -0.0317,0 -0.008,-0.008 0.007,-0.0242 0,-0.0317 -0.0158,-0.0159 -0.0793,0.0159 -0.0951,0 -0.007,-0.008 0.008,-0.0242 0,-0.0317 -0.008,-0.008 -0.11918,0.008 -0.12681,0 -0.007,-0.008 0.008,-0.0242 0,-0.0317 -0.007,-0.008 -0.0211,0 -0.0317,0 -0.0106,0 -0.0211,0 -0.0317,0 -0.0106,0 -0.0242,0.007 -0.0317,0 -0.007,-0.008 0.008,-0.0242 0,-0.0317 -0.007,-0.008 -0.0242,-0.008 -0.0317,0 -0.0149,0.0149 0.01,0.0445 0,0.0634 -0.007,0.0134 -0.025,0.0183 -0.0317,0.0317 -0.005,0.01 0,0.0808 0,0.0951 0,0.0845 0,0.16908 0,0.25362 0,0.0845 -0.0106,-0.0106 0.0317,0.0317 0.0149,0.0149 -0.009,0.0445 0,0.0634 0.066,0.13194 -0.002,-0.0339 0.0634,0.0317 0.008,0.008 -0.007,0.0242 0,0.0317 0.008,0.008 0.0242,-0.007 0.0317,0 0.008,0.008 -0.007,0.0242 0,0.0317 0.008,0.008 0.0222,-0.005 0.0317,0 0.0134,0.007 0.0183,0.025 0.0317,0.0317 0.009,0.005 0.0242,-0.007 0.0317,0 0.008,0.008 -0.005,0.0222 0,0.0317 0.007,0.0134 0.025,0.0183 0.0317,0.0317 0.005,0.01 -0.007,0.0242 0,0.0317 0.008,0.008 0.0242,-0.007 0.0317,0 0.008,0.008 0,0.0211 0,0.0317 0.0106,0 0.0242,-0.007 0.0317,0 0.008,0.008 -0.005,0.0222 0,0.0317 0.007,0.0134 0.025,0.0183 0.0317,0.0317 0.005,0.01 -0.007,0.0242 0,0.0317 0.008,0.008 0.0242,-0.007 0.0317,0 0.0149,0.0149 -0.0149,0.0485 0,0.0634 0.008,0.007 0.0242,-0.008 0.0317,0 0.0158,0.0159 -0.0158,0.0793 0,0.0951 0.008,0.007 0.0242,-0.008 0.0317,0 0.008,0.007 -0.005,0.0222 0,0.0317 0.0134,0.0267 0.05,0.0367 0.0634,0.0634 0.005,0.01 -0.005,0.0222 0,0.0317 0.0134,0.0267 0.05,0.0367 0.0634,0.0634 0.005,0.009 -0.005,0.0222 0,0.0317 0.007,0.0134 0.025,0.0183 0.0317,0.0317 0.005,0.009 -0.007,0.0242 0,0.0317 0.008,0.007 0.0242,-0.007 0.0317,0 0.008,0.007 0,0.0211 0,0.0317 0,0.0106 0,0.0211 0,0.0317 0,0.074 0,0.14794 0,0.22192 0,0.0106 0,0.0211 0,0.0317 0,0.0106 -0.007,0.0242 0,0.0317 0.008,0.007 0.0242,-0.007 0.0317,0 0.0149,0.0149 -0.009,0.0445 0,0.0634 0.004,0.008 0.0867,0.0909 0.0951,0.0951 0.009,0.005 0.0242,-0.007 0.0317,0 0.0149,0.0149 -0.0149,0.0485 0,0.0634 0.007,0.007 0.0211,0 0.0317,0 0.0328,0 0.0438,0.007 0.0634,-0.0317 0.005,-0.009 -0.005,-0.0222 0,-0.0317 0.007,-0.0134 0.025,-0.0183 0.0317,-0.0317 0.005,-0.009 -0.008,-0.0242 0,-0.0317 0.007,-0.007 0.0242,0.007 0.0317,0 0.0212,-0.0212 -0.0212,-0.0422 0,-0.0634 0.007,-0.007 0.0219,0.004 0.0317,0 0.0439,-0.0176 0.0845,-0.0423 0.12681,-0.0634 z"
           style="display:inline;fill:none;fill-rule:evenodd;stroke:none;stroke-width:1px;stroke-linecap:butt;stroke-linejoin:miter;stroke-opacity:1" />
        <path
           inkscape:connector-curvature="0"
           id="path4606"
           d="m 86.039623,954.20189 c -0.0429,-0.0949 -0.11622,-0.1749 -0.20471,-0.22927 -0.1365,-0.13427 -0.21762,-0.32101 -0.22987,-0.51149 -0.0772,-0.11156 -0.22703,-0.15425 -0.28186,-0.28477 -0.0613,-0.10763 -0.0999,-0.23359 -0.18986,-0.32129 -0.0766,0.003 -0.14317,0.065 -0.22508,0.0505 -0.0802,-0.007 -0.21081,-0.0375 -0.21729,0.082 -0.008,0.13106 0.0338,0.25757 0.076,0.37977 -0.0214,0.10895 0.0113,0.21893 0.0598,0.31568 0.0803,0.20588 0.31333,0.30804 0.37817,0.52225 0.0317,0.10571 0.18576,0.11336 0.20421,0.22751 0.0223,0.11142 0.13145,0.20265 0.24682,0.19534 0.12649,0.0371 0.25994,0.0105 0.38892,0.0271 0.11225,0.007 0.10508,-0.13293 0.072,-0.20267 -0.0559,-0.0747 -0.0916,-0.15563 -0.0773,-0.25062 z"
           style="display:inline;fill:#fbfccd;fill-opacity:0.33823529;fill-rule:evenodd;stroke:none;stroke-width:1px;stroke-linecap:butt;stroke-linejoin:miter;stroke-opacity:1" />
        <path
           sodipodi:nodetypes="ccccccccccccccccccc"
           inkscape:connector-curvature="0"
           id="path4614"
           d="m 83.532203,953.49482 c -0.35333,0.0137 -0.8816,-0.0718 -1.04105,0.19508 -0.184,0.35072 -0.62825,0.3794 -0.97869,0.37684 -0.2983,-0.11074 -0.72075,0.0661 -0.93393,-0.23038 -0.13749,-0.34274 -0.0348,-0.76812 -0.30222,-1.05897 -0.35168,-0.15974 -0.42391,0.35329 -0.58981,0.54301 -0.22245,0.26352 -0.57368,0.36345 -0.89382,0.45231 -0.14621,0.0191 -0.48773,0.0462 -0.19524,0.16018 0.28718,0.0888 0.55132,-0.10336 0.83304,-0.12501 0.30995,0.0102 0.42249,-0.4729 0.74016,-0.34887 0.1593,0.26696 0.07,0.59632 -0.0387,0.87019 -0.0316,0.29003 0.59721,-0.20751 0.52563,0.1393 -0.20028,0.23093 -0.32147,0.52791 -0.2672,0.83675 0.0839,0.37897 -0.17605,0.6621 -0.28457,0.98842 -0.053,0.36223 0.33035,0.11602 0.45715,-0.0109 0.448,-0.382 0.96792,-0.67937 1.35892,-1.12648 0.34862,-0.43792 0.91983,-0.56842 1.41925,-0.7538 0.42565,-0.21954 0.76502,-0.57298 1.07288,-0.93201 -0.99518,0.53351 -0.2095,0.007 -0.88178,0.0244 z"
           style="display:inline;fill:#fbfccd;fill-opacity:0.33823529;fill-rule:evenodd;stroke:none;stroke-width:1px;stroke-linecap:butt;stroke-linejoin:miter;stroke-opacity:1" />
        <path
           style="display:inline;fill:#fbfccd;fill-opacity:1;fill-rule:evenodd;stroke:none;stroke-width:1px;stroke-linecap:butt;stroke-linejoin:miter;stroke-opacity:1"
           d="m 92.645493,947.52212 c 0.82872,-0.5788 1.38485,-1.4731 1.72426,-2.41117 -0.0348,-0.69014 -0.58958,-1.18798 -0.79194,-1.82176 -0.49307,-0.47873 -0.31757,-1.26037 0.0478,-1.75847 0.3914,-0.42938 0.57857,-1.22807 -0.0441,-1.54842 -0.63531,-0.54099 -1.4107,-0.94094 -1.87567,-1.65884 -0.45308,-0.54146 -0.51371,-1.31059 -0.29899,-1.96349 0.12051,-0.56361 0.48109,-1.03549 0.86651,-1.44892 0.0508,-0.31718 0.12589,-0.97096 0.0144,-1.08505 -0.56561,0.13713 -1.24596,0.46119 -1.16822,1.14981 -0.0958,0.52384 -0.40514,1.12814 -0.0416,1.61786 0.0239,0.56756 -0.65877,0.968 -0.37738,1.57312 -0.0479,0.62641 0.46664,1.21548 1.10236,1.03452 0.70638,0.25219 0.37088,1.05997 0.14589,1.51929 0.0173,0.58063 1.03479,0.31177 0.74949,1.01383 -0.10331,0.47244 -0.77025,0.69756 -0.68632,1.20014 0.407,0.37435 1.10951,0.2572 1.47929,0.73582 0.45936,0.39242 0.37523,1.06546 0.0896,1.53096 -0.18684,0.34132 -0.43592,0.64365 -0.62529,0.98343 -0.44853,0.26823 -0.75999,0.9233 -0.31007,1.33734 l 1e-5,0 z"
           id="path5129"
           inkscape:connector-curvature="0" />
        <path
           style="display:inline;fill:#fbfccd;fill-opacity:1;fill-rule:evenodd;stroke:none;stroke-width:1px;stroke-linecap:butt;stroke-linejoin:miter;stroke-opacity:1"
           d="m 92.501093,940.67406 c 0.3618,0.0268 0.72156,0.13088 1.08618,0.0816 0.0538,-0.23394 0.13941,-0.46059 0.31139,-0.63059 0.06,-0.17628 0.11758,-0.49766 0.3752,-0.42742 0.27205,0.13745 0.40424,0.4345 0.6261,0.63089 0.14634,0.1404 0.30573,0.27387 0.40863,0.45165 0.17734,0.0716 0.28692,0.44415 0.51322,0.27507 0.32692,-0.25991 0.65075,-0.54835 0.82619,-0.93653 0.13869,-0.27126 0.29324,-0.53531 0.48336,-0.77359 0.15424,-0.25521 0.19228,-0.56129 0.18619,-0.85437 0.0669,-0.23198 -0.21229,-0.22077 -0.20224,0.005 -0.14516,0.27562 -0.43633,0.43132 -0.70397,0.56656 -0.25974,0.11068 -0.52378,0.22244 -0.7374,0.41232 -0.21649,0.16155 -0.4426,0.31103 -0.68171,0.4371 -0.27902,-0.0267 -0.32095,-0.38673 -0.52393,-0.53485 -0.18237,-0.23841 -0.4943,-0.15146 -0.71735,-0.0313 -0.21911,0.10909 -0.50277,0.0728 -0.61097,0.3392 -0.15307,0.24675 -0.25261,0.53053 -0.4666,0.73529 -0.09,0.1222 -0.15195,0.36011 -0.34699,0.32003 0.0422,-0.0532 0.11449,-0.0523 0.1747,-0.0659 z"
           id="path5136"
           inkscape:connector-curvature="0" />
        <path
           style="display:inline;fill:#fbfccd;fill-opacity:1;fill-rule:evenodd;stroke:none;stroke-width:1px;stroke-linecap:butt;stroke-linejoin:miter;stroke-opacity:1"
           d="m 99.672383,954.68645 c 0.647427,-0.40707 0.964417,-1.15452 1.551507,-1.6203 0.60355,-0.29678 0.62314,0.62488 0.8374,0.96616 0.12032,0.44657 0.59062,0.93548 0.97942,0.43403 0.44515,-0.31482 0.60946,-0.84044 0.84792,-1.30073 0.24903,-0.40044 0.60832,-0.77405 1.06265,-0.92444 0.8266,-0.0951 0.0296,1.02895 0.58651,1.15868 0.50088,0.10542 1.04057,-0.0102 1.51008,-0.1971 0.5512,-0.22622 1.02062,-0.68112 1.19233,-1.25543 -0.0461,-0.49 0.10078,-1.07851 -0.0846,-1.50912 -0.51433,-0.16417 -0.59169,-0.83419 -0.23868,-1.19952 0.4375,-0.48365 0.57827,0.25909 0.54636,0.60135 0.0465,0.47433 0.0519,0.95974 -0.0756,1.42103 -0.10103,0.65492 0.637,0.86426 0.86494,1.33193 -0.0612,0.59214 -0.51155,1.07953 -0.84256,1.55455 -0.43429,0.42227 -0.4585,1.07178 -0.19311,1.59034 0.20022,0.41388 0.39349,0.82773 0.59153,1.24108 0.17372,0.35992 1.01075,0.89237 0.25491,1.09594 -0.38866,-0.0758 -0.17819,-0.67288 -0.3942,-0.95092 -0.13341,-0.38172 -0.42002,-0.69399 -0.78202,-0.87017 -0.59433,-0.37785 -0.16814,-1.08608 -0.27797,-1.57756 -0.28224,-0.19571 -0.65937,-0.29434 -0.83848,-0.58268 -0.49111,-0.0698 -1.25583,0.51261 -1.51524,-0.17182 -0.52488,-0.45315 -0.97892,0.28962 -1.17527,0.71423 -0.31388,0.47613 -0.83605,0.824 -1.41804,0.82573 -0.63128,0.12232 -1.02898,-0.44026 -1.35981,-0.83597 -0.52412,-0.0186 -0.8703,0.60946 -1.430747,0.52375 -0.11591,-0.1183 -0.0962,-0.32782 -0.19921,-0.46304 z"
           id="path5144"
           inkscape:connector-curvature="0" />
        <path
           style="display:inline;fill:#fbfccd;fill-opacity:1;fill-rule:evenodd;stroke:none;stroke-width:1px;stroke-linecap:butt;stroke-linejoin:miter;stroke-opacity:1"
           d="m 92.153083,960.66684 c 0.71851,0.38974 1.42486,0.85216 2.25291,0.96464 0.80502,0.1736 1.70061,0.21819 2.43036,-0.22762 0.52736,-0.32974 1.11393,-0.16572 1.61586,0.0901 0.27737,0.0276 1.2754,-0.004 0.85918,0.4515 -0.28219,0.27951 -1.13735,0.19713 -1.13648,0.50209 0.8962,0.54288 2.043957,0.68478 3.027117,0.31751 0.37442,-0.0995 0.42664,0.25638 0.0681,0.33558 -0.49955,0.23739 -0.94327,0.57106 -1.400407,0.86598 -0.6942,0.14567 -0.94984,-0.75256 -1.56395,-0.85371 -0.47073,-0.0724 -1.17338,0.16506 -1.2419,-0.45486 -0.53232,-0.21479 -1.16285,-0.0863 -1.65707,-0.45016 -0.38498,-0.23881 -1.65303,-0.3705 -1.27451,0.37994 0.40974,0.35752 0.43243,1.04515 -0.24824,1.00313 -0.517,0.0743 -0.73808,0.58194 -0.77816,1.00084 -0.51286,0.48276 -0.85038,1.11484 -0.9628,1.80983 0.005,0.55204 -0.62716,0.88865 -0.6233,1.34968 0.34506,0.38687 0.8984,0.75992 0.7456,1.36152 -0.2851,0.45364 -0.91937,0.45291 -1.27462,0.8392 -0.41784,-0.0101 0.22546,-0.61157 0.19145,-0.89615 0.24775,-0.62585 -0.40277,-0.89862 -0.67798,-1.30661 -0.13727,-0.52324 0.36235,-0.91336 0.68992,-1.24138 0.4142,-0.3009 0.6945,-0.75834 0.76106,-1.26801 0.0503,-0.38011 0.0603,-0.77663 0.32306,-1.08512 0.32781,-0.47735 0.75476,-1.06694 0.48416,-1.66771 -0.35011,-0.46029 -0.87282,-0.9549 -0.54157,-1.57435 0.0338,-0.15607 -0.002,-0.34728 -0.15746,-0.42518"
           id="path5152"
           inkscape:connector-curvature="0" />
        <path
           style="display:inline;fill:#fbfccd;fill-opacity:1;fill-rule:evenodd;stroke:none;stroke-width:1px;stroke-linecap:butt;stroke-linejoin:miter;stroke-opacity:1"
           d="m 85.787553,955.1607 c 0.0233,-0.41632 -0.64744,-0.30938 -0.74585,-0.70556 -0.25094,-0.30089 -0.78968,-0.52872 -1.03398,-0.0984 -0.36487,0.40795 -0.72503,0.8681 -0.81782,1.41999 -0.13141,0.49483 -0.7419,0.5951 -1.03626,0.1958 -0.46015,-0.1588 -0.71249,0.3395 -1.00937,0.58266 -0.39823,0.32425 -0.22759,0.83685 -0.29938,1.24549 -0.29444,0.39955 -0.77807,0.61483 -1.12698,0.96401 -0.41077,0.16742 -0.12706,-0.52487 0.0123,-0.67333 0.19247,-0.2544 0.44235,-0.61982 0.20106,-0.92477 -0.40179,-0.36939 -0.0945,-0.96938 0.37167,-1.08908 0.4754,-0.234 0.49491,-0.76692 0.57234,-1.21683 0.1145,-0.64868 0.81602,-0.57599 1.31125,-0.60815 0.46951,0.0121 0.72998,-0.28533 0.87972,-0.68457 0.17849,-0.40383 0.58024,-0.26628 0.89335,-0.23263 0.41642,-0.24037 0.094,-0.78683 -0.0739,-1.10141 -0.21091,-0.37606 -0.49162,-0.76019 -0.89896,-0.93155 -0.39481,-0.0733 -1.06921,-0.11656 -1.00808,-0.67471 0.0463,-0.36597 -0.18817,-0.98787 0.29198,-1.11913 0.50844,0.003 0.97111,0.30804 1.32958,0.6469 0.4091,0.28098 0.0768,0.93337 0.58886,1.10074 0.34274,0.0724 0.66473,0.50259 0.23084,0.6984 -0.36539,0.40502 0.0861,0.86063 0.4668,0.94664 0.3162,0.38777 0.35295,0.95967 0.77219,1.27086 0.1821,0.29065 0.22937,0.66106 0.12854,0.98864 z"
           id="path5159"
           inkscape:connector-curvature="0" />
      </g>
    </g>
  </g>
</svg>
