<?xml version="1.0" encoding="UTF-8" standalone="no"?>
<!-- Created with Inkscape (http://www.inkscape.org/) -->

<svg
   xmlns:dc="http://purl.org/dc/elements/1.1/"
   xmlns:cc="http://creativecommons.org/ns#"
   xmlns:rdf="http://www.w3.org/1999/02/22-rdf-syntax-ns#"
   xmlns:svg="http://www.w3.org/2000/svg"
   xmlns="http://www.w3.org/2000/svg"
   xmlns:sodipodi="http://sodipodi.sourceforge.net/DTD/sodipodi-0.dtd"
   xmlns:inkscape="http://www.inkscape.org/namespaces/inkscape"
   width="200"
   height="200"
   viewBox="0 0 200 200"
   id="svg5510"
   version="1.1"
   inkscape:version="0.91 r13725"
   sodipodi:docname="gadget_pulse.svg">
  <defs
     id="defs5512" />
  <sodipodi:namedview
     id="base"
     pagecolor="#000000"
     bordercolor="#666666"
     borderopacity="1.0"
     inkscape:pageopacity="0"
     inkscape:pageshadow="2"
     inkscape:zoom="1.979899"
     inkscape:cx="175.77581"
     inkscape:cy="39.521376"
     inkscape:document-units="px"
     inkscape:current-layer="g6130"
     showgrid="false"
     units="px"
     inkscape:window-width="1920"
     inkscape:window-height="1017"
     inkscape:window-x="1912"
     inkscape:window-y="-8"
     inkscape:window-maximized="1" />
  <metadata
     id="metadata5515">
    <rdf:RDF>
      <cc:Work
         rdf:about="">
        <dc:format>image/svg+xml</dc:format>
        <dc:type
           rdf:resource="http://purl.org/dc/dcmitype/StillImage" />
        <dc:title />
      </cc:Work>
    </rdf:RDF>
  </metadata>
  <g
     inkscape:label="Layer 1"
     inkscape:groupmode="layer"
     id="layer1"
     transform="translate(0,-852.36216)">
    <g
       id="g6130"
       transform="matrix(3.8697285,0,0,3.8697285,-261.97337,-2736.5268)">
      <g
         id="g8993"
         transform="matrix(1.2494076,0,0,1.2494076,-23.199003,-237.99598)">
        <circle
           r="9.9985027"
           cy="954.6568"
           cx="92.845558"
           id="circle4882"
           style="display:inline;fill:#fbfccd;fill-opacity:0.12132353;fill-rule:nonzero;stroke:none;stroke-width:12.93099976;stroke-miterlimit:4;stroke-dasharray:none;stroke-opacity:1" />
        <path
           style="display:inline;fill:#fbfccd;fill-opacity:0.33823529;fill-rule:evenodd;stroke:none;stroke-width:1px;stroke-linecap:butt;stroke-linejoin:miter;stroke-opacity:1"
           d="m 101.92615,943.92871 c 0.16635,-0.13077 0.3851,-0.24891 0.455,-0.4572 0.0679,-0.27916 -0.17024,-0.48411 -0.24607,-0.72712 -0.0648,-0.29475 0.25722,-0.44653 0.38857,-0.66174 0.0183,-0.13482 0.26982,-0.56125 -0.008,-0.50887 -0.25593,0.0755 -0.48686,0.21649 -0.74205,0.29463 -0.20302,0.141 -0.47872,0.19637 -0.66859,0.31059 0.24354,0.0883 0.42041,0.32395 0.42965,0.58667 0.0208,0.40984 0.25352,0.76483 0.37093,1.14834 0.006,0.0296 0.008,0.06 0.008,0.0903"
           id="path5533"
           inkscape:connector-curvature="0" />
        <path
           style="display:inline;fill:#fbfccd;fill-opacity:0.33823529;fill-rule:evenodd;stroke:none;stroke-width:1px;stroke-linecap:butt;stroke-linejoin:miter;stroke-opacity:1"
           d="m 83.44702,947.99862 c 0.33916,-0.33626 0.692082,-0.66643 1.111723,-0.89976 0.292338,-0.27741 0.77494,-0.3002 1.038164,-0.56546 -0.125241,-0.0469 -0.447174,0.12839 -0.463184,-0.19149 0.01862,-0.24098 -0.0561,-0.47005 -0.321184,-0.26784 -0.416736,0.0192 0.06371,-0.49896 0.119866,-0.69235 0.106339,-0.30478 0.427113,-0.43451 0.678087,-0.58195 0.179032,-0.2144 0.06137,-0.43144 -0.10751,-0.14821 -0.272874,0.20694 -0.579478,0.38883 -0.931052,0.4028 -0.336924,0.0308 -0.5617,0.29836 -0.724523,0.5675 -0.24595,0.24765 -0.627611,-0.11466 -0.909632,-0.18798 -0.245271,-0.12747 -0.612421,-0.45566 -0.797074,-0.0642 -0.2248,0.3506 0.299014,0.48102 0.341011,0.76359 0.0308,0.17937 -0.246161,0.63225 0.09685,0.42923 0.371694,-0.0201 0.7358,0.11009 1.110563,0.062 0.440663,0.009 0.254523,0.50773 0.08327,0.72219 -0.115591,0.20998 -0.322776,0.39772 -0.325166,0.65177 z"
           id="path5539"
           inkscape:connector-curvature="0"
           inkscape:transform-center-x="4.3749998"
           inkscape:transform-center-y="-1.6071428" />
        <path
           style="display:inline;fill:#fbfccd;fill-opacity:0.33823529;fill-rule:evenodd;stroke:none;stroke-width:1px;stroke-linecap:butt;stroke-linejoin:miter;stroke-opacity:1"
           d="m 105.01568,962.05393 c 0.3089,0.6041 0.99294,0.86472 1.62073,0.98619 0.17287,0.26936 -0.40908,0.69815 0.0295,0.96809 0.33318,0.26241 0.78612,0.17821 1.17218,0.3006 0.2262,-0.0219 0.70896,0.19866 0.21722,0.21263 -0.48802,-0.10224 -0.63082,0.44863 -0.6254,0.82278 0.0616,0.54562 -0.68421,0.32441 -0.8258,0.71407 -0.48459,-0.0294 0.15754,-1.16355 -0.30592,-0.76478 -0.39627,0.27106 -0.97303,-0.10552 -0.70153,-0.58914 0.1471,-0.50944 -0.0992,-1.07291 -0.55004,-1.33844 -0.34228,-0.25898 -0.16213,-0.73757 -0.1088,-1.08949 0.0205,-0.0759 0.0464,-0.15023 0.0779,-0.22225 z"
           id="path5541"
           inkscape:connector-curvature="0" />
        <path
           sodipodi:nodetypes="cccccccccccccccccccccc"
           inkscape:connector-curvature="0"
           id="path4523"
           d="m 91.867959,941.89708 c 0.410237,0.43359 1.355495,-0.99187 1.960925,-1.27298 0.51305,-0.21774 1.171017,0.87474 1.232467,1.55494 1.041584,1.74368 1.15817,1.63773 1.117017,0.36514 0.261081,-0.56673 0.456262,-0.85108 0.966162,-1.25038 0.366167,-0.39894 0.676366,-0.54807 0.621112,-1.13856 -0.25471,-0.55288 0.09463,-1.49794 -0.04485,-2.08831 -0.330963,0.74731 -0.5615,1.76391 -0.900321,2.06606 -0.543337,0.25385 -1.130509,0.96486 -1.750624,1.1001 -0.359878,-0.0711 -0.540046,-1.66077 -0.946289,-1.67921 -0.432371,-0.0969 -0.769459,0.25623 -1.191325,0.25718 -0.507629,0.0725 -1.687008,0.1219 -1.965504,-0.33745 -0.441225,-0.4869 -0.677455,-1.41049 -0.577475,-2.09024 -0.03537,-0.64329 0.388618,-1.57204 0.773968,-2.00656 0.441377,-0.51398 0.487649,-0.70422 0.719428,-1.60859 0.06746,-0.69471 -0.52434,-0.49828 -0.94349,-0.0556 -0.540572,0.41662 -0.735519,1.10808 -1.029685,1.69442 -0.248796,0.55551 -0.695232,1.14049 -0.469531,1.78038 0.131425,0.65455 -0.178024,0.96832 -0.164884,1.61563 -0.02635,0.50959 -0.299073,0.97609 0.272523,1.23793 0.533229,0.33638 1.217067,0.26958 1.738011,0.62231 0.227364,0.22524 0.08046,1.59785 0.582323,1.23385 z"
           style="display:inline;fill:#fbfccd;fill-opacity:0.33823529;fill-rule:evenodd;stroke:none;stroke-width:1px;stroke-linecap:butt;stroke-linejoin:miter;stroke-opacity:1" />
        <path
           sodipodi:nodetypes="ccccccccccccccccc"
           inkscape:connector-curvature="0"
           id="path4537"
           d="m 92.083202,943.41584 c -0.219728,0.38569 -1.491077,0.43514 -1.334555,1.0354 0.280873,0.45946 0.886526,0.47372 1.326579,0.70637 0.421152,0.17993 1.052253,0.87842 0.927961,1.36139 -0.09533,0.49116 -0.288943,0.66067 -0.44735,1.13122 -0.175717,0.50792 -0.7553,1.24804 -1.263901,1.0022 -0.639474,1.04882 -0.171747,1.94195 0.290383,1.55741 0.607222,0.19547 1.241134,0.30682 1.880409,0.28423 0.475364,-0.007 0.901669,0.19962 1.326697,0.3807 0.380385,0.14683 0.767995,0.28709 1.11259,0.50916 0.38877,-0.41458 -0.168562,-0.86872 -0.333961,-1.25153 -0.298592,-0.45181 -1.690404,-0.23133 -2.125247,-0.49397 -0.444094,-0.34367 -0.630433,-1.16396 -0.164579,-1.51531 0.401769,-0.40733 0.837174,-0.68493 0.511786,-1.22073 -0.244276,-0.38485 -0.225748,-0.72656 -0.375934,-1.17186 -0.361331,-0.56958 -0.732171,-1.09723 -1.246275,-1.44733 -0.191493,-0.11207 -0.03408,-0.64158 -0.08456,-0.86735 z"
           style="display:inline;fill:#fbfccd;fill-opacity:0.33823529;fill-rule:evenodd;stroke:none;stroke-width:1px;stroke-linecap:butt;stroke-linejoin:miter;stroke-opacity:1" />
        <path
           inkscape:connector-curvature="0"
           id="path4548"
           d="m 100.78629,954.05554 c 0.16583,-0.31592 0.29207,-0.69445 0.6311,-0.86867 0.29363,-0.17659 0.59961,-0.35035 0.93486,-0.42888 0.23356,-0.0774 0.39672,-0.27344 0.58597,-0.41474 0.17899,0.0579 0.0732,0.35979 0.16177,0.51445 0.0949,0.31033 0.22474,0.62579 0.1691,0.95744 -0.0632,0.29573 0.22011,0.51837 0.47759,0.5818 0.22538,0.0882 0.43815,-0.0274 0.62937,-0.13677 0.20326,-0.12066 0.41799,-0.22239 0.6203,-0.34272 0.2195,-0.16906 0.30625,-0.47405 0.56464,-0.59734 0.26819,-0.0334 0.21562,0.39805 0.1877,0.57848 -0.0677,0.21853 -0.18026,0.42358 -0.19751,0.65623 -0.0298,0.25443 -0.11594,0.50014 -0.24418,0.72042 -0.154,0.24171 -0.44037,0.35094 -0.71709,0.3592 -0.30629,0.0335 -0.61144,-0.0283 -0.901,-0.1229 -0.29128,-0.0564 -0.6381,-0.0561 -0.83839,-0.31263 -0.23403,-0.24065 -0.42474,-0.53252 -0.70339,-0.72422 -0.2923,-0.14152 -0.62118,0.0105 -0.87189,0.16892 -0.34214,0.16094 -0.42494,-0.25246 -0.47983,-0.49131 l -0.008,-0.048 -10e-4,-0.0487 0,0 z"
           style="display:inline;fill:#fbfccd;fill-opacity:0.33823529;fill-rule:evenodd;stroke:none;stroke-width:1px;stroke-linecap:butt;stroke-linejoin:miter;stroke-opacity:1" />
        <path
           sodipodi:nodetypes="cccccccccccccccccccc"
           inkscape:connector-curvature="0"
           id="path4555"
           d="m 105.04302,954.5949 c 0.30651,-0.16987 0.60687,-0.36362 0.94894,-0.4547 0.37536,0.15493 0.30346,0.61603 0.33403,0.93781 0.18562,0.27956 0.58238,0.2015 0.86692,0.16998 0.34827,-0.0525 0.64751,-0.3121 1.01382,-0.25907 0.28213,0.0532 0.68025,0.0193 0.81374,0.33526 0.0303,0.31474 0.11395,0.62363 0.17439,0.93233 0.005,0.32893 -0.15611,0.34417 0.081,0.63457 0.27678,0.29286 1.01524,0.77079 1.38195,0.89513 0.27133,0.083 0.0483,-0.26818 -0.22659,-0.38965 -0.20834,-0.17701 -0.47409,-0.37007 -0.46883,-0.67313 -0.10915,-0.36062 -0.27044,-0.72621 -0.21348,-1.11129 -0.0523,-0.34561 0.0839,-0.70262 0.0203,-1.03751 -0.15786,-0.28504 -0.52708,-0.1425 -0.78342,-0.22215 -0.33585,-0.13862 -0.66598,-0.40779 -1.05213,-0.30773 -0.34419,0.0677 -0.68101,0.23484 -1.04007,0.16218 -0.49638,-0.0574 -0.92761,-0.46336 -1.44671,-0.34954 -0.27753,0.0398 0.65272,-0.9839 0.63694,-0.53375 0.0337,0.24774 -1.22428,1.14236 -1.04084,1.27126 z"
           style="display:inline;fill:#fbfccd;fill-opacity:0.33823529;fill-rule:evenodd;stroke:none;stroke-width:1.06495059px;stroke-linecap:butt;stroke-linejoin:miter;stroke-opacity:1" />
        <path
           sodipodi:nodetypes="cccccccccccccccccccc"
           inkscape:connector-curvature="0"
           id="path4564"
           d="m 99.717068,963.77241 c -0.442888,0.005 -0.871136,0.67854 -0.223089,0.74568 0.452644,0.18087 0.927271,0.2972 1.400631,0.40917 0.12243,0.31164 -0.5767,0.29231 -0.81327,0.33647 -0.469674,0.0117 -0.919448,-0.19868 -1.25821,-0.51167 -0.488563,-0.19585 -0.938923,0.54719 -1.494743,0.27199 -0.158244,-0.55086 -1.262003,-0.40495 -1.791708,-0.63695 -0.353483,-0.14742 -0.693768,-0.40974 -1.090314,-0.39095 -0.967053,-0.24365 0.15733,1.44593 -0.494114,1.41101 -0.420672,0.30898 -1.055883,-0.16835 -1.45045,0.19018 -0.173317,0.16651 -0.805062,0.59217 -0.578553,0.0835 0.138616,-0.87383 -0.34908,-1.71882 -0.978003,-2.28858 -0.259453,-0.33052 -0.539155,-0.74218 -0.45132,-1.18519 0.253586,-0.44176 0.947846,-0.19175 1.286316,0.0375 0.334851,0.34197 0.514222,0.85661 0.988754,1.05513 0.416514,0.15509 0.870762,0.15677 1.301084,0.25865 0.726525,-0.0273 1.426266,0.26379 2.155895,0.18337 0.44502,0.0538 0.820509,-0.13759 1.230031,-0.26377 0.433437,-0.11904 0.877333,-0.0134 1.290275,0.12641 0.264547,0.0929 0.917689,0.0977 0.970788,0.16809 z"
           style="display:inline;fill:#fbfccd;fill-opacity:0.33823529;fill-rule:evenodd;stroke:none;stroke-width:1px;stroke-linecap:butt;stroke-linejoin:miter;stroke-opacity:1" />
        <path
           inkscape:connector-curvature="0"
           id="path4571"
           d="m 90.901609,969.54185 c -0.05504,0.18261 -0.115123,0.37147 -0.09006,0.56434 -0.007,0.1766 0.158021,0.2845 0.286354,0.37338 0.269525,0.19651 0.567473,0.3487 0.863817,0.49945 0.111843,0.0788 0.293088,0.1939 0.238022,0.35308 -0.07484,0.11055 -0.175214,0.20217 -0.228512,0.3275 -0.06219,0.1081 -0.09392,0.23511 -0.170447,0.33336 -0.128731,0.11383 -0.311932,0.11453 -0.473631,0.12972 -0.18183,-0.004 -0.373111,-0.0156 -0.540209,0.0704 -0.06676,0.0394 -0.249944,0.0891 -0.180847,-0.0529 0.02389,-0.18788 0.09603,-0.36462 0.143675,-0.54646 -0.01054,-0.15563 -0.202665,-0.19795 -0.274443,-0.32261 -0.111375,-0.10271 -0.246688,-0.17647 -0.351727,-0.28635 -0.06418,-0.16185 -0.03092,-0.3392 -0.03631,-0.50826 0.02038,-0.20157 0.116763,-0.38805 0.22925,-0.55297 0.09638,-0.12563 0.237904,-0.2038 0.382785,-0.26029 0.07085,-0.0342 0.139576,-0.0735 0.202185,-0.12138 z"
           style="display:inline;fill:#fbfccd;fill-opacity:0.33823529;fill-rule:evenodd;stroke:none;stroke-width:1px;stroke-linecap:butt;stroke-linejoin:miter;stroke-opacity:1" />
        <path
           inkscape:connector-curvature="0"
           id="path4584"
           d="m 92.42385,966.36743 c 0.0047,0.15159 0.0035,0.30473 -0.03314,0.45278 -0.01745,0.13692 -0.03279,0.2756 -0.01909,0.4136 0.0951,0.10037 0.225561,0.18268 0.260718,0.32549 0.0561,0.14254 0.117278,0.2869 0.218241,0.40421 0.12181,0.0356 0.113132,0.2067 -0.01604,0.21947 -0.08561,0.0677 -0.25416,0.0594 -0.284036,-0.0628 -0.05633,-0.13742 -0.07074,-0.28785 -0.12756,-0.4251 -0.109032,-0.0946 -0.198706,0.10751 -0.222468,0.19403 -0.04076,0.13788 -0.06242,0.28356 -0.132924,0.41083 -0.01054,0.12631 -0.09264,0.28557 0.0479,0.3714 0.103411,0.0631 0.178762,0.15235 0.220619,0.26591 0.05481,0.0621 0.140711,0.23904 -0.01206,0.21686 -0.119093,-0.0505 -0.179523,-0.17471 -0.268986,-0.26415 -0.09041,-0.1122 -0.195275,-0.21114 -0.277782,-0.3304 -0.115122,-0.0789 -0.188927,-0.19475 -0.231041,-0.32778 -0.06781,-0.2471 -0.02284,-0.50608 0.0094,-0.75477 0.02108,-0.15777 0.104348,-0.29735 0.213498,-0.4103 0.129469,-0.13178 0.225947,-0.29205 0.357945,-0.42107 0.09392,-0.071 0.195334,-0.1357 0.265789,-0.23302 0.01054,-0.0145 0.0212,-0.0296 0.03045,-0.0452 z"
           style="display:inline;fill:#fbfccd;fill-opacity:0.33823529;fill-rule:evenodd;stroke:none;stroke-width:1px;stroke-linecap:butt;stroke-linejoin:miter;stroke-opacity:1" />
        <path
           sodipodi:nodetypes="ccccccccccc"
           inkscape:connector-curvature="0"
           id="path4590"
           d="m 82.446133,951.75209 c 0.07366,-0.2156 0.222023,-0.42548 0.185824,-0.66299 -0.07249,-0.23919 -0.351376,-0.32677 -0.442724,-0.55556 -0.125171,-0.20545 -0.0059,-0.50454 -0.2131,-0.66861 -0.137866,-0.145 -0.104114,-0.4103 -0.309625,-0.49955 -0.252145,-0.16657 -1.327821,0.0656 -1.520062,-0.18791 -0.549005,0.48261 -0.18997,1.00645 0.131354,1.72099 0.227388,-0.005 0.470949,0.0206 0.654067,0.16878 0.179945,0.10188 0.382996,0.17341 0.523497,0.33274 0.158923,0.13586 0.318549,0.27141 0.478526,0.40321 0.177685,0.11989 0.343424,0.0157 0.512243,-0.0511 z"
           style="display:inline;fill:#fbfccd;fill-opacity:0.33823529;fill-rule:evenodd;stroke:none;stroke-width:1px;stroke-linecap:butt;stroke-linejoin:miter;stroke-opacity:1" />
        <path
           inkscape:connector-curvature="0"
           id="path4598"
           d="m 83.262941,954.27679 c -0.09615,-0.12016 -0.196493,-0.22864 -0.259899,-0.37129 -0.02073,-0.0466 -0.02307,-0.0994 -0.03712,-0.14851 -0.01054,-0.0376 -0.0226,-0.0751 -0.03712,-0.11137 -0.01054,-0.0257 -0.02834,-0.048 -0.03713,-0.0743 -0.007,-0.0221 0,-0.1868 0,-0.22278 0,-0.0618 0,-0.12375 0,-0.18563 0,-0.0124 -0.0082,-0.0283 0,-0.0371 0.0094,-0.009 0.02834,0.008 0.03713,0 0.0185,-0.0186 -0.0185,-0.0929 0,-0.11137 0.0094,-0.009 0.02834,0.008 0.03712,0 0.0185,-0.0186 -0.0185,-0.0929 0,-0.11138 0.0094,-0.008 0.02834,0.009 0.03712,0 0.01745,-0.0175 -0.01171,-0.0521 0,-0.0743 0.0082,-0.0157 0.02928,-0.0214 0.03713,-0.0371 0.0059,-0.0117 -0.0082,-0.0283 0,-0.0371 0.0094,-0.008 0.02834,0.009 0.03713,0 0,-0.099 -0.01241,0.0124 0.03713,-0.0371 0.0094,-0.008 -0.0082,-0.0283 0,-0.0371 0.0094,-0.008 0.02834,0.009 0.03713,0 0.01745,-0.0175 -0.01054,-0.0521 0,-0.0743 0.01569,-0.0313 0.05856,-0.043 0.07425,-0.0743 0.0059,-0.0117 -0.0059,-0.026 0,-0.0371 0.0082,-0.0157 0.02471,-0.0247 0.03713,-0.0371 0.01241,-0.0124 0.02143,-0.0293 0.03713,-0.0371 0.01171,-0.006 0.02834,0.009 0.03712,0 0.01745,-0.0175 -0.01745,-0.0568 0,-0.0743 0.0094,-0.008 0.02471,0 0.03713,0 0,-0.0124 -0.0082,-0.0283 0,-0.0371 0.0094,-0.008 0.02834,0.009 0.03713,0 0.0094,-0.008 -0.0059,-0.026 0,-0.0371 0.01827,-0.0365 0.130242,-0.11196 0.148512,-0.14851 0.0059,-0.0117 -0.0094,-0.0283 0,-0.0371 0.01745,-0.0175 0.0568,0.0175 0.07425,0 0.0082,-0.008 -0.0094,-0.0283 0,-0.0371 0.0082,-0.008 0.02834,0.009 0.03713,0 0.02471,-0.0247 -0.02471,-0.0495 0,-0.0743 0.0082,-0.009 0.02834,0.008 0.03712,0 0.0082,-0.009 -0.0094,-0.0283 0,-0.0371 0.0012,-10e-4 0.102357,0 0.111375,0 0.09896,0 -0.01241,-0.0124 0.03712,0.0371 0.01745,0.0174 0.05212,-0.0117 0.07425,0 0.01569,0.008 0.02143,0.0293 0.03712,0.0371 0.01054,0.006 0.02834,-0.009 0.03712,0 0.0082,0.008 -0.0094,0.0283 0,0.0371 0.0094,0.009 0.139576,-0.009 0.148512,0 0.0094,0.008 -0.0082,0.0283 0,0.0371 0.0094,0.008 0.026,-0.006 0.03712,0 0.01569,0.008 0.02471,0.0247 0.03713,0.0371 0.02471,0 0.05083,-0.008 0.07425,0 0.01663,0.006 0.02143,0.0293 0.03712,0.0371 0.01171,0.006 0.02471,0 0.03713,0 0.01241,0 0.02834,0.008 0.03713,0 0.0094,-0.009 0,-0.0247 0,-0.0371 0,-0.0194 0.0047,-0.13875 0,-0.14851 -0.0082,-0.0157 -0.02928,-0.0214 -0.03713,-0.0371 -0.01745,-0.035 -0.02471,-0.0743 -0.03713,-0.11137 -0.04275,-0.12828 -0.03712,-0.10915 -0.03712,-0.22278 0,-0.0124 0,-0.0247 0,-0.0371 0,-0.0124 0.0094,-0.0283 0,-0.0371 -0.0082,-0.008 -0.02834,0.009 -0.03713,0 -0.01054,-0.0105 0.01054,-0.12837 0,-0.14851 -0.0082,-0.0157 -0.02928,-0.0214 -0.03713,-0.0371 -0.007,-0.0148 0.0082,-0.10377 0,-0.11138 -0.0082,-0.009 -0.02834,0.008 -0.03713,0 -0.01054,-0.0105 0.01054,-0.12837 0,-0.1485 -0.0082,-0.0157 -0.02928,-0.0214 -0.03712,-0.0371 -0.01277,-0.0257 0.013,-0.17262 0,-0.18565 -0.04954,-0.0495 -0.03713,0.0618 -0.03713,-0.0371 0,-0.0263 0.0047,-0.21316 0,-0.22276 -0.0082,-0.0157 -0.03162,-0.0205 -0.03713,-0.0371 -0.0082,-0.0253 0.0094,-0.16595 0,-0.18564 -0.0082,-0.0157 -0.02928,-0.0214 -0.03713,-0.0371 -0.0047,-0.0105 0.02354,-0.17205 -0.03713,-0.11137 -0.0082,0.008 0.0059,0.026 0,0.0371 -0.08491,0.16992 0.01534,-0.15755 -0.07425,0.11138 -0.0047,0.0144 0.0059,0.10564 0,0.11137 -0.0082,0.009 -0.02834,-0.008 -0.03713,0 -0.01745,0.0174 0.01745,0.0568 0,0.0743 -0.0082,0.009 -0.02834,-0.008 -0.03713,0 -0.01054,0.0105 0.01054,0.12837 0,0.14852 -0.0082,0.0157 -0.03162,0.0205 -0.03712,0.0371 -5.8e-5,1.7e-4 3.5e-5,0.11138 0,0.11138 -0.0082,0.008 -0.02834,-0.009 -0.03713,0 -0.0082,0.008 0,0.0247 0,0.0371 0,0.0743 0,0.14851 0,0.22276 0,0.099 0,0.19802 0,0.29703 0,0.0124 0,0.0247 0,0.0371 0,0.0124 0.0094,0.0283 0,0.0371 -0.0082,0.009 -0.02834,-0.008 -0.03713,0 -0.01745,0.0174 0.01745,0.0568 0,0.0742 -0.0082,0.008 -0.02834,-0.009 -0.03713,0 -0.0082,0.008 0.0094,0.0283 0,0.0371 -0.0082,0.008 -0.02834,-0.009 -0.03712,0 -0.0082,0.008 0.0094,0.0283 0,0.0371 -0.0082,0.009 -0.02834,-0.008 -0.03713,0 -0.0082,0.009 0.0094,0.0283 0,0.0371 -0.0082,0.009 -0.02834,-0.008 -0.03713,0 -0.0082,0.009 0.0094,0.0283 0,0.0371 -0.0082,0.009 -0.02834,-0.008 -0.03713,0 -0.0082,0.009 0,0.0247 0,0.0371 -0.01241,0.0124 -0.0226,0.0274 -0.03712,0.0371 -0.02307,0.0153 -0.05891,0.014 -0.07425,0.0371 -0.0137,0.0206 0.01054,0.0521 0,0.0743 -0.0059,0.0117 -0.02834,-0.008 -0.03713,0 -0.0082,0.009 0,0.0247 0,0.0371 -0.01241,0 -0.02834,-0.008 -0.03713,0 -0.0082,0.009 0.0059,0.0261 0,0.0371 -0.0082,0.0157 -0.02928,0.0214 -0.03712,0.0371 -0.0059,0.0117 0.0094,0.0283 0,0.0371 -0.0082,0.009 -0.02834,-0.008 -0.03713,0 -0.0082,0.009 0,0.0247 0,0.0371 -0.01241,0 -0.02834,-0.008 -0.03713,0 -0.0082,0.009 0.0094,0.0283 0,0.0371 -0.01956,0.0196 -0.05469,0.0176 -0.07425,0.0371 -0.01956,0.0195 -0.02178,0.0512 -0.03713,0.0743 -0.0094,0.0145 -0.02928,0.0214 -0.03713,0.0371 -0.0059,0.0117 0.0094,0.0283 0,0.0371 -0.0082,0.008 -0.02834,-0.009 -0.03713,0 -0.0082,0.008 0.0059,0.026 0,0.0371 -0.01886,0.0378 -0.08128,0.0591 -0.111375,0.0743 -0.02471,0.0124 -0.05118,0.0218 -0.07425,0.0371 -0.01452,0.009 -0.02143,0.0293 -0.03712,0.0371 -0.02213,0.0117 -0.05212,-0.0117 -0.07425,0 -0.01569,0.008 -0.02143,0.0293 -0.03713,0.0371 -0.02213,0.0117 -0.0568,-0.0175 -0.07425,0 -0.0094,0.008 0.0082,0.0283 0,0.0371 -0.0094,0.008 -0.02471,0 -0.03713,0 -0.01241,0 -0.03713,0.0124 -0.03713,0 0,-0.0124 0.04954,0 0.03713,0 -0.02471,0 -0.04954,0 -0.07425,0 -0.01241,0 -0.02834,0.008 -0.03712,0 -0.0094,-0.009 0.0082,-0.0283 0,-0.0371 -0.01745,-0.0175 -0.0568,0.0174 -0.07425,0 -0.0082,-0.009 0.0094,-0.0284 0,-0.0371 -0.0082,-0.009 -0.02834,0.008 -0.03713,0 -0.0094,-0.009 0.0082,-0.0283 0,-0.0371 -0.0185,-0.0186 -0.09287,0.0186 -0.111375,0 -0.0082,-0.009 0.0094,-0.0284 0,-0.0371 -0.0094,-0.009 -0.139575,0.009 -0.148511,0 -0.0082,-0.009 0.0094,-0.0283 0,-0.0371 -0.0082,-0.009 -0.02471,0 -0.03713,0 -0.01241,0 -0.02471,0 -0.03713,0 -0.01241,0 -0.02834,0.008 -0.03712,0 -0.0082,-0.009 0.0094,-0.0284 0,-0.0371 -0.0082,-0.009 -0.02834,-0.009 -0.03713,0 -0.01745,0.0175 0.01171,0.0521 0,0.0743 -0.0082,0.0157 -0.02928,0.0214 -0.03713,0.0371 -0.0059,0.0117 0,0.0946 0,0.11137 0,0.099 0,0.19802 0,0.29702 0,0.099 -0.01241,-0.0124 0.03713,0.0371 0.01745,0.0174 -0.01054,0.0521 0,0.0743 0.07729,0.15452 -0.0023,-0.0397 0.07425,0.0371 0.0094,0.009 -0.0082,0.0283 0,0.0371 0.0094,0.009 0.02834,-0.008 0.03713,0 0.0094,0.009 -0.0082,0.0283 0,0.0371 0.0094,0.009 0.026,-0.006 0.03713,0 0.01569,0.008 0.02143,0.0293 0.03713,0.0371 0.01054,0.006 0.02834,-0.008 0.03712,0 0.0094,0.009 -0.0059,0.026 0,0.0371 0.0082,0.0157 0.02928,0.0214 0.03713,0.0371 0.0059,0.0117 -0.0082,0.0283 0,0.0371 0.0094,0.009 0.02834,-0.008 0.03713,0 0.0094,0.009 0,0.0247 0,0.0371 0.01241,0 0.02834,-0.008 0.03713,0 0.0094,0.009 -0.0059,0.026 0,0.0371 0.0082,0.0157 0.02928,0.0214 0.03713,0.0371 0.0059,0.0117 -0.0082,0.0283 0,0.0371 0.0094,0.009 0.02834,-0.008 0.03712,0 0.01745,0.0174 -0.01745,0.0568 0,0.0743 0.0094,0.008 0.02834,-0.009 0.03713,0 0.0185,0.0186 -0.0185,0.0929 0,0.11138 0.0094,0.008 0.02834,-0.009 0.03713,0 0.0094,0.008 -0.0059,0.026 0,0.0371 0.01569,0.0313 0.05856,0.043 0.07425,0.0743 0.0059,0.0117 -0.0059,0.026 0,0.0371 0.01569,0.0313 0.05856,0.043 0.07425,0.0743 0.0059,0.0105 -0.0059,0.026 0,0.0371 0.0082,0.0157 0.02928,0.0214 0.03713,0.0371 0.0059,0.0105 -0.0082,0.0283 0,0.0371 0.0094,0.008 0.02834,-0.008 0.03712,0 0.0094,0.008 0,0.0247 0,0.0371 0,0.0124 0,0.0247 0,0.0371 0,0.0867 0,0.17326 0,0.2599 0,0.0124 0,0.0247 0,0.0371 0,0.0124 -0.0082,0.0283 0,0.0371 0.0094,0.008 0.02834,-0.008 0.03713,0 0.01745,0.0175 -0.01054,0.0521 0,0.0743 0.0047,0.009 0.101538,0.10646 0.111375,0.11138 0.01054,0.006 0.02834,-0.008 0.03713,0 0.01745,0.0174 -0.01745,0.0568 0,0.0743 0.0082,0.008 0.02471,0 0.03713,0 0.03841,0 0.0513,0.008 0.07425,-0.0371 0.0059,-0.0105 -0.0059,-0.026 0,-0.0371 0.0082,-0.0157 0.02928,-0.0214 0.03712,-0.0371 0.0059,-0.0105 -0.0094,-0.0283 0,-0.0371 0.0082,-0.008 0.02834,0.008 0.03713,0 0.02483,-0.0248 -0.02483,-0.0494 0,-0.0743 0.0082,-0.008 0.02565,0.005 0.03713,0 0.05141,-0.0206 0.09896,-0.0495 0.148512,-0.0743 z"
           style="display:inline;fill:none;fill-rule:evenodd;stroke:none;stroke-width:1px;stroke-linecap:butt;stroke-linejoin:miter;stroke-opacity:1" />
        <path
           inkscape:connector-curvature="0"
           id="path4606"
           d="m 84.300707,954.63901 c -0.05024,-0.11114 -0.13611,-0.20483 -0.239743,-0.26851 -0.15986,-0.15724 -0.254863,-0.37594 -0.269209,-0.59902 -0.09041,-0.13065 -0.265883,-0.18065 -0.330096,-0.3335 -0.07179,-0.12605 -0.116997,-0.27357 -0.222352,-0.37628 -0.08971,0.004 -0.167671,0.0761 -0.263599,0.0591 -0.09392,-0.008 -0.246887,-0.0439 -0.254476,0.096 -0.0094,0.15349 0.03959,0.30165 0.08901,0.44476 -0.02506,0.12759 0.01323,0.2564 0.07003,0.3697 0.09404,0.24112 0.366952,0.36076 0.442888,0.61163 0.03713,0.1238 0.21755,0.13276 0.239158,0.26644 0.02612,0.13049 0.153946,0.23733 0.289059,0.22877 0.148137,0.0435 0.304425,0.0123 0.455478,0.0317 0.13146,0.008 0.123063,-0.15568 0.08432,-0.23735 -0.06547,-0.0875 -0.107276,-0.18227 -0.09053,-0.29351 z"
           style="display:inline;fill:#fbfccd;fill-opacity:0.33823529;fill-rule:evenodd;stroke:none;stroke-width:1px;stroke-linecap:butt;stroke-linejoin:miter;stroke-opacity:1" />
        <path
           sodipodi:nodetypes="ccccccccccccccccccc"
           inkscape:connector-curvature="0"
           id="path4614"
           d="m 81.36418,953.81094 c -0.413797,0.016 -1.032473,-0.0841 -1.21921,0.22846 -0.215489,0.41074 -0.735765,0.44433 -1.146178,0.44133 -0.349349,-0.12969 -0.844095,0.0774 -1.093758,-0.26981 -0.161019,-0.40139 -0.04076,-0.89957 -0.35394,-1.24019 -0.411865,-0.18708 -0.496456,0.41375 -0.690747,0.63594 -0.260519,0.30861 -0.671857,0.42564 -1.046784,0.52971 -0.171232,0.0224 -0.571198,0.0541 -0.228652,0.18759 0.336326,0.104 0.64567,-0.12104 0.975602,-0.1464 0.362993,0.012 0.494793,-0.55383 0.866827,-0.40857 0.186562,0.31264 0.08198,0.69837 -0.04532,1.01911 -0.03701,0.33966 0.699413,-0.24303 0.615584,0.16314 -0.234555,0.27045 -0.376485,0.61825 -0.312928,0.97994 0.09826,0.44383 -0.206178,0.77541 -0.333269,1.15758 -0.06207,0.42422 0.386884,0.13587 0.535384,-0.0128 0.524668,-0.44737 1.133565,-0.79563 1.591478,-1.31926 0.408281,-0.51286 1.077245,-0.6657 1.662133,-0.8828 0.498494,-0.25711 0.895942,-0.67104 1.256488,-1.09151 -1.16549,0.62481 -0.245353,0.008 -1.032684,0.0286 z"
           style="display:inline;fill:#fbfccd;fill-opacity:0.33823529;fill-rule:evenodd;stroke:none;stroke-width:1px;stroke-linecap:butt;stroke-linejoin:miter;stroke-opacity:1" />
        <path
           style="display:inline;fill:#fbfccd;fill-opacity:1;fill-rule:evenodd;stroke:none;stroke-width:1px;stroke-linecap:butt;stroke-linejoin:miter;stroke-opacity:1"
           d="m 92.037071,949.91708 c 0.970543,-0.67785 1.621846,-1.7252 2.019341,-2.82381 -0.04076,-0.80824 -0.690478,-1.39128 -0.927469,-2.13352 -0.577451,-0.56066 -0.371917,-1.47607 0.05598,-2.05941 0.458382,-0.50286 0.677583,-1.43823 -0.05165,-1.81341 -0.744034,-0.63357 -1.65212,-1.10196 -2.196663,-1.94272 -0.530618,-0.63412 -0.601624,-1.53488 -0.350157,-2.29951 0.141133,-0.66007 0.563421,-1.2127 1.0148,-1.69688 0.05949,-0.37146 0.147434,-1.13713 0.01686,-1.27074 -0.662406,0.16059 -1.459187,0.54011 -1.368143,1.34658 -0.112195,0.61349 -0.474474,1.3212 -0.04872,1.89473 0.02799,0.66469 -0.771509,1.13366 -0.441963,1.84234 -0.0561,0.73361 0.546498,1.42349 1.291012,1.21156 0.827266,0.29535 0.43435,1.24137 0.170857,1.77929 0.02026,0.68 1.211878,0.36513 0.877754,1.18733 -0.12099,0.55329 -0.902067,0.81694 -0.803774,1.40553 0.476652,0.43841 1.299386,0.30121 1.732448,0.86174 0.537973,0.45958 0.439445,1.2478 0.104934,1.79296 -0.218815,0.39974 -0.510521,0.7538 -0.732299,1.15173 -0.525289,0.31414 -0.890051,1.08131 -0.363134,1.56621 l 1.2e-5,0 z"
           id="path5129"
           inkscape:connector-curvature="0" />
        <path
           style="display:inline;fill:#fbfccd;fill-opacity:1;fill-rule:evenodd;stroke:none;stroke-width:1px;stroke-linecap:butt;stroke-linejoin:miter;stroke-opacity:1"
           d="m 91.867959,941.89708 c 0.423717,0.0314 0.845044,0.15328 1.272063,0.0956 0.06301,-0.27397 0.163268,-0.53941 0.36468,-0.7385 0.07027,-0.20645 0.137702,-0.58283 0.43941,-0.50057 0.318607,0.16097 0.473419,0.50886 0.733247,0.73886 0.171384,0.16442 0.358051,0.32074 0.478561,0.52894 0.207689,0.0838 0.336022,0.52016 0.60105,0.32214 0.382867,-0.30439 0.762116,-0.64219 0.96758,-1.0968 0.162424,-0.31768 0.343423,-0.62692 0.566079,-0.90598 0.180636,-0.29888 0.225186,-0.65734 0.218054,-1.00058 0.07835,-0.27168 -0.24862,-0.25855 -0.23685,0.006 -0.170002,0.32278 -0.511002,0.50513 -0.824444,0.66351 -0.304191,0.12963 -0.613417,0.26051 -0.863595,0.48289 -0.253539,0.18919 -0.518344,0.36425 -0.798374,0.5119 -0.32677,-0.0313 -0.375876,-0.45291 -0.613593,-0.62638 -0.21358,-0.27921 -0.578892,-0.17738 -0.840113,-0.0367 -0.256608,0.12776 -0.588812,0.0853 -0.715529,0.39725 -0.179265,0.28898 -0.29584,0.62132 -0.546451,0.86112 -0.105402,0.14312 -0.177954,0.42174 -0.406372,0.3748 0.04942,-0.0623 0.134083,-0.0612 0.204597,-0.0772 z"
           id="path5136"
           inkscape:connector-curvature="0" />
        <path
           style="display:inline;fill:#fbfccd;fill-opacity:1;fill-rule:evenodd;stroke:none;stroke-width:1px;stroke-linecap:butt;stroke-linejoin:miter;stroke-opacity:1"
           d="m 100.26651,955.20649 c 0.75822,-0.47673 1.12946,-1.35209 1.81702,-1.89759 0.70684,-0.34756 0.72978,0.73182 0.98071,1.13151 0.14091,0.52299 0.69169,1.09557 1.14703,0.50831 0.52133,-0.3687 0.71376,-0.98427 0.99303,-1.52333 0.29165,-0.46897 0.71242,-0.90652 1.24451,-1.08265 0.96806,-0.11137 0.0347,1.20504 0.68688,1.35697 0.5866,0.12346 1.21865,-0.0119 1.76851,-0.23083 0.64553,-0.26493 1.19528,-0.79768 1.39637,-1.47028 -0.054,-0.57385 0.11803,-1.26308 -0.0991,-1.76738 -0.60235,-0.19226 -0.69295,-0.97695 -0.27953,-1.4048 0.51237,-0.56642 0.67723,0.30343 0.63986,0.70426 0.0545,0.55551 0.0608,1.12399 -0.0885,1.66422 -0.11832,0.767 0.74602,1.01217 1.01297,1.55987 -0.0717,0.69348 -0.5991,1.26428 -0.98676,1.82059 -0.50861,0.49453 -0.53696,1.2552 -0.22615,1.8625 0.23448,0.48471 0.46083,0.96938 0.69276,1.45347 0.20345,0.42152 1.18372,1.04509 0.29853,1.2835 -0.45517,-0.0888 -0.20868,-0.78804 -0.46166,-1.11366 -0.15624,-0.44704 -0.4919,-0.81275 -0.91585,-1.01909 -0.69604,-0.44251 -0.19692,-1.27194 -0.32554,-1.84753 -0.33054,-0.2292 -0.77221,-0.34471 -0.98197,-0.6824 -0.57516,-0.0817 -1.47075,0.60034 -1.77455,-0.20122 -0.61471,-0.5307 -1.14645,0.33918 -1.3764,0.83646 -0.3676,0.55761 -0.97913,0.96501 -1.66072,0.96704 -0.73931,0.14325 -1.20507,-0.51561 -1.59252,-0.97903 -0.61382,-0.0218 -1.01924,0.71375 -1.6756,0.61338 -0.13574,-0.13855 -0.11266,-0.38392 -0.2333,-0.54229 z"
           id="path5144"
           inkscape:connector-curvature="0" />
        <path
           style="display:inline;fill:#fbfccd;fill-opacity:1;fill-rule:evenodd;stroke:none;stroke-width:1px;stroke-linecap:butt;stroke-linejoin:miter;stroke-opacity:1"
           d="m 91.460392,962.21034 c 0.841472,0.45644 1.668704,0.99799 2.638462,1.12972 0.942787,0.20331 1.991643,0.25553 2.846279,-0.26657 0.61761,-0.38617 1.304562,-0.19408 1.89239,0.10552 0.324837,0.0323 1.493667,-0.005 1.006215,0.52876 -0.330482,0.32735 -1.33199,0.23087 -1.330971,0.58802 1.049571,0.63578 2.393753,0.80197 3.545163,0.37185 0.4385,-0.11653 0.49965,0.30025 0.0798,0.39301 -0.58504,0.27801 -1.10469,0.66878 -1.64006,1.01417 -0.813004,0.1706 -1.112393,-0.88134 -1.831598,-0.9998 -0.551288,-0.0848 -1.374186,0.1933 -1.454433,-0.53271 -0.623418,-0.25155 -1.361854,-0.10107 -1.940652,-0.5272 -0.450863,-0.27967 -1.935921,-0.4339 -1.492623,0.44497 0.479861,0.4187 0.506434,1.22401 -0.290722,1.1748 -0.605477,0.087 -0.864392,0.68153 -0.911331,1.17211 -0.600628,0.56538 -0.995909,1.30563 -1.127568,2.11956 0.0059,0.64651 -0.734489,1.04073 -0.729969,1.58066 0.404112,0.45307 1.052148,0.88997 0.873199,1.59452 -0.333891,0.53127 -1.076707,0.53042 -1.492752,0.98282 -0.489347,-0.0118 0.264044,-0.71623 0.224213,-1.04952 0.290149,-0.73295 -0.471697,-1.0524 -0.794005,-1.53021 -0.160762,-0.61279 0.42436,-1.06967 0.807989,-1.45383 0.485084,-0.35239 0.813353,-0.88811 0.891304,-1.48501 0.05891,-0.44516 0.07062,-0.90953 0.378347,-1.27082 0.383909,-0.55904 0.883925,-1.24953 0.567016,-1.95311 -0.410026,-0.53906 -1.02219,-1.11832 -0.634251,-1.84378 0.03958,-0.18278 -0.0023,-0.40671 -0.184407,-0.49794"
           id="path5152"
           inkscape:connector-curvature="0" />
        <path
           style="display:inline;fill:#fbfccd;fill-opacity:1;fill-rule:evenodd;stroke:none;stroke-width:1px;stroke-linecap:butt;stroke-linejoin:miter;stroke-opacity:1"
           d="m 84.005499,955.76191 c 0.02729,-0.48757 -0.75824,-0.36233 -0.873491,-0.82631 -0.293885,-0.35238 -0.924822,-0.6192 -1.21093,-0.11524 -0.427312,0.47776 -0.849108,1.01666 -0.957778,1.663 -0.153898,0.57951 -0.868864,0.69694 -1.2136,0.22931 -0.538897,-0.18598 -0.834422,0.3976 -1.182108,0.68237 -0.466381,0.37974 -0.266539,0.98007 -0.350614,1.45864 -0.344829,0.46792 -0.911225,0.72005 -1.319846,1.12898 -0.481067,0.19607 -0.148804,-0.61469 0.0144,-0.78856 0.225408,-0.29793 0.518052,-0.72589 0.235468,-1.08303 -0.47055,-0.4326 -0.110672,-1.13527 0.435276,-1.27546 0.556758,-0.27404 0.579606,-0.89816 0.670287,-1.42507 0.134095,-0.75969 0.95567,-0.67456 1.535651,-0.71222 0.549859,0.0142 0.854905,-0.33416 1.030271,-0.80173 0.209035,-0.47294 0.679539,-0.31185 1.046233,-0.27244 0.487684,-0.2815 0.110087,-0.92148 -0.08655,-1.2899 -0.247004,-0.44042 -0.575753,-0.89028 -1.052803,-1.09097 -0.462376,-0.0858 -1.252189,-0.13651 -1.180598,-0.79018 0.05422,-0.4286 -0.220372,-1.15692 0.341948,-1.31065 0.595452,0.004 1.137301,0.36076 1.557117,0.75761 0.479112,0.32906 0.08994,1.0931 0.689635,1.28911 0.401395,0.0848 0.778488,0.58861 0.270345,0.81792 -0.427921,0.47434 0.100834,1.00792 0.546685,1.10865 0.370313,0.45413 0.413352,1.1239 0.904339,1.48835 0.213264,0.34039 0.268623,0.77419 0.150538,1.15783 z"
           id="path5159"
           inkscape:connector-curvature="0" />
      </g>
    </g>
  </g>
</svg>
