<?xml version="1.0" encoding="UTF-8" standalone="no"?>
<!-- Created with Inkscape (http://www.inkscape.org/) -->

<svg
   xmlns:dc="http://purl.org/dc/elements/1.1/"
   xmlns:cc="http://creativecommons.org/ns#"
   xmlns:rdf="http://www.w3.org/1999/02/22-rdf-syntax-ns#"
   xmlns:svg="http://www.w3.org/2000/svg"
   xmlns="http://www.w3.org/2000/svg"
   xmlns:sodipodi="http://sodipodi.sourceforge.net/DTD/sodipodi-0.dtd"
   xmlns:inkscape="http://www.inkscape.org/namespaces/inkscape"
   width="200"
   height="200"
   viewBox="0 0 200 200"
   id="svg2"
   version="1.1"
   inkscape:version="0.91 r13725"
   sodipodi:docname="weapon_item.svg">
  <defs
     id="defs4">
    <clipPath
       clipPathUnits="userSpaceOnUse"
       id="clipPath4861">
      <path
         sodipodi:nodetypes="czzzzzccc"
         inkscape:connector-curvature="0"
         id="path4863"
         d="m 59.285715,125.35715 c 14.552663,29.3285 42.819775,16.9772 51.094545,10.43899 8.27477,-6.53821 15.86589,-24.32145 7.63349,-47.127834 -8.2324,-22.806389 18.81486,4.940103 22.29927,9.956764 3.48441,5.01666 6.42325,9.54346 9.51783,20.65113 3.09458,11.10767 0.62525,27.35824 -14.09084,41.5014 -14.71609,14.14316 -48.374391,20.83929 -71.726916,10.90112 -9.449361,-4.10217 -6.13569,-12.25578 -9.17571,-22.67746 -0.993691,-3.79335 2.295678,-20.39187 4.448331,-23.64411 z"
         style="fill:#5e0c0b;fill-opacity:0.54044118;fill-rule:evenodd;stroke:none;stroke-width:1px;stroke-linecap:butt;stroke-linejoin:miter;stroke-opacity:1" />
    </clipPath>
    <clipPath
       clipPathUnits="userSpaceOnUse"
       id="clipPath10206">
      <path
         style="fill:#ac7114;fill-opacity:1;fill-rule:nonzero;stroke:none;stroke-width:4;stroke-miterlimit:4;stroke-dasharray:none;stroke-dashoffset:0;stroke-opacity:1"
         d="m 85.100249,90.512536 4.303351,-11.013333 0,-21.24 21.1928,0 0,21.24 4.30314,11.013333 2e-5,9.492164 3e-5,9.49217 3e-5,9.49216 2e-5,29.9455 -3.14664,3.19883 3e-5,3.19883 3.1467,3.19883 2e-5,7.91883 -29.799501,0 0,-7.91883 3.146667,-3.19883 0,-3.19883 -3.146667,-3.19883 0,-29.9455 0,-9.49216 0,-9.49217 z"
         id="path10208"
         inkscape:connector-curvature="0"
         sodipodi:nodetypes="ccccccccccccccccccccccc" />
    </clipPath>
    <clipPath
       clipPathUnits="userSpaceOnUse"
       id="clipPath10231">
      <g
         transform="matrix(0.78666667,0,0,0.78666667,21.333333,20.456302)"
         id="g10233">
        <path
           style="fill:#108843;fill-opacity:1;fill-rule:nonzero;stroke:none;stroke-width:4;stroke-miterlimit:4;stroke-dasharray:none;stroke-dashoffset:0;stroke-opacity:1"
           d="M 99.815701,6.192846 C 107.40717,6.1489514 112.47,50.054535 112.47,50.054535 l -24.94,0 c 0,0 4.736436,-43.8180388 12.285701,-43.861689 z"
           id="path10235"
           inkscape:connector-curvature="0"
           sodipodi:nodetypes="cccc" />
        <path
           style="fill:#ac7114;fill-opacity:1;fill-rule:nonzero;stroke:none;stroke-width:4;stroke-miterlimit:4;stroke-dasharray:none;stroke-dashoffset:0;stroke-opacity:1"
           d="m 81.059639,89.054535 5.470361,-14 0,-27 26.94,0 0,27 5.47009,14 3e-5,12.066315 4e-5,12.06631 3e-5,12.06631 3e-5,38.06631 -3.99996,4.06631 3e-5,4.06631 4.00004,2.38094 c 0,0 3e-5,2.41394 3e-5,4.12456 -12.10651,-1.39979 -29.008898,-1.39982 -37.880721,0 l 0,-4.12456 4,-2.38094 0,-4.06631 -4,-4.06631 0,-38.06631 0,-12.06631 0,-12.06631 z"
           id="path10237"
           inkscape:connector-curvature="0"
           sodipodi:nodetypes="ccccccccccccccccccccccc" />
      </g>
    </clipPath>
  </defs>
  <sodipodi:namedview
     id="base"
     pagecolor="#000000"
     bordercolor="#666666"
     borderopacity="1.0"
     inkscape:pageopacity="0"
     inkscape:pageshadow="2"
     inkscape:zoom="2.8"
     inkscape:cx="53.376578"
     inkscape:cy="119.31079"
     inkscape:document-units="px"
     inkscape:current-layer="layer5"
     showgrid="false"
     units="px"
     inkscape:snap-center="false"
     inkscape:object-nodes="true"
     inkscape:window-width="1920"
     inkscape:window-height="1017"
     inkscape:window-x="1912"
     inkscape:window-y="-8"
     inkscape:window-maximized="1" />
  <metadata
     id="metadata7">
    <rdf:RDF>
      <cc:Work
         rdf:about="">
        <dc:format>image/svg+xml</dc:format>
        <dc:type
           rdf:resource="http://purl.org/dc/dcmitype/StillImage" />
        <dc:title></dc:title>
      </cc:Work>
    </rdf:RDF>
  </metadata>
  <g
     inkscape:label="bg"
     inkscape:groupmode="layer"
     id="layer1"
     transform="translate(0,-852.36216)"
     style="display:none"
     sodipodi:insensitive="true">
    <path
       style="fill:#565656;fill-opacity:0.48897059;fill-rule:nonzero;stroke:none;stroke-width:10;stroke-miterlimit:4;stroke-dasharray:none;stroke-dashoffset:0;stroke-opacity:1"
       d="m 0,852.36218 200,0 0,200.00002 -200,0 z"
       id="rect4144"
       inkscape:connector-curvature="0" />
  </g>
  <g
     inkscape:groupmode="layer"
     id="layer2"
     inkscape:label="base" />
  <g
     inkscape:groupmode="layer"
     id="layer4"
     inkscape:label="shading"
     style="display:inline" />
  <g
     inkscape:groupmode="layer"
     id="layer5"
     inkscape:label="caustics">
    <g
       id="g10438"
       transform="matrix(1.1268696,0,0,1.1268696,-47.622274,-4.6736955)">
      <g
         id="g10316">
        <g
           id="g10151"
           transform="matrix(0.78666667,0,0,0.78666667,21.333333,20.456302)">
          <path
             sodipodi:nodetypes="cccc"
             inkscape:connector-curvature="0"
             id="rect10146"
             d="M 99.815701,6.192846 C 107.40717,6.1489514 112.47,50.054535 112.47,50.054535 l -24.94,0 c 0,0 4.736436,-43.8180388 12.285701,-43.861689 z"
             style="fill:#108843;fill-opacity:1;fill-rule:nonzero;stroke:none;stroke-width:4;stroke-miterlimit:4;stroke-dasharray:none;stroke-dashoffset:0;stroke-opacity:1" />
          <path
             sodipodi:nodetypes="ccccccccccccccccccccccc"
             inkscape:connector-curvature="0"
             id="rect10143"
             d="m 81.059639,89.054535 5.470361,-14 c 0,0 0,-20.555739 0,-27 7.072121,-2.337031 20.75069,-1.855496 26.94,0 0,7.030434 0,27 0,27 l 5.47009,14 3e-5,12.066315 4e-5,12.06631 3e-5,12.06631 3e-5,38.06631 -3.99996,4.06631 3e-5,4.06631 4.00004,2.38094 c 0,0 3e-5,2.41394 3e-5,4.12456 -12.10651,-1.39979 -29.008898,-1.39982 -37.880721,0 l 0,-4.12456 4,-2.38094 0,-4.06631 -4,-4.06631 0,-38.06631 0,-12.06631 0,-12.06631 z"
             style="fill:#ac7114;fill-opacity:1;fill-rule:nonzero;stroke:none;stroke-width:4;stroke-miterlimit:4;stroke-dasharray:none;stroke-dashoffset:0;stroke-opacity:1" />
        </g>
        <path
           style="fill:none;fill-rule:evenodd;stroke:#4c3209;stroke-width:1px;stroke-linecap:butt;stroke-linejoin:miter;stroke-opacity:1"
           d="m 85.10025,90.512536 c 8.540537,-1.57326 19.85528,-1.923281 29.79932,-2.1e-5"
           id="path10239"
           inkscape:connector-curvature="0"
           sodipodi:nodetypes="cc" />
        <path
           style="display:inline;fill:#4c3209;fill-opacity:1;fill-rule:evenodd;stroke:none;stroke-width:1px;stroke-linecap:butt;stroke-linejoin:miter;stroke-opacity:1"
           d="m 111.753,152.13336 c 2.12975,0.20727 4.66656,-1.12992 6.44766,-2.53152 1.27697,-1.21372 2.53966,-5.79654 1.27301,-6.96871 -1.64937,-1.86971 -2.25913,6.44719 -4.57403,6.3014 -7.08554,-0.84532 -22.64474,-1.05329 -29.79939,0 0.287998,2.90896 -2.128094,2.05023 -1.198639,3.27345 0.84551,1.2764 0.490286,-0.0746 4.345305,-0.0746 7.376889,-0.94702 17.016544,-1.23031 23.506084,0 z"
           id="path10155"
           inkscape:connector-curvature="0"
           sodipodi:nodetypes="ccccccccc"
           clip-path="url(#clipPath10206)" />
        <path
           style="display:inline;fill:none;fill-rule:evenodd;stroke:#4c3209;stroke-width:1.60000002;stroke-linecap:butt;stroke-linejoin:miter;stroke-miterlimit:4;stroke-dasharray:none;stroke-opacity:1"
           d="m 84.532039,156.75199 c 7.627184,-1.3304 20.998271,-1.57569 30.304431,-0.22068"
           id="path10210"
           inkscape:connector-curvature="0"
           sodipodi:nodetypes="cc"
           clip-path="url(#clipPath10231)"
           transform="translate(-2.6398696e-6,0)" />
        <path
           style="fill:#e69d2a;fill-opacity:1;fill-rule:evenodd;stroke:none;stroke-width:1px;stroke-linecap:butt;stroke-linejoin:miter;stroke-opacity:1"
           d="m 94.961216,60.803003 c 0,-1.480996 -2.038451,-1.497845 -2.038451,0.106653 0,1.604498 0.136446,16.693219 0.136446,17.476032 0,0.782813 2.235316,0.676209 2.235316,0.0475 0,-0.628713 -0.333311,-16.149185 -0.333311,-17.630181 z"
           id="path10256"
           inkscape:connector-curvature="0"
           sodipodi:nodetypes="zzzzz" />
        <path
           sodipodi:nodetypes="sszcs"
           inkscape:connector-curvature="0"
           id="path10274"
           d="m 88.9234,90.480203 c -1.134217,0.09784 -0.670556,57.589657 0.150359,57.539767 1.339286,-0.0814 2.426126,-0.0475 3.497554,-0.25774 1.071428,-0.2102 -0.268987,-53.518485 -0.426823,-57.662519 -2.115007,0.08598 -1.705862,0.249782 -3.22109,0.380492 z"
           style="fill:#e69d2a;fill-opacity:1;fill-rule:evenodd;stroke:none;stroke-width:1px;stroke-linecap:butt;stroke-linejoin:miter;stroke-opacity:1" />
        <path
           style="fill:#14ac54;fill-opacity:1;fill-rule:evenodd;stroke:none;stroke-width:1px;stroke-linecap:butt;stroke-linejoin:miter;stroke-opacity:1"
           d="m 93.883929,56.473214 c -3.206782,0.859254 -0.714703,-8.443292 -0.106528,-12.910058 0.608175,-4.466766 2.177173,-10.881526 4.323608,-13.191892 -1.139208,6.187658 -1.923115,17.934686 -1.659854,21.588245 0.263261,3.653559 0.649555,3.65445 -2.557226,4.513705 z"
           id="path10276"
           inkscape:connector-curvature="0"
           sodipodi:nodetypes="zzczz" />
        <path
           style="fill:#e69d2a;fill-opacity:1;fill-rule:evenodd;stroke:none;stroke-width:1px;stroke-linecap:butt;stroke-linejoin:miter;stroke-opacity:1"
           d="m 92.49173,88.331944 c 1.059622,-2.070261 1.847699,-5.546335 2.521785,-8.068284 0.313018,-1.171087 -1.915894,-0.742134 -1.997561,-0.291487 -1.101807,3.809031 -2.558542,5.493263 -3.681582,8.820498 1.435601,-0.618127 1.71538,-0.283131 3.157358,-0.460727 z"
           id="path10294"
           inkscape:connector-curvature="0"
           sodipodi:nodetypes="csccc" />
      </g>
      <g
         transform="translate(31,0)"
         id="g10328">
        <g
           transform="matrix(0.78666667,0,0,0.78666667,21.333333,20.456302)"
           id="g10330">
          <path
             style="fill:#108843;fill-opacity:1;fill-rule:nonzero;stroke:none;stroke-width:4;stroke-miterlimit:4;stroke-dasharray:none;stroke-dashoffset:0;stroke-opacity:1"
             d="M 99.815701,6.192846 C 107.40717,6.1489514 112.47,50.054535 112.47,50.054535 l -24.94,0 c 0,0 4.736436,-43.8180388 12.285701,-43.861689 z"
             id="path10332"
             inkscape:connector-curvature="0"
             sodipodi:nodetypes="cccc" />
          <path
             style="fill:#ac7114;fill-opacity:1;fill-rule:nonzero;stroke:none;stroke-width:4;stroke-miterlimit:4;stroke-dasharray:none;stroke-dashoffset:0;stroke-opacity:1"
             d="m 81.059639,89.054535 5.470361,-14 c 0,0 0,-20.555739 0,-27 7.072121,-2.337031 20.75069,-1.855496 26.94,0 0,7.030434 0,27 0,27 l 5.47009,14 3e-5,12.066315 4e-5,12.06631 3e-5,12.06631 3e-5,38.06631 -3.99996,4.06631 3e-5,4.06631 4.00004,2.38094 c 0,0 3e-5,2.41394 3e-5,4.12456 -12.10651,-1.39979 -29.008898,-1.39982 -37.880721,0 l 0,-4.12456 4,-2.38094 0,-4.06631 -4,-4.06631 0,-38.06631 0,-12.06631 0,-12.06631 z"
             id="path10334"
             inkscape:connector-curvature="0"
             sodipodi:nodetypes="ccccccccccccccccccccccc" />
        </g>
        <path
           sodipodi:nodetypes="cc"
           inkscape:connector-curvature="0"
           id="path10336"
           d="m 85.10025,90.512536 c 8.540537,-1.57326 19.85528,-1.923281 29.79932,-2.1e-5"
           style="fill:none;fill-rule:evenodd;stroke:#4c3209;stroke-width:1px;stroke-linecap:butt;stroke-linejoin:miter;stroke-opacity:1" />
        <path
           clip-path="url(#clipPath10206)"
           sodipodi:nodetypes="ccccccccc"
           inkscape:connector-curvature="0"
           id="path10338"
           d="m 111.753,152.13336 c 2.12975,0.20727 4.66656,-1.12992 6.44766,-2.53152 1.27697,-1.21372 2.53966,-5.79654 1.27301,-6.96871 -1.64937,-1.86971 -2.25913,6.44719 -4.57403,6.3014 -7.08554,-0.84532 -22.64474,-1.05329 -29.79939,0 0.287998,2.90896 -2.128094,2.05023 -1.198639,3.27345 0.84551,1.2764 0.490286,-0.0746 4.345305,-0.0746 7.376889,-0.94702 17.016544,-1.23031 23.506084,0 z"
           style="display:inline;fill:#4c3209;fill-opacity:1;fill-rule:evenodd;stroke:none;stroke-width:1px;stroke-linecap:butt;stroke-linejoin:miter;stroke-opacity:1" />
        <path
           transform="translate(-2.6398696e-6,0)"
           clip-path="url(#clipPath10231)"
           sodipodi:nodetypes="cc"
           inkscape:connector-curvature="0"
           id="path10340"
           d="m 84.532039,156.75199 c 7.627184,-1.3304 20.998271,-1.57569 30.304431,-0.22068"
           style="display:inline;fill:none;fill-rule:evenodd;stroke:#4c3209;stroke-width:1.60000002;stroke-linecap:butt;stroke-linejoin:miter;stroke-miterlimit:4;stroke-dasharray:none;stroke-opacity:1" />
        <path
           sodipodi:nodetypes="zzzzz"
           inkscape:connector-curvature="0"
           id="path10342"
           d="m 94.961216,60.803003 c 0,-1.480996 -2.038451,-1.497845 -2.038451,0.106653 0,1.604498 0.136446,16.693219 0.136446,17.476032 0,0.782813 2.235316,0.676209 2.235316,0.0475 0,-0.628713 -0.333311,-16.149185 -0.333311,-17.630181 z"
           style="fill:#e69d2a;fill-opacity:1;fill-rule:evenodd;stroke:none;stroke-width:1px;stroke-linecap:butt;stroke-linejoin:miter;stroke-opacity:1" />
        <path
           style="fill:#e69d2a;fill-opacity:1;fill-rule:evenodd;stroke:none;stroke-width:1px;stroke-linecap:butt;stroke-linejoin:miter;stroke-opacity:1"
           d="m 88.9234,90.480203 c -1.134217,0.09784 -0.670556,57.589657 0.150359,57.539767 1.339286,-0.0814 2.426126,-0.0475 3.497554,-0.25774 1.071428,-0.2102 -0.268987,-53.518485 -0.426823,-57.662519 -2.115007,0.08598 -1.705862,0.249782 -3.22109,0.380492 z"
           id="path10344"
           inkscape:connector-curvature="0"
           sodipodi:nodetypes="sszcs" />
        <path
           sodipodi:nodetypes="zzczz"
           inkscape:connector-curvature="0"
           id="path10346"
           d="m 93.883929,56.473214 c -3.206782,0.859254 -0.714703,-8.443292 -0.106528,-12.910058 0.608175,-4.466766 2.177173,-10.881526 4.323608,-13.191892 -1.139208,6.187658 -1.923115,17.934686 -1.659854,21.588245 0.263261,3.653559 0.649555,3.65445 -2.557226,4.513705 z"
           style="fill:#14ac54;fill-opacity:1;fill-rule:evenodd;stroke:none;stroke-width:1px;stroke-linecap:butt;stroke-linejoin:miter;stroke-opacity:1" />
        <path
           sodipodi:nodetypes="csccc"
           inkscape:connector-curvature="0"
           id="path10348"
           d="m 92.49173,88.331944 c 1.059622,-2.070261 1.847699,-5.546335 2.521785,-8.068284 0.313018,-1.171087 -1.915894,-0.742134 -1.997561,-0.291487 -1.101807,3.809031 -2.558542,5.493263 -3.681582,8.820498 1.435601,-0.618127 1.71538,-0.283131 3.157358,-0.460727 z"
           style="fill:#e69d2a;fill-opacity:1;fill-rule:evenodd;stroke:none;stroke-width:1px;stroke-linecap:butt;stroke-linejoin:miter;stroke-opacity:1" />
      </g>
      <g
         id="g10350"
         transform="translate(62,0)">
        <g
           id="g10352"
           transform="matrix(0.78666667,0,0,0.78666667,21.333333,20.456302)">
          <path
             sodipodi:nodetypes="cccc"
             inkscape:connector-curvature="0"
             id="path10354"
             d="M 99.815701,6.192846 C 107.40717,6.1489514 112.47,50.054535 112.47,50.054535 l -24.94,0 c 0,0 4.736436,-43.8180388 12.285701,-43.861689 z"
             style="fill:#108843;fill-opacity:1;fill-rule:nonzero;stroke:none;stroke-width:4;stroke-miterlimit:4;stroke-dasharray:none;stroke-dashoffset:0;stroke-opacity:1" />
          <path
             sodipodi:nodetypes="ccccccccccccccccccccccc"
             inkscape:connector-curvature="0"
             id="path10356"
             d="m 81.059639,89.054535 5.470361,-14 c 0,0 0,-20.555739 0,-27 7.072121,-2.337031 20.75069,-1.855496 26.94,0 0,7.030434 0,27 0,27 l 5.47009,14 3e-5,12.066315 4e-5,12.06631 3e-5,12.06631 3e-5,38.06631 -3.99996,4.06631 3e-5,4.06631 4.00004,2.38094 c 0,0 3e-5,2.41394 3e-5,4.12456 -12.10651,-1.39979 -29.008898,-1.39982 -37.880721,0 l 0,-4.12456 4,-2.38094 0,-4.06631 -4,-4.06631 0,-38.06631 0,-12.06631 0,-12.06631 z"
             style="fill:#ac7114;fill-opacity:1;fill-rule:nonzero;stroke:none;stroke-width:4;stroke-miterlimit:4;stroke-dasharray:none;stroke-dashoffset:0;stroke-opacity:1" />
        </g>
        <path
           style="fill:none;fill-rule:evenodd;stroke:#4c3209;stroke-width:1px;stroke-linecap:butt;stroke-linejoin:miter;stroke-opacity:1"
           d="m 85.10025,90.512536 c 8.540537,-1.57326 19.85528,-1.923281 29.79932,-2.1e-5"
           id="path10358"
           inkscape:connector-curvature="0"
           sodipodi:nodetypes="cc" />
        <path
           style="display:inline;fill:#4c3209;fill-opacity:1;fill-rule:evenodd;stroke:none;stroke-width:1px;stroke-linecap:butt;stroke-linejoin:miter;stroke-opacity:1"
           d="m 111.753,152.13336 c 2.12975,0.20727 4.66656,-1.12992 6.44766,-2.53152 1.27697,-1.21372 2.53966,-5.79654 1.27301,-6.96871 -1.64937,-1.86971 -2.25913,6.44719 -4.57403,6.3014 -7.08554,-0.84532 -22.64474,-1.05329 -29.79939,0 0.287998,2.90896 -2.128094,2.05023 -1.198639,3.27345 0.84551,1.2764 0.490286,-0.0746 4.345305,-0.0746 7.376889,-0.94702 17.016544,-1.23031 23.506084,0 z"
           id="path10360"
           inkscape:connector-curvature="0"
           sodipodi:nodetypes="ccccccccc"
           clip-path="url(#clipPath10206)" />
        <path
           style="display:inline;fill:none;fill-rule:evenodd;stroke:#4c3209;stroke-width:1.60000002;stroke-linecap:butt;stroke-linejoin:miter;stroke-miterlimit:4;stroke-dasharray:none;stroke-opacity:1"
           d="m 84.532039,156.75199 c 7.627184,-1.3304 20.998271,-1.57569 30.304431,-0.22068"
           id="path10362"
           inkscape:connector-curvature="0"
           sodipodi:nodetypes="cc"
           clip-path="url(#clipPath10231)"
           transform="translate(-2.6398696e-6,0)" />
        <path
           style="fill:#e69d2a;fill-opacity:1;fill-rule:evenodd;stroke:none;stroke-width:1px;stroke-linecap:butt;stroke-linejoin:miter;stroke-opacity:1"
           d="m 94.961216,60.803003 c 0,-1.480996 -2.038451,-1.497845 -2.038451,0.106653 0,1.604498 0.136446,16.693219 0.136446,17.476032 0,0.782813 2.235316,0.676209 2.235316,0.0475 0,-0.628713 -0.333311,-16.149185 -0.333311,-17.630181 z"
           id="path10364"
           inkscape:connector-curvature="0"
           sodipodi:nodetypes="zzzzz" />
        <path
           sodipodi:nodetypes="sszcs"
           inkscape:connector-curvature="0"
           id="path10366"
           d="m 88.9234,90.480203 c -1.134217,0.09784 -0.670556,57.589657 0.150359,57.539767 1.339286,-0.0814 2.426126,-0.0475 3.497554,-0.25774 1.071428,-0.2102 -0.268987,-53.518485 -0.426823,-57.662519 -2.115007,0.08598 -1.705862,0.249782 -3.22109,0.380492 z"
           style="fill:#e69d2a;fill-opacity:1;fill-rule:evenodd;stroke:none;stroke-width:1px;stroke-linecap:butt;stroke-linejoin:miter;stroke-opacity:1" />
        <path
           style="fill:#14ac54;fill-opacity:1;fill-rule:evenodd;stroke:none;stroke-width:1px;stroke-linecap:butt;stroke-linejoin:miter;stroke-opacity:1"
           d="m 93.883929,56.473214 c -3.206782,0.859254 -0.714703,-8.443292 -0.106528,-12.910058 0.608175,-4.466766 2.177173,-10.881526 4.323608,-13.191892 -1.139208,6.187658 -1.923115,17.934686 -1.659854,21.588245 0.263261,3.653559 0.649555,3.65445 -2.557226,4.513705 z"
           id="path10368"
           inkscape:connector-curvature="0"
           sodipodi:nodetypes="zzczz" />
        <path
           style="fill:#e69d2a;fill-opacity:1;fill-rule:evenodd;stroke:none;stroke-width:1px;stroke-linecap:butt;stroke-linejoin:miter;stroke-opacity:1"
           d="m 92.49173,88.331944 c 1.059622,-2.070261 1.847699,-5.546335 2.521785,-8.068284 0.313018,-1.171087 -1.915894,-0.742134 -1.997561,-0.291487 -1.101807,3.809031 -2.558542,5.493263 -3.681582,8.820498 1.435601,-0.618127 1.71538,-0.283131 3.157358,-0.460727 z"
           id="path10370"
           inkscape:connector-curvature="0"
           sodipodi:nodetypes="csccc" />
      </g>
    </g>
  </g>
  <g
     inkscape:groupmode="layer"
     id="layer3"
     inkscape:label="outline" />
</svg>
