<?xml version="1.0" encoding="UTF-8" standalone="no"?>
<svg
   xmlns:dc="http://purl.org/dc/elements/1.1/"
   xmlns:cc="http://creativecommons.org/ns#"
   xmlns:rdf="http://www.w3.org/1999/02/22-rdf-syntax-ns#"
   xmlns:svg="http://www.w3.org/2000/svg"
   xmlns="http://www.w3.org/2000/svg"
   xmlns:sodipodi="http://sodipodi.sourceforge.net/DTD/sodipodi-0.dtd"
   xmlns:inkscape="http://www.inkscape.org/namespaces/inkscape"
   height="500"
   version="1.1"
   width="500"
   id="svg2"
   inkscape:version="0.91 r13725"
   sodipodi:docname="asteroid_two_dmg_one.svg">
  <metadata
     id="metadata30">
    <rdf:RDF>
      <cc:Work
         rdf:about="">
        <dc:format>image/svg+xml</dc:format>
        <dc:type
           rdf:resource="http://purl.org/dc/dcmitype/StillImage" />
        <dc:title></dc:title>
      </cc:Work>
    </rdf:RDF>
  </metadata>
  <defs
     id="defs28" />
  <sodipodi:namedview
     pagecolor="#000000"
     bordercolor="#666666"
     borderopacity="1"
     objecttolerance="10"
     gridtolerance="10"
     guidetolerance="10"
     inkscape:pageopacity="0"
     inkscape:pageshadow="2"
     inkscape:window-width="1920"
     inkscape:window-height="1017"
     id="namedview26"
     showgrid="false"
     inkscape:zoom="0.6675088"
     inkscape:cx="-419.51193"
     inkscape:cy="88.327804"
     inkscape:window-x="1912"
     inkscape:window-y="-8"
     inkscape:window-maximized="1"
     inkscape:current-layer="layer1" />
  <g
     inkscape:label="faces"
     inkscape:groupmode="layer"
     id="strokes"
     sodipodi:insensitive="true">
    <path
       style="fill:#fab33c;fill-opacity:1;stroke:#d08b2b;stroke-width:3;stroke-linecap:butt;stroke-linejoin:round;stroke-opacity:1"
       inkscape:connector-curvature="0"
       id="path18"
       d="m 111.153,285.003 -1.567,-9.876 -1.567,-9.877 -1.567,-9.876 -1.567,-9.877 -1.566,-9.876 -1.567,-9.877 -1.567,-9.876 -1.567,-9.877 -1.567,-9.876 -1.567,-9.876 -1.566,-9.877 -1.567,-9.876 -1.567,-9.877 -1.567,-9.876 -1.567,-9.877 -1.567,-9.876 -1.566,-9.877 -1.567,-9.876 -1.567,-9.877 -1.567,-9.876 -1.444,-9.102 -5.556,8.315 -5.555,8.315 -5.556,8.314 -5.556,8.315 -5.555,8.315 -5.556,8.314 -5.556,8.315 -5.555,8.315 -5.556,8.314 -2.614,3.912 -1.951,9.808 -1.95,9.807 -1.951,9.808 -1.951,9.808 -1.951,9.808 -1.951,9.808 -1.951,9.808 -1.951,9.807 -1.951,9.808 -0.917,4.614 1.95,9.808 1.951,9.808 1.951,9.808 1.951,9.807 1.951,9.808 1.951,9.808 1.951,9.808 1.951,9.808 1.951,9.808 0.917,4.613 5.556,8.315 5.556,8.315 5.556,8.314 5.555,8.315 5.556,8.315 5.556,8.315 5.555,8.314 5.556,8.315 5.556,8.315 2.613,3.911 3.972,-9.178 3.971,-9.177 3.972,-9.178 3.972,-9.177 3.971,-9.177 0.616,-1.423 1.365,-9.907 1.365,-9.906 1.365,-9.907 1.365,-9.906 1.365,-9.906 1.365,-9.907 1.365,-9.906 1.365,-9.907 1.387,-10.063" />
    <path
       style="fill:#fec951;fill-opacity:1;stroke:#d08b2b;stroke-width:3;stroke-linecap:butt;stroke-linejoin:round;stroke-opacity:1"
       inkscape:connector-curvature="0"
       id="path6"
       d="m 251.167,386.514 3.162,-9.487 3.162,-9.487 3.163,-9.487 3.162,-9.487 3.162,-9.487 3.162,-9.486 3.163,-9.487 3.162,-9.487 3.162,-9.487 3.162,-9.487 3.163,-9.487 1.385,-4.155 -9.992,0.397 -9.992,0.397 -9.992,0.397 -9.993,0.397 -9.992,0.397 -9.992,0.397 -9.992,0.397 -9.992,0.397 -9.992,0.397 -9.992,0.397 -9.992,0.397 -9.992,0.397 -9.993,0.397 -9.992,0.397 -9.992,0.397 -9.992,0.397 -9.992,0.397 -6.318,0.251 -1.365,9.907 -1.365,9.906 -1.365,9.907 -1.365,9.906 -1.365,9.906 -1.365,9.907 -1.365,9.906 -1.365,9.907 -1.387,10.063 8.046,5.938 8.046,5.939 8.045,5.938 8.046,5.939 8.046,5.939 8.045,5.938 8.046,5.939 8.046,5.938 8.046,5.939 8.045,5.938 8.046,5.939 5.479,4.044 7.142,-6.999 7.142,-7 7.142,-6.999 7.142,-6.999 7.142,-7 7.142,-6.999 7.143,-6.999 7.142,-6.999 1.202,-1.178" />
    <path
       style="fill:#fab33c;fill-opacity:1;stroke:#d08b2b;stroke-width:3;stroke-linecap:butt;stroke-linejoin:round;stroke-opacity:1"
       inkscape:connector-curvature="0"
       id="path8"
       d="m 467.619,255.25 9.788,-2.047 9.788,-2.048 5.523,-1.155 -1.95,-9.808 -1.951,-9.808 -1.951,-9.808 -1.951,-9.807 -1.951,-9.808 -1.951,-9.808 -1.951,-9.808 -1.951,-9.808 -1.951,-9.808 -0.917,-4.613 -5.556,-8.315 -5.556,-8.315 -5.556,-8.314 -5.555,-8.315 -5.556,-8.315 -5.556,-8.315 -5.555,-8.314 -5.556,-8.315 -5.556,-8.315 -2.613,-3.911 -9.924,1.232 -9.924,1.232 -9.924,1.232 -9.923,1.232 -9.924,1.232 -7.664,0.951 0.509,9.987 0.51,9.987 0.509,9.987 0.51,9.987 0.509,9.987 0.51,9.987 0.509,9.987 0.51,9.987 0.509,9.988 0.51,9.987 0.51,9.987 0.229,4.487 8.692,4.944 8.692,4.944 8.693,4.944 8.692,4.944 8.692,4.944 8.692,4.944 8.693,4.945 8.692,4.944 8.692,4.944 8.693,4.944 8.692,4.944 1.825,1.037" />
    <path
       style="fill:#eb9d30;fill-opacity:1;stroke:#d08b2b;stroke-width:3;stroke-linecap:butt;stroke-linejoin:round;stroke-opacity:1"
       inkscape:connector-curvature="0"
       id="path10"
       d="m 474.243,342.884 1.951,-9.807 1.95,-9.808 1.951,-9.808 1.951,-9.808 1.951,-9.808 1.951,-9.808 1.951,-9.808 1.951,-9.807 1.951,-9.808 0.917,-4.614 -9.788,2.047 -9.788,2.048 -5.523,1.155 -4.734,8.809 -4.733,8.809 -4.733,8.809 -4.733,8.809 -4.734,8.809 -4.733,8.809 -1.257,2.339 7.454,6.666 7.455,6.666 7.454,6.665 7.455,6.666 6.463,5.778" />
    <path
       style="fill:#fec951;fill-opacity:1;stroke:#d08b2b;stroke-width:3;stroke-linecap:butt;stroke-linejoin:round;stroke-opacity:1"
       inkscape:connector-curvature="0"
       id="path12"
       d="m 251.167,386.514 9.794,2.017 9.795,2.018 9.794,2.017 9.794,2.018 9.795,2.018 9.794,2.017 9.794,2.018 9.795,2.017 9.794,2.018 9.794,2.018 9.795,2.017 9.794,2.018 9.794,2.017 9.795,2.018 9.794,2.018 9.794,2.017 9.795,2.018 3.957,0.815 5.556,-8.315 5.555,-8.314 5.556,-8.315 5.556,-8.315 5.555,-8.315 5.556,-8.314 5.556,-8.315 5.555,-8.315 5.556,-8.314 2.614,-3.912 -7.455,-6.665 -7.454,-6.666 -7.455,-6.665 -7.455,-6.666 -6.462,-5.779 -9.776,-2.105 -9.776,-2.105 -9.776,-2.106 -9.776,-2.105 -9.775,-2.106 -9.776,-2.105 -9.776,-2.106 -9.776,-2.105 -9.776,-2.106 -9.776,-2.105 -9.775,-2.106 -9.776,-2.105 -9.776,-2.106 -9.776,-2.105 -9.776,-2.106 -3.987,-0.858 -3.162,9.486 -3.163,9.487 -3.162,9.487 -3.162,9.487 -3.162,9.487 -3.163,9.487 -3.162,9.487 -3.162,9.486 -3.162,9.487 -3.163,9.487 -3.162,9.487 -1.385,4.156" />
    <path
       style="fill:#fab33c;fill-opacity:1;stroke:#d08b2b;stroke-width:3;stroke-linecap:butt;stroke-linejoin:round;stroke-opacity:1"
       inkscape:connector-curvature="0"
       id="path14"
       d="m 157.116,474.243 9.808,1.951 9.807,1.95 9.808,1.951 9.808,1.951 9.808,1.951 9.808,1.951 9.808,1.951 9.807,1.951 9.808,1.951 4.614,0.917 9.808,-1.95 9.808,-1.951 9.808,-1.951 9.807,-1.951 9.808,-1.951 9.808,-1.951 9.808,-1.951 9.808,-1.951 9.808,-1.951 4.613,-0.917 8.315,-5.556 8.315,-5.556 8.314,-5.555 8.315,-5.556 8.315,-5.556 8.314,-5.556 8.315,-5.555 8.315,-5.556 8.315,-5.556 3.911,-2.613 -9.795,-2.018 -9.794,-2.017 -9.794,-2.018 -9.795,-2.017 -9.794,-2.018 -9.794,-2.018 -9.795,-2.017 -9.794,-2.018 -9.794,-2.017 -9.795,-2.018 -9.794,-2.018 -9.794,-2.017 -9.795,-2.018 -9.794,-2.017 -9.794,-2.018 -9.795,-2.018 -9.794,-2.017 -3.957,-0.815 -7.142,6.999 -7.142,6.999 -7.143,6.999 -7.142,7 -7.142,6.999 -7.142,6.999 -7.142,6.999 -7.142,7 -1.202,1.178 -7.599,6.501 -7.598,6.502 -7.598,6.501 -7.598,6.501 -5.319,4.552" />
    <path
       style="fill:#eb9d30;fill-opacity:1;stroke:#d08b2b;stroke-width:3;stroke-linecap:butt;stroke-linejoin:round;stroke-opacity:1"
       inkscape:connector-curvature="0"
       id="path16"
       d="m 98.846,374.318 -3.971,9.177 -3.972,9.178 -3.972,9.177 -3.971,9.178 -3.972,9.177 -0.616,1.423 8.315,5.556 8.315,5.555 8.314,5.556 8.315,5.556 8.315,5.555 8.314,5.556 8.315,5.556 8.315,5.555 8.314,5.556 3.912,2.614 7.598,-6.502 7.598,-6.501 7.598,-6.501 7.598,-6.502 5.32,-4.551 -8.046,-5.939 -8.046,-5.938 -8.046,-5.939 -8.045,-5.939 -8.046,-5.938 -8.046,-5.939 -8.045,-5.938 -8.046,-5.939 -8.046,-5.938 -8.045,-5.939 -8.046,-5.939 -5.479,-4.043" />
    <path
       style="fill:#fee389;fill-opacity:1;stroke:#d08b2b;stroke-width:3;stroke-linecap:butt;stroke-linejoin:round;stroke-opacity:1"
       inkscape:connector-curvature="0"
       id="path20"
       d="m 250,7.282 -9.808,1.95 -9.808,1.951 -9.808,1.951 -9.807,1.951 -9.808,1.951 -9.808,1.951 -9.808,1.951 -9.808,1.951 -9.808,1.951 -4.613,0.917 -8.315,5.556 -8.315,5.556 -8.314,5.555 -8.315,5.556 -8.315,5.556 -8.315,5.556 -8.314,5.555 -8.315,5.556 -8.315,5.556 -3.911,2.613 1.567,9.877 1.567,9.876 1.567,9.877 1.566,9.876 1.567,9.877 1.567,9.876 1.567,9.877 1.567,9.876 1.567,9.877 1.567,9.876 1.566,9.877 1.567,9.876 1.567,9.876 1.567,9.877 1.567,9.876 1.567,9.877 1.566,9.876 1.567,9.877 1.567,9.876 1.567,9.877 1.444,9.101 9.992,-0.397 9.992,-0.397 9.992,-0.397 9.992,-0.397 9.992,-0.397 9.992,-0.397 9.993,-0.397 9.992,-0.397 9.992,-0.397 9.992,-0.397 9.992,-0.397 9.992,-0.397 9.992,-0.397 9.992,-0.397 9.993,-0.397 9.992,-0.397 9.992,-0.397 6.318,-0.251 7.273,-6.864 7.273,-6.863 7.273,-6.863 7.273,-6.863 7.273,-6.863 7.273,-6.864 7.273,-6.863 7.273,-6.863 7.273,-6.863 7.273,-6.864 7.273,-6.863 2.839,-2.679 -0.51,-9.987 -0.51,-9.987 -0.509,-9.987 -0.51,-9.987 -0.509,-9.987 -0.51,-9.987 -0.509,-9.987 -0.51,-9.987 -0.509,-9.987 -0.51,-9.987 -0.509,-9.987 -0.229,-4.488 -8.255,-5.645 -8.254,-5.645 -8.254,-5.645 -8.254,-5.645 -8.254,-5.645 -8.255,-5.646 -8.254,-5.645 -8.254,-5.645 -8.254,-5.645 -8.255,-5.645 -8.254,-5.645 -8.254,-5.646 L 257.04,12.096 250,7.282" />
    <path
       style="fill:#eb9d30;fill-opacity:1;stroke:#d08b2b;stroke-width:3;stroke-linecap:butt;stroke-linejoin:round;stroke-opacity:1"
       inkscape:connector-curvature="0"
       id="path22"
       d="m 342.884,25.757 -9.808,-1.951 -9.807,-1.95 -9.808,-1.951 -9.808,-1.951 -9.808,-1.951 -9.808,-1.951 -9.808,-1.951 -9.808,-1.951 -9.807,-1.951 -4.614,-0.917 8.254,5.645 8.254,5.645 8.255,5.645 8.254,5.645 8.254,5.645 8.254,5.646 8.254,5.645 8.255,5.645 8.254,5.645 8.254,5.645 8.254,5.645 8.255,5.646 8.254,5.645 7.04,4.814 9.923,-1.232 9.924,-1.232 9.924,-1.232 9.924,-1.231 9.924,-1.232 7.664,-0.952 -8.315,-5.556 -8.315,-5.555 -8.314,-5.556 -8.315,-5.556 -8.315,-5.555 -8.314,-5.556 -8.315,-5.556 -8.315,-5.556 -8.314,-5.555 -3.912,-2.614" />
    <path
       style="fill:#fec951;fill-opacity:1;stroke:#d08b2b;stroke-width:3;stroke-linecap:butt;stroke-linejoin:round;stroke-opacity:1"
       inkscape:connector-curvature="0"
       id="path24"
       d="m 437.962,310.443 4.733,-8.808 4.733,-8.809 4.734,-8.809 4.733,-8.809 4.733,-8.809 4.733,-8.809 1.258,-2.34 -8.693,-4.944 -8.692,-4.944 -8.692,-4.944 -8.693,-4.944 -8.692,-4.944 -8.692,-4.944 -8.693,-4.944 -8.692,-4.944 -8.692,-4.944 -8.693,-4.944 -8.692,-4.944 -1.824,-1.038 -7.273,6.864 -7.273,6.863 -7.273,6.863 -7.273,6.863 -7.273,6.863 -7.273,6.864 -7.273,6.863 -7.273,6.863 -7.273,6.863 -7.273,6.863 -7.273,6.864 -2.839,2.679 9.776,2.105 9.776,2.106 9.775,2.105 9.776,2.106 9.776,2.105 9.776,2.105 9.776,2.106 9.776,2.105 9.775,2.106 9.776,2.105 9.776,2.106 9.776,2.105 9.776,2.106 9.776,2.105 9.775,2.106 3.988,0.858" />
  </g>
  <g
     inkscape:groupmode="layer"
     id="layer1"
     inkscape:label="details"
     style="display:inline">
    <path
       style="fill:none;fill-rule:evenodd;stroke:#d08b2b;stroke-width:3;stroke-linecap:butt;stroke-linejoin:miter;stroke-opacity:1;stroke-miterlimit:4;stroke-dasharray:none"
       d="m 154.30508,29.594216 11.98486,55.429981 98.8751,-8.988645 14.98108,54.680928 54.68093,26.96594"
       id="path4150"
       inkscape:connector-curvature="0" />
    <path
       style="fill:none;fill-rule:evenodd;stroke:#d08b2b;stroke-width:3;stroke-linecap:butt;stroke-linejoin:miter;stroke-opacity:1;stroke-miterlimit:4;stroke-dasharray:none"
       d="m 264.41599,75.286498 c 2.99622,-0.749054 41.19796,-4.494323 41.19796,-4.494323 l 18.72634,29.962155"
       id="path4152"
       inkscape:connector-curvature="0" />
    <path
       style="fill:none;fill-rule:evenodd;stroke:#d08b2b;stroke-width:3;stroke-linecap:butt;stroke-linejoin:miter;stroke-opacity:1;stroke-miterlimit:4;stroke-dasharray:none"
       d="m 167.039,83.52609 -48.6885,47.93944 47.19039,32.20932"
       id="path4154"
       inkscape:connector-curvature="0" />
    <path
       style="fill:none;fill-rule:evenodd;stroke:#d08b2b;stroke-width:3;stroke-linecap:butt;stroke-linejoin:miter;stroke-opacity:1;stroke-miterlimit:4;stroke-dasharray:none"
       d="m 117.60145,131.46553 -0.74906,34.45648 -13.48297,16.47918"
       id="path4156"
       inkscape:connector-curvature="0" />
    <path
       style="fill:none;fill-rule:evenodd;stroke:#d08b2b;stroke-width:3;stroke-linecap:butt;stroke-linejoin:miter;stroke-opacity:1;stroke-miterlimit:4;stroke-dasharray:none"
       d="m 419.47013,417.60408 -14.98108,-56.17903 -84.64308,20.9735 -17.22824,-35.20552"
       id="path4158"
       inkscape:connector-curvature="0" />
    <path
       style="fill:none;fill-rule:evenodd;stroke:#d08b2b;stroke-width:3;stroke-linecap:butt;stroke-linejoin:miter;stroke-opacity:1;stroke-miterlimit:4;stroke-dasharray:none"
       d="m 405.2381,362.92316 7.49054,-42.69607"
       id="path4160"
       inkscape:connector-curvature="0" />
    <path
       style="fill:none;fill-rule:evenodd;stroke:#d08b2b;stroke-width:3;stroke-linecap:butt;stroke-linejoin:miter;stroke-opacity:1;stroke-miterlimit:4;stroke-dasharray:none"
       d="m 471.90389,153.18809 -40.4489,11.98486 -25.46783,-18.72634"
       id="path4162"
       inkscape:connector-curvature="0" />
    <path
       style="fill:none;fill-rule:evenodd;stroke:#d08b2b;stroke-width:3;stroke-linecap:butt;stroke-linejoin:miter;stroke-opacity:1;stroke-miterlimit:4;stroke-dasharray:none"
       d="m 457.67187,156.93336 2.99621,31.46026"
       id="path4164"
       inkscape:connector-curvature="0" />
    <path
       style="fill:none;fill-rule:evenodd;stroke:#d08b2b;stroke-width:3;stroke-linecap:butt;stroke-linejoin:miter;stroke-opacity:1;stroke-miterlimit:4;stroke-dasharray:none"
       d="m 317.59881,225.09726 -29.2131,5.24337 -2.24716,46.44134 -30.71121,26.96594 -31.46026,-8.2396 -5.99243,32.20932"
       id="path4166"
       inkscape:connector-curvature="0" />
    <path
       style="fill:none;fill-rule:evenodd;stroke:#d08b2b;stroke-width:3;stroke-linecap:butt;stroke-linejoin:miter;stroke-opacity:1;stroke-miterlimit:4;stroke-dasharray:none"
       d="m 285.3895,276.03292 54.68092,-0.74906 16.47919,-17.97729 39.69985,8.23959"
       id="path4168"
       inkscape:connector-curvature="0" />
    <path
       style="fill:none;fill-rule:evenodd;stroke:#d08b2b;stroke-width:3;stroke-linecap:butt;stroke-linejoin:miter;stroke-opacity:1;stroke-miterlimit:4;stroke-dasharray:none"
       d="m 6.7414842,248.31792 35.9545818,53.93188 11.984861,34.45647 30.711206,9.7377"
       id="path4170"
       inkscape:connector-curvature="0" />
    <path
       style="fill:none;fill-rule:evenodd;stroke:#d08b2b;stroke-width:3;stroke-linecap:butt;stroke-linejoin:miter;stroke-opacity:1;stroke-miterlimit:4;stroke-dasharray:none"
       d="m 32.209313,288.01778 39.699851,9.7377"
       id="path4172"
       inkscape:connector-curvature="0" />
  </g>
  <g
     transform="translate(-3.4502953e-8,-4.4085331e-6)"
     inkscape:label="strokes"
     inkscape:groupmode="layer"
     id="strokes-4"
     sodipodi:insensitive="true">
    <path
       style="fill:none;stroke:#d08b2b;stroke-width:10;stroke-linecap:butt;stroke-linejoin:round;stroke-miterlimit:4;stroke-dasharray:none;stroke-opacity:1"
       inkscape:connector-curvature="0"
       id="path6-3"
       d="m 250,7.282 -9.808,1.95 -9.808,1.951 -9.808,1.951 -9.807,1.951 -9.808,1.951 -9.808,1.951 -9.808,1.951 -9.808,1.951 -9.808,1.951 -4.613,0.917 -8.315,5.556 -8.315,5.556 -8.314,5.555 -8.315,5.556 -8.315,5.556 -8.315,5.556 -8.314,5.555 -8.315,5.556 -8.315,5.556 -3.911,2.613 -5.556,8.315 -5.555,8.315 -5.556,8.314 -5.556,8.315 -5.555,8.315 -5.556,8.314 -5.556,8.315 -5.555,8.315 -5.556,8.314 -2.614,3.912 -1.951,9.808 -1.95,9.807 -1.951,9.808 -1.951,9.808 -1.951,9.808 -1.951,9.808 -1.951,9.808 -1.951,9.807 -1.951,9.808 -0.917,4.614 1.95,9.808 1.951,9.808 1.951,9.808 1.951,9.807 1.951,9.808 1.951,9.808 1.951,9.808 1.951,9.808 1.951,9.808 0.917,4.613 5.556,8.315 5.556,8.315 5.556,8.314 5.555,8.315 5.556,8.315 5.556,8.315 5.555,8.314 5.556,8.315 5.556,8.315 2.613,3.911 8.315,5.556 8.315,5.555 8.314,5.556 8.315,5.556 8.315,5.555 8.314,5.556 8.315,5.556 8.315,5.555 8.314,5.556 3.912,2.614 9.808,1.951 9.807,1.95 9.808,1.951 9.808,1.951 9.808,1.951 9.808,1.951 9.808,1.951 9.807,1.951 9.808,1.951 4.614,0.917 9.808,-1.95 9.808,-1.951 9.808,-1.951 9.807,-1.951 9.808,-1.951 9.808,-1.951 9.808,-1.951 9.808,-1.951 9.808,-1.951 4.613,-0.917 8.315,-5.556 8.315,-5.556 8.314,-5.555 8.315,-5.556 8.315,-5.556 8.314,-5.556 8.315,-5.555 8.315,-5.556 8.315,-5.556 3.911,-2.613 5.556,-8.315 5.555,-8.314 5.556,-8.315 5.556,-8.315 5.555,-8.315 5.556,-8.314 5.556,-8.315 5.555,-8.315 5.556,-8.314 2.614,-3.912 1.951,-9.807 1.95,-9.808 1.951,-9.808 1.951,-9.808 1.951,-9.808 1.951,-9.808 1.951,-9.808 1.951,-9.807 1.951,-9.808 0.917,-4.614 -1.95,-9.808 -1.951,-9.808 -1.951,-9.808 -1.951,-9.807 -1.951,-9.808 -1.951,-9.808 -1.951,-9.808 -1.951,-9.808 -1.951,-9.808 -0.917,-4.613 -5.556,-8.315 -5.556,-8.315 -5.556,-8.314 -5.555,-8.315 -5.556,-8.315 -5.556,-8.315 -5.555,-8.314 -5.556,-8.315 -5.556,-8.315 -2.613,-3.911 -8.315,-5.556 -8.315,-5.555 -8.314,-5.556 -8.315,-5.556 -8.315,-5.555 -8.314,-5.556 -8.315,-5.556 -8.315,-5.556 -8.314,-5.555 -3.912,-2.614 -9.808,-1.951 -9.807,-1.95 -9.808,-1.951 -9.808,-1.951 -9.808,-1.951 -9.808,-1.951 -9.808,-1.951 L 264.421,10.15 254.614,8.199 250,7.282 Z"
       sodipodi:nodetypes="cccccccccccccccccccccccccccccccccccccccccccccccccccccccccccccccccccccccccccccccccccccccccccccccccccccccccccccccccccccccccccccccccccccccccccccccccccccccccccccccccc" />
  </g>
</svg>
