<?xml version="1.0" encoding="UTF-8" standalone="no"?>
<svg
   xmlns:dc="http://purl.org/dc/elements/1.1/"
   xmlns:cc="http://creativecommons.org/ns#"
   xmlns:rdf="http://www.w3.org/1999/02/22-rdf-syntax-ns#"
   xmlns:svg="http://www.w3.org/2000/svg"
   xmlns="http://www.w3.org/2000/svg"
   xmlns:sodipodi="http://sodipodi.sourceforge.net/DTD/sodipodi-0.dtd"
   xmlns:inkscape="http://www.inkscape.org/namespaces/inkscape"
   height="500"
   version="1.1"
   width="500"
   id="svg2"
   inkscape:version="0.91 r13725"
   sodipodi:docname="asteroid_one.svg"
   inkscape:export-filename="E:\Projects\space_pirates\sandbox\animations\asteroid_one.png"
   inkscape:export-xdpi="90"
   inkscape:export-ydpi="90">
  <metadata
     id="metadata148">
    <rdf:RDF>
      <cc:Work
         rdf:about="">
        <dc:format>image/svg+xml</dc:format>
        <dc:type
           rdf:resource="http://purl.org/dc/dcmitype/StillImage" />
        <dc:title />
      </cc:Work>
    </rdf:RDF>
  </metadata>
  <defs
     id="defs146" />
  <sodipodi:namedview
     pagecolor="#000000"
     bordercolor="#666666"
     borderopacity="1"
     objecttolerance="10"
     gridtolerance="10"
     guidetolerance="10"
     inkscape:pageopacity="0"
     inkscape:pageshadow="2"
     inkscape:window-width="1920"
     inkscape:window-height="1017"
     id="namedview144"
     showgrid="false"
     inkscape:zoom="1.3350176"
     inkscape:cx="293.45595"
     inkscape:cy="367.23369"
     inkscape:window-x="-8"
     inkscape:window-y="-8"
     inkscape:window-maximized="1"
     inkscape:current-layer="strokes-4" />
  <g
     inkscape:label="faces"
     inkscape:groupmode="layer"
     id="strokes"
     style="display:inline"
     sodipodi:insensitive="true">
    <path
       style="fill:#eb9d30;fill-opacity:1;stroke:#d08b2b;stroke-width:3;stroke-linecap:butt;stroke-linejoin:round;stroke-opacity:1"
       inkscape:connector-curvature="0"
       id="path6"
       d="m 421.628,78.372 -7.863,6.179 -7.863,6.178 -7.863,6.179 -3.057,2.403 8.079,5.892 8.08,5.892 8.08,5.893 8.079,5.892 8.08,5.893 8.079,5.892 8.08,5.893 8.079,5.892 8.08,5.893 6.545,4.773 -5.556,-8.315 -5.556,-8.315 -5.556,-8.314 -5.555,-8.315 -5.556,-8.315 -5.556,-8.315 -5.555,-8.314 -5.556,-8.315 -5.556,-8.315 -2.613,-3.911" />
    <path
       style="fill:#fab33c;fill-opacity:1;stroke:#d08b2b;stroke-width:3;stroke-linecap:butt;stroke-linejoin:round;stroke-opacity:1"
       inkscape:connector-curvature="0"
       id="path8"
       d="m 492.718,250 -1.95,-9.808 -1.951,-9.808 -1.951,-9.808 -1.951,-9.807 -1.951,-9.808 -1.951,-9.808 -1.951,-9.808 -1.951,-9.808 -1.951,-9.808 -0.917,-4.613 -8.08,-5.893 -8.08,-5.892 -8.079,-5.893 -8.08,-5.892 -8.079,-5.893 -8.08,-5.892 -8.079,-5.892 -8.08,-5.893 -8.079,-5.892 -6.545,-4.773 2.983,9.544 2.984,9.545 2.983,9.544 2.983,9.545 2.984,9.545 2.983,9.544 2.983,9.545 2.984,9.544 2.983,9.545 2.984,9.545 2.983,9.544 2.983,9.545 2.984,9.545 1.752,5.607 9.388,3.447 9.387,3.446 9.387,3.447 9.387,3.447 9.388,3.446 9.387,3.447 0.876,0.322" />
    <path
       style="fill:#fab33c;fill-opacity:1;stroke:#d08b2b;stroke-width:3;stroke-linecap:butt;stroke-linejoin:round;stroke-opacity:1"
       inkscape:connector-curvature="0"
       id="path10"
       d="m 435.518,228.998 -7.19,6.949 -7.191,6.95 -7.191,6.949 -7.19,6.95 -7.191,6.949 -7.19,6.95 -7.191,6.949 -7.191,6.95 -7.19,6.949 -7.191,6.949 -7.191,6.95 -7.19,6.949 -7.191,6.95 -7.191,6.949 -7.19,6.95 -7.191,6.949 -7.19,6.95 -2.884,2.786 8.405,5.418 8.405,5.418 8.405,5.418 8.405,5.418 8.405,5.418 8.406,5.418 8.405,5.418 8.405,5.418 8.405,5.418 8.405,5.418 8.405,5.418 8.405,5.418 8.405,5.418 1.968,1.269 5.556,-8.315 5.555,-8.314 5.556,-8.315 5.556,-8.315 5.555,-8.315 5.556,-8.314 5.556,-8.315 5.555,-8.315 5.556,-8.314 2.614,-3.912 1.951,-9.807 1.95,-9.808 1.951,-9.808 1.951,-9.808 1.951,-9.808 1.951,-9.808 1.951,-9.808 1.951,-9.807 1.951,-9.808 0.917,-4.614 -9.387,-3.447 -9.387,-3.446 -9.387,-3.447 -9.388,-3.447 -9.387,-3.446 -9.387,-3.447 -0.877,-0.322" />
    <path
       style="fill:#fab33c;fill-opacity:1;stroke:#d08b2b;stroke-width:3;stroke-linecap:butt;stroke-linejoin:round;stroke-opacity:1"
       inkscape:connector-curvature="0"
       id="path12"
       d="m 296.671,404.015 -9.755,2.2 -9.755,2.199 -9.755,2.2 -9.755,2.2 -9.755,2.2 -9.755,2.199 -9.755,2.2 -9.755,2.2 -9.755,2.199 -9.755,2.2 -9.755,2.2 -9.755,2.199 -1.952,0.44 -4.279,9.038 -4.279,9.039 -4.279,9.038 -4.279,9.038 -3.427,7.239 9.808,1.951 9.807,1.95 9.808,1.951 9.808,1.951 9.808,1.951 9.808,1.951 9.808,1.951 9.807,1.951 9.808,1.951 4.614,0.917 9.808,-1.95 9.808,-1.951 9.808,-1.951 9.807,-1.951 9.808,-1.951 9.808,-1.951 9.808,-1.951 9.808,-1.951 9.808,-1.951 4.613,-0.917 -5.497,-8.354 -5.497,-8.354 -5.497,-8.353 -5.497,-8.354 -5.497,-8.353 -5.497,-8.354 -5.497,-8.354 -5.497,-8.353 -2.237,-3.399" />
    <path
       style="fill:#eb9d30;fill-opacity:1;stroke:#d08b2b;stroke-width:3;stroke-linecap:butt;stroke-linejoin:round;stroke-opacity:1"
       inkscape:connector-curvature="0"
       id="path14"
       d="m 147.463,404.973 -9.722,2.343 -9.721,2.344 -9.722,2.343 -9.722,2.344 -9.721,2.343 -9.722,2.344 -9.721,2.343 -1.04,0.251 8.315,5.556 8.315,5.555 8.314,5.556 8.315,5.556 8.315,5.555 8.314,5.556 8.315,5.556 8.315,5.555 8.314,5.556 3.912,2.614 4.279,-9.039 4.279,-9.038 4.279,-9.038 4.279,-9.038 3.427,-7.239 -7.593,-6.507 -7.593,-6.507 -7.593,-6.507 -7.417,-6.357" />
    <path
       style="fill:#fec951;fill-opacity:1;stroke:#d08b2b;stroke-width:3;stroke-linecap:butt;stroke-linejoin:round;stroke-opacity:1"
       inkscape:connector-curvature="0"
       id="path16"
       d="m 147.463,404.973 4.92,-8.706 4.921,-8.705 4.921,-8.706 4.92,-8.705 4.921,-8.706 4.921,-8.705 4.92,-8.706 4.575,-8.093 -6.397,-7.687 -6.396,-7.687 -6.396,-7.687 -6.396,-7.687 -6.396,-7.687 -6.396,-7.687 -6.396,-7.687 -6.396,-7.687 -6.396,-7.687 -6.396,-7.687 -6.396,-7.687 -6.396,-7.687 -6.396,-7.687 -6.396,-7.687 -1.698,-2.041 -5.119,8.59 -5.119,8.591 -5.119,8.59 -5.119,8.591 -5.119,8.59 -5.119,8.591 -5.119,8.59 -5.119,8.591 -5.119,8.59 -5.119,8.591 -5.118,8.59 -5.119,8.591 -5.119,8.59 -2.936,4.926 5.556,8.315 5.556,8.315 5.556,8.314 5.555,8.315 5.556,8.315 5.556,8.315 5.555,8.314 5.556,8.315 5.556,8.315 2.613,3.911 9.722,-2.344 9.721,-2.343 9.722,-2.344 9.721,-2.343 9.722,-2.343 9.721,-2.344 9.722,-2.343 1.04,-0.251" />
    <path
       style="fill:#feb840;fill-opacity:1;stroke:#d08b2b;stroke-width:3;stroke-linecap:butt;stroke-linejoin:round;stroke-opacity:1"
       inkscape:connector-curvature="0"
       id="path18"
       d="m 127.383,116.68 -7.879,-6.158 -7.879,-6.158 -7.878,-6.159 -7.879,-6.158 -7.879,-6.158 -7.879,-6.158 -1.738,-1.359 -5.556,8.315 -5.555,8.315 -5.556,8.314 -5.556,8.315 -5.555,8.315 -5.556,8.314 -5.556,8.315 -5.555,8.315 -5.556,8.314 -2.614,3.912 -1.951,9.808 -1.95,9.807 -1.951,9.808 -1.951,9.808 -1.951,9.808 -1.951,9.808 -1.951,9.808 -1.951,9.807 -1.951,9.808 -0.917,4.614 1.95,9.808 1.951,9.808 1.951,9.808 1.951,9.807 1.951,9.808 1.951,9.808 1.951,9.808 1.951,9.808 1.951,9.808 0.917,4.613 5.119,-8.59 5.119,-8.591 5.119,-8.59 5.119,-8.591 5.119,-8.59 5.119,-8.591 5.119,-8.59 5.119,-8.591 5.119,-8.59 5.119,-8.591 5.119,-8.59 5.118,-8.591 5.119,-8.59 2.936,-4.926 2.814,-9.596 2.814,-9.596 2.815,-9.595 2.814,-9.596 2.814,-9.596 2.814,-9.596 2.815,-9.596 2.814,-9.596 2.814,-9.595 2.815,-9.596 2.814,-9.596 1.187,-4.048" />
    <path
       style="fill:#fec850;fill-opacity:1;stroke:#d08b2b;stroke-width:3;stroke-linecap:butt;stroke-linejoin:round;stroke-opacity:1"
       inkscape:connector-curvature="0"
       id="path20"
       d="m 276.836,36.498 -9.96,-0.893 -9.96,-0.894 -9.96,-0.893 -9.96,-0.894 -9.96,-0.894 -9.96,-0.893 -9.96,-0.894 -9.96,-0.893 -9.96,-0.894 -9.96,-0.893 -9.96,-0.894 -10.16,-0.912 -8.315,5.556 -8.315,5.556 -8.314,5.555 -8.315,5.556 -8.315,5.556 -8.315,5.556 -8.314,5.555 -8.315,5.556 -8.315,5.556 -3.911,2.613 7.879,6.158 7.879,6.159 7.879,6.158 7.878,6.158 7.879,6.159 7.879,6.158 1.738,1.358 8.812,-4.727 8.812,-4.728 8.812,-4.728 8.812,-4.727 8.812,-4.728 8.811,-4.727 8.812,-4.728 8.812,-4.728 8.812,-4.727 8.812,-4.728 8.812,-4.727 8.812,-4.728 8.812,-4.728 8.812,-4.727 8.812,-4.728 8.812,-4.728 8.462,-4.54" />
    <path
       style="fill:#fab33c;fill-opacity:1;stroke:#d08b2b;stroke-width:3;stroke-linecap:butt;stroke-linejoin:round;stroke-opacity:1"
       inkscape:connector-curvature="0"
       id="path22"
       d="m 342.884,25.757 -9.808,-1.951 -9.807,-1.95 -9.808,-1.951 -9.808,-1.951 -9.808,-1.951 -9.808,-1.951 -9.808,-1.951 -9.808,-1.951 -9.807,-1.951 -4.614,-0.917 -9.808,1.95 -9.808,1.951 -9.808,1.951 -9.807,1.951 -9.808,1.951 -9.808,1.951 -9.808,1.951 -9.808,1.951 -9.808,1.951 -4.613,0.917 9.96,0.894 9.96,0.894 9.96,0.893 9.96,0.894 9.96,0.893 9.96,0.894 9.96,0.893 9.96,0.894 9.96,0.894 9.96,0.893 9.96,0.894 10.16,0.911 9.87,-1.605 9.871,-1.605 9.87,-1.605 9.87,-1.605 9.871,-1.605 9.87,-1.606 6.826,-1.11" />
    <path
       style="fill:#eb9d30;fill-opacity:1;stroke:#d08b2b;stroke-width:3;stroke-linecap:butt;stroke-linejoin:round;stroke-opacity:1"
       inkscape:connector-curvature="0"
       id="path24"
       d="m 296.671,404.015 5.497,8.354 5.497,8.353 5.498,8.354 5.497,8.354 5.497,8.353 5.497,8.354 5.497,8.353 5.497,8.354 2.236,3.399 8.315,-5.556 8.315,-5.556 8.314,-5.555 8.315,-5.556 8.315,-5.556 8.314,-5.556 8.315,-5.555 8.315,-5.556 8.315,-5.556 3.911,-2.613 -8.405,-5.418 -8.405,-5.418 -8.405,-5.418 -8.405,-5.418 -8.405,-5.418 -8.406,-5.418 -8.405,-5.418 -8.405,-5.418 -8.405,-5.418 -8.405,-5.418 -8.405,-5.418 -8.405,-5.418 -8.405,-5.418 -1.968,-1.269 -2.459,9.693 -2.459,9.693 -2.459,9.693 -2.459,9.693 -2.459,9.693 -1.428,5.625" />
    <path
       style="fill:#fec951;fill-opacity:1;stroke:#d08b2b;stroke-width:3;stroke-linecap:butt;stroke-linejoin:round;stroke-opacity:1"
       inkscape:connector-curvature="0"
       id="path26"
       d="m 296.671,404.015 2.46,-9.693 2.459,-9.693 2.459,-9.693 2.459,-9.693 2.459,-9.692 1.427,-5.626 -9.937,-1.121 -9.937,-1.122 -9.937,-1.121 -9.937,-1.121 -9.936,-1.122 -9.937,-1.121 -9.937,-1.122 -9.937,-1.121 -9.937,-1.121 -9.937,-1.122 -9.937,-1.121 -9.937,-1.122 -4.669,-0.527 -4.921,8.706 -4.921,8.706 -4.921,8.705 -4.92,8.706 -4.921,8.705 -4.921,8.706 -4.92,8.705 -4.574,8.093 7.593,6.507 7.593,6.507 7.593,6.508 7.417,6.356 9.756,-2.199 9.755,-2.2 9.755,-2.2 9.755,-2.199 9.755,-2.2 9.755,-2.2 9.755,-2.2 9.755,-2.199 9.755,-2.2 9.755,-2.2 9.755,-2.199 9.755,-2.2 1.951,-0.44" />
    <path
       style="fill:#fee389;fill-opacity:1;stroke:#d08b2b;stroke-width:3;stroke-linecap:butt;stroke-linejoin:round;stroke-opacity:1"
       inkscape:connector-curvature="0"
       id="path28"
       d="m 394.982,99.311 -8.83,-4.695 -8.829,-4.694 -8.83,-4.694 -8.83,-4.695 -8.83,-4.694 -8.829,-4.694 -8.83,-4.694 -8.83,-4.695 -8.829,-4.694 -8.83,-4.694 -8.83,-4.695 -8.829,-4.694 -8.83,-4.694 -3.36,-1.787 -8.812,4.728 -8.812,4.728 -8.812,4.727 -8.812,4.728 -8.812,4.727 -8.812,4.728 -8.811,4.728 -8.812,4.727 -8.812,4.728 -8.812,4.728 -8.812,4.727 -8.812,4.728 -8.812,4.727 -8.812,4.728 -8.812,4.728 -8.812,4.727 -8.462,4.54 -2.814,9.596 -2.815,9.596 -2.814,9.596 -2.814,9.596 -2.814,9.595 -2.815,9.596 -2.814,9.596 -2.814,9.596 -2.815,9.596 -2.814,9.595 -2.814,9.596 -1.187,4.048 6.396,7.687 6.396,7.687 6.396,7.687 6.396,7.687 6.396,7.687 6.396,7.687 6.396,7.687 6.396,7.687 6.396,7.687 6.396,7.687 6.396,7.687 6.396,7.687 6.396,7.687 6.396,7.688 1.699,2.04 9.936,1.122 9.937,1.121 9.937,1.122 9.937,1.121 9.937,1.121 9.937,1.122 9.937,1.121 9.937,1.122 9.937,1.121 9.937,1.121 9.937,1.122 9.937,1.121 4.669,0.527 7.191,-6.949 7.19,-6.95 7.191,-6.949 7.191,-6.95 7.19,-6.949 7.191,-6.949 7.191,-6.95 7.19,-6.949 7.191,-6.95 7.191,-6.949 7.19,-6.95 7.191,-6.949 7.19,-6.95 7.191,-6.949 7.191,-6.949 7.19,-6.95 7.191,-6.949 2.883,-2.787 -2.983,-9.545 -2.983,-9.544 -2.984,-9.545 -2.983,-9.544 -2.983,-9.545 -2.984,-9.545 -2.983,-9.544 -2.984,-9.545 -2.983,-9.545 -2.983,-9.544 -2.984,-9.545 -2.983,-9.544 -2.983,-9.545 -1.753,-5.607" />
    <path
       style="fill:#eb9d30;fill-opacity:1;stroke:#d08b2b;stroke-width:3;stroke-linecap:butt;stroke-linejoin:round;stroke-opacity:1"
       inkscape:connector-curvature="0"
       id="path30"
       d="m 394.982,99.311 7.863,-6.179 7.863,-6.179 7.862,-6.178 3.058,-2.403 -8.315,-5.556 -8.315,-5.555 -8.314,-5.556 -8.315,-5.556 -8.315,-5.555 -8.314,-5.556 -8.315,-5.556 -8.315,-5.556 -8.314,-5.555 -3.912,-2.614 -9.87,1.605 -9.87,1.606 -9.871,1.605 -9.87,1.605 -9.87,1.605 -9.871,1.605 -6.826,1.11 8.83,4.695 8.829,4.694 8.83,4.694 8.83,4.695 8.829,4.694 8.83,4.694 8.83,4.694 8.829,4.695 8.83,4.694 8.83,4.694 8.83,4.695 8.829,4.694 8.83,4.694 3.36,1.787" />
  </g>
  <g
     transform="translate(-3.4502953e-8,-4.4085331e-6)"
     inkscape:label="strokes"
     inkscape:groupmode="layer"
     id="strokes-4">
    <path
       style="fill:none;stroke:#d08b2b;stroke-width:10;stroke-linecap:butt;stroke-linejoin:round;stroke-miterlimit:4;stroke-dasharray:none;stroke-opacity:1"
       inkscape:connector-curvature="0"
       id="path6-0"
       d="m 250,7.282 -9.808,1.95 -9.808,1.951 -9.808,1.951 -9.807,1.951 -9.808,1.951 -9.808,1.951 -9.808,1.951 -9.808,1.951 -9.808,1.951 -4.613,0.917 -8.315,5.556 -8.315,5.556 -8.314,5.555 -8.315,5.556 -8.315,5.556 -8.315,5.556 -8.314,5.555 -8.315,5.556 -8.315,5.556 -3.911,2.613 -5.556,8.315 -5.555,8.315 -5.556,8.314 -5.556,8.315 -5.555,8.315 -5.556,8.314 -5.556,8.315 -5.555,8.315 -5.556,8.314 -2.614,3.912 -1.951,9.808 -1.95,9.807 -1.951,9.808 -1.951,9.808 -1.951,9.808 -1.951,9.808 -1.951,9.808 -1.951,9.807 -1.951,9.808 -0.917,4.614 1.95,9.808 1.951,9.808 1.951,9.808 1.951,9.807 1.951,9.808 1.951,9.808 1.951,9.808 1.951,9.808 1.951,9.808 0.917,4.613 5.556,8.315 5.556,8.315 5.556,8.314 5.555,8.315 5.556,8.315 5.556,8.315 5.555,8.314 5.556,8.315 5.556,8.315 2.613,3.911 8.315,5.556 8.315,5.555 8.314,5.556 8.315,5.556 8.315,5.555 8.314,5.556 8.315,5.556 8.315,5.555 8.314,5.556 3.912,2.614 9.808,1.951 9.807,1.95 9.808,1.951 9.808,1.951 9.808,1.951 9.808,1.951 9.808,1.951 9.807,1.951 9.808,1.951 4.614,0.917 9.808,-1.95 9.808,-1.951 9.808,-1.951 9.807,-1.951 9.808,-1.951 9.808,-1.951 9.808,-1.951 9.808,-1.951 9.808,-1.951 4.613,-0.917 8.315,-5.556 8.315,-5.556 8.314,-5.555 8.315,-5.556 8.315,-5.556 8.314,-5.556 8.315,-5.555 8.315,-5.556 8.315,-5.556 3.911,-2.613 5.556,-8.315 5.555,-8.314 5.556,-8.315 5.556,-8.315 5.555,-8.315 5.556,-8.314 5.556,-8.315 5.555,-8.315 5.556,-8.314 2.614,-3.912 1.951,-9.807 1.95,-9.808 1.951,-9.808 1.951,-9.808 1.951,-9.808 1.951,-9.808 1.951,-9.808 1.951,-9.807 1.951,-9.808 0.917,-4.614 -1.95,-9.808 -1.951,-9.808 -1.951,-9.808 -1.951,-9.807 -1.951,-9.808 -1.951,-9.808 -1.951,-9.808 -1.951,-9.808 -1.951,-9.808 -0.917,-4.613 -5.556,-8.315 -5.556,-8.315 -5.556,-8.314 -5.555,-8.315 -5.556,-8.315 -5.556,-8.315 -5.555,-8.314 -5.556,-8.315 -5.556,-8.315 -2.613,-3.911 -8.315,-5.556 -8.315,-5.555 -8.314,-5.556 -8.315,-5.556 -8.315,-5.555 -8.314,-5.556 -8.315,-5.556 -8.315,-5.556 -8.314,-5.555 -3.912,-2.614 -9.808,-1.951 -9.807,-1.95 -9.808,-1.951 -9.808,-1.951 -9.808,-1.951 -9.808,-1.951 -9.808,-1.951 L 264.421,10.15 254.614,8.199 250,7.282 Z"
       sodipodi:nodetypes="cccccccccccccccccccccccccccccccccccccccccccccccccccccccccccccccccccccccccccccccccccccccccccccccccccccccccccccccccccccccccccccccccccccccccccccccccccccccccccccccccc" />
  </g>
</svg>
