<?xml version="1.0" encoding="UTF-8" standalone="no"?>
<svg
   xmlns:dc="http://purl.org/dc/elements/1.1/"
   xmlns:cc="http://creativecommons.org/ns#"
   xmlns:rdf="http://www.w3.org/1999/02/22-rdf-syntax-ns#"
   xmlns:svg="http://www.w3.org/2000/svg"
   xmlns="http://www.w3.org/2000/svg"
   xmlns:sodipodi="http://sodipodi.sourceforge.net/DTD/sodipodi-0.dtd"
   xmlns:inkscape="http://www.inkscape.org/namespaces/inkscape"
   height="500"
   version="1.1"
   width="500"
   id="svg2"
   inkscape:version="0.91 r13725"
   sodipodi:docname="asteroid_three.svg">
  <metadata
     id="metadata34">
    <rdf:RDF>
      <cc:Work
         rdf:about="">
        <dc:format>image/svg+xml</dc:format>
        <dc:type
           rdf:resource="http://purl.org/dc/dcmitype/StillImage" />
        <dc:title />
      </cc:Work>
    </rdf:RDF>
  </metadata>
  <defs
     id="defs32" />
  <sodipodi:namedview
     pagecolor="#000000"
     bordercolor="#666666"
     borderopacity="1"
     objecttolerance="10"
     gridtolerance="10"
     guidetolerance="10"
     inkscape:pageopacity="0"
     inkscape:pageshadow="2"
     inkscape:window-width="1920"
     inkscape:window-height="1017"
     id="namedview30"
     showgrid="false"
     inkscape:zoom="7.552"
     inkscape:cx="208.11431"
     inkscape:cy="485.20445"
     inkscape:window-x="-8"
     inkscape:window-y="-8"
     inkscape:window-maximized="1"
     inkscape:current-layer="strokes-6" />
  <g
     inkscape:label="faces"
     inkscape:groupmode="layer"
     id="strokes"
     sodipodi:insensitive="true">
    <path
       style="fill:#fab33c;fill-opacity:1;stroke:#d08b2b;stroke-width:3;stroke-linecap:butt;stroke-linejoin:round;stroke-opacity:1"
       inkscape:connector-curvature="0"
       id="path24"
       d="m 240.277,85.679 1.231,-9.924 1.231,-9.924 1.23,-9.924 1.231,-9.924 1.231,-9.924 1.231,-9.924 1.231,-9.924 1.107,-8.929 -9.848,1.736 -9.848,1.737 -9.848,1.736 -9.848,1.736 -9.848,1.737 -9.848,1.736 -9.849,1.737 -9.848,1.736 -4.23,0.746 -8.66,5 -8.66,5 -8.66,5 -8.661,5 -8.66,5 -8.66,5 -8.66,5 -8.661,5 -3.719,2.148 -1.153,9.933 -1.153,9.934 -1.152,9.933 -1.153,9.933 -1.152,9.934 -1.153,9.933 -1.153,9.933 -1.208,10.418 9.363,-3.511 9.363,-3.512 9.364,-3.511 9.363,-3.511 9.363,-3.511 9.363,-3.512 9.364,-3.511 9.363,-3.511 9.363,-3.511 9.364,-3.512 9.363,-3.511 9.363,-3.511 9.363,-3.511 9.364,-3.511 9.363,-3.512 9.363,-3.511 5.758,-2.159" />
    <path
       style="fill:#fee389;fill-opacity:1;stroke:#d08b2b;stroke-width:3;stroke-linecap:butt;stroke-linejoin:round;stroke-opacity:1"
       inkscape:connector-curvature="0"
       id="path6"
       d="m 240.277,85.679 -9.363,3.511 -9.364,3.511 -9.363,3.512 -9.363,3.511 -9.364,3.511 -9.363,3.511 -9.363,3.512 -9.363,3.511 -9.364,3.511 -9.363,3.511 -9.363,3.512 -9.364,3.511 -9.363,3.511 -9.363,3.511 -9.363,3.512 -9.364,3.511 -5.757,2.159 -2.577,9.662 -2.577,9.662 -2.576,9.663 -2.577,9.662 -2.576,9.663 -2.577,9.662 -2.577,9.662 -2.576,9.663 -2.723,10.209 4.033,9.151 4.032,9.151 4.033,9.151 4.032,9.15 4.033,9.151 4.033,9.151 4.032,9.151 4.033,9.151 4.032,9.151 4.033,9.151 4.032,9.151 4.033,9.15 2.169,4.923 9.085,4.179 9.085,4.179 9.085,4.179 9.085,4.179 9.085,4.179 9.085,4.179 9.085,4.179 9.085,4.179 9.085,4.18 9.084,4.179 6.383,2.935 9.793,-2.02 9.794,-2.021 9.794,-2.021 9.793,-2.021 9.794,-2.021 9.794,-2.021 9.794,-2.021 9.793,-2.021 9.794,-2.021 9.793,-2.021 9.794,-2.021 9.794,-2.021 4.987,-1.029 1.903,-9.817 1.902,-9.818 1.902,-9.817 1.902,-9.817 1.902,-9.818 1.902,-9.817 1.902,-9.818 1.902,-9.817 1.903,-9.818 1.902,-9.817 1.902,-9.817 1.902,-9.818 1.902,-9.817 1.902,-9.818 1.902,-9.817 1.61,-8.309 -6.987,-7.154 -6.986,-7.155 -6.987,-7.154 -6.987,-7.155 -6.986,-7.154 -6.987,-7.154 -6.987,-7.155 -6.987,-7.154 -6.986,-7.155 -6.987,-7.154 -6.987,-7.154 -6.987,-7.155 -6.986,-7.154 -6.987,-7.155 -6.987,-7.154 -6.987,-7.154 -6.986,-7.155 -2.765,-2.831" />
    <path
       style="fill:#eb9d30;fill-opacity:1;stroke:#d08b2b;stroke-width:3;stroke-linecap:butt;stroke-linejoin:round;stroke-opacity:1"
       inkscape:connector-curvature="0"
       id="path8"
       d="m 433.767,132.35 3.269,9.451 3.268,9.451 3.269,9.45 3.268,9.451 3.268,9.451 3.269,9.451 3.268,9.451 3.269,9.45 3.268,9.451 3.269,9.451 3.268,9.451 3.268,9.45 3.269,9.451 3.268,9.451 3.269,9.451 3.268,9.451 2.969,8.585 0,-10 0,-10 0,-10 0,-10 0,-10 0,-10 0,-10 0,-10 0,-4.295 -3.42,-9.397 -3.42,-9.397 -3.421,-9.397 -3.42,-9.397 -3.42,-9.397 -3.42,-9.397 -3.42,-9.397 -3.421,-9.397 -1.469,-4.036 -6.427,-7.661 -6.428,-7.66 -6.428,-7.66 -6.428,-7.661 -6.428,-7.66 -6.428,-7.661 -6.428,-7.66 -6.428,-7.661 -2.76,-3.29 -8.661,-5 -8.66,-5 -8.66,-5 -8.66,-5 -8.661,-5 -8.66,-5 -8.66,-5 -8.66,-5 -3.72,-2.148 2.882,9.576 2.882,9.576 2.883,9.575 2.882,9.576 2.687,8.928 8.076,5.897 8.076,5.898 8.075,5.898 8.076,5.898 8.075,5.898 8.076,5.898 8.075,5.898 8.076,5.898 8.076,5.898 8.075,5.897 5.78,4.222" />
    <path
       style="fill:#fec951;fill-opacity:1;stroke:#d08b2b;stroke-width:3;stroke-linecap:butt;stroke-linejoin:round;stroke-opacity:1"
       inkscape:connector-curvature="0"
       id="path10"
       d="m 489.031,292.148 -3.268,-9.451 -3.269,-9.451 -3.268,-9.451 -3.269,-9.45 -3.268,-9.451 -3.268,-9.451 -3.269,-9.451 -3.268,-9.451 -3.269,-9.45 -3.268,-9.451 -3.269,-9.451 -3.268,-9.451 -3.268,-9.451 -3.269,-9.45 -3.268,-9.451 -3.269,-9.451 -2.969,-8.585 -6.79,7.341 -6.79,7.341 -6.791,7.341 -6.79,7.341 -6.791,7.341 -6.79,7.341 -6.791,7.341 -6.79,7.341 -6.79,7.341 -6.791,7.341 -4.047,4.375 -1.902,9.818 -1.902,9.817 -1.902,9.817 -1.902,9.818 -1.902,9.817 -1.903,9.818 -1.902,9.817 -1.902,9.818 -1.902,9.817 -1.902,9.817 -1.902,9.818 -1.902,9.817 -1.902,9.818 -1.903,9.817 -1.902,9.818 -1.61,8.308 9.673,2.537 9.673,2.538 9.673,2.537 9.673,2.537 9.672,2.537 9.673,2.537 1.275,0.334 7.4,-6.726 7.4,-6.726 7.4,-6.726 7.4,-6.726 7.4,-6.726 7.4,-6.726 7.4,-6.726 7.4,-6.726 7.4,-6.726 7.4,-6.726 7.4,-6.726 7.4,-6.726 7.4,-6.726 1.845,-1.676" />
    <path
       style="fill:#eb9d30;fill-opacity:1;stroke:#d08b2b;stroke-width:3;stroke-linecap:butt;stroke-linejoin:round;stroke-opacity:1"
       inkscape:connector-curvature="0"
       id="path12"
       d="m 406.016,435.933 6.428,-7.66 6.428,-7.661 6.428,-7.66 6.428,-7.661 6.428,-7.66 6.428,-7.66 6.428,-7.661 6.427,-7.66 2.761,-3.291 3.421,-9.397 3.42,-9.397 3.42,-9.396 3.42,-9.397 3.42,-9.397 3.421,-9.397 3.42,-9.397 3.42,-9.397 1.469,-4.036 -7.4,6.726 -7.4,6.726 -7.4,6.726 -7.4,6.726 -7.4,6.726 -7.4,6.726 -7.4,6.726 -7.4,6.726 -7.401,6.726 -7.4,6.726 -7.4,6.726 -7.4,6.726 -7.4,6.726 -1.844,1.676 2.651,9.643 2.65,9.642 2.651,9.642 2.651,9.642 2.651,9.642 1.776,6.46" />
    <path
       style="fill:#fab33c;fill-opacity:1;stroke:#d08b2b;stroke-width:3;stroke-linecap:butt;stroke-linejoin:round;stroke-opacity:1"
       inkscape:connector-curvature="0"
       id="path14"
       d="m 250,492.718 9.848,-1.736 9.848,-1.737 9.848,-1.736 9.848,-1.736 9.848,-1.737 9.848,-1.736 9.849,-1.737 9.848,-1.736 4.23,-0.746 8.66,-5 8.66,-5 8.66,-5 8.661,-5 8.66,-5 8.66,-5 8.66,-5 8.661,-5 3.719,-2.148 -2.651,-9.642 -2.651,-9.642 -2.651,-9.642 -2.65,-9.643 -2.651,-9.642 -1.776,-6.46 -9.673,-2.537 -9.673,-2.537 -9.673,-2.537 -9.673,-2.537 -9.672,-2.537 -9.673,-2.537 -1.275,-0.335 -5.408,8.411 -5.409,8.411 -5.409,8.412 -5.408,8.411 -5.409,8.411 -5.409,8.411 -5.408,8.411 -5.409,8.411 -5.409,8.411 -5.408,8.411 -5.409,8.411 -5.409,8.411 -5.408,8.411 -5.409,8.412 -5.953,9.257" />
    <path
       style="fill:#fec951;fill-opacity:1;stroke:#d08b2b;stroke-width:3;stroke-linecap:butt;stroke-linejoin:round;stroke-opacity:1"
       inkscape:connector-curvature="0"
       id="path16"
       d="m 209.163,390.985 -4.359,9.001 -4.358,9 -4.359,9 -4.358,9 -4.359,9 -4.358,9.001 -4.359,9 -4.358,9 -4.359,9 -2.951,6.094 9.848,1.736 9.849,1.737 9.848,1.736 9.848,1.737 9.848,1.736 9.848,1.737 9.848,1.736 9.848,1.737 4.23,0.745 5.409,-8.411 5.408,-8.411 5.409,-8.411 5.409,-8.411 5.408,-8.411 5.409,-8.411 5.409,-8.411 5.408,-8.411 5.409,-8.411 5.409,-8.411 5.408,-8.412 5.409,-8.411 5.409,-8.411 5.408,-8.411 5.953,-9.258 -9.793,2.021 -9.794,2.021 -9.794,2.021 -9.793,2.021 -9.794,2.021 -9.794,2.021 -9.793,2.021 -9.794,2.021 -9.794,2.021 -9.793,2.02 -9.794,2.021 -9.794,2.021 -4.987,1.029" />
    <path
       style="fill:#fee389;fill-opacity:1;stroke:#d08b2b;stroke-width:3;stroke-linecap:butt;stroke-linejoin:round;stroke-opacity:1"
       inkscape:connector-curvature="0"
       id="path18"
       d="m 111.931,346.259 -9.444,3.287 -9.445,3.286 -9.444,3.286 -9.445,3.287 -9.444,3.286 -9.445,3.287 -9.444,3.286 -6.02,2.095 6.428,7.661 6.427,7.66 6.428,7.661 6.428,7.66 6.428,7.66 6.428,7.661 6.428,7.66 6.428,7.661 2.761,3.29 8.66,5 8.66,5 8.66,5 8.661,5 8.66,5 8.66,5 8.66,5 8.661,5 3.719,2.148 4.359,-9 4.358,-9.001 4.359,-9 4.358,-9 4.359,-9 4.358,-9 4.359,-9.001 4.358,-9 4.359,-9 2.951,-6.094 -9.085,-4.179 -9.085,-4.179 -9.085,-4.179 -9.085,-4.179 -9.085,-4.179 -9.085,-4.179 -9.085,-4.179 -9.084,-4.179 -9.085,-4.179 -9.085,-4.179 -6.383,-2.936" />
    <path
       style="fill:#fab33c;fill-opacity:1;stroke:#d08b2b;stroke-width:3;stroke-linecap:butt;stroke-linejoin:round;stroke-opacity:1"
       inkscape:connector-curvature="0"
       id="path20"
       d="m 10.969,207.852 0,10 0,10 0,10 0,10 0,10 0,10 0,10 0,10 0,4.296 3.42,9.397 3.42,9.396 3.421,9.397 3.42,9.397 3.42,9.397 3.42,9.397 3.42,9.397 3.421,9.397 1.469,4.036 9.444,-3.286 9.445,-3.287 9.444,-3.286 9.445,-3.287 9.444,-3.286 9.445,-3.287 9.444,-3.286 6.02,-2.095 -4.032,-9.151 -4.033,-9.151 -4.032,-9.151 -4.033,-9.15 -4.033,-9.151 -4.032,-9.151 -4.033,-9.151 -4.032,-9.151 -4.033,-9.151 -4.032,-9.151 -4.033,-9.15 -4.033,-9.151 -2.169,-4.923 -9.051,-4.251 -9.052,-4.252 -9.051,-4.251 -9.051,-4.251 -9.051,-4.252 -5.146,-2.417" />
    <path
       style="fill:#eb9d30;fill-opacity:1;stroke:#d08b2b;stroke-width:3;stroke-linecap:butt;stroke-linejoin:round;stroke-opacity:1"
       inkscape:connector-curvature="0"
       id="path22"
       d="m 84.707,144.018 1.152,-9.934 1.153,-9.933 1.152,-9.933 1.153,-9.934 1.153,-9.933 1.152,-9.933 1.153,-9.934 1.209,-10.417 -6.428,7.66 -6.428,7.661 -6.428,7.66 -6.428,7.661 -6.428,7.66 -6.428,7.661 -6.428,7.66 -6.427,7.66 -2.761,3.291 -3.421,9.397 -3.42,9.397 -3.42,9.397 -3.42,9.396 -3.42,9.397 -3.421,9.397 -3.42,9.397 -3.42,9.397 -1.469,4.036 9.051,4.252 9.052,4.251 9.051,4.251 9.051,4.252 9.051,4.251 5.146,2.417 2.577,-9.662 2.576,-9.663 2.577,-9.662 2.577,-9.662 2.576,-9.663 2.577,-9.662 2.577,-9.662 2.576,-9.663 2.723,-10.209" />
    <path
       style="fill:#eb9d30;fill-opacity:1;stroke:#d08b2b;stroke-width:3;stroke-linecap:butt;stroke-linejoin:round;stroke-opacity:1"
       inkscape:connector-curvature="0"
       id="path26"
       d="m 333.015,21.919 -9.848,-1.736 -9.848,-1.737 -9.848,-1.736 -9.849,-1.737 -9.848,-1.736 L 273.926,11.5 264.078,9.764 254.23,8.027 250,7.282 l -1.231,9.924 -1.231,9.923 -1.23,9.924 -1.231,9.924 -1.231,9.924 -1.231,9.924 -1.231,9.924 -1.107,8.93 9.883,-1.527 9.882,-1.528 9.883,-1.527 9.883,-1.527 9.882,-1.528 9.883,-1.527 9.883,-1.527 9.882,-1.528 9.883,-1.527 9.883,-1.527 8.127,-1.256 -2.882,-9.576 -2.882,-9.576 -2.883,-9.575 -2.882,-9.576 -2.687,-8.928" />
    <path
       style="fill:#fab33c;fill-opacity:1;stroke:#d08b2b;stroke-width:3;stroke-linecap:butt;stroke-linejoin:round;stroke-opacity:1"
       inkscape:connector-curvature="0"
       id="path28"
       d="m 347.231,69.15 -9.882,1.527 -9.883,1.527 -9.883,1.528 -9.882,1.527 -9.883,1.527 -9.883,1.528 -9.882,1.527 -9.883,1.527 -9.883,1.528 -9.882,1.527 -8.128,1.256 6.987,7.154 6.986,7.155 6.987,7.154 6.987,7.155 6.987,7.154 6.986,7.154 6.987,7.155 6.987,7.154 6.987,7.155 6.986,7.154 6.987,7.154 6.987,7.155 6.986,7.154 6.987,7.155 6.987,7.154 6.987,7.155 6.986,7.154 2.765,2.831 6.791,-7.341 6.79,-7.341 6.79,-7.341 6.791,-7.341 6.79,-7.341 6.791,-7.341 6.79,-7.341 6.791,-7.341 6.79,-7.341 6.79,-7.341 4.047,-4.375 -8.075,-5.898 -8.076,-5.898 -8.075,-5.898 -8.076,-5.898 -8.076,-5.897 -8.075,-5.898 -8.076,-5.898 -8.075,-5.898 -8.076,-5.898 -8.075,-5.898 -5.781,-4.221" />
  </g>
  <g
     transform="translate(0,3.1489192e-6)"
     inkscape:label="strokes"
     inkscape:groupmode="layer"
     id="strokes-6">
    <path
       style="fill:none;stroke:#d08b2b;stroke-width:10;stroke-linecap:butt;stroke-linejoin:round;stroke-miterlimit:4;stroke-dasharray:none;stroke-opacity:1"
       inkscape:connector-curvature="0"
       id="path6-5"
       d="m 250,7.282 -9.848,1.736 -9.848,1.737 -9.848,1.736 -9.848,1.736 -9.848,1.737 -9.848,1.736 -9.849,1.737 -9.848,1.736 -4.23,0.746 -8.66,5 -8.66,5 -8.66,5 -8.661,5 -8.66,5 -8.66,5 -8.66,5 -8.661,5 -3.719,2.148 -6.428,7.66 -6.428,7.661 -6.428,7.66 -6.428,7.661 -6.428,7.66 -6.428,7.661 -6.428,7.66 -6.427,7.66 -2.761,3.291 -3.421,9.397 -3.42,9.397 -3.42,9.397 -3.42,9.396 -3.42,9.397 -3.421,9.397 -3.42,9.397 -3.42,9.397 -1.469,4.036 0,10 0,10 0,10 0,10 0,10 0,10 0,10 0,10 0,4.296 3.42,9.397 3.42,9.396 3.421,9.397 3.42,9.397 3.42,9.397 3.42,9.397 3.42,9.397 3.421,9.397 1.469,4.036 6.428,7.661 6.427,7.66 6.428,7.661 6.428,7.66 6.428,7.66 6.428,7.661 6.428,7.66 6.428,7.661 2.761,3.29 8.66,5 8.66,5 8.66,5 8.661,5 8.66,5 8.66,5 8.66,5 8.661,5 3.719,2.148 9.848,1.736 9.849,1.737 9.848,1.736 9.848,1.737 9.848,1.736 9.848,1.737 9.848,1.736 9.848,1.737 4.23,0.745 9.848,-1.736 9.848,-1.737 9.848,-1.736 9.848,-1.736 9.848,-1.737 9.848,-1.736 9.849,-1.737 9.848,-1.736 4.23,-0.746 8.66,-5 8.66,-5 8.66,-5 8.661,-5 8.66,-5 8.66,-5 8.66,-5 8.661,-5 3.719,-2.148 6.428,-7.66 6.428,-7.661 6.428,-7.66 6.428,-7.661 6.428,-7.66 6.428,-7.66 6.428,-7.661 6.427,-7.66 2.761,-3.291 3.421,-9.397 3.42,-9.397 3.42,-9.396 3.42,-9.397 3.42,-9.397 3.421,-9.397 3.42,-9.397 3.42,-9.397 1.469,-4.036 0,-10 0,-10 0,-10 0,-10 0,-10 0,-10 0,-10 0,-10 0,-4.295 -3.42,-9.397 -3.42,-9.397 -3.421,-9.397 -3.42,-9.397 -3.42,-9.397 -3.42,-9.397 -3.42,-9.397 -3.421,-9.397 -1.469,-4.036 -6.427,-7.661 -6.428,-7.66 -6.428,-7.66 -6.428,-7.661 -6.428,-7.66 -6.428,-7.661 -6.428,-7.66 -6.428,-7.661 -2.76,-3.29 -8.661,-5 -8.66,-5 -8.66,-5 -8.66,-5 -8.661,-5 -8.66,-5 -8.66,-5 -8.66,-5 -3.72,-2.148 -9.848,-1.736 -9.848,-1.737 -9.848,-1.736 -9.849,-1.737 -9.848,-1.736 L 273.926,11.5 264.078,9.764 254.23,8.027 250,7.282 Z"
       sodipodi:nodetypes="cccccccccccccccccccccccccccccccccccccccccccccccccccccccccccccccccccccccccccccccccccccccccccccccccccccccccccccccccccccccccccccccccccccccccccccccccccccccccccccccccccc" />
  </g>
</svg>
