<?xml version="1.0" encoding="UTF-8" standalone="no"?>
<svg
   xmlns:dc="http://purl.org/dc/elements/1.1/"
   xmlns:cc="http://creativecommons.org/ns#"
   xmlns:rdf="http://www.w3.org/1999/02/22-rdf-syntax-ns#"
   xmlns:svg="http://www.w3.org/2000/svg"
   xmlns="http://www.w3.org/2000/svg"
   xmlns:sodipodi="http://sodipodi.sourceforge.net/DTD/sodipodi-0.dtd"
   xmlns:inkscape="http://www.inkscape.org/namespaces/inkscape"
   height="500"
   version="1.1"
   width="500"
   id="svg2"
   inkscape:version="0.91 r13725"
   sodipodi:docname="asteroid_three_dmg_two.svg">
  <metadata
     id="metadata34">
    <rdf:RDF>
      <cc:Work
         rdf:about="">
        <dc:format>image/svg+xml</dc:format>
        <dc:type
           rdf:resource="http://purl.org/dc/dcmitype/StillImage" />
        <dc:title></dc:title>
      </cc:Work>
    </rdf:RDF>
  </metadata>
  <defs
     id="defs32" />
  <sodipodi:namedview
     pagecolor="#000000"
     bordercolor="#666666"
     borderopacity="1"
     objecttolerance="10"
     gridtolerance="10"
     guidetolerance="10"
     inkscape:pageopacity="0"
     inkscape:pageshadow="2"
     inkscape:window-width="1920"
     inkscape:window-height="1017"
     id="namedview30"
     showgrid="false"
     inkscape:zoom="0.70710678"
     inkscape:cx="-86.632354"
     inkscape:cy="273.14727"
     inkscape:window-x="-8"
     inkscape:window-y="-8"
     inkscape:window-maximized="1"
     inkscape:current-layer="layer1" />
  <g
     inkscape:label="faces"
     inkscape:groupmode="layer"
     id="strokes"
     sodipodi:insensitive="true">
    <path
       style="fill:#fab33c;fill-opacity:1;stroke:#d08b2b;stroke-width:3;stroke-linecap:butt;stroke-linejoin:round;stroke-opacity:1"
       inkscape:connector-curvature="0"
       id="path24"
       d="m 240.277,85.679 1.231,-9.924 1.231,-9.924 1.23,-9.924 1.231,-9.924 1.231,-9.924 1.231,-9.924 1.231,-9.924 1.107,-8.929 -9.848,1.736 -9.848,1.737 -9.848,1.736 -9.848,1.736 -9.848,1.737 -9.848,1.736 -9.849,1.737 -9.848,1.736 -4.23,0.746 -8.66,5 -8.66,5 -8.66,5 -8.661,5 -8.66,5 -8.66,5 -8.66,5 -8.661,5 -3.719,2.148 -1.153,9.933 -1.153,9.934 -1.152,9.933 -1.153,9.933 -1.152,9.934 -1.153,9.933 -1.153,9.933 -1.208,10.418 9.363,-3.511 9.363,-3.512 9.364,-3.511 9.363,-3.511 9.363,-3.511 9.363,-3.512 9.364,-3.511 9.363,-3.511 9.363,-3.511 9.364,-3.512 9.363,-3.511 9.363,-3.511 9.363,-3.511 9.364,-3.511 9.363,-3.512 9.363,-3.511 5.758,-2.159" />
    <path
       style="fill:#fee389;fill-opacity:1;stroke:#d08b2b;stroke-width:3;stroke-linecap:butt;stroke-linejoin:round;stroke-opacity:1"
       inkscape:connector-curvature="0"
       id="path6"
       d="m 240.277,85.679 -9.363,3.511 -9.364,3.511 -9.363,3.512 -9.363,3.511 -9.364,3.511 -9.363,3.511 -9.363,3.512 -9.363,3.511 -9.364,3.511 -9.363,3.511 -9.363,3.512 -9.364,3.511 -9.363,3.511 -9.363,3.511 -9.363,3.512 -9.364,3.511 -5.757,2.159 -2.577,9.662 -2.577,9.662 -2.576,9.663 -2.577,9.662 -2.576,9.663 -2.577,9.662 -2.577,9.662 -2.576,9.663 -2.723,10.209 4.033,9.151 4.032,9.151 4.033,9.151 4.032,9.15 4.033,9.151 4.033,9.151 4.032,9.151 4.033,9.151 4.032,9.151 4.033,9.151 4.032,9.151 4.033,9.15 2.169,4.923 9.085,4.179 9.085,4.179 9.085,4.179 9.085,4.179 9.085,4.179 9.085,4.179 9.085,4.179 9.085,4.179 9.085,4.18 9.084,4.179 6.383,2.935 9.793,-2.02 9.794,-2.021 9.794,-2.021 9.793,-2.021 9.794,-2.021 9.794,-2.021 9.794,-2.021 9.793,-2.021 9.794,-2.021 9.793,-2.021 9.794,-2.021 9.794,-2.021 4.987,-1.029 1.903,-9.817 1.902,-9.818 1.902,-9.817 1.902,-9.817 1.902,-9.818 1.902,-9.817 1.902,-9.818 1.902,-9.817 1.903,-9.818 1.902,-9.817 1.902,-9.817 1.902,-9.818 1.902,-9.817 1.902,-9.818 1.902,-9.817 1.61,-8.309 -6.987,-7.154 -6.986,-7.155 -6.987,-7.154 -6.987,-7.155 -6.986,-7.154 -6.987,-7.154 -6.987,-7.155 -6.987,-7.154 -6.986,-7.155 -6.987,-7.154 -6.987,-7.154 -6.987,-7.155 -6.986,-7.154 -6.987,-7.155 -6.987,-7.154 -6.987,-7.154 -6.986,-7.155 -2.765,-2.831" />
    <path
       style="fill:#eb9d30;fill-opacity:1;stroke:#d08b2b;stroke-width:3;stroke-linecap:butt;stroke-linejoin:round;stroke-opacity:1"
       inkscape:connector-curvature="0"
       id="path8"
       d="m 433.767,132.35 3.269,9.451 3.268,9.451 3.269,9.45 3.268,9.451 3.268,9.451 3.269,9.451 3.268,9.451 3.269,9.45 3.268,9.451 3.269,9.451 3.268,9.451 3.268,9.45 3.269,9.451 3.268,9.451 3.269,9.451 3.268,9.451 2.969,8.585 0,-10 0,-10 0,-10 0,-10 0,-10 0,-10 0,-10 0,-10 0,-4.295 -3.42,-9.397 -3.42,-9.397 -3.421,-9.397 -3.42,-9.397 -3.42,-9.397 -3.42,-9.397 -3.42,-9.397 -3.421,-9.397 -1.469,-4.036 -6.427,-7.661 -6.428,-7.66 -6.428,-7.66 -6.428,-7.661 -6.428,-7.66 -6.428,-7.661 -6.428,-7.66 -6.428,-7.661 -2.76,-3.29 -8.661,-5 -8.66,-5 -8.66,-5 -8.66,-5 -8.661,-5 -8.66,-5 -8.66,-5 -8.66,-5 -3.72,-2.148 2.882,9.576 2.882,9.576 2.883,9.575 2.882,9.576 2.687,8.928 8.076,5.897 8.076,5.898 8.075,5.898 8.076,5.898 8.075,5.898 8.076,5.898 8.075,5.898 8.076,5.898 8.076,5.898 8.075,5.897 5.78,4.222" />
    <path
       style="fill:#fec951;fill-opacity:1;stroke:#d08b2b;stroke-width:3;stroke-linecap:butt;stroke-linejoin:round;stroke-opacity:1"
       inkscape:connector-curvature="0"
       id="path10"
       d="m 489.031,292.148 -3.268,-9.451 -3.269,-9.451 -3.268,-9.451 -3.269,-9.45 -3.268,-9.451 -3.268,-9.451 -3.269,-9.451 -3.268,-9.451 -3.269,-9.45 -3.268,-9.451 -3.269,-9.451 -3.268,-9.451 -3.268,-9.451 -3.269,-9.45 -3.268,-9.451 -3.269,-9.451 -2.969,-8.585 -6.79,7.341 -6.79,7.341 -6.791,7.341 -6.79,7.341 -6.791,7.341 -6.79,7.341 -6.791,7.341 -6.79,7.341 -6.79,7.341 -6.791,7.341 -4.047,4.375 -1.902,9.818 -1.902,9.817 -1.902,9.817 -1.902,9.818 -1.902,9.817 -1.903,9.818 -1.902,9.817 -1.902,9.818 -1.902,9.817 -1.902,9.817 -1.902,9.818 -1.902,9.817 -1.902,9.818 -1.903,9.817 -1.902,9.818 -1.61,8.308 9.673,2.537 9.673,2.538 9.673,2.537 9.673,2.537 9.672,2.537 9.673,2.537 1.275,0.334 7.4,-6.726 7.4,-6.726 7.4,-6.726 7.4,-6.726 7.4,-6.726 7.4,-6.726 7.4,-6.726 7.4,-6.726 7.4,-6.726 7.4,-6.726 7.4,-6.726 7.4,-6.726 7.4,-6.726 1.845,-1.676" />
    <path
       style="fill:#eb9d30;fill-opacity:1;stroke:#d08b2b;stroke-width:3;stroke-linecap:butt;stroke-linejoin:round;stroke-opacity:1"
       inkscape:connector-curvature="0"
       id="path12"
       d="m 406.016,435.933 6.428,-7.66 6.428,-7.661 6.428,-7.66 6.428,-7.661 6.428,-7.66 6.428,-7.66 6.428,-7.661 6.427,-7.66 2.761,-3.291 3.421,-9.397 3.42,-9.397 3.42,-9.396 3.42,-9.397 3.42,-9.397 3.421,-9.397 3.42,-9.397 3.42,-9.397 1.469,-4.036 -7.4,6.726 -7.4,6.726 -7.4,6.726 -7.4,6.726 -7.4,6.726 -7.4,6.726 -7.4,6.726 -7.4,6.726 -7.401,6.726 -7.4,6.726 -7.4,6.726 -7.4,6.726 -7.4,6.726 -1.844,1.676 2.651,9.643 2.65,9.642 2.651,9.642 2.651,9.642 2.651,9.642 1.776,6.46" />
    <path
       style="fill:#fab33c;fill-opacity:1;stroke:#d08b2b;stroke-width:3;stroke-linecap:butt;stroke-linejoin:round;stroke-opacity:1"
       inkscape:connector-curvature="0"
       id="path14"
       d="m 250,492.718 9.848,-1.736 9.848,-1.737 9.848,-1.736 9.848,-1.736 9.848,-1.737 9.848,-1.736 9.849,-1.737 9.848,-1.736 4.23,-0.746 8.66,-5 8.66,-5 8.66,-5 8.661,-5 8.66,-5 8.66,-5 8.66,-5 8.661,-5 3.719,-2.148 -2.651,-9.642 -2.651,-9.642 -2.651,-9.642 -2.65,-9.643 -2.651,-9.642 -1.776,-6.46 -9.673,-2.537 -9.673,-2.537 -9.673,-2.537 -9.673,-2.537 -9.672,-2.537 -9.673,-2.537 -1.275,-0.335 -5.408,8.411 -5.409,8.411 -5.409,8.412 -5.408,8.411 -5.409,8.411 -5.409,8.411 -5.408,8.411 -5.409,8.411 -5.409,8.411 -5.408,8.411 -5.409,8.411 -5.409,8.411 -5.408,8.411 -5.409,8.412 -5.953,9.257" />
    <path
       style="fill:#fec951;fill-opacity:1;stroke:#d08b2b;stroke-width:3;stroke-linecap:butt;stroke-linejoin:round;stroke-opacity:1"
       inkscape:connector-curvature="0"
       id="path16"
       d="m 209.163,390.985 -4.359,9.001 -4.358,9 -4.359,9 -4.358,9 -4.359,9 -4.358,9.001 -4.359,9 -4.358,9 -4.359,9 -2.951,6.094 9.848,1.736 9.849,1.737 9.848,1.736 9.848,1.737 9.848,1.736 9.848,1.737 9.848,1.736 9.848,1.737 4.23,0.745 5.409,-8.411 5.408,-8.411 5.409,-8.411 5.409,-8.411 5.408,-8.411 5.409,-8.411 5.409,-8.411 5.408,-8.411 5.409,-8.411 5.409,-8.411 5.408,-8.412 5.409,-8.411 5.409,-8.411 5.408,-8.411 5.953,-9.258 -9.793,2.021 -9.794,2.021 -9.794,2.021 -9.793,2.021 -9.794,2.021 -9.794,2.021 -9.793,2.021 -9.794,2.021 -9.794,2.021 -9.793,2.02 -9.794,2.021 -9.794,2.021 -4.987,1.029" />
    <path
       style="fill:#fee389;fill-opacity:1;stroke:#d08b2b;stroke-width:3;stroke-linecap:butt;stroke-linejoin:round;stroke-opacity:1"
       inkscape:connector-curvature="0"
       id="path18"
       d="m 111.931,346.259 -9.444,3.287 -9.445,3.286 -9.444,3.286 -9.445,3.287 -9.444,3.286 -9.445,3.287 -9.444,3.286 -6.02,2.095 6.428,7.661 6.427,7.66 6.428,7.661 6.428,7.66 6.428,7.66 6.428,7.661 6.428,7.66 6.428,7.661 2.761,3.29 8.66,5 8.66,5 8.66,5 8.661,5 8.66,5 8.66,5 8.66,5 8.661,5 3.719,2.148 4.359,-9 4.358,-9.001 4.359,-9 4.358,-9 4.359,-9 4.358,-9 4.359,-9.001 4.358,-9 4.359,-9 2.951,-6.094 -9.085,-4.179 -9.085,-4.179 -9.085,-4.179 -9.085,-4.179 -9.085,-4.179 -9.085,-4.179 -9.085,-4.179 -9.084,-4.179 -9.085,-4.179 -9.085,-4.179 -6.383,-2.936" />
    <path
       style="fill:#fab33c;fill-opacity:1;stroke:#d08b2b;stroke-width:3;stroke-linecap:butt;stroke-linejoin:round;stroke-opacity:1"
       inkscape:connector-curvature="0"
       id="path20"
       d="m 10.969,207.852 0,10 0,10 0,10 0,10 0,10 0,10 0,10 0,10 0,4.296 3.42,9.397 3.42,9.396 3.421,9.397 3.42,9.397 3.42,9.397 3.42,9.397 3.42,9.397 3.421,9.397 1.469,4.036 9.444,-3.286 9.445,-3.287 9.444,-3.286 9.445,-3.287 9.444,-3.286 9.445,-3.287 9.444,-3.286 6.02,-2.095 -4.032,-9.151 -4.033,-9.151 -4.032,-9.151 -4.033,-9.15 -4.033,-9.151 -4.032,-9.151 -4.033,-9.151 -4.032,-9.151 -4.033,-9.151 -4.032,-9.151 -4.033,-9.15 -4.033,-9.151 -2.169,-4.923 -9.051,-4.251 -9.052,-4.252 -9.051,-4.251 -9.051,-4.251 -9.051,-4.252 -5.146,-2.417" />
    <path
       style="fill:#eb9d30;fill-opacity:1;stroke:#d08b2b;stroke-width:3;stroke-linecap:butt;stroke-linejoin:round;stroke-opacity:1"
       inkscape:connector-curvature="0"
       id="path22"
       d="m 84.707,144.018 1.152,-9.934 1.153,-9.933 1.152,-9.933 1.153,-9.934 1.153,-9.933 1.152,-9.933 1.153,-9.934 1.209,-10.417 -6.428,7.66 -6.428,7.661 -6.428,7.66 -6.428,7.661 -6.428,7.66 -6.428,7.661 -6.428,7.66 -6.427,7.66 -2.761,3.291 -3.421,9.397 -3.42,9.397 -3.42,9.397 -3.42,9.396 -3.42,9.397 -3.421,9.397 -3.42,9.397 -3.42,9.397 -1.469,4.036 9.051,4.252 9.052,4.251 9.051,4.251 9.051,4.252 9.051,4.251 5.146,2.417 2.577,-9.662 2.576,-9.663 2.577,-9.662 2.577,-9.662 2.576,-9.663 2.577,-9.662 2.577,-9.662 2.576,-9.663 2.723,-10.209" />
    <path
       style="fill:#eb9d30;fill-opacity:1;stroke:#d08b2b;stroke-width:3;stroke-linecap:butt;stroke-linejoin:round;stroke-opacity:1"
       inkscape:connector-curvature="0"
       id="path26"
       d="m 333.015,21.919 -9.848,-1.736 -9.848,-1.737 -9.848,-1.736 -9.849,-1.737 -9.848,-1.736 L 273.926,11.5 264.078,9.764 254.23,8.027 250,7.282 l -1.231,9.924 -1.231,9.923 -1.23,9.924 -1.231,9.924 -1.231,9.924 -1.231,9.924 -1.231,9.924 -1.107,8.93 9.883,-1.527 9.882,-1.528 9.883,-1.527 9.883,-1.527 9.882,-1.528 9.883,-1.527 9.883,-1.527 9.882,-1.528 9.883,-1.527 9.883,-1.527 8.127,-1.256 -2.882,-9.576 -2.882,-9.576 -2.883,-9.575 -2.882,-9.576 -2.687,-8.928" />
    <path
       style="fill:#fab33c;fill-opacity:1;stroke:#d08b2b;stroke-width:3;stroke-linecap:butt;stroke-linejoin:round;stroke-opacity:1"
       inkscape:connector-curvature="0"
       id="path28"
       d="m 347.231,69.15 -9.882,1.527 -9.883,1.527 -9.883,1.528 -9.882,1.527 -9.883,1.527 -9.883,1.528 -9.882,1.527 -9.883,1.527 -9.883,1.528 -9.882,1.527 -8.128,1.256 6.987,7.154 6.986,7.155 6.987,7.154 6.987,7.155 6.987,7.154 6.986,7.154 6.987,7.155 6.987,7.154 6.987,7.155 6.986,7.154 6.987,7.154 6.987,7.155 6.986,7.154 6.987,7.155 6.987,7.154 6.987,7.155 6.986,7.154 2.765,2.831 6.791,-7.341 6.79,-7.341 6.79,-7.341 6.791,-7.341 6.79,-7.341 6.791,-7.341 6.79,-7.341 6.791,-7.341 6.79,-7.341 6.79,-7.341 4.047,-4.375 -8.075,-5.898 -8.076,-5.898 -8.075,-5.898 -8.076,-5.898 -8.076,-5.897 -8.075,-5.898 -8.076,-5.898 -8.075,-5.898 -8.076,-5.898 -8.075,-5.898 -5.781,-4.221" />
  </g>
  <g
     inkscape:groupmode="layer"
     id="layer1"
     inkscape:label="details">
    <path
       style="fill:none;fill-rule:evenodd;stroke:#d08b2b;stroke-width:3;stroke-linecap:butt;stroke-linejoin:miter;stroke-opacity:1;stroke-miterlimit:4;stroke-dasharray:none"
       d="m 62.920519,231.08969 43.445121,59.17525 56.92809,11.2358 14.98107,35.95459 63.66958,17.97729 65.16767,-26.96594"
       id="path4148"
       inkscape:connector-curvature="0" />
    <path
       style="fill:none;fill-rule:evenodd;stroke:#d08b2b;stroke-width:3;stroke-linecap:butt;stroke-linejoin:miter;stroke-opacity:1;stroke-miterlimit:4;stroke-dasharray:none"
       d="m 80.148756,255.05941 50.186604,11.23581 41.19796,-18.72635 33.70742,31.46026"
       id="path4150"
       inkscape:connector-curvature="0" />
    <path
       style="fill:none;fill-rule:evenodd;stroke:#d08b2b;stroke-width:3;stroke-linecap:butt;stroke-linejoin:miter;stroke-opacity:1;stroke-miterlimit:4;stroke-dasharray:none"
       d="m 172.28237,246.07076 22.47162,-49.43755"
       id="path4152"
       inkscape:connector-curvature="0" />
    <path
       style="fill:none;fill-rule:evenodd;stroke:#d08b2b;stroke-width:3;stroke-linecap:butt;stroke-linejoin:miter;stroke-opacity:1;stroke-miterlimit:4;stroke-dasharray:none"
       d="M 386.51176,150.94093 379.02122,103.00149 346.06285,69.294069"
       id="path4154"
       inkscape:connector-curvature="0"
       sodipodi:nodetypes="ccc" />
    <path
       style="fill:none;fill-rule:evenodd;stroke:#d08b2b;stroke-width:3;stroke-linecap:butt;stroke-linejoin:miter;stroke-opacity:1;stroke-miterlimit:4;stroke-dasharray:none"
       d="M 346.06285,67.795962 293.62909,62.552585 256.1764,76.035553"
       id="path4156"
       inkscape:connector-curvature="0" />
    <path
       style="fill:none;fill-rule:evenodd;stroke:#d08b2b;stroke-width:3;stroke-linecap:butt;stroke-linejoin:miter;stroke-opacity:1;stroke-miterlimit:4;stroke-dasharray:none"
       d="M 294.00361,61.803531 271.90653,38.95739 265.9141,48.69509"
       id="path4158"
       inkscape:connector-curvature="0" />
    <path
       style="fill:none;fill-rule:evenodd;stroke:#d08b2b;stroke-width:3;stroke-linecap:butt;stroke-linejoin:miter;stroke-opacity:1;stroke-miterlimit:4;stroke-dasharray:none"
       d="m 463.6643,314.23466 -54.68093,13.48297 -20.22445,-34.45648"
       id="path4160"
       inkscape:connector-curvature="0" />
    <path
       style="fill:none;fill-rule:evenodd;stroke:#d08b2b;stroke-width:3;stroke-linecap:butt;stroke-linejoin:miter;stroke-opacity:1;stroke-miterlimit:4;stroke-dasharray:none"
       d="m 408.23432,325.47047 -20.97351,24.71877 -26.21688,-3.74527"
       id="path4162"
       inkscape:connector-curvature="0" />
    <path
       style="fill:none;fill-rule:evenodd;stroke:#d08b2b;stroke-width:3;stroke-linecap:butt;stroke-linejoin:miter;stroke-opacity:1;stroke-miterlimit:4;stroke-dasharray:none"
       d="m 168.5371,474.9067 40.07438,-35.95458 25.84236,8.61411"
       id="path4164"
       inkscape:connector-curvature="0" />
    <path
       style="fill:none;fill-rule:evenodd;stroke:#d08b2b;stroke-width:3;stroke-linecap:butt;stroke-linejoin:miter;stroke-opacity:1;stroke-miterlimit:4;stroke-dasharray:none"
       d="m 208.61148,438.57759 -2.24716,-23.5952 34.831,-20.9735"
       id="path4166"
       inkscape:connector-curvature="0" />
    <path
       style="fill:none;fill-rule:evenodd;stroke:#d08b2b;stroke-width:3;stroke-linecap:butt;stroke-linejoin:miter;stroke-opacity:1;stroke-miterlimit:4;stroke-dasharray:none"
       d="m 147.24576,55.084746 18.00848,-29.661017 6.35593,26.483051 26.48305,11.122881"
       id="path4168"
       inkscape:connector-curvature="0" />
    <path
       style="fill:none;fill-rule:evenodd;stroke:#d08b2b;stroke-width:3;stroke-linecap:butt;stroke-linejoin:miter;stroke-opacity:1;stroke-miterlimit:4;stroke-dasharray:none"
       d="m 40.254237,123.94068 2.118644,47.66949 11.652543,26.48305"
       id="path4170"
       inkscape:connector-curvature="0" />
    <path
       style="fill:none;fill-rule:evenodd;stroke:#d08b2b;stroke-width:3;stroke-linecap:butt;stroke-linejoin:miter;stroke-opacity:1;stroke-miterlimit:4;stroke-dasharray:none"
       d="m 242.3189,355.80714 14.23202,15.35561 29.96216,-18.72635"
       id="path4174"
       inkscape:connector-curvature="0" />
    <path
       style="fill:none;fill-rule:evenodd;stroke:#d08b2b;stroke-width:3;stroke-linecap:butt;stroke-linejoin:miter;stroke-opacity:1;stroke-miterlimit:4;stroke-dasharray:none"
       d="M 270.78295,343.07323 294.75267,267.4188"
       id="path4176"
       inkscape:connector-curvature="0" />
    <path
       style="fill:none;fill-rule:evenodd;stroke:#d08b2b;stroke-width:3;stroke-linecap:butt;stroke-linejoin:miter;stroke-opacity:1;stroke-miterlimit:4;stroke-dasharray:none"
       d="M 282.39328,302.2498 248.68586,273.0367"
       id="path4178"
       inkscape:connector-curvature="0" />
    <path
       style="fill:none;fill-rule:evenodd;stroke:#d08b2b;stroke-width:3;stroke-linecap:butt;stroke-linejoin:miter;stroke-opacity:1;stroke-miterlimit:4;stroke-dasharray:none"
       d="m 164.04278,302.99885 65.16768,5.99243"
       id="path4180"
       inkscape:connector-curvature="0" />
    <path
       style="fill:none;fill-rule:evenodd;stroke:#d08b2b;stroke-width:3;stroke-linecap:butt;stroke-linejoin:miter;stroke-opacity:1;stroke-miterlimit:4;stroke-dasharray:none"
       d="m 199.62284,306.36959 14.60654,25.46783"
       id="path4182"
       inkscape:connector-curvature="0" />
    <path
       style="fill:none;fill-rule:evenodd;stroke:#d08b2b;stroke-width:3;stroke-linecap:butt;stroke-linejoin:miter;stroke-opacity:1;stroke-miterlimit:4;stroke-dasharray:none"
       d="m 179.02386,128.46932 -12.35939,25.46783 26.96594,43.07059 40.4489,-12.35939 32.95837,34.45648"
       id="path4186"
       inkscape:connector-curvature="0" />
    <path
       style="fill:none;fill-rule:evenodd;stroke:#d08b2b;stroke-width:3;stroke-linecap:butt;stroke-linejoin:miter;stroke-opacity:1;stroke-miterlimit:4;stroke-dasharray:none"
       d="M 106.46186,370.76271 83.686441,396.7161 c 0,0 11.122881,33.36865 11.652542,35.48729 l 32.309317,-10.59322 15.88984,13.24152"
       id="path4188"
       inkscape:connector-curvature="0" />
    <path
       style="fill:none;fill-rule:evenodd;stroke:#d08b2b;stroke-width:3;stroke-linecap:butt;stroke-linejoin:miter;stroke-opacity:1;stroke-miterlimit:4;stroke-dasharray:none"
       d="m 232.52119,447.0339 3.17796,20.12712 30.19068,-13.77119"
       id="path4190"
       inkscape:connector-curvature="0" />
    <path
       style="fill:none;fill-rule:evenodd;stroke:#d08b2b;stroke-width:3;stroke-linecap:butt;stroke-linejoin:miter;stroke-opacity:1;stroke-miterlimit:4;stroke-dasharray:none"
       d="m 234.63983,466.63136 14.30085,14.8305"
       id="path4192"
       inkscape:connector-curvature="0" />
    <path
       style="fill:none;fill-rule:evenodd;stroke:#d08b2b;stroke-width:3;stroke-linecap:butt;stroke-linejoin:miter;stroke-opacity:1;stroke-miterlimit:4;stroke-dasharray:none"
       d="m 234.11017,446.50424 21.18644,-33.89831"
       id="path4194"
       inkscape:connector-curvature="0" />
    <path
       style="fill:none;fill-rule:evenodd;stroke:#d08b2b;stroke-width:3;stroke-linecap:butt;stroke-linejoin:miter;stroke-opacity:1;stroke-miterlimit:4;stroke-dasharray:none"
       d="m 42.372881,170.55085 -14.830508,27.01271 11.122881,20.12712"
       id="path4196"
       inkscape:connector-curvature="0" />
    <path
       style="fill:none;fill-rule:evenodd;stroke:#d08b2b;stroke-width:3;stroke-linecap:butt;stroke-linejoin:miter;stroke-opacity:1;stroke-miterlimit:4;stroke-dasharray:none"
       d="m 107.52119,98.51695 7.94491,-31.25 32.83898,-14.300848 10.59322,23.305085 -22.24576,6.885593"
       id="path4198"
       inkscape:connector-curvature="0" />
    <path
       style="fill:none;fill-rule:evenodd;stroke:#d08b2b;stroke-width:3;stroke-linecap:butt;stroke-linejoin:miter;stroke-opacity:1;stroke-miterlimit:4;stroke-dasharray:none"
       d="m 190.1483,84.216102 7.41526,-21.186441 12.71186,18.538136 15.36017,-2.118644"
       id="path4200"
       inkscape:connector-curvature="0" />
    <path
       style="fill:none;fill-rule:evenodd;stroke:#d08b2b;stroke-width:3;stroke-linecap:butt;stroke-linejoin:miter;stroke-opacity:1;stroke-miterlimit:4;stroke-dasharray:none"
       d="M 265.88983,47.139831 256.35593,25.95339"
       id="path4202"
       inkscape:connector-curvature="0" />
    <path
       style="fill:none;fill-rule:evenodd;stroke:#d08b2b;stroke-width:3;stroke-linecap:butt;stroke-linejoin:miter;stroke-opacity:1;stroke-miterlimit:4;stroke-dasharray:none"
       d="M 270.65678,38.135594 283.8983,27.012712"
       id="path4204"
       inkscape:connector-curvature="0" />
    <path
       style="fill:none;fill-rule:evenodd;stroke:#d08b2b;stroke-width:3;stroke-linecap:butt;stroke-linejoin:miter;stroke-opacity:1;stroke-miterlimit:4;stroke-dasharray:none"
       d="M 257.94491,74.682204 250,52.436441"
       id="path4208"
       inkscape:connector-curvature="0" />
    <path
       style="fill:none;fill-rule:evenodd;stroke:#d08b2b;stroke-width:3;stroke-linecap:butt;stroke-linejoin:miter;stroke-opacity:1;stroke-miterlimit:4;stroke-dasharray:none"
       d="m 378.70763,103.81356 36.54661,23.83475"
       id="path4210"
       inkscape:connector-curvature="0" />
    <path
       style="fill:none;fill-rule:evenodd;stroke:#d08b2b;stroke-width:3;stroke-linecap:butt;stroke-linejoin:miter;stroke-opacity:1;stroke-miterlimit:4;stroke-dasharray:none"
       d="M 385.59322,148.83475 363.34746,184.8517"
       id="path4212"
       inkscape:connector-curvature="0" />
    <path
       style="fill:none;fill-rule:evenodd;stroke:#d08b2b;stroke-width:3;stroke-linecap:butt;stroke-linejoin:miter;stroke-opacity:1;stroke-miterlimit:4;stroke-dasharray:none"
       d="m 380.29661,115.4661 -15.36017,26.48305 -20.12712,-9.00423"
       id="path4214"
       inkscape:connector-curvature="0" />
    <path
       style="fill:none;fill-rule:evenodd;stroke:#d08b2b;stroke-width:3;stroke-linecap:butt;stroke-linejoin:miter;stroke-opacity:1;stroke-miterlimit:4;stroke-dasharray:none"
       d="m 377.6483,161.01695 5.82628,17.47881"
       id="path4216"
       inkscape:connector-curvature="0" />
    <path
       style="fill:none;fill-rule:evenodd;stroke:#d08b2b;stroke-width:3;stroke-linecap:butt;stroke-linejoin:miter;stroke-opacity:1;stroke-miterlimit:4;stroke-dasharray:none"
       d="m 455.05018,314.60919 -14.60655,-14.23203 16.47918,-24.71877"
       id="path4218"
       inkscape:connector-curvature="0" />
    <path
       style="fill:none;fill-rule:evenodd;stroke:#d08b2b;stroke-width:3;stroke-linecap:butt;stroke-linejoin:miter;stroke-opacity:1;stroke-miterlimit:4;stroke-dasharray:none"
       d="M 440.44363,299.25358 427.70972,276.40744"
       id="path4220"
       inkscape:connector-curvature="0" />
    <path
       style="fill:none;fill-rule:evenodd;stroke:#d08b2b;stroke-width:3;stroke-linecap:butt;stroke-linejoin:miter;stroke-opacity:1;stroke-miterlimit:4;stroke-dasharray:none"
       d="m 389.50797,294.75926 14.60655,-20.22445 -8.61412,-20.59898"
       id="path4222"
       inkscape:connector-curvature="0" />
    <path
       style="fill:none;fill-rule:evenodd;stroke:#d08b2b;stroke-width:3;stroke-linecap:butt;stroke-linejoin:miter;stroke-opacity:1;stroke-miterlimit:4;stroke-dasharray:none"
       d="m 389.8825,293.63568 c 0,0 -20.59898,-28.08952 -20.59898,-26.59141 0,1.49811 -12.73391,2.99622 -12.73391,2.99622"
       id="path4224"
       inkscape:connector-curvature="0" />
    <path
       style="fill:none;fill-rule:evenodd;stroke:#d08b2b;stroke-width:3;stroke-linecap:butt;stroke-linejoin:miter;stroke-opacity:1;stroke-miterlimit:4;stroke-dasharray:none"
       d="m 388.38439,295.50831 -33.33289,5.24338"
       id="path4226"
       inkscape:connector-curvature="0" />
    <path
       style="fill:none;fill-rule:evenodd;stroke:#d08b2b;stroke-width:3;stroke-linecap:butt;stroke-linejoin:miter;stroke-opacity:1;stroke-miterlimit:4;stroke-dasharray:none"
       d="m 54.025424,350.63559 14.830508,-9.53389 41.313558,3.17796 -42.37288,-30.72034"
       id="path4228"
       inkscape:connector-curvature="0" />
    <path
       style="fill:none;fill-rule:evenodd;stroke:#d08b2b;stroke-width:3;stroke-linecap:butt;stroke-linejoin:miter;stroke-opacity:1;stroke-miterlimit:4;stroke-dasharray:none"
       d="m 330.92597,366.71037 -3.88908,44.19418 11.31371,13.43502 -14.14214,16.97057"
       id="path4230"
       inkscape:connector-curvature="0" />
    <path
       style="fill:none;fill-rule:evenodd;stroke:#d08b2b;stroke-width:3;stroke-linecap:butt;stroke-linejoin:miter;stroke-opacity:1;stroke-miterlimit:4;stroke-dasharray:none"
       d="m 337.99704,424.69313 17.67767,10.25305"
       id="path4232"
       inkscape:connector-curvature="0" />
    <path
       style="fill:none;fill-rule:evenodd;stroke:#d08b2b;stroke-width:3;stroke-linecap:butt;stroke-linejoin:miter;stroke-opacity:1;stroke-miterlimit:4;stroke-dasharray:none"
       d="M 326.68333,411.61165 312.5412,425.04668"
       id="path4234"
       inkscape:connector-curvature="0" />
    <path
       style="fill:none;fill-rule:evenodd;stroke:#d08b2b;stroke-width:3;stroke-linecap:butt;stroke-linejoin:miter;stroke-opacity:1;stroke-miterlimit:4;stroke-dasharray:none"
       d="m 338.70415,424.33957 c 0,0 10.96015,-22.62741 11.31371,-20.15254 0.35355,2.47487 15.55635,18.73833 15.55635,18.73833 l 17.32411,-10.96015"
       id="path4236"
       inkscape:connector-curvature="0" />
  </g>
  <g
     transform="translate(0,3.1489192e-6)"
     inkscape:label="strokes"
     inkscape:groupmode="layer"
     id="strokes-6"
     sodipodi:insensitive="true">
    <path
       style="fill:none;stroke:#d08b2b;stroke-width:10;stroke-linecap:butt;stroke-linejoin:round;stroke-miterlimit:4;stroke-dasharray:none;stroke-opacity:1"
       inkscape:connector-curvature="0"
       id="path6-5"
       d="m 250,7.282 -9.848,1.736 -9.848,1.737 -9.848,1.736 -9.848,1.736 -9.848,1.737 -9.848,1.736 -9.849,1.737 -9.848,1.736 -4.23,0.746 -8.66,5 -8.66,5 -8.66,5 -8.661,5 -8.66,5 -8.66,5 -8.66,5 -8.661,5 -3.719,2.148 -6.428,7.66 -6.428,7.661 -6.428,7.66 -6.428,7.661 -6.428,7.66 -6.428,7.661 -6.428,7.66 -6.427,7.66 -2.761,3.291 -3.421,9.397 -3.42,9.397 -3.42,9.397 -3.42,9.396 -3.42,9.397 -3.421,9.397 -3.42,9.397 -3.42,9.397 -1.469,4.036 0,10 0,10 0,10 0,10 0,10 0,10 0,10 0,10 0,4.296 3.42,9.397 3.42,9.396 3.421,9.397 3.42,9.397 3.42,9.397 3.42,9.397 3.42,9.397 3.421,9.397 1.469,4.036 6.428,7.661 6.427,7.66 6.428,7.661 6.428,7.66 6.428,7.66 6.428,7.661 6.428,7.66 6.428,7.661 2.761,3.29 8.66,5 8.66,5 8.66,5 8.661,5 8.66,5 8.66,5 8.66,5 8.661,5 3.719,2.148 9.848,1.736 9.849,1.737 9.848,1.736 9.848,1.737 9.848,1.736 9.848,1.737 9.848,1.736 9.848,1.737 4.23,0.745 9.848,-1.736 9.848,-1.737 9.848,-1.736 9.848,-1.736 9.848,-1.737 9.848,-1.736 9.849,-1.737 9.848,-1.736 4.23,-0.746 8.66,-5 8.66,-5 8.66,-5 8.661,-5 8.66,-5 8.66,-5 8.66,-5 8.661,-5 3.719,-2.148 6.428,-7.66 6.428,-7.661 6.428,-7.66 6.428,-7.661 6.428,-7.66 6.428,-7.66 6.428,-7.661 6.427,-7.66 2.761,-3.291 3.421,-9.397 3.42,-9.397 3.42,-9.396 3.42,-9.397 3.42,-9.397 3.421,-9.397 3.42,-9.397 3.42,-9.397 1.469,-4.036 0,-10 0,-10 0,-10 0,-10 0,-10 0,-10 0,-10 0,-10 0,-4.295 -3.42,-9.397 -3.42,-9.397 -3.421,-9.397 -3.42,-9.397 -3.42,-9.397 -3.42,-9.397 -3.42,-9.397 -3.421,-9.397 -1.469,-4.036 -6.427,-7.661 -6.428,-7.66 -6.428,-7.66 -6.428,-7.661 -6.428,-7.66 -6.428,-7.661 -6.428,-7.66 -6.428,-7.661 -2.76,-3.29 -8.661,-5 -8.66,-5 -8.66,-5 -8.66,-5 -8.661,-5 -8.66,-5 -8.66,-5 -8.66,-5 -3.72,-2.148 -9.848,-1.736 -9.848,-1.737 -9.848,-1.736 -9.849,-1.737 -9.848,-1.736 L 273.926,11.5 264.078,9.764 254.23,8.027 250,7.282 Z"
       sodipodi:nodetypes="cccccccccccccccccccccccccccccccccccccccccccccccccccccccccccccccccccccccccccccccccccccccccccccccccccccccccccccccccccccccccccccccccccccccccccccccccccccccccccccccccccc" />
  </g>
</svg>
