<?xml version="1.0" encoding="UTF-8" standalone="no"?>
<!-- Created with Inkscape (http://www.inkscape.org/) -->

<svg
   xmlns:dc="http://purl.org/dc/elements/1.1/"
   xmlns:cc="http://creativecommons.org/ns#"
   xmlns:rdf="http://www.w3.org/1999/02/22-rdf-syntax-ns#"
   xmlns:svg="http://www.w3.org/2000/svg"
   xmlns="http://www.w3.org/2000/svg"
   xmlns:xlink="http://www.w3.org/1999/xlink"
   xmlns:sodipodi="http://sodipodi.sourceforge.net/DTD/sodipodi-0.dtd"
   xmlns:inkscape="http://www.inkscape.org/namespaces/inkscape"
   width="500"
   height="500"
   viewBox="0 0 500.00001 500.00001"
   id="svg4156"
   version="1.1"
   inkscape:version="0.91 r13725"
   sodipodi:docname="planet_one.svg">
  <defs
     id="defs4158">
    <linearGradient
       inkscape:collect="always"
       id="linearGradient6175">
      <stop
         style="stop-color:#130080;stop-opacity:1"
         offset="0"
         id="stop6177" />
      <stop
         style="stop-color:#00428a;stop-opacity:0.25735295"
         offset="1"
         id="stop6179" />
    </linearGradient>
    <linearGradient
       inkscape:collect="always"
       id="linearGradient6155">
      <stop
         style="stop-color:#89cbff;stop-opacity:0.7764706"
         offset="0"
         id="stop6157" />
      <stop
         style="stop-color:#004df2;stop-opacity:0.2647059"
         offset="1"
         id="stop6159" />
    </linearGradient>
    <radialGradient
       inkscape:collect="always"
       xlink:href="#linearGradient6155"
       id="radialGradient6161"
       cx="147.83054"
       cy="709.62976"
       fx="147.83054"
       fy="709.62976"
       r="239.031"
       gradientTransform="matrix(0.87600944,0.68268919,-0.75304546,0.96628882,567.73971,-108.55319)"
       gradientUnits="userSpaceOnUse" />
    <radialGradient
       inkscape:collect="always"
       xlink:href="#linearGradient6175"
       id="radialGradient6181"
       cx="223.13098"
       cy="264.10068"
       fx="223.13098"
       fy="264.10068"
       r="138.86472"
       gradientTransform="matrix(1.6089415,-9.1775242e-8,8.751395e-8,1.5342354,-110.84132,-178.03324)"
       gradientUnits="userSpaceOnUse" />
    <radialGradient
       inkscape:collect="always"
       xlink:href="#linearGradient6175"
       id="radialGradient6185"
       gradientUnits="userSpaceOnUse"
       gradientTransform="matrix(1.6089415,-9.1775242e-8,8.751395e-8,1.5342354,-195.12703,39.109617)"
       cx="251.77756"
       cy="213.71809"
       fx="251.77756"
       fy="213.71809"
       r="138.86472" />
    <radialGradient
       inkscape:collect="always"
       xlink:href="#linearGradient6175"
       id="radialGradient6189"
       gradientUnits="userSpaceOnUse"
       gradientTransform="matrix(1.6089415,-9.1775242e-8,8.751395e-8,1.5342354,-193.69846,-60.033237)"
       cx="237.33731"
       cy="177.50566"
       fx="237.33731"
       fy="177.50566"
       r="138.86472" />
    <radialGradient
       inkscape:collect="always"
       xlink:href="#linearGradient6175"
       id="radialGradient6193"
       gradientUnits="userSpaceOnUse"
       gradientTransform="matrix(-0.14551095,-1.602348,1.5279481,-0.13875461,-276.1072,479.19674)"
       cx="237.33731"
       cy="177.50566"
       fx="237.33731"
       fy="177.50566"
       r="138.86472" />
    <radialGradient
       inkscape:collect="always"
       xlink:href="#linearGradient6175"
       id="radialGradient6197"
       gradientUnits="userSpaceOnUse"
       gradientTransform="matrix(-0.39733984,1.5591068,-1.4867144,-0.37889064,467.33273,2.5665511)"
       cx="174.71916"
       cy="137.05038"
       fx="174.71916"
       fy="137.05038"
       r="138.86472" />
    <radialGradient
       inkscape:collect="always"
       xlink:href="#linearGradient6175"
       id="radialGradient6201"
       gradientUnits="userSpaceOnUse"
       gradientTransform="matrix(-0.39733984,1.5591068,-1.4867144,-0.37889064,448.93987,-18.147735)"
       cx="187.69685"
       cy="125.20538"
       fx="187.69685"
       fy="125.20538"
       r="138.86472" />
    <radialGradient
       inkscape:collect="always"
       xlink:href="#linearGradient6175"
       id="radialGradient6205"
       gradientUnits="userSpaceOnUse"
       gradientTransform="matrix(1.6089415,-9.1775242e-8,8.751395e-8,1.5342354,132.01583,43.538192)"
       cx="221.09579"
       cy="268.80313"
       fx="221.09579"
       fy="268.80313"
       r="138.86472" />
    <radialGradient
       inkscape:collect="always"
       xlink:href="#linearGradient6175"
       id="radialGradient6209"
       gradientUnits="userSpaceOnUse"
       gradientTransform="matrix(2.0424751,-1.1656313e-7,1.1109482e-7,1.9486223,-29.950894,-90.321123)"
       cx="229.00896"
       cy="284.87332"
       fx="229.00896"
       fy="284.87332"
       r="138.86472" />
    <filter
       inkscape:collect="always"
       style="color-interpolation-filters:sRGB"
       id="filter9690"
       x="-0.040019173"
       width="1.0800383"
       y="-0.038313288"
       height="1.0766266">
      <feGaussianBlur
         inkscape:collect="always"
         stdDeviation="3.3486906"
         id="feGaussianBlur9692" />
    </filter>
    <filter
       inkscape:collect="always"
       style="color-interpolation-filters:sRGB"
       id="filter9694"
       x="-0.049160933"
       width="1.0983219"
       y="-0.048459785"
       height="1.0969196">
      <feGaussianBlur
         inkscape:collect="always"
         stdDeviation="3.3486906"
         id="feGaussianBlur9696" />
    </filter>
    <filter
       inkscape:collect="always"
       style="color-interpolation-filters:sRGB"
       id="filter9698"
       x="-0.14468681"
       width="1.2893736"
       y="-0.14519483"
       height="1.2903897">
      <feGaussianBlur
         inkscape:collect="always"
         stdDeviation="3.3486906"
         id="feGaussianBlur9700" />
    </filter>
    <filter
       inkscape:collect="always"
       style="color-interpolation-filters:sRGB"
       id="filter9702"
       x="-0.40946215"
       width="1.8189243"
       y="-0.1914186"
       height="1.3828372">
      <feGaussianBlur
         inkscape:collect="always"
         stdDeviation="3.3486906"
         id="feGaussianBlur9704" />
    </filter>
    <filter
       inkscape:collect="always"
       style="color-interpolation-filters:sRGB"
       id="filter9706"
       x="-0.3402043"
       width="1.6804086"
       y="-0.26161819"
       height="1.5232364">
      <feGaussianBlur
         inkscape:collect="always"
         stdDeviation="3.3486906"
         id="feGaussianBlur9708" />
    </filter>
    <filter
       inkscape:collect="always"
       style="color-interpolation-filters:sRGB"
       id="filter9710"
       x="-0.59505396"
       width="2.1901079"
       y="-0.6334454"
       height="2.2668908">
      <feGaussianBlur
         inkscape:collect="always"
         stdDeviation="3.3486906"
         id="feGaussianBlur9712" />
    </filter>
    <filter
       inkscape:collect="always"
       style="color-interpolation-filters:sRGB"
       id="filter9714"
       x="-0.15762087"
       width="1.3152417"
       y="-0.110867"
       height="1.221734">
      <feGaussianBlur
         inkscape:collect="always"
         stdDeviation="3.3486906"
         id="feGaussianBlur9716" />
    </filter>
    <filter
       inkscape:collect="always"
       style="color-interpolation-filters:sRGB"
       id="filter9718"
       x="-0.07132346"
       width="1.1426469"
       y="-0.10125749"
       height="1.202515">
      <feGaussianBlur
         inkscape:collect="always"
         stdDeviation="3.3486906"
         id="feGaussianBlur9720" />
    </filter>
  </defs>
  <sodipodi:namedview
     id="base"
     pagecolor="#000000"
     bordercolor="#666666"
     borderopacity="1.0"
     inkscape:pageopacity="0"
     inkscape:pageshadow="2"
     inkscape:zoom="0.7"
     inkscape:cx="-66.160834"
     inkscape:cy="231.50557"
     inkscape:document-units="px"
     inkscape:current-layer="layer4"
     showgrid="false"
     units="px"
     inkscape:window-width="1920"
     inkscape:window-height="1017"
     inkscape:window-x="-8"
     inkscape:window-y="-8"
     inkscape:window-maximized="1" />
  <metadata
     id="metadata4161">
    <rdf:RDF>
      <cc:Work
         rdf:about="">
        <dc:format>image/svg+xml</dc:format>
        <dc:type
           rdf:resource="http://purl.org/dc/dcmitype/StillImage" />
        <dc:title />
      </cc:Work>
    </rdf:RDF>
  </metadata>
  <g
     inkscape:groupmode="layer"
     id="layer4"
     inkscape:label="fill_base"
     sodipodi:insensitive="true">
    <path
       style="display:inline;fill:#007dc9;fill-opacity:1;stroke:none;stroke-width:10;stroke-linecap:butt;stroke-linejoin:round;stroke-miterlimit:4;stroke-dasharray:none;stroke-opacity:1"
       inkscape:connector-curvature="0"
       id="path6172"
       d="m 250,559.64416 -9.848,1.736 -9.848,1.737 -9.848,1.736 -9.848,1.736 -9.848,1.737 -9.848,1.736 -9.849,1.737 -9.848,1.736 -4.23,0.746 -8.66,5 -8.66,5 -8.66,5 -8.661,5 -8.66,5 -8.66,5 -8.66,5 -8.661,5 -3.719,2.148 -6.428,7.66 -6.428,7.661 -6.428,7.66 -6.428,7.661 -6.428,7.66 -6.428,7.661 -6.428,7.66 -6.427,7.66 -2.761,3.291 -3.421,9.397 -3.42,9.397 -3.42,9.397 -3.42,9.396 -3.42,9.397 -3.421,9.397 -3.42,9.397 -3.42,9.397 -1.469,4.036 0,10 0,10 0,10 0,10 0,10 0,10 0,10 0,10 0,4.296 3.42,9.397 3.42,9.396 3.421,9.397 3.42,9.397 3.42,9.397 3.42,9.397 3.42,9.397 3.421,9.397 1.469,4.036 6.428,7.661 6.427,7.66 6.428,7.661 6.428,7.66 6.428,7.66 6.428,7.661 6.428,7.66 6.428,7.661 2.761,3.29 8.66,5 8.66,5 8.66,5.00004 8.661,5 8.66,5 8.66,5 8.66,5 8.661,5 3.719,2.148 9.848,1.736 9.849,1.737 9.848,1.736 9.848,1.737 9.848,1.736 9.848,1.737 9.848,1.736 9.848,1.737 4.23,0.745 9.848,-1.736 9.848,-1.737 9.848,-1.736 9.848,-1.736 9.848,-1.737 9.848,-1.736 9.849,-1.737 9.848,-1.736 4.23,-0.746 8.66,-5 8.66,-5 8.66,-5 8.661,-5 8.66,-5 8.66,-5 8.66,-5.00004 8.661,-5 3.719,-2.148 6.428,-7.66 6.428,-7.661 6.428,-7.66 6.428,-7.661 6.428,-7.66 6.428,-7.66 6.428,-7.661 6.427,-7.66 2.761,-3.291 3.421,-9.397 3.42,-9.397 3.42,-9.396 3.42,-9.397 3.42,-9.397 3.421,-9.397 3.42,-9.397 3.42,-9.397 1.469,-4.036 0,-10 0,-10 0,-10 0,-10 0,-10 0,-10 0,-10 0,-10 0,-4.295 -3.42,-9.397 -3.42,-9.397 -3.421,-9.397 -3.42,-9.397 -3.42,-9.397 -3.42,-9.397 -3.42,-9.397 -3.421,-9.397 -1.469,-4.036 -6.427,-7.661 -6.428,-7.66 -6.428,-7.66 -6.428,-7.661 -6.428,-7.66 -6.428,-7.661 -6.428,-7.66 -6.428,-7.661 -2.76,-3.29 -8.661,-5 -8.66,-5 -8.66,-5 -8.66,-5 -8.661,-5 -8.66,-5 -8.66,-5 -8.66,-5 -3.72,-2.148 -9.848,-1.736 -9.848,-1.737 -9.848,-1.736 -9.849,-1.737 -9.848,-1.736 -9.848,-1.737 -9.848,-1.736 -9.848,-1.737 -4.23,-0.745 z"
       sodipodi:nodetypes="cccccccccccccccccccccccccccccccccccccccccccccccccccccccccccccccccccccccccccccccccccccccccccccccccccccccccccccccccccccccccccccccccccccccccccccccccccccccccccccccccccc"
       transform="translate(0,-552.36216)" />
  </g>
  <g
     inkscape:groupmode="layer"
     id="layer6"
     inkscape:label="details"
     sodipodi:insensitive="true">
    <path
       style="fill:url(#radialGradient6181);fill-opacity:1;fill-rule:evenodd;stroke:none;stroke-width:1.35399997;stroke-linecap:butt;stroke-linejoin:miter;stroke-miterlimit:4;stroke-dasharray:none;stroke-opacity:1;filter:url(#filter9690)"
       d="m 208.77426,188.01265 c -14.9648,11.18699 -12.06323,26.9731 -1.78763,44.47098 4.71757,8.03335 24.00994,9.00661 33.87343,16.69271 9.29305,7.24158 19.44492,3.16412 30.4549,-5.50728 13.45207,-10.59479 26.47888,-11.53992 38.97193,-9.83637 12.49305,1.70356 24.45235,6.05581 35.7694,6.05581 34.05237,0 46.56364,-36.0448 50.62775,-52.07675 4.00005,-15.77927 -26.93746,-20.40366 -19.1406,-43.4213 8.65898,-25.56277 28.07799,-44.39398 19.59467,-54.16511 -4.24166,-4.88556 -26.25941,-24.49401 -49.32477,-41.005484 -6.97349,-4.992012 -43.78617,-9.571619 -48.59393,-2.2687 -15.58235,23.669354 24.57389,40.656104 4.8629,50.605264 -20.46192,10.32819 -28.05218,49.62987 -42.09897,50.39483 -32.41334,1.76514 -36.14894,27.30804 -53.20908,40.0614 z"
       id="path6168"
       inkscape:connector-curvature="0"
       sodipodi:nodetypes="ssssssssssssss" />
    <path
       sodipodi:nodetypes="sssssssss"
       inkscape:connector-curvature="0"
       id="path6183"
       d="m 44.48855,372.29837 c 9.996887,15.78468 20.741865,33.31374 75.35523,78.04241 14.41475,11.80576 47.45792,31.28205 67.18547,10.47114 9.86377,-10.40545 -20.28364,-35.66585 -32.90663,-38.51554 -20.07877,-4.53286 -15.80275,-29.75571 -28.77528,-33.35089 -14.09651,-3.90667 -21.25905,-7.97187 -32.424619,-65.24847 -3.900494,-20.00857 -14.856152,-13.15227 -38.587311,-18.99287 -15.760376,-3.87887 -13.897588,13.21041 -25.06203,21.5912 -10.071336,7.56024 1.724935,24.70248 15.21517,46.00302 z"
       style="fill:url(#radialGradient6185);fill-opacity:1;fill-rule:evenodd;stroke:none;stroke-width:1.35399997;stroke-linecap:butt;stroke-linejoin:miter;stroke-miterlimit:4;stroke-dasharray:none;stroke-opacity:1;filter:url(#filter9694)" />
    <path
       style="fill:url(#radialGradient6189);fill-opacity:1;fill-rule:evenodd;stroke:none;stroke-width:1.35399997;stroke-linecap:butt;stroke-linejoin:miter;stroke-miterlimit:4;stroke-dasharray:none;stroke-opacity:1;filter:url(#filter9698)"
       d="m 43.381226,287.21099 c 9.133059,-1.00429 16.348695,3.95194 24.16356,4.33102 7.814865,0.37908 17.531611,-0.85481 21.350404,-4.26476 7.637584,-6.81991 -4.392885,-23.57968 -4.392885,-23.57968 -12.543017,-16.06952 6.357051,-20.47587 -17.374108,-26.31647 -15.760376,-3.87887 -11.877283,2.85634 -23.041725,11.23713 -10.071336,7.56024 -11.503564,39.78017 -0.705246,38.59276 z"
       id="path6187"
       inkscape:connector-curvature="0"
       sodipodi:nodetypes="sssssss" />
    <path
       sodipodi:nodetypes="szsssss"
       inkscape:connector-curvature="0"
       id="path6191"
       d="m 48.272803,211.68422 c -1.826161,-9.00481 2.799551,-16.80629 2.127944,-24.45624 -0.671604,-7.64994 -8.635011,-11.60732 -15.423518,4.50853 -3.394255,8.05793 -1.202177,11.35668 -1.581375,14.35204 -0.379197,2.99535 -3.32967,5.68731 -2.361813,9.5012 1.548807,6.10315 6.39828,7.78844 10.59066,6.61711 4.19238,-1.17134 7.727667,-5.1993 6.648102,-10.52264 z"
       style="fill:url(#radialGradient6193);fill-opacity:1;fill-rule:evenodd;stroke:none;stroke-width:1.35399997;stroke-linecap:butt;stroke-linejoin:miter;stroke-miterlimit:4;stroke-dasharray:none;stroke-opacity:1;filter:url(#filter9702)" />
    <path
       style="fill:url(#radialGradient6197);fill-opacity:1;fill-rule:evenodd;stroke:none;stroke-width:1.35399997;stroke-linecap:butt;stroke-linejoin:miter;stroke-miterlimit:4;stroke-dasharray:none;stroke-opacity:1;filter:url(#filter9706)"
       d="m 68.550409,176.54918 c -1.164277,7.0707 -9.920532,9.54455 -7.559277,14.08716 4.722511,9.08526 14.880939,7.68379 16.546645,-1.20295 1.665706,-8.88677 9.692602,-3.15391 5.453817,-16.71621 -4.238782,-13.56229 -13.27691,-3.23869 -14.441185,3.832 z"
       id="path6195"
       inkscape:connector-curvature="0"
       sodipodi:nodetypes="zszzz"
       inkscape:transform-center-x="-0.79848524"
       inkscape:transform-center-y="-0.57323397" />
    <path
       inkscape:transform-center-y="-0.57323397"
       inkscape:transform-center-x="-0.79848524"
       sodipodi:nodetypes="zszz"
       inkscape:connector-curvature="0"
       id="path6199"
       d="m 46.407552,161.01346 c -6.057082,2.19024 -4.909624,5.96042 -1.662703,9.91874 3.775493,4.60271 10.539043,-0.20621 10.828642,-5.24881 0.2896,-5.04261 -3.108857,-6.86017 -9.165939,-4.66993 z"
       style="fill:url(#radialGradient6201);fill-opacity:1;fill-rule:evenodd;stroke:none;stroke-width:1.35399997;stroke-linecap:butt;stroke-linejoin:miter;stroke-miterlimit:4;stroke-dasharray:none;stroke-opacity:1;filter:url(#filter9710)" />
    <path
       sodipodi:nodetypes="ssszsss"
       inkscape:connector-curvature="0"
       id="path6203"
       d="m 387.3098,412.21099 c -7.29353,5.58801 3.13441,13.23766 10.94927,13.61674 7.81487,0.37908 23.60304,-18.35481 27.42184,-21.76476 7.63758,-6.81991 11.16433,-35.18778 9.89282,-45.72254 -1.27151,-10.53476 -8.53042,-1.11056 -22.73125,-1.31647 -18.36031,-0.26623 -8.30585,23.21348 -19.47029,31.59427 -10.07134,7.56024 1.71071,17.63731 -6.06239,23.59276 z"
       style="fill:url(#radialGradient6205);fill-opacity:1;fill-rule:evenodd;stroke:none;stroke-width:1.35399997;stroke-linecap:butt;stroke-linejoin:miter;stroke-miterlimit:4;stroke-dasharray:none;stroke-opacity:1;filter:url(#filter9714)" />
    <path
       style="fill:url(#radialGradient6209);fill-opacity:1;fill-rule:evenodd;stroke:none;stroke-width:1.35399997;stroke-linecap:butt;stroke-linejoin:miter;stroke-miterlimit:4;stroke-dasharray:none;stroke-opacity:1;filter:url(#filter9718)"
       d="m 273.0535,379.09127 c -2.0907,10.94754 8.13014,21.6306 28.31405,21.21341 19.11792,-0.39514 24.23347,-18.14616 40.61293,-11.63799 9.60853,3.81783 16.51425,-6.21909 25.73867,-7.17098 9.68914,-0.99986 15.12641,-8.72491 17.37033,-16.09353 2.24392,-7.36863 -6.12698,-10.43699 -8.63237,-19.32246 -2.50539,-8.88547 0.85473,-23.58803 -5.76418,-24.9306 -9.00807,-1.82718 -18.92399,9.22631 -26.90015,11.06156 -12.02696,2.76729 -24.61918,-8.07313 -31.42405,-7.88242 -16.84265,0.47203 -12.11059,7.82419 -22.21908,14.23244 -20.21699,12.81651 -13.70909,22.79479 -17.09615,40.53057 z"
       id="path6207"
       inkscape:connector-curvature="0"
       sodipodi:nodetypes="sssssssssss" />
  </g>
  <g
     inkscape:groupmode="layer"
     id="layer7"
     inkscape:label="base_shading"
     style="display:inline"
     sodipodi:insensitive="true">
    <path
       transform="translate(0,-552.36216)"
       sodipodi:nodetypes="cccccccccccccccccccccccccccccccccccccccccccccccccccccccccccccccccccccccccccccccccccccccccccccccccccccccccccccccccccccccccccccccccccccccccccccccccccccccccccccccccccc"
       d="m 250,559.64416 -9.848,1.736 -9.848,1.737 -9.848,1.736 -9.848,1.736 -9.848,1.737 -9.848,1.736 -9.849,1.737 -9.848,1.736 -4.23,0.746 -8.66,5 -8.66,5 -8.66,5 -8.661,5 -8.66,5 -8.66,5 -8.66,5 -8.661,5 -3.719,2.148 -6.428,7.66 -6.428,7.661 -6.428,7.66 -6.428,7.661 -6.428,7.66 -6.428,7.661 -6.428,7.66 -6.427,7.66 -2.761,3.291 -3.421,9.397 -3.42,9.397 -3.42,9.397 -3.42,9.396 -3.42,9.397 -3.421,9.397 -3.42,9.397 -3.42,9.397 -1.469,4.036 0,10 0,10 0,10 0,10 0,10 0,10 0,10 0,10 0,4.296 3.42,9.397 3.42,9.396 3.421,9.397 3.42,9.397 3.42,9.397 3.42,9.397 3.42,9.397 3.421,9.397 1.469,4.036 6.428,7.661 6.427,7.66 6.428,7.661 6.428,7.66 6.428,7.66 6.428,7.661 6.428,7.66 6.428,7.661 2.761,3.29 8.66,5 8.66,5 8.66,5.00004 8.661,5 8.66,5 8.66,5 8.66,5 8.661,5 3.719,2.148 9.848,1.736 9.849,1.737 9.848,1.736 9.848,1.737 9.848,1.736 9.848,1.737 9.848,1.736 9.848,1.737 4.23,0.745 9.848,-1.736 9.848,-1.737 9.848,-1.736 9.848,-1.736 9.848,-1.737 9.848,-1.736 9.849,-1.737 9.848,-1.736 4.23,-0.746 8.66,-5 8.66,-5 8.66,-5 8.661,-5 8.66,-5 8.66,-5 8.66,-5.00004 8.661,-5 3.719,-2.148 6.428,-7.66 6.428,-7.661 6.428,-7.66 6.428,-7.661 6.428,-7.66 6.428,-7.66 6.428,-7.661 6.427,-7.66 2.761,-3.291 3.421,-9.397 3.42,-9.397 3.42,-9.396 3.42,-9.397 3.42,-9.397 3.421,-9.397 3.42,-9.397 3.42,-9.397 1.469,-4.036 0,-10 0,-10 0,-10 0,-10 0,-10 0,-10 0,-10 0,-10 0,-4.295 -3.42,-9.397 -3.42,-9.397 -3.421,-9.397 -3.42,-9.397 -3.42,-9.397 -3.42,-9.397 -3.42,-9.397 -3.421,-9.397 -1.469,-4.036 -6.427,-7.661 -6.428,-7.66 -6.428,-7.66 -6.428,-7.661 -6.428,-7.66 -6.428,-7.661 -6.428,-7.66 -6.428,-7.661 -2.76,-3.29 -8.661,-5 -8.66,-5 -8.66,-5 -8.66,-5 -8.661,-5 -8.66,-5 -8.66,-5 -8.66,-5 -3.72,-2.148 -9.848,-1.736 -9.848,-1.737 -9.848,-1.736 -9.849,-1.737 -9.848,-1.736 -9.848,-1.737 -9.848,-1.736 -9.848,-1.737 -4.23,-0.745 z"
       id="path6152"
       inkscape:connector-curvature="0"
       style="fill:url(#radialGradient6161);fill-opacity:1;stroke:none;stroke-width:10;stroke-linecap:butt;stroke-linejoin:round;stroke-miterlimit:4;stroke-dasharray:none;stroke-opacity:1" />
  </g>
  <g
     inkscape:label="stroke"
     inkscape:groupmode="layer"
     id="layer1"
     transform="translate(0,-552.36216)"
     style="display:inline"
     sodipodi:insensitive="true">
    <circle
       style="display:inline;fill:none;fill-opacity:1;stroke:#0498f6;stroke-width:6.1891923;stroke-miterlimit:4;stroke-dasharray:none;stroke-opacity:1"
       id="path6164"
       cx="250"
       cy="250"
       r="240.9364"
       transform="translate(0,552.36216)" />
  </g>
</svg>
